<svg width="12" height="96" viewBox="0 0 12 96" fill="none" xmlns="http://www.w3.org/2000/svg">
<path d="M6 84.6669C3.05448 84.6669 0.66667 87.0547 0.66667 90.0002C0.666671 92.9458 3.05449 95.3336 6 95.3336C8.94552 95.3336 11.3333 92.9458 11.3333 90.0002C11.3333 87.0547 8.94552 84.6669 6 84.6669ZM5 3.75024C5 4.30253 5.44772 4.75024 6 4.75024C6.55228 4.75024 7 4.30253 7 3.75024L5 3.75024ZM7 11.2502C7 10.698 6.55229 10.2502 6 10.2502C5.44772 10.2502 5 10.698 5 11.2502L7 11.2502ZM5 18.7502C5 19.3025 5.44772 19.7502 6 19.7502C6.55229 19.7502 7 19.3025 7 18.7502L5 18.7502ZM7 26.2502C7 25.698 6.55229 25.2502 6 25.2502C5.44772 25.2502 5 25.698 5 26.2502L7 26.2502ZM5 33.7502C5 34.3025 5.44772 34.7502 6 34.7502C6.55229 34.7502 7 34.3025 7 33.7502L5 33.7502ZM7 41.2502C7 40.698 6.55229 40.2502 6 40.2502C5.44772 40.2502 5 40.698 5 41.2502L7 41.2502ZM5 48.7502C5 49.3025 5.44772 49.7502 6 49.7502C6.55229 49.7502 7 49.3025 7 48.7502L5 48.7502ZM7 56.2502C7 55.698 6.55229 55.2502 6 55.2502C5.44772 55.2502 5 55.698 5 56.2502L7 56.2502ZM5 63.7502C5 64.3025 5.44772 64.7502 6 64.7502C6.55229 64.7502 7 64.3025 7 63.7502L5 63.7502ZM7 71.2502C7 70.698 6.55229 70.2502 6 70.2502C5.44772 70.2502 5 70.698 5 71.2502L7 71.2502ZM5 78.7502C5 79.3025 5.44772 79.7502 6 79.7502C6.55229 79.7502 7 79.3025 7 78.7502L5 78.7502ZM7 86.2502C7 85.698 6.55229 85.2502 6 85.2502C5.44772 85.2502 5 85.698 5 86.2502L7 86.2502ZM5 0.000244184L5 3.75024L7 3.75024L7 0.000244097L5 0.000244184ZM5 11.2502L5 18.7502L7 18.7502L7 11.2502L5 11.2502ZM5 26.2502L5 33.7502L7 33.7502L7 26.2502L5 26.2502ZM5 41.2502L5 48.7502L7 48.7502L7 41.2502L5 41.2502ZM5 56.2502L5 63.7502L7 63.7502L7 56.2502L5 56.2502ZM5 71.2502L5 78.7502L7 78.7502L7 71.2502L5 71.2502ZM5 86.2502L5 90.0002L7 90.0002L7 86.2502L5 86.2502ZM6 84.6669C3.05448 84.6669 0.66667 87.0547 0.66667 90.0002C0.666671 92.9458 3.05449 95.3336 6 95.3336C8.94552 95.3336 11.3333 92.9458 11.3333 90.0002C11.3333 87.0547 8.94552 84.6669 6 84.6669ZM5 3.75024C5 4.30253 5.44772 4.75024 6 4.75024C6.55228 4.75024 7 4.30253 7 3.75024L5 3.75024ZM7 11.2502C7 10.698 6.55229 10.2502 6 10.2502C5.44772 10.2502 5 10.698 5 11.2502L7 11.2502ZM5 18.7502C5 19.3025 5.44772 19.7502 6 19.7502C6.55229 19.7502 7 19.3025 7 18.7502L5 18.7502ZM7 26.2502C7 25.698 6.55229 25.2502 6 25.2502C5.44772 25.2502 5 25.698 5 26.2502L7 26.2502ZM5 33.7502C5 34.3025 5.44772 34.7502 6 34.7502C6.55229 34.7502 7 34.3025 7 33.7502L5 33.7502ZM7 41.2502C7 40.698 6.55229 40.2502 6 40.2502C5.44772 40.2502 5 40.698 5 41.2502L7 41.2502ZM5 48.7502C5 49.3025 5.44772 49.7502 6 49.7502C6.55229 49.7502 7 49.3025 7 48.7502L5 48.7502ZM7 56.2502C7 55.698 6.55229 55.2502 6 55.2502C5.44772 55.2502 5 55.698 5 56.2502L7 56.2502ZM5 63.7502C5 64.3025 5.44772 64.7502 6 64.7502C6.55229 64.7502 7 64.3025 7 63.7502L5 63.7502ZM7 71.2502C7 70.698 6.55229 70.2502 6 70.2502C5.44772 70.2502 5 70.698 5 71.2502L7 71.2502ZM5 78.7502C5 79.3025 5.44772 79.7502 6 79.7502C6.55229 79.7502 7 79.3025 7 78.7502L5 78.7502ZM7 86.2502C7 85.698 6.55229 85.2502 6 85.2502C5.44772 85.2502 5 85.698 5 86.2502L7 86.2502ZM5 0.000244184L5 3.75024L7 3.75024L7 0.000244097L5 0.000244184ZM5 11.2502L5 18.7502L7 18.7502L7 11.2502L5 11.2502ZM5 26.2502L5 33.7502L7 33.7502L7 26.2502L5 26.2502ZM5 41.2502L5 48.7502L7 48.7502L7 41.2502L5 41.2502ZM5 56.2502L5 63.7502L7 63.7502L7 56.2502L5 56.2502ZM5 71.2502L5 78.7502L7 78.7502L7 71.2502L5 71.2502ZM5 86.2502L5 90.0002L7 90.0002L7 86.2502L5 86.2502Z" fill="url(#paint0_linear_175_1725)"/>
<defs>
<linearGradient id="paint0_linear_175_1725" x1="5.5" y1="90.0002" x2="5.5" y2="0.000244162" gradientUnits="userSpaceOnUse">
<stop stop-color="#D8F2FC"/>
<stop offset="1" stop-color="#D8F2FC" stop-opacity="0"/>
</linearGradient>
</defs>
</svg>
