<svg width="48" height="48" viewBox="0 0 48 48" fill="none" xmlns="http://www.w3.org/2000/svg">
<g clip-path="url(#clip0_175_1803)">
<mask id="mask0_175_1803" style="mask-type:luminance" maskUnits="userSpaceOnUse" x="0" y="0" width="47" height="47">
<path d="M23.3321 46.7401C36.0229 46.9504 46.48 36.7582 46.6887 23.9753C46.8975 11.1924 36.7788 0.659347 24.0881 0.449081C11.3974 0.238814 0.940272 10.431 0.731521 23.2139C0.522771 35.9968 10.6414 46.5298 23.3321 46.7401Z" fill="white"/>
</mask>
<g mask="url(#mask0_175_1803)">
<path d="M48.0001 1.07812C48.0001 2.05331 47.9492 3.0285 47.7453 4.00368C47.6434 4.46561 47.4906 4.92754 47.3887 5.4408C47.2867 5.90273 47.1848 6.36466 47.1339 6.87791C47.032 7.8531 46.981 8.77696 47.032 9.75215C47.0829 10.7273 47.2358 11.6512 47.4396 12.5751C47.5415 13.037 47.6434 13.5502 47.7453 14.0122C47.7963 14.5254 47.8473 14.9874 47.8473 15.5006C47.8473 16.4758 47.8473 17.451 47.6944 18.4775C47.6434 18.9907 47.5415 19.4527 47.3887 19.9146C47.2867 20.3765 47.1339 20.8385 47.032 21.3004C46.8281 22.2243 46.7262 23.1994 46.7262 24.1233C46.7262 25.0985 46.7262 26.0224 46.9301 26.9462C47.032 27.4081 47.1339 27.8701 47.2358 28.3833C47.3377 28.8453 47.4396 29.3585 47.4396 29.8718C47.5415 30.847 47.4906 31.8221 47.4396 32.8486C47.3887 33.3619 47.3377 33.8238 47.2358 34.3371C47.1339 34.799 46.981 35.3123 46.8791 35.7742C46.5734 36.6981 46.4205 37.6219 46.3186 38.5971C46.2167 39.5723 46.2167 40.5475 46.2676 41.4713C46.3186 41.9333 46.3695 42.4465 46.4715 42.9085C46.5734 43.3704 46.6753 43.8836 46.7262 44.3456C46.9301 45.2694 46.981 46.2446 46.9301 47.2198L46.8791 47.2198C46.8791 46.2446 46.8791 45.2694 46.6753 44.2943C46.5734 43.8323 46.4715 43.3704 46.3695 42.8571C46.2676 42.3952 46.1657 41.882 46.1148 41.42C46.0129 40.4448 46.0129 39.4697 46.1148 38.4945C46.1657 37.5193 46.3695 36.5441 46.6243 35.6202C46.8791 34.6964 47.0829 33.7212 47.1339 32.746C47.1848 31.7708 47.2358 30.7956 47.1339 29.8204C47.0829 29.3585 46.981 28.8453 46.8791 28.3833C46.7772 27.9214 46.6753 27.4595 46.5734 26.9462C46.4715 26.0737 46.4205 25.0985 46.4205 24.1233C46.4205 23.1481 46.5224 22.1729 46.7772 21.2491C46.8791 20.7871 47.032 20.3252 47.1339 19.8633C47.2358 19.4014 47.3887 18.9394 47.4396 18.4262C47.5925 17.451 47.5925 16.4758 47.5925 15.5006C47.5925 14.5254 47.4396 13.5502 47.1848 12.6264C46.981 11.6512 46.8281 10.7273 46.8281 9.75215C46.8281 8.77696 46.8281 7.80177 46.981 6.82659C47.032 6.36466 47.1339 5.8514 47.2867 5.38947C47.3887 4.92754 47.5415 4.46561 47.6434 3.95236C47.8473 3.0285 47.9492 2.05331 48.0001 1.07812Z" fill="white" fill-opacity="0.33"/>
<path d="M46.7262 1.07812C46.7262 2.05331 46.6752 3.0285 46.4714 3.95236C46.3695 4.41429 46.2676 4.92754 46.1147 5.38947C46.0128 5.8514 45.9109 6.31333 45.86 6.82659C45.758 7.80177 45.7071 8.72563 45.758 9.70082C45.809 10.676 45.9619 11.5999 46.1657 12.5237C46.2676 12.9857 46.3695 13.4989 46.4714 13.9608C46.5224 14.4741 46.5733 14.936 46.5733 15.4493C46.5733 16.4245 46.5733 17.3997 46.4205 18.4262C46.3695 18.9394 46.2676 19.4014 46.1147 19.8633C46.0128 20.3252 45.86 20.7871 45.758 21.2491C45.5542 22.1729 45.4523 23.1481 45.4523 24.072C45.4523 25.0472 45.4523 25.971 45.6561 26.8949C45.758 27.3568 45.86 27.8187 45.9619 28.332C46.0638 28.7939 46.1657 29.3072 46.1657 29.8204C46.2676 30.7956 46.2166 31.7708 46.1657 32.7973C46.1147 33.3106 46.0638 33.7725 45.9619 34.2858C45.86 34.7477 45.7071 35.261 45.6052 35.7229C45.2994 36.6467 45.1466 37.5706 45.0447 38.5458C44.9428 39.521 44.9428 40.4962 44.9937 41.42C45.0447 41.882 45.0956 42.3952 45.1975 42.8571C45.2994 43.3191 45.4014 43.8323 45.4523 44.2943C45.6052 45.2694 45.6052 46.2446 45.6052 47.2198L45.5542 47.2198C45.5542 46.2446 45.5542 45.2694 45.3504 44.2943C45.2485 43.8323 45.1466 43.3704 45.0447 42.8571C44.9428 42.3952 44.8408 41.882 44.7899 41.42C44.688 40.4448 44.688 39.4697 44.7899 38.4945C44.8408 37.5193 45.0447 36.5441 45.2994 35.6202C45.5542 34.6964 45.758 33.7212 45.809 32.746C45.86 31.7708 45.9109 30.7956 45.809 29.8204C45.758 29.3585 45.6561 28.8453 45.5542 28.3833C45.4523 27.9214 45.3504 27.4595 45.2485 26.9462C45.0447 25.971 45.0447 24.9958 45.0447 24.0207C45.0447 23.0455 45.1466 22.0703 45.4014 21.1464C45.5033 20.6845 45.6561 20.2226 45.758 19.7606C45.86 19.2987 46.0128 18.8368 46.0638 18.3235C46.2166 17.3483 46.2166 16.3731 46.2166 15.398C46.2166 14.4228 46.0638 13.4476 45.809 12.5237C45.5542 11.5999 45.4523 10.6247 45.4014 9.64949C45.4014 8.67431 45.4014 7.69912 45.5542 6.72394C45.6052 6.26201 45.7071 5.74875 45.86 5.28682C46.1147 4.87622 46.2676 4.41429 46.3695 3.95236C46.5733 2.97717 46.6752 2.05331 46.7262 1.07812Z" fill="white" fill-opacity="0.33"/>
<path d="M45.4524 1.02637C45.4524 2.00155 45.4014 2.97674 45.1976 3.95192C45.0957 4.41385 44.9428 4.87578 44.8409 5.33771C44.739 5.79964 44.6371 6.26157 44.5862 6.77483C44.4333 7.75002 44.4333 8.7252 44.4842 9.64906C44.5352 10.6242 44.6881 11.5481 44.8919 12.472C44.9938 12.9339 45.0957 13.4472 45.1976 13.9091C45.2486 14.4223 45.2995 14.8843 45.2995 15.3975C45.2995 16.3727 45.2995 17.3479 45.1467 18.3744C45.0957 18.8877 44.9938 19.3496 44.8409 19.8115C44.739 20.2735 44.5861 20.7354 44.4842 21.1973C44.2804 22.1212 44.1785 23.0964 44.1785 24.0202C44.1785 24.9954 44.1785 25.9193 44.3823 26.8431C44.4842 27.3051 44.5861 27.767 44.6881 28.2802C44.79 28.7422 44.8919 29.2554 44.8919 29.7687C44.9938 30.7439 44.9428 31.7191 44.8919 32.7456C44.8409 33.2588 44.79 33.7208 44.6881 34.234C44.5861 34.6959 44.4333 35.2092 44.3314 35.6711C44.0256 36.595 43.8728 37.5188 43.7709 38.494C43.669 39.4692 43.669 40.4444 43.7199 41.3683C43.7709 41.8302 43.8218 42.3434 43.9237 42.8054C44.0256 43.2673 44.1275 43.7806 44.1785 44.2425C44.3823 45.2177 44.4333 46.1929 44.3823 47.1681L44.3314 47.1681C44.3314 46.1929 44.3314 45.2177 44.1275 44.2425C44.0256 43.7806 43.9237 43.3186 43.8218 42.8054C43.7199 42.3434 43.618 41.8302 43.567 41.3683C43.4651 40.3931 43.4651 39.4179 43.567 38.4427C43.618 37.4675 43.8218 36.4923 44.0766 35.5685C44.3314 34.6446 44.5352 33.6694 44.5861 32.6942C44.6371 31.7191 44.6881 30.7439 44.5861 29.7687C44.5352 29.3068 44.4333 28.7935 44.3314 28.3316C44.2295 27.8696 44.1276 27.4077 44.0256 26.8945C43.8218 25.9193 43.8218 24.9441 43.8218 23.9689C43.8218 22.9937 43.9237 22.0185 44.1785 21.0947C44.2804 20.6327 44.4333 20.1708 44.5352 19.7089C44.6371 19.2469 44.79 18.785 44.8409 18.2718C44.9938 17.2966 44.9938 16.3214 44.9938 15.3462C44.9938 14.371 44.8409 13.3958 44.5862 12.472C44.3314 11.5481 44.2295 10.5729 44.1785 9.59774C44.1785 8.62255 44.1785 7.64737 44.3314 6.67218C44.3823 6.21025 44.4842 5.69699 44.6371 5.23506C44.8409 4.87578 44.9428 4.41385 45.0957 3.9006C45.2995 2.97674 45.4014 2.00155 45.4524 1.02637Z" fill="white" fill-opacity="0.33"/>
<path d="M44.1785 0.975586C44.1785 1.95077 44.1275 2.92596 43.9237 3.90114C43.8218 4.36307 43.7199 4.87633 43.567 5.33826C43.4651 5.80019 43.3632 6.26212 43.3122 6.77537C43.2103 7.75056 43.1594 8.67442 43.2103 9.64961C43.2613 10.6248 43.4141 11.5487 43.618 12.4725C43.7199 12.9344 43.8218 13.4477 43.9237 13.9096C43.9746 14.4229 44.0256 14.8848 44.0256 15.3981C44.0256 16.3733 44.0256 17.3484 43.8727 18.375C43.8218 18.8882 43.7199 19.3501 43.567 19.8121C43.4651 20.274 43.3122 20.7359 43.2103 21.1979C43.0065 22.1217 42.9046 23.0969 42.9046 24.0208C42.9046 24.9959 42.9046 25.9198 43.1084 26.8437C43.2103 27.3056 43.3122 27.7675 43.4141 28.2808C43.516 28.7427 43.618 29.256 43.618 29.7692C43.7199 30.7444 43.6689 31.7196 43.618 32.7461C43.567 33.2594 43.516 33.7213 43.4141 34.2345C43.3122 34.6965 43.1594 35.2097 43.0574 35.6717C42.7517 36.5955 42.5988 37.5194 42.4969 38.4946C42.395 39.4698 42.395 40.4449 42.446 41.3688C42.4969 41.8307 42.5479 42.344 42.6498 42.8059C42.7517 43.2678 42.8536 43.7811 42.9046 44.243C43.0574 45.2182 43.0574 46.1934 43.0574 47.1686L43.0065 47.1686C43.0065 46.1934 43.0065 45.2182 42.8027 44.243C42.7008 43.7811 42.5988 43.3192 42.4969 42.8059C42.395 42.344 42.2931 41.8307 42.2422 41.3688C42.1402 40.3936 42.1402 39.4184 42.2422 38.4432C42.2931 37.4681 42.4969 36.4929 42.7517 35.569C43.0065 34.6452 43.2103 33.67 43.2613 32.6948C43.4141 31.7709 43.4141 30.7957 43.3122 29.8205C43.2613 29.3586 43.1594 28.8454 43.0574 28.3834C42.9555 27.9215 42.8536 27.4596 42.7517 26.9463C42.5479 25.9711 42.5479 24.9959 42.5479 24.0208C42.5479 23.0456 42.6498 22.0704 42.9046 21.1465C43.0065 20.6846 43.1594 20.2227 43.2613 19.7607C43.3632 19.2988 43.516 18.8369 43.567 18.3236C43.7199 17.3484 43.7199 16.3733 43.7199 15.3981C43.7199 14.4229 43.567 13.4477 43.3122 12.5238C43.0574 11.6 42.9555 10.6248 42.9046 9.64961C42.9046 8.67442 42.9046 7.69923 43.0574 6.72405C43.1084 6.26212 43.2103 5.74886 43.3632 5.28693C43.567 4.825 43.6689 4.36307 43.7708 3.90114C44.0256 2.92596 44.0766 1.95077 44.1785 0.975586Z" fill="white" fill-opacity="0.33"/>
<path d="M42.8536 0.975586C42.8536 1.95077 42.8027 2.92596 42.5989 3.90114C42.4969 4.36307 42.395 4.87633 42.2422 5.33826C42.1403 5.80019 42.0384 6.26212 41.9874 6.77537C41.8855 7.75056 41.8345 8.67442 41.8855 9.64961C41.9364 10.6248 42.0893 11.5487 42.2931 12.4725C42.395 12.9344 42.4969 13.4477 42.5989 13.9096C42.6498 14.4229 42.7008 14.8848 42.7008 15.3981C42.7008 16.3733 42.7008 17.3484 42.5479 18.375C42.4969 18.8882 42.395 19.3501 42.2422 19.8121C42.1403 20.274 41.9874 20.7359 41.8855 21.1979C41.6817 22.1217 41.5798 23.0969 41.5798 24.0208C41.5798 24.9959 41.5798 25.9198 41.7836 26.8437C41.8855 27.3056 41.9874 27.7675 42.0893 28.2808C42.1912 28.7427 42.2931 29.256 42.2931 29.7692C42.395 30.7444 42.3441 31.7196 42.2931 32.7461C42.2422 33.2594 42.1912 33.7213 42.0893 34.2345C41.9874 34.6965 41.8345 35.2097 41.7326 35.6717C41.4269 36.5955 41.274 37.5194 41.1721 38.4946C41.0702 39.4698 41.0702 40.4449 41.1212 41.3688C41.1721 41.8307 41.2231 42.344 41.325 42.8059C41.4269 43.2678 41.5288 43.7811 41.5798 44.243C41.7326 45.2182 41.7326 46.1934 41.7326 47.1686L41.6817 47.1686C41.6817 46.1934 41.6817 45.2182 41.4778 44.243C41.3759 43.7811 41.274 43.3192 41.1721 42.8059C41.0702 42.344 40.9683 41.8307 40.9173 41.3688C40.8154 40.3936 40.8154 39.4184 40.9173 38.4432C40.9683 37.4681 41.1721 36.4929 41.4269 35.569C41.6817 34.6452 41.8855 33.67 41.9364 32.6948C41.9874 31.7196 42.0384 30.7444 41.9364 29.7692C41.8855 29.3073 41.7836 28.794 41.6817 28.3321C41.5798 27.8702 41.4778 27.4082 41.3759 26.895C41.1721 25.9198 41.1721 24.9446 41.1721 23.9694C41.1721 22.9943 41.274 22.0191 41.5288 21.0952C41.6307 20.6333 41.7836 20.1713 41.8855 19.7094C41.9874 19.2475 42.1403 18.7856 42.1912 18.2723C42.3441 17.2971 42.3441 16.3219 42.3441 15.3467C42.3441 14.3716 42.1912 13.3964 41.9364 12.4725C41.6817 11.5487 41.5798 10.5735 41.5288 9.59828C41.5288 8.62309 41.5288 7.64791 41.6817 6.67272C41.7326 6.21079 41.8345 5.69754 41.9874 5.23561C42.0893 4.77368 42.2422 4.31175 42.3441 3.84982C42.7517 2.92596 42.8027 1.95077 42.8536 0.975586Z" fill="white" fill-opacity="0.33"/>
<path d="M41.5797 0.923828C41.5797 1.89901 41.5288 2.8742 41.3249 3.84939C41.223 4.31132 41.1211 4.82457 40.9682 5.2865C40.8663 5.74843 40.7644 6.21036 40.7135 6.72362C40.6116 7.6988 40.5606 8.62266 40.6116 9.59785C40.6625 10.573 40.8154 11.4969 41.0192 12.4208C41.1211 12.8827 41.223 13.3959 41.3249 13.8579C41.3759 14.3711 41.4268 14.8331 41.4268 15.3463C41.4268 16.3215 41.4268 17.2967 41.274 18.3232C41.223 18.8364 41.1211 19.2984 40.9682 19.7603C40.8663 20.2222 40.7135 20.6842 40.6116 21.1461C40.4077 22.07 40.3058 23.0451 40.3058 23.969C40.3058 24.9442 40.3058 25.8681 40.5096 26.7919C40.6116 27.2538 40.7135 27.7158 40.8154 28.229C40.9173 28.691 41.0192 29.2042 41.0192 29.7175C41.1211 30.6927 41.0702 31.6678 41.0192 32.6944C40.9682 33.2076 40.9173 33.6695 40.8154 34.1828C40.7135 34.6447 40.5606 35.158 40.4587 35.6199C40.153 36.5438 40.0001 37.4676 39.8982 38.4428C39.7963 39.418 39.7963 40.3932 39.8472 41.317C39.8982 41.779 39.9491 42.2922 40.051 42.7542C40.153 43.2161 40.2549 43.7293 40.3058 44.1913C40.4587 45.1665 40.4587 46.1416 40.4587 47.1168L40.4077 47.1168C40.4077 46.1416 40.4077 45.1665 40.2039 44.1913C40.102 43.7293 40.0001 43.2674 39.8982 42.7542C39.7963 42.2922 39.6944 41.779 39.6434 41.317C39.5415 40.3419 39.5415 39.3667 39.6434 38.3915C39.6944 37.4163 39.8982 36.4411 40.153 35.5173C40.4077 34.5934 40.6116 33.6182 40.6625 32.643C40.7135 31.6678 40.7644 30.6927 40.6625 29.7175C40.6116 29.2555 40.5096 28.7423 40.4077 28.2804C40.3058 27.8184 40.2039 27.3565 40.102 26.8432C39.8982 25.868 39.8982 24.8929 39.8982 23.9177C39.8982 22.9425 40.0001 21.9673 40.2549 21.0434C40.3568 20.5815 40.5096 20.1196 40.6116 19.6577C40.7135 19.1957 40.8663 18.7338 40.9173 18.2205C41.0702 17.2454 41.0702 16.2702 41.0702 15.295C41.0702 14.3198 40.9173 13.3446 40.6625 12.4208C40.4077 11.4969 40.3058 10.5217 40.2549 9.54652C40.2549 8.57134 40.2549 7.59615 40.4077 6.62096C40.4587 6.15903 40.5606 5.64578 40.7135 5.18385C40.8154 4.72192 40.9682 4.25999 41.0702 3.79806C41.4778 2.8742 41.5288 1.89901 41.5797 0.923828Z" fill="white" fill-opacity="0.33"/>
<path d="M40.3058 0.923828C40.3058 1.89901 40.2548 2.8742 40.051 3.84939C39.9491 4.31132 39.8472 4.82457 39.6943 5.2865C39.5924 5.74843 39.4905 6.21036 39.4395 6.72362C39.3376 7.6988 39.2867 8.62266 39.3376 9.59785C39.3886 10.573 39.5415 11.4969 39.7453 12.4208C39.8472 12.8827 39.9491 13.3959 40.051 13.8579C40.102 14.3711 40.1529 14.8331 40.1529 15.3463C40.1529 16.3215 40.1529 17.2967 40.0001 18.3232C39.9491 18.8364 39.8472 19.2984 39.6943 19.7603C39.5924 20.2222 39.4395 20.6842 39.3376 21.1461C39.1338 22.07 39.0319 23.0451 39.0319 23.969C39.0319 24.9442 39.0319 25.8681 39.2357 26.7919C39.3376 27.2538 39.4395 27.7158 39.5415 28.229C39.6434 28.691 39.7453 29.2042 39.7453 29.7175C39.8472 30.6927 39.7962 31.6678 39.7453 32.6944C39.6943 33.2076 39.6434 33.6695 39.5415 34.1828C39.4395 34.6447 39.2867 35.158 39.1848 35.6199C38.879 36.5438 38.7262 37.4676 38.6243 38.4428C38.5223 39.418 38.5223 40.3932 38.5733 41.317C38.6243 41.779 38.6752 42.2922 38.7771 42.7542C38.879 43.2161 38.9809 43.7293 39.0319 44.1913C39.1848 45.1665 39.1848 46.1416 39.1848 47.1168L39.1338 47.1168C39.1338 46.1416 39.1338 45.1665 38.93 44.1913C38.8281 43.7293 38.7262 43.2674 38.6243 42.7542C38.5223 42.2922 38.4204 41.779 38.3695 41.317C38.2676 40.3419 38.2676 39.3667 38.3695 38.3915C38.4204 37.4163 38.6243 36.4411 38.879 35.5173C39.1338 34.5934 39.3376 33.6182 39.3886 32.643C39.4395 31.6678 39.4905 30.6927 39.3886 29.7175C39.3376 29.2555 39.2357 28.7423 39.1338 28.2804C39.0319 27.8184 38.93 27.3565 38.8281 26.8432C38.6243 25.868 38.6243 24.8929 38.6243 23.9177C38.6243 22.9425 38.7262 21.9673 38.9809 21.0434C39.0829 20.5815 39.2357 20.1196 39.3376 19.6577C39.4395 19.1957 39.5924 18.7338 39.6434 18.2205C39.7962 17.2454 39.7962 16.2702 39.7962 15.295C39.7962 14.3198 39.6434 13.3446 39.3886 12.4208C39.1338 11.4969 39.0319 10.5217 38.9809 9.54652C38.9809 8.57134 38.9809 7.59615 39.1338 6.62096C39.1848 6.15903 39.2867 5.64578 39.4395 5.18385C39.5415 4.72192 39.6943 4.25999 39.7962 3.79806C40.1529 2.8742 40.2548 1.89901 40.3058 0.923828Z" fill="white" fill-opacity="0.33"/>
<path d="M39.032 0.87207C39.032 1.84726 38.981 2.82244 38.7772 3.79763C38.6753 4.25956 38.5734 4.77281 38.4205 5.23474C38.3186 5.69667 38.2167 6.1586 38.1657 6.67186C38.0638 7.64704 38.0129 8.5709 38.0638 9.54609C38.1148 10.5213 38.2677 11.4451 38.4715 12.369C38.5734 12.8309 38.6753 13.3442 38.7772 13.8061C38.8282 14.3194 38.8791 14.7813 38.8791 15.2946C38.8791 16.2697 38.8791 17.2449 38.7262 18.2714C38.6753 18.7847 38.5734 19.2466 38.4205 19.7086C38.3186 20.1705 38.1657 20.6324 38.0638 21.0943C37.86 22.0182 37.7581 22.9934 37.7581 23.9172C37.7581 24.8924 37.7581 25.8163 37.9619 26.7402C38.0638 27.2021 38.1657 27.664 38.2676 28.1773C38.3696 28.6392 38.4715 29.1525 38.4715 29.6657C38.5734 30.6409 38.5224 31.6161 38.4715 32.6426C38.4205 33.1558 38.3696 33.6178 38.2676 34.131C38.1657 34.593 38.0129 35.1062 37.911 35.5682C37.6052 36.492 37.4524 37.4159 37.3505 38.3911C37.2485 39.3662 37.2485 40.3414 37.2995 41.2653C37.3505 41.7272 37.4014 42.2405 37.5033 42.7024C37.6052 43.1643 37.7071 43.6776 37.7581 44.1395C37.911 45.1147 37.911 46.0899 37.911 47.0651L37.86 47.0651C37.86 46.0899 37.86 45.1147 37.6562 44.1395C37.5543 43.6776 37.4524 43.2157 37.3505 42.7024C37.2485 42.2405 37.1466 41.7272 37.0957 41.2653C36.9938 40.2901 36.9938 39.3149 37.0957 38.3397C37.1466 37.3645 37.3505 36.3894 37.6052 35.4655C37.86 34.5416 38.0638 33.5665 38.1148 32.5913C38.1657 31.6161 38.2167 30.6409 38.1148 29.6657C38.0638 29.2038 37.9619 28.6905 37.86 28.2286C37.7581 27.7667 37.6562 27.3047 37.5543 26.7915C37.3505 25.8163 37.3505 24.8411 37.3505 23.8659C37.3505 22.8907 37.4524 21.9156 37.7071 20.9917C37.8091 20.5298 37.9619 20.0678 38.0638 19.6059C38.1657 19.144 38.3186 18.682 38.3696 18.1688C38.5224 17.1936 38.5224 16.2184 38.5224 15.2432C38.5224 14.268 38.3696 13.2929 38.1148 12.369C37.86 11.4451 37.7581 10.4699 37.7071 9.49476C37.7071 8.51958 37.7071 7.54439 37.86 6.56921C37.911 6.10728 38.0129 5.59402 38.1657 5.13209C38.2677 4.67016 38.4205 4.20823 38.5224 3.7463C38.8791 2.82244 38.981 1.84726 39.032 0.87207Z" fill="white" fill-opacity="0.33"/>
<path d="M37.7581 0.87207C37.7581 1.84726 37.7071 2.82244 37.5033 3.79763C37.4014 4.25956 37.2995 4.77281 37.1466 5.23474C37.0447 5.69667 36.9428 6.1586 36.8918 6.67186C36.7899 7.64704 36.7389 8.5709 36.7899 9.54609C36.8409 10.5213 36.9937 11.4451 37.1975 12.369C37.2995 12.8309 37.4014 13.3442 37.5033 13.8061C37.5542 14.3194 37.6052 14.7813 37.6052 15.2946C37.6052 16.2697 37.6052 17.2449 37.4523 18.2714C37.4014 18.7847 37.2995 19.2466 37.1466 19.7086C37.0447 20.1705 36.8918 20.6324 36.7899 21.0943C36.5861 22.0182 36.4842 22.9934 36.4842 23.9172C36.4842 24.8924 36.4842 25.8163 36.688 26.7402C36.7899 27.2021 36.8918 27.664 36.9937 28.1773C37.0956 28.6392 37.1975 29.1525 37.1975 29.6657C37.2995 30.6409 37.2485 31.6161 37.1975 32.6426C37.1466 33.1558 37.0956 33.6178 36.9937 34.131C36.8918 34.593 36.7389 35.1062 36.637 35.5682C36.3313 36.492 36.1784 37.4159 36.0765 38.3911C35.9746 39.3662 35.9746 40.3414 36.0256 41.2653C36.0765 41.7272 36.1275 42.2405 36.2294 42.7024C36.3313 43.1643 36.4332 43.6776 36.4842 44.1395C36.637 45.1147 36.637 46.0899 36.637 47.0651L36.5861 47.0651C36.5861 46.0899 36.5861 45.1147 36.3823 44.1395C36.2803 43.6776 36.1784 43.2157 36.0765 42.7024C35.9746 42.2405 35.8727 41.7272 35.8217 41.2653C35.7198 40.2901 35.7198 39.3149 35.8217 38.3397C35.8727 37.3645 36.0765 36.3894 36.3313 35.4655C36.5861 34.5416 36.7899 33.5665 36.8409 32.5913C36.8918 31.6161 36.9428 30.6409 36.8409 29.6657C36.7899 29.2038 36.688 28.6905 36.5861 28.2286C36.4842 27.7667 36.3823 27.3047 36.2803 26.7915C36.0765 25.8163 36.0765 24.8411 36.0765 23.8659C36.0765 22.8907 36.1784 21.9156 36.4332 20.9917C36.5351 20.5298 36.688 20.0678 36.7899 19.6059C36.8918 19.144 37.0447 18.682 37.0956 18.1688C37.2485 17.1936 37.2485 16.2184 37.2485 15.2432C37.2485 14.268 37.0956 13.2929 36.8409 12.369C36.5861 11.4451 36.4842 10.4699 36.4332 9.49476C36.4332 8.51958 36.4332 7.54439 36.5861 6.56921C36.637 6.10728 36.7389 5.59402 36.8918 5.13209C36.9937 4.67016 37.1466 4.20823 37.2485 3.7463C37.6052 2.77112 37.7071 1.79593 37.7581 0.87207Z" fill="white" fill-opacity="0.33"/>
<path d="M36.4843 0.821289C36.4843 1.79647 36.4333 2.77166 36.2295 3.74685C36.1276 4.20878 36.0257 4.72203 35.8728 5.18396C35.7709 5.64589 35.669 6.10782 35.618 6.62108C35.5161 7.59626 35.4651 8.52012 35.5161 9.49531C35.5671 10.4705 35.7199 11.3944 35.9237 12.3182C36.0257 12.7801 36.1276 13.2934 36.2295 13.7553C36.2804 14.2686 36.3314 14.7305 36.3314 15.2438C36.3314 16.219 36.3314 17.1941 36.1785 18.2207C36.1276 18.7339 36.0257 19.1958 35.8728 19.6578C35.7709 20.1197 35.618 20.5816 35.5161 21.0436C35.3123 21.9674 35.2104 22.9426 35.2104 23.8665C35.2104 24.8417 35.2104 25.7655 35.4142 26.6894C35.5161 27.1513 35.618 27.6132 35.7199 28.1265C35.8218 28.5884 35.9237 29.1017 35.9237 29.6149C36.0257 30.5901 35.9747 31.5653 35.9237 32.5918C35.8728 33.1051 35.8218 33.567 35.7199 34.0803C35.618 34.5422 35.4651 35.0554 35.3632 35.5174C35.0575 36.4412 34.9046 37.3651 34.8027 38.3403C34.7008 39.3155 34.7008 40.2906 34.7518 41.2145C34.8027 41.6764 34.8537 42.1897 34.9556 42.6516C35.0575 43.1135 35.1594 43.6268 35.2104 44.0887C35.3632 45.0639 35.3632 46.0391 35.3632 47.0143L35.3123 47.0143C35.3123 46.0391 35.3123 45.0639 35.1085 44.0887C35.0065 43.6268 34.9046 43.1649 34.8027 42.6516C34.7008 42.1897 34.5989 41.6764 34.5479 41.2145C34.446 40.2393 34.446 39.2641 34.5479 38.2889C34.5989 37.3138 34.8027 36.3386 35.0575 35.4147C35.3123 34.4909 35.5161 33.5157 35.5671 32.5405C35.618 31.5653 35.669 30.5901 35.5671 29.6149C35.5161 29.153 35.4142 28.6397 35.3123 28.1778C35.2104 27.7159 35.1085 27.254 35.0065 26.7407C34.8027 25.7655 34.8027 24.7903 34.8027 23.8151C34.8027 22.84 34.9046 21.8648 35.1594 20.9409C35.2613 20.479 35.4142 20.017 35.5161 19.5551C35.618 19.0932 35.7709 18.6313 35.8218 18.118C35.9747 17.1428 35.9747 16.1676 35.9747 15.1924C35.9747 14.2173 35.8218 13.2421 35.5671 12.3182C35.3123 11.3944 35.2104 10.4192 35.1594 9.44398C35.1594 8.4688 35.1594 7.49361 35.3123 6.51843C35.3632 6.0565 35.4651 5.54324 35.618 5.08131C35.7199 4.61938 35.8728 4.15745 35.9747 3.69552C36.3314 2.77166 36.4333 1.79647 36.4843 0.821289Z" fill="white" fill-opacity="0.33"/>
<path d="M35.2103 0.769531C35.2103 1.74472 35.1594 2.7199 34.9555 3.69509C34.8536 4.15702 34.7517 4.67027 34.5989 5.1322C34.497 5.59413 34.395 6.05606 34.3441 6.56932C34.2422 7.54451 34.1912 8.46837 34.2422 9.44355C34.2931 10.4187 34.446 11.3426 34.6498 12.2665C34.7517 12.7284 34.8536 13.2416 34.9555 13.7036C35.0065 14.2168 35.0575 14.6788 35.0575 15.192C35.0575 16.1672 35.0575 17.1424 34.9046 18.1689C34.8536 18.6822 34.7517 19.1441 34.5989 19.606C34.497 20.0679 34.3441 20.5299 34.2422 20.9918C34.0384 21.9157 33.9364 22.8908 33.9364 23.8147C33.9364 24.7899 33.9364 25.7138 34.1403 26.6376C34.2422 27.0995 34.3441 27.5615 34.446 28.0747C34.5479 28.5367 34.6498 29.0499 34.6498 29.5632C34.7517 30.5384 34.7008 31.5135 34.6498 32.5401C34.5989 33.0533 34.5479 33.5152 34.446 34.0285C34.3441 34.4904 34.1912 35.0037 34.0893 35.4656C33.7836 36.3895 33.6307 37.3133 33.5288 38.2885C33.4269 39.2637 33.4269 40.2389 33.4778 41.1627C33.5288 41.6247 33.5798 42.1379 33.6817 42.5999C33.7836 43.0618 33.8855 43.5751 33.9364 44.037C34.0893 45.0122 34.0893 45.9874 34.0893 46.9625L34.0384 46.9625C34.0384 45.9874 34.0384 45.0122 33.8345 44.037C33.7326 43.5751 33.6307 43.1131 33.5288 42.5999C33.4269 42.1379 33.325 41.6247 33.274 41.1627C33.1721 40.1876 33.1721 39.2124 33.274 38.2372C33.325 37.262 33.5288 36.2868 33.7836 35.363C34.0384 34.4391 34.2422 33.4639 34.2931 32.4887C34.3441 31.5135 34.395 30.5384 34.2931 29.5632C34.2422 29.1012 34.1403 28.588 34.0384 28.1261C33.9364 27.6641 33.8345 27.2022 33.7326 26.6889C33.5288 25.7138 33.5288 24.7386 33.5288 23.7634C33.5288 22.7882 33.6307 21.813 33.8855 20.8892C33.9874 20.4272 34.1403 19.9653 34.2422 19.5034C34.3441 19.0414 34.497 18.5795 34.5479 18.0662C34.7008 17.0911 34.7008 16.1159 34.7008 15.1407C34.7008 14.1655 34.5479 13.1903 34.2931 12.2665C34.0384 11.3426 33.9364 10.3674 33.8855 9.39223C33.8855 8.41704 33.8855 7.44185 34.0384 6.46667C34.0893 6.00474 34.1912 5.49148 34.3441 5.02955C34.446 4.56762 34.5989 4.10569 34.7008 3.64376C35.0575 2.7199 35.1594 1.74472 35.2103 0.769531Z" fill="white" fill-opacity="0.33"/>
<path d="M33.9364 0.769531C33.9364 1.74472 33.8854 2.7199 33.6816 3.69509C33.5797 4.15702 33.4778 4.67027 33.3249 5.1322C33.223 5.59413 33.1211 6.05606 33.0702 6.56932C32.9682 7.54451 32.9173 8.46837 32.9682 9.44355C33.0192 10.4187 33.1721 11.3426 33.3759 12.2665C33.4778 12.7284 33.5797 13.2416 33.6816 13.7036C33.7326 14.2168 33.7835 14.6788 33.7835 15.192C33.7835 16.1672 33.7835 17.1424 33.6307 18.1689C33.5797 18.6822 33.4778 19.1441 33.3249 19.606C33.223 20.0679 33.0702 20.5299 32.9682 20.9918C32.7644 21.9157 32.6625 22.8908 32.6625 23.8147C32.6625 24.7899 32.6625 25.7138 32.8663 26.6376C32.9682 27.0995 33.0702 27.5615 33.1721 28.0747C33.274 28.5367 33.3759 29.0499 33.3759 29.5632C33.4778 30.5384 33.4268 31.5135 33.3759 32.5401C33.3249 33.0533 33.274 33.5152 33.1721 34.0285C33.0702 34.4904 32.9173 35.0037 32.8154 35.4656C32.5096 36.3895 32.3568 37.3133 32.2549 38.2885C32.153 39.2637 32.153 40.2389 32.2039 41.1627C32.2549 41.6247 32.3058 42.1379 32.4077 42.5999C32.5096 43.0618 32.6116 43.5751 32.6625 44.037C32.8154 45.0122 32.8154 45.9874 32.8154 46.9625L32.7644 46.9625C32.7644 45.9874 32.7644 45.0122 32.5606 44.037C32.4587 43.5751 32.3568 43.1131 32.2549 42.5999C32.153 42.1379 32.051 41.6247 32.0001 41.1627C31.8982 40.1876 31.8982 39.2124 32.0001 38.2372C32.0511 37.262 32.2549 36.2868 32.5096 35.363C32.7644 34.4391 32.9682 33.4639 33.0192 32.4887C33.0702 31.5135 33.1211 30.5384 33.0192 29.5632C32.9682 29.1012 32.8663 28.588 32.7644 28.1261C32.6625 27.6641 32.5606 27.2022 32.4587 26.6889C32.2549 25.7138 32.2549 24.7386 32.2549 23.7634C32.2549 22.7882 32.3568 21.813 32.6116 20.8892C32.7135 20.4272 32.8663 19.9653 32.9682 19.5034C33.0702 19.0414 33.223 18.5795 33.274 18.0662C33.4268 17.0911 33.4268 16.1159 33.4268 15.1407C33.4268 14.1655 33.274 13.1903 33.0192 12.2665C32.7644 11.3426 32.6625 10.3674 32.6116 9.39223C32.6116 8.41704 32.6116 7.44185 32.7644 6.46667C32.8154 6.00474 32.9173 5.49148 33.0702 5.02955C33.1721 4.56762 33.3249 4.10569 33.4268 3.64376C33.7835 2.7199 33.8345 1.74472 33.9364 0.769531Z" fill="white" fill-opacity="0.33"/>
<path d="M32.6116 0.71875C32.6116 1.69394 32.5606 2.66912 32.3568 3.64431C32.2549 4.10624 32.153 4.61949 32.0001 5.08142C31.8982 5.54335 31.7963 6.00528 31.7453 6.51854C31.6434 7.49372 31.5925 8.41758 31.6434 9.39277C31.6944 10.368 31.8472 11.2918 32.0511 12.2157C32.153 12.6776 32.2549 13.1909 32.3568 13.6528C32.4078 14.166 32.4587 14.628 32.4587 15.1412C32.4587 16.1164 32.4587 17.0916 32.3058 18.1181C32.2549 18.6314 32.153 19.0933 32.0001 19.5552C31.8982 20.0172 31.7453 20.4791 31.6434 20.941C31.4396 21.8649 31.3377 22.8401 31.3377 23.7639C31.3377 24.7391 31.3377 25.663 31.5415 26.5868C31.6434 27.0488 31.7453 27.5107 31.8472 28.0239C31.9492 28.4859 32.0511 28.9991 32.0511 29.5124C32.153 30.4876 32.102 31.4628 32.0511 32.4893C32.0001 33.0025 31.9492 33.4645 31.8472 33.9777C31.7453 34.4396 31.5925 34.9529 31.4906 35.4148C31.1848 36.3387 31.032 37.2625 30.93 38.2377C30.8281 39.2129 30.8281 40.1881 30.8791 41.112C30.93 41.5739 30.981 42.0872 31.0829 42.5491C31.1848 43.011 31.2867 43.5243 31.3377 43.9862C31.4906 44.9614 31.4906 45.9366 31.4906 46.9118L31.4396 46.9118C31.4396 45.9366 31.4396 44.9614 31.2358 43.9862C31.1339 43.5243 31.032 43.0623 30.93 42.5491C30.8281 42.0872 30.7262 41.5739 30.6753 41.112C30.5734 40.1368 30.5734 39.1616 30.6753 38.1864C30.7262 37.2112 30.93 36.236 31.1848 35.3122C31.4396 34.3883 31.6434 33.4131 31.6944 32.4379C31.7453 31.4628 31.7963 30.4876 31.6944 29.5124C31.6434 29.0505 31.5415 28.5372 31.4396 28.0753C31.3377 27.6133 31.2358 27.1514 31.1339 26.6382C30.93 25.663 30.93 24.6878 30.93 23.7126C30.93 22.7374 31.032 21.7622 31.2867 20.8384C31.3886 20.3764 31.5415 19.9145 31.6434 19.4526C31.7453 18.9907 31.8982 18.5287 31.9492 18.0155C32.102 17.0403 32.102 16.0651 32.102 15.0899C32.102 14.1147 31.9492 13.1395 31.6944 12.2157C31.4396 11.2918 31.3377 10.3166 31.2867 9.34144C31.2867 8.36626 31.2867 7.39107 31.4396 6.41589C31.4906 5.95396 31.5925 5.4407 31.7453 4.97877C32.0001 4.56817 32.153 4.10624 32.2549 3.59298C32.5097 2.66912 32.5606 1.69394 32.6116 0.71875Z" fill="white" fill-opacity="0.33"/>
<path d="M31.3378 0.71875C31.3378 1.69394 31.2868 2.66912 31.083 3.64431C30.9811 4.10624 30.8792 4.61949 30.7263 5.08142C30.6244 5.54335 30.5225 6.00528 30.4715 6.51854C30.3696 7.49372 30.3187 8.41758 30.3696 9.39277C30.4206 10.368 30.5734 11.2918 30.7773 12.2157C30.8792 12.6776 30.9811 13.1909 31.083 13.6528C31.1339 14.166 31.1849 14.628 31.1849 15.1412C31.1849 16.1164 31.1849 17.0916 31.032 18.1181C30.9811 18.6314 30.8792 19.0933 30.7263 19.5552C30.6244 20.0172 30.4715 20.4791 30.3696 20.941C30.1658 21.8649 30.0639 22.8401 30.0639 23.7639C30.0639 24.7391 30.0639 25.663 30.2677 26.5868C30.3696 27.0488 30.4715 27.5107 30.5734 28.0239C30.6753 28.4859 30.7773 28.9991 30.7773 29.5124C30.8792 30.4876 30.8282 31.4628 30.7773 32.4893C30.7263 33.0025 30.6753 33.4645 30.5734 33.9777C30.4715 34.4396 30.3187 34.9529 30.2167 35.4148C29.911 36.3387 29.7582 37.2625 29.6562 38.2377C29.5543 39.2129 29.5543 40.1881 29.6053 41.112C29.6562 41.5739 29.7072 42.0872 29.8091 42.5491C29.911 43.011 30.0129 43.5243 30.0639 43.9862C30.2167 44.9614 30.2167 45.9366 30.2167 46.9118L30.1658 46.9118C30.1658 45.9366 30.1658 44.9614 29.962 43.9862C29.8601 43.5243 29.7582 43.0623 29.6562 42.5491C29.5543 42.0872 29.4524 41.5739 29.4015 41.112C29.2996 40.1368 29.2996 39.1616 29.4015 38.1864C29.4524 37.2112 29.6562 36.236 29.911 35.3122C30.1658 34.3883 30.3696 33.4131 30.4206 32.4379C30.4715 31.4628 30.5225 30.4876 30.4206 29.5124C30.3696 29.0505 30.2677 28.5372 30.1658 28.0753C30.0639 27.6133 29.962 27.1514 29.8601 26.6382C29.6562 25.663 29.6562 24.6878 29.6562 23.7126C29.6562 22.7374 29.7582 21.7622 30.0129 20.8384C30.1148 20.3764 30.2677 19.9145 30.3696 19.4526C30.4715 18.9907 30.6244 18.5287 30.6753 18.0155C30.8282 17.0403 30.8282 16.0651 30.8282 15.0899C30.8282 14.1147 30.6753 13.1395 30.4206 12.2157C30.3187 11.2918 30.1658 10.3166 30.1658 9.34144C30.1658 8.36626 30.1658 7.39107 30.3187 6.41589C30.3696 5.95396 30.4715 5.4407 30.6244 4.97877C30.7263 4.51684 30.8792 4.05491 30.9811 3.59298C31.2359 2.6178 31.2868 1.64261 31.3378 0.71875Z" fill="white" fill-opacity="0.33"/>
<path d="M30.0638 0.666992C30.0638 1.64218 30.0129 2.61736 29.8091 3.59255C29.7072 4.05448 29.6052 4.56773 29.4524 5.02966C29.3505 5.49159 29.2486 5.95353 29.1976 6.46678C29.0957 7.44197 29.0447 8.36583 29.0957 9.34101C29.1466 10.3162 29.2995 11.2401 29.5033 12.1639C29.6052 12.6258 29.7072 13.1391 29.8091 13.601C29.86 14.1143 29.911 14.5762 29.911 15.0895C29.911 16.0647 29.911 17.0398 29.7581 18.0664C29.7072 18.5796 29.6052 19.0415 29.4524 19.5035C29.3505 19.9654 29.1976 20.4273 29.0957 20.8893C28.8919 21.8131 28.79 22.7883 28.79 23.7122C28.79 24.6874 28.79 25.6112 28.9938 26.5351C29.0957 26.997 29.1976 27.4589 29.2995 27.9722C29.4014 28.4341 29.5033 28.9474 29.5033 29.4606C29.6052 30.4358 29.5543 31.411 29.5033 32.4375C29.4524 32.9508 29.4014 33.4127 29.2995 33.926C29.1976 34.3879 29.0447 34.9011 28.9428 35.3631C28.6371 36.2869 28.4842 37.2108 28.3823 38.186C28.2804 39.1612 28.2804 40.1363 28.3314 41.0602C28.3823 41.5221 28.4333 42.0354 28.5352 42.4973C28.6371 42.9593 28.739 43.4725 28.79 43.9344C28.9428 44.9096 28.9428 45.8848 28.9428 46.86L28.8919 46.86C28.8919 45.8848 28.8919 44.9096 28.688 43.9344C28.5861 43.4725 28.4842 43.0106 28.3823 42.4973C28.2804 42.0354 28.1785 41.5221 28.1275 41.0602C28.0256 40.085 28.0256 39.1098 28.1275 38.1347C28.1785 37.1595 28.3823 36.1843 28.6371 35.2604C28.8919 34.3366 29.0957 33.3614 29.1466 32.3862C29.1976 31.411 29.2486 30.4358 29.1466 29.4606C29.0957 28.9987 28.9938 28.4854 28.8919 28.0235C28.79 27.5616 28.688 27.0997 28.5861 26.5864C28.3823 25.6112 28.3823 24.636 28.3823 23.6608C28.3823 22.6857 28.4842 21.7105 28.739 20.7866C28.8409 20.3247 28.9938 19.8628 29.0957 19.4008C29.1976 18.9389 29.3505 18.477 29.4014 17.9637C29.5543 16.9885 29.5543 16.0133 29.5543 15.0381C29.5543 14.063 29.4014 13.0878 29.1466 12.1639C28.8919 11.2401 28.79 10.2649 28.739 9.28969C28.739 8.3145 28.739 7.33931 28.8919 6.36413C28.9428 5.9022 29.0447 5.38894 29.1976 4.92701C29.2995 4.46508 29.4524 4.00315 29.5543 3.54122C29.911 2.61736 30.0129 1.64218 30.0638 0.666992Z" fill="white" fill-opacity="0.33"/>
<path d="M28.7899 0.616211C28.7899 1.5914 28.739 2.56658 28.5351 3.54177C28.4332 4.0037 28.3313 4.51695 28.1785 4.97888C28.0765 5.44081 27.9746 5.90274 27.9237 6.416C27.8218 7.39118 27.7708 8.31504 27.8218 9.29023C27.8727 10.2654 28.0256 11.1893 28.2294 12.1131C28.3313 12.5751 28.4332 13.0883 28.5351 13.5503C28.5861 14.0635 28.6371 14.5254 28.6371 15.0387C28.6371 16.0139 28.6371 16.9891 28.4842 18.0156C28.4332 18.5288 28.3313 18.9908 28.1785 19.4527C28.0765 19.9146 27.9237 20.3766 27.8218 20.8385C27.6179 21.7623 27.516 22.7375 27.516 23.6614C27.516 24.6366 27.516 25.5604 27.7199 26.4843C27.8218 26.9462 27.9237 27.4082 28.0256 27.9214C28.1275 28.3833 28.2294 28.8966 28.2294 29.4098C28.3313 30.385 28.2804 31.3602 28.2294 32.3867C28.1785 32.9 28.1275 33.3619 28.0256 33.8752C27.9237 34.3371 27.7708 34.8504 27.6689 35.3123C27.3632 36.2362 27.2103 37.16 27.1084 38.1352C27.0065 39.1104 27.0065 40.0856 27.0574 41.0094C27.1084 41.4714 27.1593 41.9846 27.2613 42.4465C27.3632 42.9085 27.4651 43.4217 27.516 43.8837C27.6689 44.8588 27.6689 45.834 27.6689 46.8092L27.6179 46.8092C27.6179 45.834 27.6179 44.8588 27.4141 43.8837C27.3122 43.4217 27.2103 42.9598 27.1084 42.4465C27.0065 41.9846 26.9046 41.4714 26.8536 41.0094C26.7517 40.0342 26.7517 39.0591 26.8536 38.0839C26.9046 37.1087 27.1084 36.1335 27.3632 35.2096C27.6179 34.2858 27.8218 33.3106 27.8727 32.3354C27.9237 31.3602 27.9746 30.385 27.8727 29.4098C27.8218 28.9479 27.7199 28.4347 27.6179 27.9727C27.516 27.5108 27.4141 27.0489 27.3122 26.5356C27.1084 25.5604 27.1084 24.5852 27.1084 23.6101C27.1084 22.6349 27.2103 21.6597 27.4651 20.7358C27.567 20.2739 27.7199 19.812 27.8218 19.35C27.9237 18.8881 28.0765 18.4262 28.1275 17.9129C28.2804 16.9377 28.2804 15.9626 28.2804 14.9874C28.2804 14.0122 28.1275 13.037 27.8727 12.1131C27.7708 11.2406 27.6179 10.2654 27.6179 9.29023C27.6179 8.31504 27.6179 7.33986 27.7708 6.36467C27.8218 5.90274 27.9237 5.38949 28.0765 4.92756C28.1785 4.46563 28.3313 4.0037 28.4332 3.54177C28.6371 2.56658 28.739 1.5914 28.7899 0.616211Z" fill="white" fill-opacity="0.33"/>
<path d="M27.516 0.616211C27.516 1.5914 27.465 2.56658 27.2612 3.54177C27.1593 4.0037 27.0574 4.51695 26.9045 4.97888C26.8026 5.44081 26.7007 5.90274 26.6497 6.416C26.5478 7.39118 26.4969 8.31504 26.5478 9.29023C26.5988 10.2654 26.7517 11.1893 26.9555 12.1131C27.0574 12.5751 27.1593 13.0883 27.2612 13.5503C27.3122 14.0635 27.3631 14.5254 27.3631 15.0387C27.3631 16.0139 27.3631 16.9891 27.2103 18.0156C27.1593 18.5288 27.0574 18.9908 26.9045 19.4527C26.8026 19.9146 26.6497 20.3766 26.5478 20.8385C26.344 21.7623 26.2421 22.7375 26.2421 23.6614C26.2421 24.6366 26.2421 25.5604 26.4459 26.4843C26.5478 26.9462 26.6497 27.4082 26.7517 27.9214C26.8536 28.3833 26.9555 28.8966 26.9555 29.4098C27.0574 30.385 27.0064 31.3602 26.9555 32.3867C26.9045 32.9 26.8536 33.3619 26.7517 33.8752C26.6497 34.3371 26.4969 34.8504 26.395 35.3123C26.0892 36.2362 25.9364 37.16 25.8345 38.1352C25.7325 39.1104 25.7326 40.0856 25.7835 41.0094C25.8345 41.4714 25.8854 41.9846 25.9873 42.4465C26.0892 42.9085 26.1911 43.4217 26.2421 43.8837C26.395 44.8588 26.395 45.834 26.395 46.8092L26.344 46.8092C26.344 45.834 26.344 44.8588 26.1402 43.8837C26.0383 43.4217 25.9364 42.9598 25.8345 42.4465C25.7325 41.9846 25.6306 41.4714 25.5797 41.0094C25.4778 40.0342 25.4778 39.0591 25.5797 38.0839C25.6306 37.1087 25.8345 36.1335 26.0892 35.2096C26.344 34.2858 26.5478 33.3106 26.5988 32.3354C26.6497 31.3602 26.7007 30.385 26.5988 29.4098C26.5478 28.9479 26.4459 28.4347 26.344 27.9727C26.2421 27.5108 26.1402 27.0489 26.0383 26.5356C25.8345 25.5604 25.8345 24.5852 25.8345 23.6101C25.8345 22.6349 25.9364 21.6597 26.1911 20.7358C26.2931 20.2739 26.4459 19.812 26.5478 19.35C26.6497 18.8881 26.8026 18.4262 26.8536 17.9129C27.1083 16.9377 27.1083 15.9626 27.1083 14.9874C27.1083 14.0122 26.9555 13.037 26.7007 12.1131C26.4459 11.1893 26.344 10.2141 26.2931 9.2389C26.2931 8.26372 26.2931 7.28853 26.4459 6.31335C26.4969 5.85142 26.5988 5.33816 26.7517 4.87623C26.8536 4.4143 27.0064 3.95237 27.1083 3.49044C27.3631 2.56658 27.465 1.5914 27.516 0.616211Z" fill="white" fill-opacity="0.33"/>
<path d="M26.2422 0.564453C26.2422 1.53964 26.1912 2.51482 25.9874 3.49001C25.8855 3.95194 25.7836 4.4652 25.6307 4.92713C25.5288 5.38906 25.4269 5.85099 25.3759 6.36424C25.274 7.33943 25.2231 8.26329 25.274 9.23847C25.325 10.2137 25.4779 11.1375 25.6817 12.0614C25.7836 12.5233 25.8855 13.0366 25.9874 13.4985C26.0384 14.0118 26.0893 14.4737 26.0893 14.9869C26.0893 15.9621 26.0893 16.9373 25.9365 17.9638C25.8855 18.4771 25.7836 18.939 25.6307 19.4009C25.5288 19.8629 25.3759 20.3248 25.274 20.7867C25.0702 21.7106 24.9683 22.6858 24.9683 23.6096C24.9683 24.5848 24.9683 25.5087 25.1721 26.4325C25.274 26.8945 25.3759 27.3564 25.4779 27.8697C25.5798 28.3316 25.6817 28.8448 25.6817 29.3581C25.7836 30.3333 25.7326 31.3085 25.6817 32.335C25.6307 32.8482 25.5798 33.3102 25.4779 33.8234C25.3759 34.2854 25.2231 34.7986 25.1212 35.2605C24.8154 36.1844 24.6626 37.1083 24.5607 38.0834C24.4587 39.0586 24.4587 40.0338 24.5097 40.9577C24.5607 41.4196 24.6116 41.9329 24.7135 42.3948C24.8154 42.8567 24.9173 43.37 24.9683 43.8319C25.1212 44.8071 25.1212 45.7823 25.1212 46.7575L25.0702 46.7575C25.0702 45.7823 25.0702 44.8071 24.8664 43.8319C24.7645 43.37 24.6626 42.908 24.5607 42.3948C24.4587 41.9329 24.3568 41.4196 24.3059 40.9577C24.204 39.9825 24.204 39.0073 24.3059 38.0321C24.3568 37.0569 24.5607 36.0817 24.8154 35.1579C25.0702 34.234 25.274 33.2588 25.325 32.2837C25.3759 31.3085 25.4269 30.3333 25.325 29.3581C25.274 28.8962 25.1721 28.3829 25.0702 27.921C24.9683 27.4591 24.8664 26.9971 24.7645 26.4839C24.5607 25.5087 24.5607 24.5335 24.5607 23.5583C24.5607 22.5831 24.6626 21.6079 24.9173 20.6841C25.0193 20.2221 25.1721 19.7602 25.274 19.2983C25.3759 18.8364 25.5288 18.3744 25.5798 17.8612C25.7326 16.886 25.7326 15.9108 25.7326 14.9356C25.7326 13.9604 25.5798 12.9852 25.325 12.0614C25.0702 11.1375 24.9683 10.1623 24.9173 9.18715C24.9173 8.21196 24.9173 7.23678 25.0702 6.26159C25.1212 5.79966 25.2231 5.2864 25.3759 4.82447C25.4779 4.36254 25.6307 3.90061 25.7326 3.43868C26.0893 2.51482 26.1912 1.53964 26.2422 0.564453Z" fill="white" fill-opacity="0.33"/>
<path d="M24.9683 0.564453C24.9683 1.53964 24.9173 2.51482 24.7135 3.49001C24.6116 3.95194 24.5097 4.4652 24.3568 4.92713C24.2549 5.38906 24.153 5.85099 24.102 6.36424C24.0001 7.33943 23.9492 8.26329 24.0001 9.23847C24.0511 10.2137 24.2039 11.1375 24.4078 12.0614C24.5097 12.5233 24.6116 13.0366 24.7135 13.4985C24.7644 14.0118 24.8154 14.4737 24.8154 14.9869C24.8154 15.9621 24.8154 16.9373 24.6625 17.9638C24.6116 18.4771 24.5097 18.939 24.3568 19.4009C24.2549 19.8629 24.102 20.3248 24.0001 20.7867C23.7963 21.7106 23.6944 22.6858 23.6944 23.6096C23.6944 24.5848 23.6944 25.5087 23.8982 26.4325C24.0001 26.8945 24.102 27.3564 24.2039 27.8697C24.3058 28.3316 24.4078 28.8448 24.4078 29.3581C24.5097 30.3333 24.4587 31.3085 24.4078 32.335C24.3568 32.8482 24.3058 33.3102 24.2039 33.8234C24.102 34.2854 23.9492 34.7986 23.8472 35.2605C23.5415 36.1844 23.3886 37.1083 23.2867 38.0834C23.1848 39.0586 23.1848 40.0338 23.2358 40.9577C23.2867 41.4196 23.3377 41.9329 23.4396 42.3948C23.5415 42.8567 23.6434 43.37 23.6944 43.8319C23.8472 44.8071 23.8472 45.7823 23.8472 46.7575L23.7963 46.7575C23.7963 45.7823 23.7963 44.8071 23.5925 43.8319C23.4906 43.37 23.3886 42.908 23.2867 42.3948C23.1848 41.9329 23.0829 41.4196 23.032 40.9577C22.93 39.9825 22.93 39.0073 23.032 38.0321C23.0829 37.0569 23.2867 36.0817 23.5415 35.1579C23.7963 34.234 24.0001 33.2588 24.0511 32.2837C24.102 31.3085 24.153 30.3333 24.0511 29.3581C24.0001 28.8962 23.8982 28.3829 23.7963 27.921C23.6944 27.4591 23.5925 26.9971 23.4906 26.4839C23.2867 25.5087 23.2867 24.5335 23.2867 23.5583C23.2867 22.5831 23.3886 21.6079 23.6434 20.6841C23.7453 20.2221 23.8982 19.7602 24.0001 19.2983C24.102 18.8364 24.2549 18.3744 24.3058 17.8612C24.5606 16.886 24.5606 15.9108 24.5606 14.9356C24.5606 13.9604 24.4078 12.9852 24.153 12.0614C23.8982 11.1375 23.7963 10.1623 23.7453 9.18715C23.7453 8.21196 23.7453 7.23678 23.8982 6.26159C23.9492 5.79966 24.0511 5.2864 24.2039 4.82447C24.3058 4.36254 24.4587 3.90061 24.5606 3.43868C24.8154 2.4635 24.9173 1.53964 24.9683 0.564453Z" fill="white" fill-opacity="0.33"/>
<path d="M23.6943 0.513672C23.6943 1.48886 23.6434 2.46404 23.4396 3.43923C23.3376 3.90116 23.2357 4.41441 23.0829 4.87634C22.981 5.33827 22.879 5.8002 22.8281 6.31346C22.7262 7.28865 22.6752 8.21251 22.7262 9.18769C22.7771 10.1629 22.93 11.0867 23.1338 12.0106C23.2357 12.4725 23.3376 12.9858 23.4396 13.4477C23.4905 13.961 23.5415 14.4229 23.5415 14.9362C23.5415 15.9113 23.5415 16.8865 23.3886 17.913C23.3376 18.4263 23.2357 18.8882 23.0829 19.3502C22.981 19.8121 22.8281 20.274 22.7262 20.7359C22.5224 21.6598 22.4204 22.635 22.4204 23.5588C22.4204 24.534 22.4204 25.4579 22.6243 26.3818C22.7262 26.8437 22.8281 27.3056 22.93 27.8189C23.0319 28.2808 23.1338 28.7941 23.1338 29.3073C23.2357 30.2825 23.1848 31.2577 23.1338 32.2842C23.0829 32.7975 23.0319 33.2594 22.93 33.7726C22.8281 34.2346 22.6752 34.7478 22.5733 35.2098C22.2676 36.1336 22.1147 37.0575 22.0128 38.0327C21.9109 39.0078 21.9109 39.983 21.9619 40.9069C22.0128 41.3688 22.0638 41.8821 22.1657 42.344C22.2676 42.8059 22.3695 43.3192 22.4204 43.7811C22.5733 44.7563 22.5733 45.7315 22.5733 46.7067L22.5224 46.7067C22.5224 45.7315 22.5224 44.7563 22.3185 43.7811C22.2166 43.3192 22.1147 42.8573 22.0128 42.344C21.9109 41.8821 21.809 41.3688 21.758 40.9069C21.6561 39.9317 21.6561 38.9565 21.758 37.9813C21.809 37.0061 22.0128 36.031 22.2676 35.1071C22.5224 34.1832 22.7262 33.2081 22.7771 32.2329C22.8281 31.2577 22.879 30.2825 22.7771 29.3073C22.7262 28.8454 22.6243 28.3321 22.5224 27.8702C22.4204 27.4083 22.3185 26.9463 22.2166 26.4331C22.0128 25.4579 22.0128 24.4827 22.0128 23.5075C22.0128 22.5323 22.1147 21.5572 22.3695 20.6333C22.4714 20.1714 22.6243 19.7094 22.7262 19.2475C22.8281 18.7856 22.981 18.3236 23.0319 17.8104C23.1848 16.8352 23.1848 15.86 23.1848 14.8848C23.1848 13.9096 23.0319 12.9345 22.7771 12.0106C22.5224 11.0867 22.4205 10.1116 22.3695 9.13637C22.3695 8.16118 22.3695 7.18599 22.5224 6.21081C22.5733 5.74888 22.6752 5.23562 22.8281 4.77369C22.93 4.31176 23.0829 3.84983 23.1848 3.3879C23.5415 2.46404 23.5924 1.48886 23.6943 0.513672Z" fill="white" fill-opacity="0.33"/>
<path d="M22.3695 0.461914C22.3695 1.4371 22.3186 2.41229 22.1147 3.38747C22.0128 3.8494 21.9109 4.36266 21.758 4.82459C21.6561 5.28652 21.5542 5.74845 21.5033 6.2617C21.4014 7.23689 21.3504 8.16075 21.4014 9.13593C21.4523 10.1111 21.6052 11.035 21.809 11.9588C21.9109 12.4208 22.0128 12.934 22.1147 13.396C22.1657 13.9092 22.2166 14.3711 22.2166 14.8844C22.2166 15.8596 22.2166 16.8348 22.0638 17.8613C22.0128 18.3745 21.9109 18.8365 21.758 19.2984C21.6561 19.7603 21.5033 20.2223 21.4014 20.6842C21.1975 21.608 21.0956 22.5832 21.0956 23.5071C21.0956 24.4823 21.0956 25.4061 21.2994 26.33C21.4014 26.7919 21.5033 27.2539 21.6052 27.7671C21.7071 28.229 21.809 28.7423 21.809 29.2556C21.9109 30.2307 21.86 31.2059 21.809 32.2324C21.758 32.7457 21.7071 33.2076 21.6052 33.7209C21.5033 34.1828 21.3504 34.6961 21.2485 35.158C20.9428 36.0819 20.7899 37.0057 20.688 37.9809C20.5861 38.9561 20.5861 39.9313 20.637 40.8551C20.688 41.3171 20.7389 41.8303 20.8408 42.2922C20.9428 42.7542 21.0447 43.2674 21.0956 43.7294C21.2485 44.7045 21.2485 45.6797 21.2485 46.6549L21.1975 46.6549C21.1975 45.6797 21.1975 44.7045 20.9937 43.7294C20.8918 43.2674 20.7899 42.8055 20.688 42.2922C20.5861 41.8303 20.4842 41.3171 20.4332 40.8551C20.3313 39.8799 20.3313 38.9048 20.4332 37.9296C20.4842 36.9544 20.688 35.9792 20.9428 35.0553C21.1975 34.1315 21.4014 33.1563 21.4523 32.1811C21.5033 31.2059 21.5542 30.2307 21.4523 29.2556C21.4014 28.7936 21.2994 28.2804 21.1975 27.8184C21.0956 27.3565 20.9937 26.8946 20.8918 26.3813C20.688 25.4061 20.688 24.431 20.688 23.4558C20.688 22.4806 20.7899 21.5054 21.0447 20.5815C21.1466 20.1196 21.2994 19.6577 21.4014 19.1957C21.5033 18.7338 21.6561 18.2719 21.7071 17.7586C21.86 16.7834 21.86 15.8083 21.86 14.8331C21.86 13.8579 21.7071 12.8827 21.4523 11.9588C21.1975 11.035 21.0956 10.0598 21.0447 9.08461C21.0447 8.10942 21.0447 7.13424 21.1975 6.15905C21.2485 5.69712 21.3504 5.18387 21.5033 4.72194C21.6052 4.26001 21.758 3.79808 21.86 3.33615C22.2676 2.41229 22.3186 1.4371 22.3695 0.461914Z" fill="white" fill-opacity="0.33"/>
<path d="M21.0957 0.461914C21.0957 1.4371 21.0447 2.41229 20.8409 3.38747C20.739 3.8494 20.6371 4.36266 20.4842 4.82459C20.3823 5.28652 20.2804 5.74845 20.2295 6.2617C20.1276 7.23689 20.0766 8.16075 20.1275 9.13593C20.1785 10.1111 20.3314 11.035 20.5352 11.9588C20.6371 12.4208 20.739 12.934 20.8409 13.396C20.8919 13.9092 20.9428 14.3711 20.9428 14.8844C20.9428 15.8596 20.9428 16.8348 20.79 17.8613C20.739 18.3745 20.6371 18.8365 20.4842 19.2984C20.3823 19.7603 20.2295 20.2223 20.1275 20.6842C19.9237 21.608 19.8218 22.5832 19.8218 23.5071C19.8218 24.4823 19.8218 25.4061 20.0256 26.33C20.1275 26.7919 20.2295 27.2539 20.3314 27.7671C20.4333 28.229 20.5352 28.7423 20.5352 29.2556C20.6371 30.2307 20.5861 31.2059 20.5352 32.2324C20.4842 32.7457 20.4333 33.2076 20.3314 33.7209C20.2295 34.1828 20.0766 34.6961 19.9747 35.158C19.669 36.0819 19.5161 37.0057 19.4142 37.9809C19.3123 38.9561 19.3123 39.9313 19.3632 40.8551C19.4142 41.3171 19.4651 41.8303 19.567 42.2922C19.669 42.7542 19.7709 43.2674 19.8218 43.7294C19.9747 44.7045 19.9747 45.6797 19.9747 46.6549L19.9237 46.6549C19.9237 45.6797 19.9237 44.7045 19.7199 43.7294C19.618 43.2674 19.5161 42.8055 19.4142 42.2922C19.3123 41.8303 19.2104 41.3171 19.1594 40.8551C19.0575 39.8799 19.0575 38.9048 19.1594 37.9296C19.2104 36.9544 19.4142 35.9792 19.669 35.0553C19.9237 34.1315 20.1275 33.1563 20.1785 32.1811C20.2295 31.2059 20.2804 30.2307 20.1785 29.2556C20.1275 28.7936 20.0256 28.2804 19.9237 27.8184C19.8218 27.3565 19.7199 26.8946 19.618 26.3813C19.4142 25.4061 19.4142 24.431 19.4142 23.4558C19.4142 22.4806 19.5161 21.5054 19.7709 20.5815C19.8728 20.1196 20.0256 19.6577 20.1275 19.1957C20.2295 18.7338 20.3823 18.2719 20.4333 17.7586C20.5861 16.7834 20.5861 15.8083 20.5861 14.8331C20.5861 13.8579 20.4333 12.8827 20.1785 11.9588C19.9237 11.035 19.8218 10.0598 19.7709 9.08461C19.7709 8.10942 19.7709 7.13424 19.9237 6.15905C19.9747 5.69712 20.0766 5.18387 20.2295 4.72194C20.3314 4.26001 20.4842 3.79808 20.5861 3.33615C20.9428 2.41229 21.0447 1.4371 21.0957 0.461914Z" fill="white" fill-opacity="0.33"/>
<path d="M19.8218 0.411133C19.8218 1.38632 19.7708 2.3615 19.567 3.33669C19.4651 3.79862 19.3632 4.31188 19.2103 4.77381C19.1084 5.23574 19.0065 5.69767 18.9555 6.21092C18.8536 7.18611 18.8027 8.10997 18.8536 9.08515C18.9046 10.0603 19.0574 10.9842 19.2613 11.9081C19.3632 12.37 19.4651 12.8832 19.567 13.3452C19.618 13.8584 19.6689 14.3204 19.6689 14.8336C19.6689 15.8088 19.6689 16.784 19.516 17.8105C19.4651 18.3238 19.3632 18.7857 19.2103 19.2476C19.1084 19.7095 18.9555 20.1715 18.8536 20.6334C18.6498 21.5573 18.5479 22.5324 18.5479 23.4563C18.5479 24.4315 18.5479 25.3554 18.7517 26.2792C18.8536 26.7411 18.9555 27.2031 19.0574 27.7163C19.1594 28.1783 19.2613 28.6915 19.2613 29.2048C19.3632 30.18 19.3122 31.1551 19.2613 32.1817C19.2103 32.6949 19.1594 33.1568 19.0574 33.6701C18.9555 34.132 18.8027 34.6453 18.7008 35.1072C18.395 36.0311 18.2422 36.9549 18.1402 37.9301C18.0383 38.9053 18.0383 39.8805 18.0893 40.8043C18.1402 41.2663 18.1912 41.7795 18.2931 42.2415C18.395 42.7034 18.4969 43.2166 18.5479 43.6786C18.7008 44.6538 18.7008 45.629 18.7008 46.6041L18.6498 46.6041C18.6498 45.629 18.6498 44.6538 18.446 43.6786C18.3441 43.2166 18.2422 42.7547 18.1402 42.2415C18.0383 41.7795 17.9364 41.2663 17.8855 40.8043C17.7836 39.8292 17.7836 38.854 17.8855 37.8788C17.9364 36.9036 18.1402 35.9284 18.395 35.0046C18.6498 34.0807 18.8536 33.1055 18.9046 32.1303C18.9555 31.1551 19.0065 30.18 18.9046 29.2048C18.8536 28.7428 18.7517 28.2296 18.6498 27.7677C18.5479 27.3057 18.446 26.8438 18.3441 26.3305C18.1402 25.3554 18.1402 24.3802 18.1402 23.405C18.1402 22.4298 18.2422 21.4546 18.4969 20.5308C18.5988 20.0688 18.7517 19.6069 18.8536 19.145C18.9555 18.683 19.1084 18.2211 19.1594 17.7078C19.3122 16.7327 19.3122 15.7575 19.3122 14.7823C19.3122 13.8071 19.1594 12.8319 18.9046 11.9081C18.6498 10.9842 18.5479 10.009 18.4969 9.03383C18.4969 8.05864 18.4969 7.08346 18.6498 6.10827C18.7008 5.64634 18.8027 5.13308 18.9555 4.67115C19.0574 4.20922 19.2103 3.74729 19.3122 3.28536C19.6689 2.3615 19.7708 1.38632 19.8218 0.411133Z" fill="white" fill-opacity="0.33"/>
<path d="M18.5479 0.411133C18.5479 1.38632 18.4969 2.3615 18.2931 3.33669C18.1912 3.79862 18.0893 4.31188 17.9364 4.77381C17.8345 5.23574 17.7326 5.69767 17.6816 6.21092C17.5797 7.18611 17.5287 8.10997 17.5797 9.08515C17.6307 10.0603 17.7835 10.9842 17.9873 11.9081C18.0893 12.37 18.1912 12.8832 18.2931 13.3452C18.344 13.8584 18.395 14.3204 18.395 14.8336C18.395 15.8088 18.395 16.784 18.2421 17.8105C18.1912 18.3238 18.0893 18.7857 17.9364 19.2476C17.8345 19.7095 17.6816 20.1715 17.5797 20.6334C17.3759 21.5573 17.274 22.5324 17.274 23.4563C17.274 24.4315 17.274 25.3554 17.4778 26.2792C17.5797 26.7411 17.6816 27.2031 17.7835 27.7163C17.8854 28.1783 17.9873 28.6915 17.9873 29.2048C18.0893 30.18 18.0383 31.1551 17.9873 32.1817C17.9364 32.6949 17.8854 33.1568 17.7835 33.6701C17.6816 34.132 17.5287 34.6453 17.4268 35.1072C17.1211 36.0311 16.9682 36.9549 16.8663 37.9301C16.7644 38.9053 16.7644 39.8805 16.8154 40.8043C16.8663 41.2663 16.9173 41.7795 17.0192 42.2415C17.1211 42.7034 17.223 43.2166 17.274 43.6786C17.4268 44.6538 17.4268 45.629 17.4268 46.6041L17.3759 46.6041C17.3759 45.629 17.3759 44.6538 17.1721 43.6786C17.0701 43.2166 16.9682 42.7547 16.8663 42.2415C16.7644 41.7795 16.6625 41.2663 16.6115 40.8043C16.5096 39.8292 16.5096 38.854 16.6115 37.8788C16.6625 36.9036 16.8663 35.9284 17.1211 35.0046C17.3759 34.0807 17.5797 33.1055 17.6307 32.1303C17.6816 31.1551 17.7326 30.18 17.6307 29.2048C17.5797 28.7428 17.4778 28.2296 17.3759 27.7677C17.274 27.3057 17.1721 26.8438 17.0701 26.3305C16.8663 25.3554 16.8663 24.3802 16.8663 23.405C16.8663 22.4298 16.9682 21.4546 17.223 20.5308C17.3249 20.0688 17.4778 19.6069 17.5797 19.145C17.6816 18.683 17.8345 18.2211 17.8854 17.7078C18.0383 16.7327 18.0383 15.7575 18.0383 14.7823C18.0383 13.8071 17.8854 12.8319 17.6307 11.9081C17.3759 10.9842 17.274 10.009 17.223 9.03383C17.223 8.05864 17.223 7.08346 17.3759 6.10827C17.4268 5.64634 17.5287 5.13308 17.6816 4.67115C17.7835 4.20922 17.9364 3.74729 18.0383 3.28536C18.395 2.3615 18.4969 1.38632 18.5479 0.411133Z" fill="white" fill-opacity="0.33"/>
<path d="M17.274 0.359375C17.274 1.33456 17.2231 2.30975 17.0193 3.28493C16.9174 3.74686 16.8154 4.26012 16.6626 4.72205C16.5607 5.18398 16.4588 5.64591 16.4078 6.15916C16.3059 7.13435 16.2549 8.05821 16.3059 9.03339C16.3568 10.0086 16.5097 10.9324 16.7135 11.8563C16.8154 12.3182 16.9174 12.8315 17.0193 13.2934C17.0702 13.8067 17.1212 14.2686 17.1212 14.7819C17.1212 15.757 17.1212 16.7322 16.9683 17.7587C16.9174 18.272 16.8154 18.7339 16.6626 19.1959C16.5607 19.6578 16.4078 20.1197 16.3059 20.5816C16.1021 21.5055 16.0002 22.4807 16.0002 23.4046C16.0002 24.3797 16.0002 25.3036 16.204 26.2275C16.3059 26.6894 16.4078 27.1513 16.5097 27.6646C16.6116 28.1265 16.7135 28.6398 16.7135 29.153C16.8154 30.1282 16.7645 31.1034 16.7135 32.1299C16.6626 32.6432 16.6116 33.1051 16.5097 33.6183C16.4078 34.0803 16.2549 34.5935 16.153 35.0555C15.8473 35.9793 15.6944 36.9032 15.5925 37.8784C15.4906 38.8535 15.4906 39.8287 15.5416 40.7526C15.5925 41.2145 15.6435 41.7278 15.7454 42.1897C15.8473 42.6516 15.9492 43.1649 16.0002 43.6268C16.153 44.602 16.153 45.5772 16.153 46.5524L16.1021 46.5524C16.1021 45.5772 16.1021 44.602 15.8982 43.6268C15.7963 43.1649 15.6944 42.703 15.5925 42.1897C15.4906 41.7278 15.3887 41.2145 15.3377 40.7526C15.2358 39.7774 15.2358 38.8022 15.3377 37.827C15.3887 36.8518 15.5925 35.8767 15.8473 34.9528C16.1021 34.0289 16.3059 33.0538 16.3568 32.0786C16.4078 31.1034 16.4588 30.1282 16.3568 29.153C16.3059 28.6911 16.204 28.1778 16.1021 27.7159C16.0002 27.254 15.8982 26.792 15.7963 26.2788C15.5925 25.3036 15.5925 24.3284 15.5925 23.3532C15.5925 22.378 15.6944 21.4029 15.9492 20.479C16.0511 20.0171 16.204 19.5551 16.3059 19.0932C16.4078 18.6313 16.5607 18.1693 16.6116 17.6561C16.7645 16.6809 16.7645 15.7057 16.7645 14.7305C16.7645 13.7553 16.6116 12.7802 16.3568 11.8563C16.1021 10.9324 16.0002 9.95725 15.9492 8.98207C15.9492 8.00688 15.9492 7.0317 16.1021 6.05651C16.153 5.59458 16.2549 5.08133 16.4078 4.6194C16.5097 4.15747 16.6626 3.69554 16.7645 3.23361C17.1212 2.30975 17.2231 1.33456 17.274 0.359375Z" fill="white" fill-opacity="0.33"/>
<path d="M16.0001 0.307617C16.0001 1.2828 15.9492 2.25799 15.7453 3.23317C15.6434 3.6951 15.5415 4.20836 15.3887 4.67029C15.2867 5.13222 15.1848 5.59415 15.1339 6.10741C15.032 7.08259 14.981 8.00645 15.032 8.98164C15.0829 9.95682 15.2358 10.8807 15.4396 11.8045C15.5415 12.2665 15.6434 12.7797 15.7453 13.2417C15.7963 13.7549 15.8473 14.2168 15.8473 14.7301C15.8473 15.7053 15.8473 16.6805 15.6944 17.707C15.6434 18.2202 15.5415 18.6822 15.3887 19.1441C15.2867 19.606 15.1339 20.068 15.032 20.5299C14.8281 21.4537 14.7262 22.4289 14.7262 23.3528C14.7262 24.328 14.7262 25.2518 14.9301 26.1757C15.032 26.6376 15.1339 27.0996 15.2358 27.6128C15.3377 28.0747 15.4396 28.588 15.4396 29.1013C15.5415 30.0764 15.4906 31.0516 15.4396 32.0781C15.3887 32.5914 15.3377 33.0533 15.2358 33.5666C15.1339 34.0285 14.981 34.5418 14.8791 35.0037C14.5734 35.9276 14.4205 36.8514 14.3186 37.8266C14.2167 38.8018 14.2167 39.777 14.2676 40.7008C14.3186 41.1628 14.3695 41.676 14.4715 42.1379C14.5734 42.5999 14.6753 43.1131 14.7262 43.5751C14.8791 44.5503 14.8791 45.5254 14.8791 46.5006L14.8281 46.5006C14.8281 45.5254 14.8281 44.5503 14.6243 43.5751C14.5224 43.1131 14.4205 42.6512 14.3186 42.1379C14.2167 41.676 14.1148 41.1628 14.0638 40.7008C13.9619 39.7257 13.9619 38.7505 14.0638 37.7753C14.1148 36.8001 14.3186 35.8249 14.5734 34.901C14.8281 33.9772 15.032 33.002 15.0829 32.0268C15.1339 31.0516 15.1848 30.0764 15.0829 29.1013C15.032 28.6393 14.9301 28.1261 14.8281 27.6641C14.7262 27.2022 14.6243 26.7403 14.5224 26.227C14.3186 25.2518 14.3186 24.2767 14.3186 23.3015C14.3186 22.3263 14.4205 21.3511 14.6753 20.4272C14.7772 19.9653 14.9301 19.5034 15.032 19.0414C15.1339 18.5795 15.2867 18.1176 15.3377 17.6043C15.4906 16.6291 15.4906 15.654 15.4906 14.6788C15.4906 13.7036 15.3377 12.7284 15.0829 11.8045C14.8281 10.8807 14.7262 9.9055 14.6753 8.93031C14.6753 7.95513 14.6753 6.97994 14.8281 6.00475C14.8791 5.54282 14.981 5.02957 15.1339 4.56764C15.2358 4.10571 15.3887 3.64378 15.4906 3.18185C15.8473 2.25799 15.9492 1.2828 16.0001 0.307617Z" fill="white" fill-opacity="0.33"/>
<path d="M14.7262 0.307617C14.7262 1.2828 14.6752 2.25799 14.4714 3.23317C14.3695 3.6951 14.2676 4.20836 14.1147 4.67029C14.0128 5.13222 13.9109 5.59415 13.86 6.10741C13.758 7.08259 13.7071 8.00645 13.758 8.98164C13.809 9.95682 13.9619 10.8807 14.1657 11.8045C14.2676 12.2665 14.3695 12.7797 14.4714 13.2417C14.5224 13.7549 14.5733 14.2168 14.5733 14.7301C14.5733 15.7053 14.5733 16.6805 14.4205 17.707C14.3695 18.2202 14.2676 18.6822 14.1147 19.1441C14.0128 19.606 13.86 20.068 13.758 20.5299C13.5542 21.4537 13.4523 22.4289 13.4523 23.3528C13.4523 24.328 13.4523 25.2518 13.6561 26.1757C13.758 26.6376 13.86 27.0996 13.9619 27.6128C14.0638 28.0747 14.1657 28.588 14.1657 29.1013C14.2676 30.0764 14.2166 31.0516 14.1657 32.0781C14.1147 32.5914 14.0638 33.0533 13.9619 33.5666C13.86 34.0285 13.7071 34.5418 13.6052 35.0037C13.2994 35.9276 13.1466 36.8514 13.0447 37.8266C12.9428 38.8018 12.9428 39.777 12.9937 40.7008C13.0447 41.1628 13.0956 41.676 13.1975 42.1379C13.2994 42.5999 13.4014 43.1131 13.4523 43.5751C13.6052 44.5503 13.6052 45.5254 13.6052 46.5006L13.5542 46.5006C13.5542 45.5254 13.5542 44.5503 13.3504 43.5751C13.2485 43.1131 13.1466 42.6512 13.0447 42.1379C12.9428 41.676 12.8408 41.1628 12.7899 40.7008C12.688 39.7257 12.688 38.7505 12.7899 37.7753C12.8408 36.8001 13.0447 35.8249 13.2994 34.901C13.5542 33.9772 13.758 33.002 13.809 32.0268C13.86 31.0516 13.9109 30.0764 13.809 29.1013C13.758 28.6393 13.6561 28.1261 13.5542 27.6641C13.4523 27.2022 13.3504 26.7403 13.2485 26.227C13.0447 25.2518 13.0447 24.2767 13.0447 23.3015C13.0447 22.3263 13.1466 21.3511 13.4014 20.4272C13.5033 19.9653 13.6561 19.5034 13.758 19.0414C13.86 18.5795 14.0128 18.1176 14.0638 17.6043C14.2166 16.6291 14.2166 15.654 14.2166 14.6788C14.2166 13.7036 14.0638 12.7284 13.809 11.8045C13.5542 10.8807 13.4523 9.9055 13.4014 8.93031C13.4014 7.95513 13.4014 6.97994 13.5542 6.00475C13.758 5.54282 13.86 5.08089 13.9619 4.61896C14.0638 4.15703 14.2166 3.6951 14.3186 3.23317C14.5733 2.25799 14.6752 1.2828 14.7262 0.307617Z" fill="white" fill-opacity="0.33"/>
<path d="M13.4524 0.256836C13.4524 1.23202 13.4014 2.20721 13.1976 3.18239C13.0447 3.64432 12.9428 4.15758 12.8409 4.61951C12.739 5.08144 12.6371 5.54337 12.5862 6.05662C12.4842 7.03181 12.4333 7.95567 12.4842 8.93086C12.5352 9.90604 12.6881 10.8299 12.8919 11.7538C12.9938 12.2157 13.0957 12.7289 13.1976 13.1909C13.2486 13.7041 13.2995 14.1661 13.2995 14.6793C13.2995 15.6545 13.2995 16.6297 13.1467 17.6562C13.0957 18.1695 12.9938 18.6314 12.8409 19.0933C12.739 19.5552 12.5862 20.0172 12.4842 20.4791C12.2804 21.403 12.1785 22.3782 12.1785 23.302C12.1785 24.2772 12.1785 25.2011 12.3823 26.1249C12.4842 26.5868 12.5861 27.0488 12.6881 27.562C12.79 28.024 12.8919 28.5372 12.8919 29.0505C12.9938 30.0257 12.9428 31.0008 12.8919 32.0274C12.8409 32.5406 12.79 33.0025 12.6881 33.5158C12.5861 33.9777 12.4333 34.491 12.3314 34.9529C12.0256 35.8768 11.8728 36.8006 11.7709 37.7758C11.669 38.751 11.669 39.7262 11.7199 40.6501C11.7709 41.112 11.8218 41.6252 11.9237 42.0872C12.0256 42.5491 12.1275 43.0624 12.1785 43.5243C12.3314 44.4995 12.3314 45.4747 12.3314 46.4498L12.2804 46.4498C12.2804 45.4747 12.2804 44.4995 12.0766 43.5243C11.9747 43.0624 11.8728 42.6004 11.7709 42.0872C11.669 41.6252 11.567 41.112 11.5161 40.6501C11.4142 39.6749 11.4142 38.6997 11.5161 37.7245C11.567 36.7493 11.7709 35.7741 12.0256 34.8503C12.2804 33.9264 12.4842 32.9512 12.5352 31.976C12.5862 31.0008 12.6371 30.0257 12.5352 29.0505C12.4842 28.5885 12.3823 28.0753 12.2804 27.6134C12.1785 27.1514 12.0766 26.6895 11.9747 26.1762C11.7709 25.2011 11.7709 24.2259 11.7709 23.2507C11.7709 22.2755 11.8728 21.3003 12.1276 20.3765C12.2295 19.9145 12.3823 19.4526 12.4842 18.9907C12.5862 18.5287 12.739 18.0668 12.79 17.5536C12.9428 16.5784 12.9428 15.6032 12.9428 14.628C12.9428 13.6528 12.79 12.6776 12.5352 11.7538C12.2804 10.8299 12.1785 9.85472 12.1276 8.87953C12.1276 7.90434 12.1276 6.92916 12.2804 5.95397C12.3314 5.49204 12.4333 4.97879 12.5862 4.51686C12.6881 4.05493 12.8409 3.593 12.9428 3.13107C13.2995 2.20721 13.3505 1.23202 13.4524 0.256836Z" fill="white" fill-opacity="0.33"/>
<path d="M12.1274 0.256836C12.1274 1.23202 12.0765 2.20721 11.8727 3.18239C11.7708 3.64432 11.6688 4.15758 11.516 4.61951C11.4141 5.08144 11.3122 5.54337 11.2612 6.05662C11.1593 7.03181 11.1083 7.95567 11.1593 8.93086C11.2102 9.90604 11.3631 10.8299 11.5669 11.7538C11.6688 12.2157 11.7708 12.7289 11.8727 13.1909C11.9236 13.7041 11.9746 14.1661 11.9746 14.6793C11.9746 15.6545 11.9746 16.6297 11.8217 17.6562C11.7708 18.1695 11.6688 18.6314 11.516 19.0933C11.4141 19.5552 11.2612 20.0172 11.1593 20.4791C10.9555 21.403 10.8536 22.3782 10.8536 23.302C10.8536 24.2772 10.8536 25.2011 11.0574 26.1249C11.1593 26.5868 11.2612 27.0488 11.3631 27.562C11.465 28.024 11.5669 28.5372 11.5669 29.0505C11.6688 30.0257 11.6179 31.0008 11.5669 32.0274C11.516 32.5406 11.465 33.0025 11.3631 33.5158C11.2612 33.9777 11.1083 34.491 11.0064 34.9529C10.7007 35.8768 10.5478 36.8006 10.4459 37.7758C10.344 38.751 10.344 39.7262 10.395 40.6501C10.4459 41.112 10.4969 41.6252 10.5988 42.0872C10.7007 42.5491 10.8026 43.0624 10.8536 43.5243C11.0064 44.4995 11.0064 45.4747 11.0064 46.4498L10.9555 46.4498C10.9555 45.4747 10.9555 44.4995 10.7516 43.5243C10.6497 43.0624 10.5478 42.6004 10.4459 42.0872C10.344 41.6252 10.2421 41.112 10.1911 40.6501C10.0892 39.6749 10.0892 38.6997 10.1911 37.7245C10.2421 36.7493 10.4459 35.7741 10.7007 34.8503C10.9555 33.9264 11.1593 32.9512 11.2102 31.976C11.2612 31.0008 11.3122 30.0257 11.2102 29.0505C11.1593 28.5885 11.0574 28.0753 10.9555 27.6134C11.0064 27.1514 10.8536 26.6895 10.8026 26.1762C10.5988 25.2011 10.5988 24.2259 10.5988 23.2507C10.5988 22.2755 10.7007 21.3003 10.9555 20.3765C11.0574 19.9145 11.2102 19.4526 11.3122 18.9907C11.4141 18.5287 11.5669 18.0668 11.6179 17.5536C11.7708 16.5784 11.7708 15.6032 11.7708 14.628C11.7708 13.6528 11.6179 12.6776 11.3631 11.7538C11.1083 10.8299 11.0064 9.85472 10.9555 8.87953C10.9555 7.90434 10.9555 6.92916 11.1083 5.95397C11.1593 5.49204 11.2612 4.97879 11.4141 4.51686C11.516 4.05493 11.6688 3.593 11.7708 3.13107C12.0255 2.20721 12.0765 1.23202 12.1274 0.256836Z" fill="white" fill-opacity="0.33"/>
<path d="M10.8536 0.205078C10.8536 1.18026 10.8027 2.15545 10.5989 3.13064C10.497 3.59257 10.395 4.10582 10.2422 4.56775C10.1403 5.02968 10.0384 5.49161 9.9874 6.00487C9.88549 6.98005 9.83453 7.90391 9.88549 8.8791C9.93644 9.85428 10.0893 10.7781 10.2931 11.702C10.395 12.1639 10.4969 12.6772 10.5989 13.1391C10.6498 13.6524 10.7008 14.1143 10.7008 14.6276C10.7008 15.6027 10.7008 16.5779 10.5479 17.6044C10.497 18.1177 10.395 18.5796 10.2422 19.0416C10.1403 19.5035 9.9874 19.9654 9.88548 20.4273C9.68166 21.3512 9.57975 22.3264 9.57975 23.2503C9.57975 24.2254 9.57975 25.1493 9.78358 26.0732C9.88549 26.5351 9.9874 26.997 10.0893 27.5103C10.1912 27.9722 10.2931 28.4855 10.2931 28.9987C10.395 29.9739 10.3441 30.9491 10.2931 31.9756C10.2422 32.4889 10.1912 32.9508 10.0893 33.464C9.9874 33.926 9.83453 34.4392 9.73262 34.9012C9.42689 35.825 9.27402 36.7489 9.17211 37.7241C9.0702 38.6992 9.0702 39.6744 9.12115 40.5983C9.17211 41.0602 9.22307 41.5735 9.32498 42.0354C9.42689 42.4973 9.5288 43.0106 9.57975 43.4725C9.73262 44.4477 9.73262 45.4229 9.73262 46.3981L9.68167 46.3981C9.68167 45.4229 9.68166 44.4477 9.47784 43.4725C9.37593 43.0106 9.27402 42.5487 9.17211 42.0354C9.0702 41.5735 8.96829 41.0602 8.91734 40.5983C8.81542 39.6231 8.81542 38.6479 8.91734 37.6727C8.96829 36.6976 9.17211 35.7224 9.42689 34.7985C9.68167 33.8746 9.88549 32.8995 9.93644 31.9243C9.9874 30.9491 10.0384 29.9739 9.93644 28.9987C9.88549 28.5368 9.78358 28.0235 9.68167 27.5616C9.57976 27.0997 9.47784 26.6377 9.37593 26.1245C9.17211 25.1493 9.17211 24.1741 9.17211 23.1989C9.17211 22.2237 9.27402 21.2486 9.5288 20.3247C9.63071 19.8628 9.78357 19.4008 9.88548 18.9389C9.9874 18.477 10.1403 18.015 10.1912 17.5018C10.3441 16.5266 10.3441 15.5514 10.3441 14.5762C10.3441 13.601 10.1912 12.6259 9.93644 11.702C9.68167 10.7781 9.57975 9.80296 9.5288 8.82777C9.5288 7.85259 9.5288 6.8774 9.68167 5.90222C9.73262 5.44029 9.83453 4.92703 9.9874 4.4651C10.2422 4.0545 10.395 3.59257 10.497 3.07931C10.7008 2.15545 10.8027 1.18026 10.8536 0.205078Z" fill="white" fill-opacity="0.33"/>
<path d="M9.57971 0.205078C9.57971 1.18026 9.52876 2.15545 9.32493 3.13064C9.22302 3.59257 9.12111 4.10582 8.96825 4.56775C8.86634 5.02968 8.76443 5.49161 8.71347 6.00487C8.61156 6.98005 8.5606 7.90391 8.61156 8.8791C8.66251 9.85428 8.81538 10.7781 9.0192 11.702C9.12111 12.1639 9.22302 12.6772 9.32493 13.1391C9.37589 13.6524 9.42685 14.1143 9.42685 14.6276C9.42685 15.6027 9.42685 16.5779 9.27398 17.6044C9.22302 18.1177 9.12111 18.5796 8.96825 19.0416C8.86634 19.5035 8.71347 19.9654 8.61156 20.4273C8.40774 21.3512 8.30583 22.3264 8.30583 23.2503C8.30583 24.2254 8.30583 25.1493 8.50965 26.0732C8.61156 26.5351 8.71347 26.997 8.81538 27.5103C8.91729 27.9722 9.0192 28.4855 9.0192 28.9987C9.12111 29.9739 9.07016 30.9491 9.0192 31.9756C8.96825 32.4889 8.91729 32.9508 8.81538 33.464C8.71347 33.926 8.5606 34.4392 8.45869 34.9012C8.15296 35.825 8.00009 36.7489 7.89818 37.7241C7.79627 38.6992 7.79627 39.6744 7.84722 40.5983C7.89818 41.0602 7.94914 41.5735 8.05105 42.0354C8.15296 42.4973 8.25487 43.0106 8.30582 43.4725C8.45869 44.4477 8.45869 45.4229 8.45869 46.3981L8.40774 46.3981C8.40774 45.4229 8.40774 44.4477 8.20391 43.4725C8.102 43.0106 8.00009 42.5487 7.89818 42.0354C7.79627 41.5735 7.69436 41.0602 7.64341 40.5983C7.5415 39.6231 7.5415 38.6479 7.64341 37.6727C7.69436 36.6976 7.89818 35.7224 8.15296 34.7985C8.40774 33.8746 8.61156 32.8995 8.66252 31.9243C8.71347 30.9491 8.76443 29.9739 8.66252 28.9987C8.61156 28.5368 8.50965 28.0235 8.40774 27.5616C8.30583 27.0997 8.20391 26.6377 8.102 26.1245C7.89818 25.1493 7.89818 24.1741 7.89818 23.1989C7.89818 22.2237 8.00009 21.2486 8.25487 20.3247C8.35678 19.8628 8.50965 19.4008 8.61156 18.9389C8.71347 18.477 8.86634 18.015 8.91729 17.5018C9.07016 16.5266 9.07016 15.5514 9.07016 14.5762C9.07016 13.601 8.91729 12.6259 8.66252 11.702C8.40774 10.7781 8.30583 9.80296 8.25487 8.82777C8.25487 7.85259 8.25487 6.8774 8.40774 5.90222C8.45869 5.44029 8.5606 4.92703 8.71347 4.4651C8.81538 4.00317 8.96825 3.54124 9.07016 3.07931C9.42685 2.10412 9.52876 1.12894 9.57971 0.205078Z" fill="white" fill-opacity="0.33"/>
<path d="M8.30591 0.154297C8.30591 1.12948 8.25495 2.10467 8.05113 3.07985C7.94922 3.54178 7.84731 4.05504 7.69445 4.51697C7.59253 4.9789 7.49062 5.44083 7.43967 5.95409C7.33776 6.92927 7.2868 7.85313 7.33776 8.82832C7.38871 9.8035 7.54158 10.7274 7.7454 11.6512C7.84731 12.1132 7.94922 12.6264 8.05113 13.0883C8.10209 13.6016 8.15304 14.0635 8.15304 14.5768C8.15304 15.552 8.15304 16.5272 8.00018 17.5537C7.94922 18.0669 7.84731 18.5288 7.69444 18.9908C7.59253 19.4527 7.43967 19.9146 7.33776 20.3766C7.13393 21.3004 7.03202 22.2756 7.03202 23.1995C7.03202 24.1747 7.03202 25.0985 7.23585 26.0224C7.33776 26.4843 7.43967 26.9462 7.54158 27.4595C7.64349 27.9214 7.7454 28.4347 7.7454 28.9479C7.84731 29.9231 7.79635 30.8983 7.7454 31.9248C7.69444 32.4381 7.64349 32.9 7.54158 33.4133C7.43967 33.8752 7.2868 34.3884 7.18489 34.8504C6.87916 35.7742 6.72629 36.6981 6.62438 37.6733C6.52247 38.6485 6.52247 39.6236 6.57342 40.5475C6.62438 41.0094 6.67534 41.5227 6.77725 41.9846C6.87916 42.4466 6.98107 42.9598 7.03202 43.4217C7.18489 44.3969 7.18489 45.3721 7.18489 46.3473L7.13394 46.3473C7.13394 45.3721 7.13394 44.3969 6.93011 43.4217C6.8282 42.9598 6.72629 42.4979 6.62438 41.9846C6.52247 41.5227 6.42056 41.0094 6.36961 40.5475C6.2677 39.5723 6.2677 38.5971 6.36961 37.622C6.42056 36.6468 6.62438 35.6716 6.87916 34.7477C7.13394 33.8239 7.33776 32.8487 7.38871 31.8735C7.43967 30.8983 7.49062 29.9231 7.38871 28.9479C7.33776 28.486 7.23585 27.9727 7.13394 27.5108C7.03203 27.0489 6.93011 26.587 6.8282 26.0737C6.77725 25.1498 6.72629 24.1747 6.72629 23.1995C6.72629 22.2243 6.8282 21.2491 7.08298 20.3252C7.18489 19.8633 7.33776 19.4014 7.43967 18.9395C7.59253 18.4262 7.69444 17.9643 7.7454 17.451C7.89827 16.4758 7.89827 15.5006 7.89827 14.5255C7.89827 13.5503 7.7454 12.5751 7.49062 11.6512C7.23585 10.7274 7.13393 9.75218 7.08298 8.77699C7.08298 7.80181 7.08298 6.82662 7.23585 5.85143C7.2868 5.3895 7.38871 4.87625 7.54158 4.41432C7.64349 3.95239 7.79636 3.49046 7.89827 3.02853C8.15304 2.10467 8.25495 1.12948 8.30591 0.154297Z" fill="white" fill-opacity="0.33"/>
<path d="M7.03198 0.102539C7.03198 1.07772 6.98103 2.05291 6.77721 3.0281C6.67529 3.49003 6.57338 4.00328 6.42052 4.46521C6.31861 4.92714 6.2167 5.38907 6.16574 5.90233C6.06383 6.87751 6.01287 7.80137 6.06383 8.77656C6.11478 9.75174 6.26765 10.6756 6.47147 11.5995C6.57338 12.0614 6.67529 12.5746 6.7772 13.0366C6.82816 13.5498 6.87912 14.0118 6.87912 14.525C6.87912 15.5002 6.87912 16.4754 6.72625 17.5019C6.67529 18.0152 6.57338 18.4771 6.42052 18.939C6.31861 19.4009 6.16574 19.8629 6.06383 20.3248C5.86001 21.2487 5.7581 22.2239 5.7581 23.1477C5.7581 24.1229 5.7581 25.0468 5.96192 25.9706C6.06383 26.4326 6.16574 26.8945 6.26765 27.4077C6.36956 27.8697 6.47147 28.3829 6.47147 28.8962C6.57338 29.8714 6.52243 30.8465 6.47147 31.8731C6.42052 32.3863 6.36956 32.8482 6.26765 33.3615C6.16574 33.8234 6.01287 34.3367 5.91096 34.7986C5.60523 35.7225 5.45236 36.6463 5.35045 37.6215C5.24854 38.5967 5.24854 39.5719 5.2995 40.4958C5.35045 40.9577 5.40141 41.4709 5.50332 41.9329C5.60523 42.3948 5.70714 42.9081 5.75809 43.37C5.91096 44.3452 5.91096 45.3204 5.91096 46.2955L5.86001 46.2955C5.86001 45.3204 5.86001 44.3452 5.65619 43.37C5.55427 42.9081 5.45236 42.4461 5.35045 41.9329C5.24854 41.4709 5.14663 40.9577 5.09568 40.4958C4.99377 39.5206 4.99377 38.5454 5.09568 37.5702C5.14663 36.595 5.35045 35.6198 5.60523 34.696C5.86001 33.7721 6.06383 32.7969 6.11479 31.8217C6.16574 30.8465 6.2167 29.8714 6.11479 28.8962C6.06383 28.4342 5.96192 27.921 5.86001 27.4591C5.7581 26.9971 5.65618 26.5352 5.55427 26.0219C5.35045 25.0468 5.35045 24.0716 5.35045 23.0964C5.35045 22.1212 5.45236 21.146 5.70714 20.2222C5.80905 19.7602 5.96192 19.2983 6.06383 18.8364C6.16574 18.3744 6.31861 17.9125 6.36956 17.3993C6.52243 16.4241 6.52243 15.4489 6.52243 14.4737C6.52243 13.4985 6.36956 12.5233 6.11479 11.5995C5.86001 10.6756 5.7581 9.70042 5.70714 8.72523C5.70714 7.75005 5.70714 6.77486 5.86001 5.79968C5.91096 5.33775 6.01288 4.82449 6.16574 4.36256C6.26765 3.90063 6.42052 3.4387 6.52243 2.97677C6.87912 2.05291 6.98103 1.07772 7.03198 0.102539Z" fill="white" fill-opacity="0.33"/>
<path d="M5.75806 0.102539C5.75806 1.07772 5.7071 2.05291 5.50328 3.0281C5.40137 3.49003 5.29946 4.00328 5.14659 4.46521C5.04468 4.92714 4.94277 5.38907 4.89182 5.90233C4.7899 6.87751 4.73895 7.80137 4.7899 8.77656C4.84086 9.75174 4.99373 10.6756 5.19755 11.5995C5.29946 12.0614 5.40137 12.5746 5.50328 13.0366C5.55423 13.5498 5.60519 14.0118 5.60519 14.525C5.60519 15.5002 5.60519 16.4754 5.45232 17.5019C5.40137 18.0152 5.29946 18.4771 5.14659 18.939C5.04468 19.4009 4.89181 19.8629 4.7899 20.3248C4.58608 21.2487 4.48417 22.2239 4.48417 23.1477C4.48417 24.1229 4.48417 25.0468 4.68799 25.9706C4.7899 26.4326 4.89181 26.8945 4.99372 27.4077C5.09563 27.8697 5.19755 28.3829 5.19755 28.8962C5.29946 29.8714 5.2485 30.8465 5.19755 31.8731C5.14659 32.3863 5.09563 32.8482 4.99372 33.3615C4.89181 33.8234 4.73895 34.3367 4.63704 34.7986C4.3313 35.7225 4.17844 36.6463 4.07653 37.6215C3.97462 38.5967 3.97461 39.5719 4.02557 40.4958C4.07652 40.9577 4.12748 41.4709 4.22939 41.9329C4.3313 42.3948 4.43321 42.9081 4.48417 43.37C4.63704 44.3452 4.63704 45.3204 4.63704 46.2955L4.58608 46.2955C4.58608 45.3204 4.58608 44.3452 4.38226 43.37C4.28035 42.9081 4.17844 42.4461 4.07653 41.9329C3.97462 41.4709 3.87271 40.9577 3.82175 40.4958C3.71984 39.5206 3.71984 38.5454 3.82175 37.5702C3.87271 36.595 4.07653 35.6198 4.33131 34.696C4.58608 33.7721 4.7899 32.7969 4.84086 31.8217C4.89182 30.8465 4.94277 29.8714 4.84086 28.8962C4.7899 28.4342 4.68799 27.921 4.58608 27.4591C4.48417 26.9971 4.38226 26.5352 4.28035 26.0219C4.22939 25.0981 4.17844 24.1229 4.17844 23.1477C4.17844 22.1725 4.28035 21.1973 4.53512 20.2735C4.63704 19.8116 4.7899 19.3496 4.89182 18.8877C4.99373 18.4258 5.14659 17.9638 5.19755 17.4506C5.35041 16.4754 5.35041 15.5002 5.35041 14.525C5.35041 13.5498 5.19755 12.5746 4.94277 11.6508C4.68799 10.7269 4.58608 9.75174 4.53513 8.77656C4.53513 7.80137 4.53513 6.82619 4.68799 5.851C4.73895 5.38907 4.84086 4.87582 4.99372 4.41389C5.09564 3.95196 5.2485 3.49003 5.35042 3.0281C5.60519 2.05291 5.7071 1.07772 5.75806 0.102539Z" fill="white" fill-opacity="0.33"/>
<path d="M4.48425 0.0517578C4.48425 1.02694 4.4333 2.00213 4.22948 2.97731C4.12756 3.43924 4.02566 3.9525 3.87279 4.41443C3.77088 4.87636 3.66897 5.33829 3.61801 5.85155C3.5161 6.82673 3.46514 7.75059 3.5161 8.72578C3.56705 9.70096 3.71992 10.6248 3.92374 11.5487C4.02565 12.0106 4.12756 12.5239 4.22948 12.9858C4.28043 13.4991 4.33139 13.961 4.33139 14.4742C4.33139 15.4494 4.33139 16.4246 4.17852 17.4511C4.12756 17.9644 4.02565 18.4263 3.87279 18.8882C3.77088 19.3502 3.61801 19.8121 3.5161 20.274C3.31228 21.1979 3.21037 22.1731 3.21037 23.0969C3.21037 24.0721 3.21037 24.996 3.41419 25.9198C3.5161 26.3818 3.61801 26.8437 3.71992 27.357C3.82183 27.8189 3.92374 28.3321 3.92374 28.8454C4.02565 29.8206 3.9747 30.7958 3.92374 31.8223C3.87279 32.3355 3.82183 32.7975 3.71992 33.3107C3.61801 33.7727 3.46514 34.2859 3.36323 34.7478C3.0575 35.6717 2.90464 36.5956 2.80272 37.5707C2.70081 38.5459 2.70081 39.5211 2.75177 40.445C2.80272 40.9069 2.85368 41.4202 2.95559 41.8821C3.0575 42.344 3.15941 42.8573 3.21037 43.3192C3.36323 44.2944 3.36323 45.2696 3.36323 46.2448L3.31228 46.2448C3.31228 45.2696 3.31228 44.2944 3.10846 43.3192C3.00655 42.8573 2.90464 42.3953 2.80272 41.8821C2.70081 41.4202 2.5989 40.9069 2.54795 40.445C2.44604 39.4698 2.44604 38.4946 2.54795 37.5194C2.5989 36.5442 2.80272 35.569 3.0575 34.6452C3.31228 33.7213 3.5161 32.7461 3.56706 31.771C3.61801 30.7958 3.66897 29.8206 3.56706 28.8454C3.5161 28.3835 3.41419 27.8702 3.31228 27.4083C3.21037 26.9464 3.10845 26.4844 3.00654 25.9712C2.80272 24.996 2.80272 24.0208 2.80273 23.0456C2.80273 22.0704 2.90463 21.0952 3.15941 20.1714C3.26132 19.7094 3.41419 19.2475 3.5161 18.7856C3.61801 18.3237 3.77088 17.8617 3.82183 17.3485C3.9747 16.3733 3.9747 15.3981 3.9747 14.4229C3.9747 13.4477 3.82183 12.4725 3.56706 11.5487C3.31228 10.6248 3.21037 9.64964 3.15941 8.67445C3.15941 7.69927 3.15941 6.72408 3.31228 5.74889C3.36324 5.28696 3.46515 4.77371 3.61801 4.31178C3.71992 3.84985 3.87279 3.38792 3.9747 2.92599C4.33139 2.00213 4.4333 1.02694 4.48425 0.0517578Z" fill="white" fill-opacity="0.33"/>
<path d="M3.1593 0.0517578C3.1593 1.02694 3.10835 2.00213 2.90452 2.97731C2.80261 3.43924 2.70071 3.9525 2.54784 4.41443C2.44593 4.87636 2.34402 5.33829 2.29306 5.85155C2.19115 6.82673 2.14019 7.75059 2.19115 8.72578C2.2421 9.70096 2.39497 10.6248 2.59879 11.5487C2.7007 12.0106 2.80261 12.5239 2.90452 12.9858C2.95548 13.4991 3.00643 13.961 3.00643 14.4742C3.00643 15.4494 3.00644 16.4246 2.85357 17.4511C2.80261 17.9644 2.7007 18.4263 2.54784 18.8882C2.44593 19.3502 2.29306 19.8121 2.19115 20.274C1.98733 21.1979 1.88542 22.1731 1.88542 23.0969C1.88542 24.0721 1.88542 24.996 2.08924 25.9198C2.19115 26.3818 2.29306 26.8437 2.39497 27.357C2.49688 27.8189 2.59879 28.3321 2.59879 28.8454C2.7007 29.8206 2.64975 30.7958 2.59879 31.8223C2.54784 32.3355 2.49688 32.7975 2.39497 33.3107C2.29306 33.7727 2.1402 34.2859 2.03828 34.7478C1.73255 35.6717 1.57968 36.5956 1.47777 37.5707C1.37586 38.5459 1.37586 39.5211 1.42682 40.445C1.47777 40.9069 1.52873 41.4202 1.63064 41.8821C1.73255 42.344 1.83446 42.8573 1.88542 43.3192C2.03828 44.2944 2.03828 45.2696 2.03828 46.2448L1.98733 46.2448C1.98733 45.2696 1.98733 44.2944 1.78351 43.3192C1.6816 42.8573 1.57968 42.3953 1.47777 41.8821C1.37586 41.4202 1.27395 40.9069 1.223 40.445C1.12109 39.4698 1.12109 38.4946 1.223 37.5194C1.27395 36.5442 1.47777 35.569 1.73255 34.6452C1.98733 33.7213 2.19115 32.7461 2.2421 31.771C2.29306 30.7958 2.34401 29.8206 2.2421 28.8454C2.19115 28.3835 2.08924 27.8702 1.98733 27.4083C1.88542 26.9464 1.78351 26.4844 1.6816 25.9712C1.63064 25.0473 1.57969 24.0208 1.63064 23.0969C1.63064 22.1217 1.73255 21.1466 1.98733 20.2227C2.08924 19.7608 2.24211 19.2988 2.34402 18.8369C2.44593 18.375 2.59879 17.9131 2.64975 17.3998C2.80261 16.4246 2.80262 15.4494 2.80262 14.4742C2.80262 13.4991 2.64975 12.5239 2.39497 11.6C2.14019 10.6761 2.03828 9.70096 1.98733 8.72578C1.98733 7.75059 1.98733 6.77541 2.14019 5.80022C2.19115 5.33829 2.29306 4.82503 2.44593 4.3631C2.54784 3.90117 2.70071 3.43924 2.80262 2.97731C3.05739 1.9508 3.10835 0.975618 3.1593 0.0517578Z" fill="white" fill-opacity="0.33"/>
<path d="M1.8855 0C1.8855 0.975186 1.83454 1.95037 1.63072 2.92556C1.52881 3.38749 1.4269 3.90074 1.27404 4.36267C1.17212 4.8246 1.07021 5.28653 1.01926 5.79979C0.917348 6.77497 0.86639 7.69883 0.917346 8.67402C0.968301 9.64921 1.12117 10.5731 1.32499 11.4969C1.4269 11.9589 1.52881 12.4721 1.63072 12.934C1.68168 13.4473 1.73263 13.9092 1.73263 14.4225C1.73263 15.3977 1.73263 16.3729 1.57977 17.3994C1.52881 17.9126 1.4269 18.3745 1.27403 18.8365C1.17212 19.2984 1.01926 19.7603 0.917345 20.2223C0.713524 21.1461 0.611614 22.1213 0.611614 23.0452C0.611614 24.0204 0.611614 24.9442 0.815436 25.8681C0.917346 26.33 1.01926 26.7919 1.12117 27.3052C1.22308 27.7671 1.32499 28.2804 1.32499 28.7936C1.4269 29.7688 1.37594 30.744 1.32499 31.7705C1.27403 32.2838 1.22308 32.7457 1.12117 33.259C1.01926 33.7209 0.866391 34.2341 0.764481 34.6961C0.458749 35.6199 0.30588 36.5438 0.203969 37.519C0.102058 38.4942 0.102059 39.4694 0.153014 40.3932C0.20397 40.8551 0.254926 41.3684 0.356836 41.8303C0.458747 42.2923 0.560658 42.8055 0.611613 43.2674C0.764479 44.2426 0.76448 45.2178 0.76448 46.193L0.713522 46.193C0.713522 45.2178 0.713525 44.2426 0.509704 43.2674C0.407793 42.8055 0.305879 42.3436 0.203969 41.8303C0.102058 41.3684 0.000147464 40.8551 -0.0508078 40.3932C-0.152719 39.418 -0.152719 38.4428 -0.0508077 37.4677C0.000147655 36.4925 0.203969 35.5173 0.458746 34.5934C0.713522 33.6696 0.917344 32.6944 0.968299 31.7192C1.01925 30.744 1.07021 29.7688 0.968299 28.7936C0.917344 28.3317 0.815433 27.8185 0.713523 27.3565C0.611612 26.8946 0.509702 26.4327 0.407792 25.9194C0.20397 24.9442 0.20397 23.969 0.20397 22.9939C0.20397 22.0187 0.305883 21.0435 0.560659 20.1196C0.66257 19.6577 0.815434 19.1958 0.917345 18.7338C1.01926 18.2719 1.17212 17.81 1.22308 17.2967C1.37594 16.3215 1.37594 15.3463 1.37594 14.3712C1.37594 13.396 1.22308 12.4208 0.9683 11.4969C0.713523 10.5731 0.611615 9.59788 0.56066 8.62269C0.56066 7.64751 0.560658 6.67232 0.713524 5.69714C0.764479 5.23521 0.866393 4.72195 1.01926 4.26002C1.12117 3.79809 1.27403 3.33616 1.37594 2.87423C1.78359 1.95037 1.83454 0.975186 1.8855 0Z" fill="white" fill-opacity="0.33"/>
<path d="M28.9461 37.8189L38.9501 18.8569C39.9917 17.1095 38.5414 13.9572 36.8276 13.0546L36.626 12.902C34.8619 11.8339 31.3112 12.0874 30.1501 14.2433L24.9322 24.2441L19.0853 13.8592C17.8758 11.7033 14.7505 11.7322 13.1375 12.7494L12.4319 13.258C11.1214 14.021 9.40148 16.701 10.6109 18.8569L15.5065 27.7535L20.4316 36.545C20.9502 37.8189 21.641 38.7989 22.657 39.3869L22.8021 39.4848C25.2694 40.9058 27.8334 39.9748 28.9461 37.8189Z" fill="white"/>
<path d="M28.8633 37.3848L38.4022 19.4271C39.5029 17.3959 38.7691 14.8107 36.7971 13.6566L36.0175 13.2412C34.0455 12.0871 31.5232 12.8719 30.4225 14.9031L25.011 25.1053L19.3243 14.8107C18.1778 12.7795 15.6555 12.0409 13.7294 13.2412L12.9498 13.7028C10.9778 14.8569 10.3357 17.4882 11.4822 19.5194L20.7919 36.1846C21.1588 37.2925 21.9384 38.3081 22.9014 38.8621L23.039 38.9544C25.3779 40.2931 27.8085 39.416 28.8633 37.3848Z" fill="url(#paint0_linear_175_1803)"/>
<mask id="mask1_175_1803" style="mask-type:luminance" maskUnits="userSpaceOnUse" x="10" y="12" width="29" height="28">
<path d="M28.8633 37.3848L38.4022 19.4271C39.5029 17.3959 38.7691 14.8107 36.7971 13.6566L36.0175 13.2412C34.0455 12.0871 31.5232 12.8719 30.4225 14.9031L25.011 25.1053L19.3243 14.8107C18.1778 12.7795 15.6555 12.0409 13.7294 13.2412L12.9498 13.7028C10.9778 14.8569 10.3357 17.4882 11.4822 19.5194L20.7919 36.1846C21.1588 37.2925 21.9384 38.3081 22.9014 38.8621L23.039 38.9544C25.3779 40.2931 27.8085 39.416 28.8633 37.3848Z" fill="white"/>
</mask>
<g mask="url(#mask1_175_1803)">
<path d="M37.3016 24.6427C37.3016 17.8104 31.7525 12.2246 24.9652 12.2246C18.1779 12.2246 12.6288 17.8104 12.6288 24.6427C12.6288 31.4749 18.1779 37.0607 24.9652 37.0607C31.7525 37.0607 37.3016 31.4749 37.3016 24.6427ZM13.5002 24.6427C13.5002 18.2721 18.6365 13.1017 24.9652 13.1017C31.2939 13.1017 36.4303 18.2721 36.4303 24.6427C36.4303 31.0133 31.2939 36.1836 24.9652 36.1836C18.6365 36.1836 13.5002 30.9671 13.5002 24.6427Z" fill="white"/>
<path d="M34.2421 24.6718C34.2421 19.5476 30.0688 15.3467 24.9783 15.3467C19.8878 15.3467 15.7145 19.5476 15.7145 24.6718C15.7145 29.7959 19.8878 33.9968 24.9783 33.9968C30.0688 33.9968 34.2421 29.7959 34.2421 24.6718ZM16.5859 24.6718C16.5859 20.0092 20.3464 16.2238 24.9783 16.2238C29.6102 16.2238 33.3707 20.0092 33.3707 24.6718C33.3707 29.3343 29.6102 33.1197 24.9783 33.1197C20.3464 33.1197 16.5859 29.2881 16.5859 24.6718Z" fill="white"/>
<path d="M30.9271 24.6429C30.9271 21.3191 28.2672 18.6416 24.9653 18.6416C21.6633 18.6416 19.0034 21.3191 19.0034 24.6429C19.0034 27.9667 21.6633 30.6442 24.9653 30.6442C28.2672 30.6442 30.9271 27.9667 30.9271 24.6429ZM19.8748 24.6429C19.8748 21.8269 22.1678 19.5187 24.9653 19.5187C27.7628 19.5187 30.0558 21.8269 30.0558 24.6429C30.0558 27.4589 27.7628 29.7671 24.9653 29.7671C22.1678 29.7671 19.8748 27.4589 19.8748 24.6429Z" fill="white"/>
</g>
</g>
</g>
<defs>
<linearGradient id="paint0_linear_175_1803" x1="24.9149" y1="12.6631" x2="24.9149" y2="39.594" gradientUnits="userSpaceOnUse">
<stop stop-color="#A1CC95"/>
<stop offset="1" stop-color="#26AAE1"/>
</linearGradient>
<clipPath id="clip0_175_1803">
<rect width="47.2195" height="48" fill="white" transform="translate(48.0001) rotate(90)"/>
</clipPath>
</defs>
</svg>
