<svg width="12" height="13" viewBox="0 0 12 13" fill="none" xmlns="http://www.w3.org/2000/svg">
<path d="M6 1.71875C5.05436 1.71875 4.12995 1.99917 3.34368 2.52454C2.55741 3.04991 1.94458 3.79664 1.5827 4.6703C1.22082 5.54395 1.12614 6.5053 1.31062 7.43278C1.49511 8.36025 1.95048 9.21218 2.61915 9.88085C3.28782 10.5495 4.13975 11.0049 5.06723 11.1894C5.9947 11.3739 6.95605 11.2792 7.82971 10.9173C8.70337 10.5554 9.4501 9.94259 9.97547 9.15632C10.5008 8.37005 10.7813 7.44564 10.7813 6.5C10.7798 5.23239 10.2755 4.01713 9.37921 3.12079C8.48288 2.22445 7.26761 1.72024 6 1.71875ZM6 10.7188C5.16561 10.7188 4.34996 10.4713 3.65619 10.0078C2.96242 9.5442 2.42169 8.88532 2.10239 8.11445C1.78308 7.34357 1.69953 6.49532 1.86231 5.67696C2.0251 4.85861 2.42689 4.1069 3.0169 3.51689C3.6069 2.92689 4.35861 2.52509 5.17696 2.36231C5.99532 2.19953 6.84357 2.28308 7.61445 2.60238C8.38532 2.92169 9.0442 3.46242 9.50776 4.15619C9.97133 4.84996 10.2188 5.66561 10.2188 6.5C10.2175 7.6185 9.77264 8.69084 8.98174 9.48174C8.19084 10.2726 7.1185 10.7175 6 10.7188ZM8.90625 6.5C8.90625 6.57459 8.87662 6.64613 8.82388 6.69887C8.77113 6.75162 8.69959 6.78125 8.625 6.78125H6C5.92541 6.78125 5.85387 6.75162 5.80113 6.69887C5.74838 6.64613 5.71875 6.57459 5.71875 6.5V3.875C5.71875 3.80041 5.74838 3.72887 5.80113 3.67613C5.85387 3.62338 5.92541 3.59375 6 3.59375C6.07459 3.59375 6.14613 3.62338 6.19888 3.67613C6.25162 3.72887 6.28125 3.80041 6.28125 3.875V6.21875H8.625C8.69959 6.21875 8.77113 6.24838 8.82388 6.30113C8.87662 6.35387 8.90625 6.42541 8.90625 6.5Z" fill="#383838"/>
</svg>
