<svg width="32" height="32" viewBox="0 0 32 32" fill="none" xmlns="http://www.w3.org/2000/svg">
<path d="M9.99011 26.386C12.5108 27.8448 15.476 28.3372 18.3328 27.7713C21.1897 27.2054 23.7433 25.6198 25.5175 23.3102C27.2916 21.0006 28.1653 18.1245 27.9756 15.2183C27.7859 12.3121 26.5457 9.5741 24.4864 7.51473C22.427 5.45536 19.689 4.21521 16.7828 4.0255C13.8766 3.83579 11.0005 4.70946 8.69092 6.48363C6.3813 8.2578 4.79572 10.8114 4.2298 13.6682C3.66389 16.5251 4.15626 19.4903 5.61511 22.011L4.05136 26.6797C3.9926 26.8559 3.98407 27.045 4.02673 27.2258C4.0694 27.4065 4.16156 27.5719 4.29289 27.7032C4.42423 27.8345 4.58955 27.9267 4.77032 27.9694C4.95109 28.012 5.14017 28.0035 5.31636 27.9447L9.99011 26.386Z" stroke="#43B74A" stroke-width="2" stroke-linecap="round" stroke-linejoin="round"/>
<path d="M12 12H21L12 21H21" stroke="#43B74A" stroke-width="2" stroke-linecap="round" stroke-linejoin="round"/>
</svg>
