<svg width="12" height="96" viewBox="0 0 12 96" fill="none" xmlns="http://www.w3.org/2000/svg">
<path d="M6 84.6667C3.05448 84.6667 0.66667 87.0545 0.66667 90C0.666671 92.9455 3.05449 95.3333 6 95.3333C8.94552 95.3333 11.3333 92.9455 11.3333 90C11.3333 87.0545 8.94552 84.6667 6 84.6667ZM5 3.75C5 4.30228 5.44772 4.75 6 4.75C6.55228 4.75 7 4.30228 7 3.75L5 3.75ZM7 11.25C7 10.6977 6.55229 10.25 6 10.25C5.44772 10.25 5 10.6977 5 11.25L7 11.25ZM5 18.75C5 19.3023 5.44772 19.75 6 19.75C6.55229 19.75 7 19.3023 7 18.75L5 18.75ZM7 26.25C7 25.6977 6.55229 25.25 6 25.25C5.44772 25.25 5 25.6977 5 26.25L7 26.25ZM5 33.75C5 34.3023 5.44772 34.75 6 34.75C6.55229 34.75 7 34.3023 7 33.75L5 33.75ZM7 41.25C7 40.6977 6.55229 40.25 6 40.25C5.44772 40.25 5 40.6977 5 41.25L7 41.25ZM5 48.75C5 49.3023 5.44772 49.75 6 49.75C6.55229 49.75 7 49.3023 7 48.75L5 48.75ZM7 56.25C7 55.6977 6.55229 55.25 6 55.25C5.44772 55.25 5 55.6977 5 56.25L7 56.25ZM5 63.75C5 64.3023 5.44772 64.75 6 64.75C6.55229 64.75 7 64.3023 7 63.75L5 63.75ZM7 71.25C7 70.6977 6.55229 70.25 6 70.25C5.44772 70.25 5 70.6977 5 71.25L7 71.25ZM5 78.75C5 79.3023 5.44772 79.75 6 79.75C6.55229 79.75 7 79.3023 7 78.75L5 78.75ZM7 86.25C7 85.6977 6.55229 85.25 6 85.25C5.44772 85.25 5 85.6977 5 86.25L7 86.25ZM5 4.37114e-08L5 3.75L7 3.75L7 -4.37114e-08L5 4.37114e-08ZM5 11.25L5 18.75L7 18.75L7 11.25L5 11.25ZM5 26.25L5 33.75L7 33.75L7 26.25L5 26.25ZM5 41.25L5 48.75L7 48.75L7 41.25L5 41.25ZM5 56.25L5 63.75L7 63.75L7 56.25L5 56.25ZM5 71.25L5 78.75L7 78.75L7 71.25L5 71.25ZM5 86.25L5 90L7 90L7 86.25L5 86.25ZM6 84.6667C3.05448 84.6667 0.66667 87.0545 0.66667 90C0.666671 92.9455 3.05449 95.3333 6 95.3333C8.94552 95.3333 11.3333 92.9455 11.3333 90C11.3333 87.0545 8.94552 84.6667 6 84.6667ZM5 3.75C5 4.30228 5.44772 4.75 6 4.75C6.55228 4.75 7 4.30228 7 3.75L5 3.75ZM7 11.25C7 10.6977 6.55229 10.25 6 10.25C5.44772 10.25 5 10.6977 5 11.25L7 11.25ZM5 18.75C5 19.3023 5.44772 19.75 6 19.75C6.55229 19.75 7 19.3023 7 18.75L5 18.75ZM7 26.25C7 25.6977 6.55229 25.25 6 25.25C5.44772 25.25 5 25.6977 5 26.25L7 26.25ZM5 33.75C5 34.3023 5.44772 34.75 6 34.75C6.55229 34.75 7 34.3023 7 33.75L5 33.75ZM7 41.25C7 40.6977 6.55229 40.25 6 40.25C5.44772 40.25 5 40.6977 5 41.25L7 41.25ZM5 48.75C5 49.3023 5.44772 49.75 6 49.75C6.55229 49.75 7 49.3023 7 48.75L5 48.75ZM7 56.25C7 55.6977 6.55229 55.25 6 55.25C5.44772 55.25 5 55.6977 5 56.25L7 56.25ZM5 63.75C5 64.3023 5.44772 64.75 6 64.75C6.55229 64.75 7 64.3023 7 63.75L5 63.75ZM7 71.25C7 70.6977 6.55229 70.25 6 70.25C5.44772 70.25 5 70.6977 5 71.25L7 71.25ZM5 78.75C5 79.3023 5.44772 79.75 6 79.75C6.55229 79.75 7 79.3023 7 78.75L5 78.75ZM7 86.25C7 85.6977 6.55229 85.25 6 85.25C5.44772 85.25 5 85.6977 5 86.25L7 86.25ZM5 4.37114e-08L5 3.75L7 3.75L7 -4.37114e-08L5 4.37114e-08ZM5 11.25L5 18.75L7 18.75L7 11.25L5 11.25ZM5 26.25L5 33.75L7 33.75L7 26.25L5 26.25ZM5 41.25L5 48.75L7 48.75L7 41.25L5 41.25ZM5 56.25L5 63.75L7 63.75L7 56.25L5 56.25ZM5 71.25L5 78.75L7 78.75L7 71.25L5 71.25ZM5 86.25L5 90L7 90L7 86.25L5 86.25Z" fill="url(#paint0_linear_175_1962)"/>
<defs>
<linearGradient id="paint0_linear_175_1962" x1="5.5" y1="90" x2="5.5" y2="2.18557e-08" gradientUnits="userSpaceOnUse">
<stop stop-color="#26AAE1"/>
<stop offset="1" stop-color="#26AAE1" stop-opacity="0"/>
</linearGradient>
</defs>
</svg>
