<svg width="298" height="128" viewBox="0 0 298 128" fill="none" xmlns="http://www.w3.org/2000/svg">
<g clip-path="url(#clip0_175_1961)">
<path fill-rule="evenodd" clip-rule="evenodd" d="M49.729 60.0742L281.94 57.513C281.94 57.513 285.355 57.0862 283.648 61.7816H48.0216L49.729 60.0742Z" fill="url(#paint0_linear_175_1961)"/>
<path d="M125.213 14.6135C125.213 8.71644 123.593 0.742713 110.3 0.742713C106.414 0.712833 102.623 1.95713 99.5115 4.28564C99.0718 2.52485 97.7421 1.63058 95.0849 1.63058H87.9969C88.7397 7.10931 89.0385 12.6393 88.8912 18.1671V23.6437C88.8912 29.8481 88.7482 36.1955 88.3 40.1823H100.707L100.694 40.1503C100.246 36.1613 100.246 27.7458 100.246 22.8711V9.00243C101.851 8.39416 103.554 8.09109 105.268 8.10816C112.953 8.10816 113.544 12.8335 113.544 19.0357V34.6951C113.544 38.0907 115.169 40.161 118.564 40.161H125.949C125.407 35.2585 125.161 30.3283 125.21 25.3959V14.6135H125.213Z" fill="#55CFE0"/>
<path d="M19.4968 16.6925C15.0703 15.0683 12.1143 13.8859 12.1143 11.3782C12.1143 7.98462 15.6487 7.53642 18.6026 7.53642C22.3248 7.36141 25.9894 8.51393 28.9432 10.787V5.91222C28.9432 3.54956 28.7981 2.5251 27.0245 1.63083C24.0557 0.488984 20.8969 -0.061664 17.719 0.00663343C11.0706 0.00663343 5.90985e-05 2.51443 5.90985e-05 12.2617C5.90985e-05 18.9058 4.87052 21.2578 9.44644 23.0421C16.0948 25.552 18.6004 26.585 18.6004 29.3916C18.6004 32.3433 16.2399 33.673 11.5124 33.673C7.45942 33.7349 3.47042 32.6613 -0.0020752 30.5697V34.8511C-0.0020752 38.394 0.58699 39.5764 3.25059 40.317C6.34531 41.0576 9.52114 41.4055 12.7012 41.35C18.4596 41.35 30.7168 39.8731 30.7168 28.3565C30.7168 21.1191 24.6618 18.6091 19.4926 16.6904L19.4968 16.6925Z" fill="#55CFE0"/>
<path d="M75.8955 18.1674C75.8955 11.9651 76.0385 5.61559 76.4867 1.63086H64.0822L64.0865 1.64367C64.3853 5.62839 64.5347 14.0439 64.5347 18.9186V32.7894C62.9318 33.3977 61.2286 33.7008 59.5148 33.6837C51.8335 33.6837 51.238 28.9584 51.238 22.7561V7.09465C51.238 3.69686 49.6117 1.63086 46.216 1.63086H38.8335C39.3756 6.53333 39.6232 11.4636 39.572 16.3959V27.1741C39.572 33.0797 41.2004 41.0555 54.4864 41.0555C58.3708 41.0833 62.1571 39.8369 65.2667 37.5105C65.7107 39.2734 67.0403 40.1677 69.6975 40.1677H76.7919C76.1217 34.6804 75.8229 29.1547 75.8976 23.629V18.1652L75.8955 18.1674Z" fill="#55CFE0"/>
<path d="M136.58 1.63082C131.709 1.63082 131.116 3.69681 131.116 7.09674V11.0836C133.588 10.0421 136.268 9.58747 138.947 9.75394H142.778V22.8862C142.778 27.7588 142.635 36.1765 142.187 40.1655H154.736C154.292 36.1765 154.147 27.761 154.147 22.8862V9.7454H158.576C163.741 9.7454 165.071 9.00694 166.106 6.79154C166.808 4.95818 167.399 3.08641 167.877 1.18262C165.579 1.49209 163.261 1.64149 160.943 1.63082H136.576H136.58Z" fill="#55CFE0"/>
<path d="M189.299 0.446289C176.007 0.446289 168.774 7.97821 168.774 20.9761C168.774 33.9739 175.563 41.3522 188.853 41.3522C202.143 41.3522 209.526 33.3784 209.526 20.5321H209.528C209.528 7.53641 202.592 0.448423 189.299 0.448423V0.446289ZM189.301 33.5236C183.246 33.5236 180.147 29.5367 180.147 20.6773C180.147 11.8178 183.248 7.68155 189.301 7.68155C195.354 7.68155 198.161 11.8178 198.161 20.6773C198.161 29.5367 195.209 33.5236 189.301 33.5236Z" fill="#55CFE0"/>
<path d="M245.559 21.7107C248.771 19.7279 250.684 16.185 250.579 12.4116C250.579 2.6664 242.003 1.33887 235.517 1.33887C231.827 1.33887 224.148 1.63127 218.387 1.63127C219.132 7.11213 219.431 12.6442 219.282 18.172V23.638C219.282 29.8381 219.139 36.3349 218.691 40.1766H230.788C230.344 36.1876 230.197 27.7721 230.197 22.8974V8.86865C231.298 8.54424 232.444 8.39484 233.592 8.42045C238.021 8.42045 239.203 11.0798 239.203 14.1788C239.203 16.836 238.317 19.1986 234.476 21.414C233.592 21.8622 233.735 22.5879 234.183 23.4843C235.067 25.2579 240.236 33.9701 241.86 36.3327C244.814 40.6141 245.849 42.3877 250.573 42.3877H250.577C253.509 42.3322 256.427 41.9844 259.291 41.3526C254.261 35.7074 249.668 29.6866 245.557 23.3392C244.966 22.4513 244.966 22.1589 245.557 21.7107H245.559Z" fill="#55CFE0"/>
<path d="M290.138 1.33651C287.308 1.12735 284.61 2.56373 283.204 5.0267C280.856 9.2398 278.737 13.5788 276.856 18.0203C274.933 13.5233 272.769 9.13522 270.377 4.8709C269.194 2.9543 267.717 1.32797 262.847 1.32797C260.081 1.3237 257.319 1.4731 254.57 1.77617C259.882 6.65303 266.085 17.4312 268.887 23.0444C269.95 24.8394 270.56 26.8648 270.661 28.9479V29.8421C270.693 33.2976 270.496 36.7508 270.069 40.1807H282.619C282.19 36.753 281.994 33.2976 282.03 29.8421V28.9479L282.017 28.9564C281.898 26.7431 282.412 24.5405 283.496 22.6069C286.444 17.141 293.681 5.1825 297.521 1.78471C295.07 1.50298 292.605 1.35358 290.138 1.33651Z" fill="#55CFE0"/>
<path fill-rule="evenodd" clip-rule="evenodd" d="M76.5614 105.464H83.0219C85.5425 105.464 86.5008 106.335 86.5008 108.465C86.5008 110.595 85.5425 111.384 83.0219 111.384H76.5614V105.464ZM66.5516 127.014H76.5614V118.25H87.282C94.3806 118.25 96.9354 114.069 96.9354 108.663C96.9354 102.388 94.3081 98.8369 87.2094 98.8369H66.5494V127.014H66.5516ZM100.239 98.8348H127.178V105.701H110.247V109.489H125.972V116.357H110.247V120.146H127.178V127.012H100.239V98.8348ZM141.378 105.464H147.838C150.359 105.464 151.317 106.335 151.317 108.465C151.317 110.595 150.359 111.384 147.838 111.384H141.378V105.464ZM131.368 127.014H141.378V118.25H152.098C159.199 118.25 161.756 114.069 161.756 108.663C161.756 102.388 159.129 98.8369 152.028 98.8369H131.37V127.014H131.368ZM171.444 115.055C166.545 114.225 164.524 111.069 164.524 107.122C164.524 99.8208 170.948 97.8487 179.183 97.8487C190.469 97.8487 195.119 101.123 195.476 107.084H183.833C183.833 105.94 183.229 105.227 182.309 104.832C181.421 104.399 180.286 104.241 179.185 104.241C176.203 104.241 175.174 105.069 175.174 106.254C175.174 107.041 175.492 107.556 176.487 107.713L188.45 109.686C193.491 110.514 196.615 113.12 196.615 117.894C196.615 124.762 191.574 128 180.322 128C172.62 128 164.206 126.815 164.172 118.528H176.241C176.276 119.473 176.596 120.105 177.307 120.541C178.049 120.935 179.151 121.134 180.713 121.134C183.835 121.134 184.689 120.186 184.689 118.844C184.689 118.016 184.226 117.188 182.881 116.951L171.45 115.055H171.444ZM199.875 98.8348H209.884V127.012H199.875V98.8348ZM246.981 116.041C246.342 119.751 245.205 122.752 242.718 124.803C240.27 126.856 236.435 128 230.331 128C224.227 128 213.009 127.526 213.009 112.925C213.009 98.3247 224.261 97.8487 230.331 97.8487C236.401 97.8487 245.664 98.7153 246.978 109.886H235.69C235.406 107.871 234.198 104.952 230.331 104.952C226.246 104.952 223.657 107.201 223.657 112.925C223.657 118.65 226.178 120.895 229.834 120.895C232.994 120.895 234.875 119.435 235.692 116.041H246.981ZM260.079 112.925C260.079 107.201 262.672 104.952 266.753 104.952C270.833 104.952 273.427 107.201 273.427 112.925C273.427 118.65 270.833 120.895 266.753 120.895C262.67 120.895 260.079 118.647 260.079 112.925ZM249.429 112.925C249.429 127.524 260.681 128 266.753 128C272.825 128 284.075 127.526 284.075 112.925C284.075 98.3247 272.823 97.8487 266.753 97.8487C260.683 97.8487 249.429 98.3225 249.429 112.925ZM51.428 99.1144C52.0747 85.5958 40.415 70.3718 24.5231 68.4894L24.5508 68.3037C40.2187 68.3037 52.2305 82.8084 52.2305 94.2525C52.2155 96.6343 52.0277 98.1113 51.6926 99.1827L51.4301 99.1144H51.428ZM50.4782 100.832C49.4367 102.107 48.1241 103.389 46.5895 104.606C43.7637 88.3533 31.8202 74.141 23.3769 69.9941L23.1955 70.12C31.6879 77.0885 41.8151 90.6242 45.7529 105.244C43.7445 106.719 41.5739 107.963 39.2838 108.949C31.2717 99.8123 23.7995 82.1873 21.3921 71.0057L21.1466 71.0804C21.2 81.9354 28.909 100.363 38.3063 109.357C36.1507 110.211 33.9097 110.83 31.6217 111.203C22.6129 107.634 16.1993 96.2032 16.1993 84.4923C16.1993 76.8473 18.53 72.1198 18.9803 71.1509L18.7882 71.074C18.2418 71.9 14.8291 76.6253 14.8291 84.8786C14.8291 98.1155 21.3579 108.232 30.0231 111.419C26.9241 111.76 23.791 111.613 20.7368 110.983L20.6728 111.186C21.5991 111.527 24.745 112.849 29.5429 112.849C40.3958 112.849 47.7335 106.106 50.6852 100.98L50.4739 100.837L50.4782 100.832Z" fill="#28458E"/>
<path fill-rule="evenodd" clip-rule="evenodd" d="M28.4609 63.5293C20.2332 63.5293 10.5862 69.4669 10.5862 74.8944C10.5862 76.9946 12.507 78.7682 16.4811 78.7682C25.7077 78.7682 34.2811 72.4293 34.2811 67.4991C34.2811 64.9059 31.7904 63.5293 28.4588 63.5293H28.4609ZM31.7456 67.3454C31.7456 71.5009 23.7654 76.5805 17.0958 76.5805C14.1483 76.5805 12.5561 75.4216 12.5561 73.5071C12.5561 69.2919 20.6259 64.2998 26.8836 64.2998C30.9623 64.2998 31.7456 66.3764 31.7456 67.3475V67.3454Z" fill="#0096D6"/>
<path fill-rule="evenodd" clip-rule="evenodd" d="M7.30999 77.4084C7.07948 77.8075 6.1532 79.6217 6.1532 81.4806C6.1532 84.9275 9.63423 88.1268 16.0392 88.1268C28.3584 88.1268 42.5941 79.0582 42.5941 70.6406C42.5941 66.8629 39.0171 64.8075 36.5327 64.3828L36.4858 64.5301C37.2584 64.7734 40.0885 66.0902 40.0885 69.456C40.0885 76.1641 27.5217 85.3032 15.002 85.3032C10.2105 85.3032 7.19046 82.9384 7.19046 79.4915C7.19046 78.4009 7.4167 77.6837 7.47646 77.4746L7.30999 77.4105V77.4084Z" fill="#EB7B30"/>
<path fill-rule="evenodd" clip-rule="evenodd" d="M47.6716 71.2686C48.0088 71.5247 50.0386 73.2172 50.0386 76.4143C50.0386 87.3184 32.9535 98.0411 17.847 98.0411C8.83814 98.0411 4.73176 93.5933 4.91531 89.6448H5.07751C5.42967 91.6959 8.35579 95.3669 16.2399 95.3669C31.3635 95.3669 48.25 84.2707 48.25 74.5511C48.25 72.8842 47.7975 71.8448 47.5414 71.3817L47.6738 71.2686H47.6716Z" fill="#00984A"/>
<path fill-rule="evenodd" clip-rule="evenodd" d="M53.3829 81.4465C53.4534 81.6791 53.8226 82.7228 53.8226 84.3576C53.8226 96.489 36.5306 106.872 21.4923 106.872C13.7512 106.872 9.71102 103.112 8.8573 101.586L8.99603 101.483C11.1367 103.357 15.3562 104.779 20.28 104.779C33.5618 104.779 53.3808 94.6748 53.2037 81.4892L53.3851 81.4443L53.3829 81.4465Z" fill="#DF002C"/>
</g>
<defs>
<linearGradient id="paint0_linear_175_1961" x1="48.0216" y1="59.6431" x2="284.126" y2="59.6431" gradientUnits="userSpaceOnUse">
<stop stop-color="#5AD0EB"/>
<stop offset="1" stop-color="#093DA2"/>
</linearGradient>
<clipPath id="clip0_175_1961">
<rect width="297.521" height="128" fill="white"/>
</clipPath>
</defs>
</svg>
