<svg width="1324" height="108" viewBox="0 0 1324 108" fill="none" xmlns="http://www.w3.org/2000/svg">
<g opacity="0.2">
<mask id="path-1-outside-1_175_1959" maskUnits="userSpaceOnUse" x="0" y="0" width="1324" height="108" fill="black">
<rect fill="white" width="1324" height="108"/>
<path d="M42.059 104.536C34.8057 104.536 27.6377 103.085 20.555 100.184C13.4723 97.1973 8.18168 93.784 4.68301 89.944L19.531 75.096C22.5177 77.5707 26.443 79.832 31.307 81.88C36.2563 83.8427 40.7363 84.824 44.747 84.824C49.1843 84.824 52.427 84.0987 54.475 82.648C56.6083 81.1973 57.675 79.3627 57.675 77.144C57.675 74.9253 56.779 72.92 54.987 71.128C53.195 69.2507 49.9097 67.2453 45.131 65.112L29.003 58.072C21.1523 54.6587 15.5203 50.9467 12.107 46.936C8.77901 42.84 7.11501 37.976 7.11501 32.344C7.11501 26.3707 8.60835 21.208 11.595 16.856C14.667 12.504 18.891 9.17599 24.267 6.87199C29.643 4.56799 35.7017 3.41599 42.443 3.41599C54.6457 3.41599 65.227 7.63999 74.187 16.088L60.619 29.656C57.3763 27.096 54.3043 25.2613 51.403 24.152C48.587 22.9573 45.7283 22.36 42.827 22.36C38.3043 22.36 34.6777 23.2987 31.947 25.176C29.2163 26.968 27.851 29.2293 27.851 31.96C27.851 33.9227 28.6617 35.7573 30.283 37.464C31.9897 39.0853 34.4217 40.4933 37.579 41.688L53.835 48.088C61.771 51.0747 67.8297 55 72.011 59.864C76.2777 64.728 78.411 70.232 78.411 76.376C78.411 85.4213 75.0404 92.376 68.299 97.24C61.5577 102.104 52.811 104.536 42.059 104.536ZM136.466 104.536C129.042 104.536 122.087 102.915 115.602 99.672C109.117 96.4293 103.869 91.9067 99.858 86.104C95.9327 80.3013 93.97 73.6453 93.97 66.136V4.952H114.706V61.4C114.706 68.312 116.413 73.7307 119.826 77.656C123.239 81.5813 128.786 83.544 136.466 83.544C144.146 83.544 149.693 81.5813 153.106 77.656C156.519 73.7307 158.226 68.312 158.226 61.4V4.952H178.962V66.136C178.962 73.6453 176.957 80.3013 172.946 86.104C169.021 91.9067 163.815 96.4293 157.33 99.672C150.845 102.915 143.89 104.536 136.466 104.536ZM199.204 5.71999H221.988L261.924 67.416H262.436L261.924 56.152V5.71999H282.66V103H259.876L219.94 41.304H219.428L219.94 52.568V103H199.204V5.71999ZM326.831 23.384H299.311V4.952H375.087V23.384H347.567V103H326.831V23.384ZM435.837 104.536C426.536 104.536 418.002 102.36 410.237 98.008C402.557 93.5707 396.456 87.512 391.933 79.832C387.496 72.0667 385.277 63.448 385.277 53.976C385.277 43.992 387.624 35.16 392.317 27.48C397.01 19.8 403.24 13.8693 411.005 9.688C418.77 5.50666 427.048 3.41599 435.837 3.41599C444.626 3.41599 452.904 5.50666 460.669 9.688C468.434 13.8693 474.664 19.8 479.357 27.48C484.05 35.16 486.397 43.992 486.397 53.976C486.397 64.1307 484.05 73.048 479.357 80.728C474.664 88.3227 468.434 94.2107 460.669 98.392C452.904 102.488 444.626 104.536 435.837 104.536ZM405.629 53.976C405.629 59.864 406.952 65.1973 409.597 69.976C412.242 74.7547 415.869 78.5093 420.477 81.24C425.085 83.9707 430.205 85.336 435.837 85.336C441.128 85.336 446.077 84.0987 450.685 81.624C455.293 79.064 459.005 75.3947 461.821 70.616C464.637 65.8373 466.045 60.2907 466.045 53.976C466.045 48.088 464.722 42.7547 462.077 37.976C459.432 33.1973 455.805 29.4427 451.197 26.712C446.589 23.9813 441.469 22.616 435.837 22.616C430.546 22.616 425.597 23.896 420.989 26.456C416.381 28.9307 412.669 32.5573 409.853 37.336C407.037 42.1147 405.629 47.6613 405.629 53.976ZM505.904 4.952H546.096C551.813 4.952 557.147 6.01866 562.096 8.15199C567.045 10.2853 571.056 13.528 574.128 17.88C577.285 22.1467 578.864 27.4373 578.864 33.752C578.864 41.6027 577.029 48.1307 573.36 53.336C569.776 58.5413 565.125 62.3813 559.408 64.856V65.368L579.888 103H556.592L538.288 67.672H526.64V103H505.904V4.952ZM536.496 49.24C542.64 49.24 547.291 48.7707 550.448 47.832C553.605 46.8933 555.739 45.4853 556.848 43.608C557.957 41.7307 558.512 39.128 558.512 35.8C558.512 32.984 557.915 30.7227 556.72 29.016C555.525 27.224 553.307 25.8587 550.064 24.92C546.907 23.896 542.384 23.384 536.496 23.384H526.64V49.24H536.496ZM619.172 65.624L584.356 4.952H607.652L629.284 44.12H629.796L651.428 4.952H674.724L639.908 65.624V103H619.172V65.624ZM734.854 4.952H775.046C785.201 4.952 793.179 7.34133 798.982 12.12C804.87 16.8133 807.814 24.024 807.814 33.752C807.814 40.92 806.278 47.064 803.206 52.184C800.134 57.2187 795.825 61.0587 790.278 63.704C784.731 66.3493 778.289 67.672 770.95 67.672H755.59V103H734.854V4.952ZM765.446 49.24C771.59 49.24 776.241 48.7707 779.398 47.832C782.555 46.8933 784.689 45.4853 785.798 43.608C786.907 41.7307 787.462 39.128 787.462 35.8C787.462 33.0693 786.865 30.808 785.67 29.016C784.561 27.224 782.385 25.8587 779.142 24.92C775.985 23.896 771.419 23.384 765.446 23.384H755.59V49.24H765.446ZM824.254 4.952H885.694V23.384H844.99V42.712H882.622V61.144H844.99V84.568H886.206V103H824.254V4.952ZM906.904 4.952H947.096C957.251 4.952 965.229 7.34133 971.032 12.12C976.92 16.8133 979.864 24.024 979.864 33.752C979.864 40.92 978.328 47.064 975.256 52.184C972.184 57.2187 967.875 61.0587 962.328 63.704C956.781 66.3493 950.339 67.672 943 67.672H927.64V103H906.904V4.952ZM937.496 49.24C943.64 49.24 948.291 48.7707 951.448 47.832C954.605 46.8933 956.739 45.4853 957.848 43.608C958.957 41.7307 959.512 39.128 959.512 35.8C959.512 33.0693 958.915 30.808 957.72 29.016C956.611 27.224 954.435 25.8587 951.192 24.92C948.035 23.896 943.469 23.384 937.496 23.384H927.64V49.24H937.496ZM1029.58 104.536C1022.33 104.536 1015.16 103.085 1008.08 100.184C1001 97.1973 995.707 93.784 992.208 89.944L1007.06 75.096C1010.04 77.5707 1013.97 79.832 1018.83 81.88C1023.78 83.8427 1028.26 84.824 1032.27 84.824C1036.71 84.824 1039.95 84.0987 1042 82.648C1044.13 81.1973 1045.2 79.3627 1045.2 77.144C1045.2 74.9253 1044.3 72.92 1042.51 71.128C1040.72 69.2507 1037.43 67.2453 1032.66 65.112L1016.53 58.072C1008.68 54.6587 1003.05 50.9467 999.632 46.936C996.304 42.84 994.64 37.976 994.64 32.344C994.64 26.3707 996.133 21.208 999.12 16.856C1002.19 12.504 1006.42 9.17599 1011.79 6.87199C1017.17 4.56799 1023.23 3.41599 1029.97 3.41599C1042.17 3.41599 1052.75 7.63999 1061.71 16.088L1048.14 29.656C1044.9 27.096 1041.83 25.2613 1038.93 24.152C1036.11 22.9573 1033.25 22.36 1030.35 22.36C1025.83 22.36 1022.2 23.2987 1019.47 25.176C1016.74 26.968 1015.38 29.2293 1015.38 31.96C1015.38 33.9227 1016.19 35.7573 1017.81 37.464C1019.51 39.0853 1021.95 40.4933 1025.1 41.688L1041.36 48.088C1049.3 51.0747 1055.35 55 1059.54 59.864C1063.8 64.728 1065.94 70.232 1065.94 76.376C1065.94 85.4213 1062.57 92.376 1055.82 97.24C1049.08 102.104 1040.34 104.536 1029.58 104.536ZM1084.08 4.952H1104.82V103H1084.08V4.952ZM1174.04 104.536C1164.23 104.536 1155.57 102.445 1148.06 98.264C1140.55 93.9973 1134.71 88.0667 1130.52 80.472C1126.34 72.792 1124.25 63.96 1124.25 53.976C1124.25 43.992 1126.6 35.16 1131.29 27.48C1135.99 19.8 1142.17 13.8693 1149.85 9.688C1157.62 5.50666 1165.94 3.41599 1174.81 3.41599C1183.94 3.41599 1192.31 5.63466 1199.9 10.072C1203.23 11.9493 1206.04 14.2107 1208.35 16.856L1194.01 31.064C1191.37 28.3333 1188.25 26.2427 1184.67 24.792C1181.17 23.3413 1177.5 22.616 1173.66 22.616C1168.45 22.616 1163.63 23.9813 1159.2 26.712C1154.76 29.3573 1151.22 33.0693 1148.57 37.848C1146.01 42.6267 1144.73 48.0027 1144.73 53.976C1144.73 60.376 1145.93 65.9653 1148.32 70.744C1150.71 75.4373 1154.08 79.064 1158.43 81.624C1162.87 84.0987 1167.94 85.336 1173.66 85.336C1178.69 85.336 1183.81 83.9707 1189.02 81.24C1190.21 80.472 1192.01 79.064 1194.4 77.016L1208.73 90.84C1204.12 95.2773 1198.88 98.6907 1192.99 101.08C1187.1 103.384 1180.79 104.536 1174.04 104.536ZM1269.96 104.536C1260.66 104.536 1252.13 102.36 1244.36 98.008C1236.68 93.5707 1230.58 87.512 1226.06 79.832C1221.62 72.0667 1219.4 63.448 1219.4 53.976C1219.4 43.992 1221.75 35.16 1226.44 27.48C1231.14 19.8 1237.36 13.8693 1245.13 9.688C1252.9 5.50666 1261.17 3.41599 1269.96 3.41599C1278.75 3.41599 1287.03 5.50666 1294.79 9.688C1302.56 13.8693 1308.79 19.8 1313.48 27.48C1318.18 35.16 1320.52 43.992 1320.52 53.976C1320.52 64.1307 1318.18 73.048 1313.48 80.728C1308.79 88.3227 1302.56 94.2107 1294.79 98.392C1287.03 102.488 1278.75 104.536 1269.96 104.536ZM1239.75 53.976C1239.75 59.864 1241.08 65.1973 1243.72 69.976C1246.37 74.7547 1249.99 78.5093 1254.6 81.24C1259.21 83.9707 1264.33 85.336 1269.96 85.336C1275.25 85.336 1280.2 84.0987 1284.81 81.624C1289.42 79.064 1293.13 75.3947 1295.95 70.616C1298.76 65.8373 1300.17 60.2907 1300.17 53.976C1300.17 48.088 1298.85 42.7547 1296.2 37.976C1293.56 33.1973 1289.93 29.4427 1285.32 26.712C1280.71 23.9813 1275.59 22.616 1269.96 22.616C1264.67 22.616 1259.72 23.896 1255.11 26.456C1250.51 28.9307 1246.79 32.5573 1243.98 37.336C1241.16 42.1147 1239.75 47.6613 1239.75 53.976Z"/>
</mask>
<path d="M20.555 100.184L19.3894 102.948L19.4036 102.954L19.4178 102.96L20.555 100.184ZM4.68301 89.944L2.56169 87.8227L0.536744 89.8476L2.46542 91.9645L4.68301 89.944ZM19.531 75.096L21.4451 72.7859L19.3414 71.0429L17.4097 72.9747L19.531 75.096ZM31.307 81.88L30.1428 84.6449L30.1719 84.6571L30.2011 84.6687L31.307 81.88ZM54.475 82.648L52.7881 80.1672L52.7644 80.1833L52.741 80.1999L54.475 82.648ZM54.987 71.128L52.8169 73.1994L52.841 73.2247L52.8657 73.2493L54.987 71.128ZM45.131 65.112L46.354 62.3726L46.3426 62.3675L46.3312 62.3625L45.131 65.112ZM29.003 58.072L30.2032 55.3225L30.1992 55.3208L29.003 58.072ZM12.107 46.936L9.77867 48.8278L9.80023 48.8543L9.82239 48.8804L12.107 46.936ZM11.595 16.856L9.14411 15.1259L9.13268 15.1421L9.12147 15.1585L11.595 16.856ZM24.267 6.87199L25.4488 9.62943L24.267 6.87199ZM74.187 16.088L76.3083 18.2093L78.493 16.0247L76.2451 13.9052L74.187 16.088ZM60.619 29.656L58.7601 32.0106L60.854 33.6637L62.7403 31.7773L60.619 29.656ZM51.403 24.152L50.2314 26.9137L50.2811 26.9348L50.3316 26.9541L51.403 24.152ZM31.947 25.176L33.593 27.6841L33.62 27.6664L33.6466 27.6481L31.947 25.176ZM30.283 37.464L28.108 39.5303L28.161 39.586L28.2168 39.639L30.283 37.464ZM37.579 41.688L38.678 38.8965L38.6594 38.8892L38.6407 38.8821L37.579 41.688ZM53.835 48.088L52.736 50.8794L52.7571 50.8878L52.7783 50.8957L53.835 48.088ZM72.011 59.864L69.7361 61.8197L69.7458 61.831L69.7557 61.8423L72.011 59.864ZM68.299 97.24L70.0544 99.6729L68.299 97.24ZM42.059 101.536C35.217 101.536 28.4342 100.17 21.6922 97.4079L19.4178 102.96C26.8412 106.001 34.3944 107.536 42.059 107.536V101.536ZM21.7207 97.4197C14.8625 94.5277 10.0008 91.3261 6.9006 87.9235L2.46542 91.9645C6.3626 96.2419 12.0822 99.8669 19.3894 102.948L21.7207 97.4197ZM6.80433 92.0653L21.6523 77.2173L17.4097 72.9747L2.56169 87.8227L6.80433 92.0653ZM17.617 77.4061C20.8949 80.122 25.0985 82.521 30.1428 84.6449L32.4712 79.1151C27.7875 77.143 24.1405 75.0193 21.4451 72.7859L17.617 77.4061ZM30.2011 84.6687C35.3936 86.7278 40.256 87.824 44.747 87.824V81.824C41.2167 81.824 37.1191 80.9575 32.4129 79.0913L30.2011 84.6687ZM44.747 87.824C49.3851 87.824 53.3945 87.0897 56.2091 85.0961L52.741 80.1999C51.4595 81.1076 48.9835 81.824 44.747 81.824V87.824ZM56.1619 85.1288C58.9621 83.2247 60.675 80.5294 60.675 77.144H54.675C54.675 78.196 54.2546 79.17 52.7881 80.1672L56.1619 85.1288ZM60.675 77.144C60.675 74.0146 59.376 71.2743 57.1083 69.0067L52.8657 73.2493C54.1821 74.5657 54.675 75.8361 54.675 77.144H60.675ZM57.1571 69.0566C54.9408 66.7348 51.2009 64.5364 46.354 62.3726L43.9081 67.8514C48.6185 69.9543 51.4492 71.7665 52.8169 73.1994L57.1571 69.0566ZM46.3312 62.3625L30.2032 55.3225L27.8028 60.8215L43.9309 67.8615L46.3312 62.3625ZM30.1992 55.3208C22.5358 51.9889 17.3792 48.502 14.3916 44.9916L9.82239 48.8804C13.6615 53.3913 19.7689 57.3285 27.8068 60.8232L30.1992 55.3208ZM14.4354 45.0442C11.5722 41.5203 10.115 37.3367 10.115 32.344H4.11501C4.11501 38.6153 5.98581 44.1596 9.77867 48.8278L14.4354 45.0442ZM10.115 32.344C10.115 26.894 11.4688 22.3417 14.0686 18.5535L9.12147 15.1585C5.7479 20.0742 4.11501 25.8473 4.11501 32.344H10.115ZM14.0459 18.586C16.7671 14.7311 20.531 11.737 25.4488 9.62943L23.0853 4.11456C17.251 6.61496 12.5669 10.2769 9.14411 15.1259L14.0459 18.586ZM25.4488 9.62943C30.3987 7.50804 36.0465 6.41599 42.443 6.41599V0.415993C35.3569 0.415993 28.8874 1.62794 23.0853 4.11456L25.4488 9.62943ZM42.443 6.41599C53.8728 6.41599 63.72 10.3423 72.129 18.2708L76.2451 13.9052C66.734 4.93771 55.4186 0.415993 42.443 0.415993V6.41599ZM72.0657 13.9667L58.4977 27.5347L62.7403 31.7773L76.3083 18.2093L72.0657 13.9667ZM62.478 27.3014C59.0705 24.6113 55.7354 22.5967 52.4744 21.3498L50.3316 26.9541C52.8733 27.926 55.6822 29.5807 58.7601 32.0106L62.478 27.3014ZM52.5747 21.3902C49.4085 20.047 46.1526 19.36 42.827 19.36V25.36C45.3041 25.36 47.7655 25.8676 50.2314 26.9137L52.5747 21.3902ZM42.827 19.36C37.9134 19.36 33.6306 20.3779 30.2474 22.7039L33.6466 27.6481C35.7247 26.2194 38.6953 25.36 42.827 25.36V19.36ZM30.301 22.6679C26.9165 24.889 24.851 28.0095 24.851 31.96H30.851C30.851 30.4492 31.5162 29.047 33.593 27.6841L30.301 22.6679ZM24.851 31.96C24.851 34.8404 26.0692 37.3841 28.108 39.5303L32.458 35.3977C31.2542 34.1306 30.851 33.0049 30.851 31.96H24.851ZM28.2168 39.639C30.3098 41.6274 33.1359 43.2144 36.5173 44.4939L38.6407 38.8821C35.7075 37.7723 33.6695 36.5433 32.3493 35.289L28.2168 39.639ZM36.48 44.4794L52.736 50.8794L54.934 45.2965L38.678 38.8965L36.48 44.4794ZM52.7783 50.8957C60.3896 53.7602 65.9717 57.4407 69.7361 61.8197L74.286 57.9083C69.6877 52.5593 63.1524 48.3891 54.8917 45.2803L52.7783 50.8957ZM69.7557 61.8423C73.5702 66.1907 75.411 71.001 75.411 76.376H81.411C81.411 69.463 78.9852 63.2653 74.2663 57.8857L69.7557 61.8423ZM75.411 76.376C75.411 84.5565 72.4264 90.5626 66.5437 94.8071L70.0544 99.6729C77.6543 94.1894 81.411 86.2861 81.411 76.376H75.411ZM66.5437 94.8071C60.4452 99.2074 52.3656 101.536 42.059 101.536V107.536C53.2565 107.536 62.6702 105.001 70.0544 99.6729L66.5437 94.8071ZM115.602 99.672L114.26 102.355L115.602 99.672ZM99.858 86.104L97.3732 87.7849L97.3816 87.7974L97.3901 87.8097L99.858 86.104ZM93.97 4.952V1.952H90.97V4.952H93.97ZM114.706 4.952H117.706V1.952H114.706V4.952ZM119.826 77.656L122.09 75.6875H122.09L119.826 77.656ZM153.106 77.656L155.37 79.6245L153.106 77.656ZM158.226 4.952V1.952H155.226V4.952H158.226ZM178.962 4.952H181.962V1.952H178.962V4.952ZM172.946 86.104L170.478 84.3983L170.47 84.4106L170.461 84.4231L172.946 86.104ZM157.33 99.672L158.672 102.355L157.33 99.672ZM136.466 101.536C129.496 101.536 123.002 100.018 116.944 96.9887L114.26 102.355C121.172 105.811 128.588 107.536 136.466 107.536V101.536ZM116.944 96.9887C110.897 93.9653 106.041 89.7736 102.326 84.3983L97.3901 87.8097C101.696 94.0398 107.336 98.8933 114.26 102.355L116.944 96.9887ZM102.343 84.4231C98.7778 79.1529 96.97 73.0914 96.97 66.136H90.97C90.97 74.1992 93.0876 81.4498 97.3732 87.7849L102.343 84.4231ZM96.97 66.136V4.952H90.97V66.136H96.97ZM93.97 7.952H114.706V1.952H93.97V7.952ZM111.706 4.952V61.4H117.706V4.952H111.706ZM111.706 61.4C111.706 68.7944 113.537 74.9953 117.562 79.6245L122.09 75.6875C119.289 72.466 117.706 67.8296 117.706 61.4H111.706ZM117.562 79.6245C121.773 84.4669 128.338 86.544 136.466 86.544V80.544C129.234 80.544 124.706 78.6957 122.09 75.6875L117.562 79.6245ZM136.466 86.544C144.594 86.544 151.159 84.4669 155.37 79.6245L150.842 75.6875C148.226 78.6957 143.698 80.544 136.466 80.544V86.544ZM155.37 79.6245C159.395 74.9953 161.226 68.7944 161.226 61.4H155.226C155.226 67.8296 153.643 72.466 150.842 75.6875L155.37 79.6245ZM161.226 61.4V4.952H155.226V61.4H161.226ZM158.226 7.952H178.962V1.952H158.226V7.952ZM175.962 4.952V66.136H181.962V4.952H175.962ZM175.962 66.136C175.962 73.0774 174.119 79.13 170.478 84.3983L175.414 87.8097C179.794 81.4726 181.962 74.2132 181.962 66.136H175.962ZM170.461 84.4231C166.835 89.7837 162.03 93.9681 155.988 96.9887L158.672 102.355C165.601 98.8906 171.207 94.0296 175.431 87.7849L170.461 84.4231ZM155.988 96.9887C149.93 100.018 143.436 101.536 136.466 101.536V107.536C144.344 107.536 151.76 105.811 158.672 102.355L155.988 96.9887ZM199.204 5.71999V2.71999H196.204V5.71999H199.204ZM221.988 5.71999L224.506 4.08981L223.62 2.71999H221.988V5.71999ZM261.924 67.416L259.406 69.0462L260.292 70.416H261.924V67.416ZM262.436 67.416V70.416H265.575L265.433 67.2798L262.436 67.416ZM261.924 56.152H258.924V56.2201L258.927 56.2882L261.924 56.152ZM261.924 5.71999V2.71999H258.924V5.71999H261.924ZM282.66 5.71999H285.66V2.71999H282.66V5.71999ZM282.66 103V106H285.66V103H282.66ZM259.876 103L257.358 104.63L258.244 106H259.876V103ZM219.94 41.304L222.458 39.6738L221.572 38.304H219.94V41.304ZM219.428 41.304V38.304H216.289L216.431 41.4402L219.428 41.304ZM219.94 52.568H222.94V52.4998L222.937 52.4318L219.94 52.568ZM219.94 103V106H222.94V103H219.94ZM199.204 103H196.204V106H199.204V103ZM199.204 8.71999H221.988V2.71999H199.204V8.71999ZM219.47 7.35018L259.406 69.0462L264.442 65.7858L224.506 4.08981L219.47 7.35018ZM261.924 70.416H262.436V64.416H261.924V70.416ZM265.433 67.2798L264.921 56.0158L258.927 56.2882L259.439 67.5522L265.433 67.2798ZM264.924 56.152V5.71999H258.924V56.152H264.924ZM261.924 8.71999H282.66V2.71999H261.924V8.71999ZM279.66 5.71999V103H285.66V5.71999H279.66ZM282.66 100H259.876V106H282.66V100ZM262.394 101.37L222.458 39.6738L217.422 42.9342L257.358 104.63L262.394 101.37ZM219.94 38.304H219.428V44.304H219.94V38.304ZM216.431 41.4402L216.943 52.7042L222.937 52.4318L222.425 41.1678L216.431 41.4402ZM216.94 52.568V103H222.94V52.568H216.94ZM219.94 100H199.204V106H219.94V100ZM202.204 103V5.71999H196.204V103H202.204ZM326.831 23.384H329.831V20.384H326.831V23.384ZM299.311 23.384H296.311V26.384H299.311V23.384ZM299.311 4.952V1.952H296.311V4.952H299.311ZM375.087 4.952H378.087V1.952H375.087V4.952ZM375.087 23.384V26.384H378.087V23.384H375.087ZM347.567 23.384V20.384H344.567V23.384H347.567ZM347.567 103V106H350.567V103H347.567ZM326.831 103H323.831V106H326.831V103ZM326.831 20.384H299.311V26.384H326.831V20.384ZM302.311 23.384V4.952H296.311V23.384H302.311ZM299.311 7.952H375.087V1.952H299.311V7.952ZM372.087 4.952V23.384H378.087V4.952H372.087ZM375.087 20.384H347.567V26.384H375.087V20.384ZM344.567 23.384V103H350.567V23.384H344.567ZM347.567 100H326.831V106H347.567V100ZM329.831 103V23.384H323.831V103H329.831ZM410.237 98.008L408.736 100.606L408.753 100.615L408.77 100.625L410.237 98.008ZM391.933 79.832L389.328 81.3204L389.338 81.3374L389.348 81.3543L391.933 79.832ZM392.317 27.48L389.757 25.9156V25.9156L392.317 27.48ZM411.005 9.688L412.427 12.3294L411.005 9.688ZM479.357 27.48L481.917 25.9156V25.9156L479.357 27.48ZM479.357 80.728L481.909 82.3051L481.913 82.2987L481.917 82.2924L479.357 80.728ZM460.669 98.392L462.069 101.045L462.08 101.04L462.091 101.033L460.669 98.392ZM409.597 69.976L406.972 71.4289L409.597 69.976ZM420.477 81.24L418.948 83.8209L420.477 81.24ZM450.685 81.624L452.104 84.267L452.123 84.2569L452.142 84.2465L450.685 81.624ZM461.821 70.616L459.236 69.0929L461.821 70.616ZM462.077 37.976L459.452 39.4289L462.077 37.976ZM451.197 26.712L449.668 29.2929L451.197 26.712ZM420.989 26.456L422.408 29.099L422.427 29.0889L422.446 29.0785L420.989 26.456ZM409.853 37.336L412.438 38.8591L409.853 37.336ZM435.837 101.536C427.025 101.536 419.001 99.4804 411.704 95.391L408.77 100.625C417.004 105.24 426.046 107.536 435.837 107.536V101.536ZM411.738 95.4104C404.508 91.2333 398.779 85.546 394.518 78.3097L389.348 81.3543C394.132 89.478 400.606 95.908 408.736 100.606L411.738 95.4104ZM394.538 78.3436C390.375 71.0585 388.277 62.9579 388.277 53.976H382.277C382.277 63.9381 384.617 73.0748 389.328 81.3204L394.538 78.3436ZM388.277 53.976C388.277 44.4819 390.502 36.203 394.877 29.0443L389.757 25.9156C384.745 34.117 382.277 43.5021 382.277 53.976H388.277ZM394.877 29.0443C399.299 21.808 405.14 16.2534 412.427 12.3294L409.583 7.04658C401.34 11.4852 394.722 17.792 389.757 25.9156L394.877 29.0443ZM412.427 12.3294C419.757 8.3826 427.546 6.41599 435.837 6.41599V0.415993C426.549 0.415993 417.784 2.63072 409.583 7.04658L412.427 12.3294ZM435.837 6.41599C444.128 6.41599 451.917 8.3826 459.247 12.3294L462.091 7.04658C453.89 2.63072 445.125 0.415993 435.837 0.415993V6.41599ZM459.247 12.3294C466.534 16.2534 472.375 21.808 476.797 29.0443L481.917 25.9156C476.952 17.792 470.335 11.4852 462.091 7.04658L459.247 12.3294ZM476.797 29.0443C481.172 36.203 483.397 44.4819 483.397 53.976H489.397C489.397 43.5021 486.929 34.117 481.917 25.9156L476.797 29.0443ZM483.397 53.976C483.397 63.6512 481.167 72.013 476.797 79.1637L481.917 82.2924C486.934 74.083 489.397 64.6101 489.397 53.976H483.397ZM476.805 79.1509C472.385 86.3036 466.543 91.822 459.247 95.7506L462.091 101.033C470.326 96.5993 476.943 90.3417 481.909 82.3051L476.805 79.1509ZM459.269 95.7385C451.936 99.6067 444.139 101.536 435.837 101.536V107.536C445.114 107.536 453.871 105.369 462.069 101.045L459.269 95.7385ZM402.629 53.976C402.629 60.3315 404.062 66.1712 406.972 71.4289L412.222 68.523C409.842 64.2235 408.629 59.3965 408.629 53.976H402.629ZM406.972 71.4289C409.871 76.6646 413.871 80.8127 418.948 83.8209L422.006 78.6591C417.867 76.206 414.614 72.8447 412.222 68.523L406.972 71.4289ZM418.948 83.8209C424.043 86.8403 429.696 88.336 435.837 88.336V82.336C430.714 82.336 426.127 81.1011 422.006 78.6591L418.948 83.8209ZM435.837 88.336C441.617 88.336 447.055 86.9788 452.104 84.267L449.266 78.981C445.099 81.2185 440.638 82.336 435.837 82.336V88.336ZM452.142 84.2465C457.242 81.4132 461.333 77.3531 464.406 72.1391L459.236 69.0929C456.677 73.4363 453.344 76.7148 449.228 79.0015L452.142 84.2465ZM464.406 72.1391C467.53 66.8379 469.045 60.7508 469.045 53.976H463.045C463.045 59.8306 461.744 64.8368 459.236 69.0929L464.406 72.1391ZM469.045 53.976C469.045 47.6205 467.612 41.7808 464.702 36.523L459.452 39.4289C461.832 43.7285 463.045 48.5555 463.045 53.976H469.045ZM464.702 36.523C461.803 31.2874 457.803 27.1393 452.726 24.1311L449.668 29.2929C453.807 31.746 457.06 35.1073 459.452 39.4289L464.702 36.523ZM452.726 24.1311C447.631 21.1117 441.978 19.616 435.837 19.616V25.616C440.96 25.616 445.547 26.8509 449.668 29.2929L452.726 24.1311ZM435.837 19.616C430.038 19.616 424.587 21.025 419.532 23.8335L422.446 29.0785C426.607 26.767 431.054 25.616 435.837 25.616V19.616ZM419.57 23.813C414.449 26.5633 410.345 30.5912 407.268 35.8129L412.438 38.8591C414.993 34.5235 418.314 31.2981 422.408 29.099L419.57 23.813ZM407.268 35.8129C404.145 41.1141 402.629 47.2012 402.629 53.976H408.629C408.629 48.1214 409.93 43.1152 412.438 38.8591L407.268 35.8129ZM505.904 4.952V1.952H502.904V4.952H505.904ZM562.096 8.15199L563.284 5.39702V5.39702L562.096 8.15199ZM574.128 17.88L571.677 19.61L571.696 19.6375L571.716 19.6645L574.128 17.88ZM573.36 53.336L570.908 51.6075L570.898 51.6211L570.889 51.6347L573.36 53.336ZM559.408 64.856L558.216 62.1028L556.408 62.8855V64.856H559.408ZM559.408 65.368H556.408V66.1315L556.773 66.802L559.408 65.368ZM579.888 103V106H584.936L582.523 101.566L579.888 103ZM556.592 103L553.928 104.38L554.768 106H556.592V103ZM538.288 67.672L540.952 66.2919L540.112 64.672H538.288V67.672ZM526.64 67.672V64.672H523.64V67.672H526.64ZM526.64 103V106H529.64V103H526.64ZM505.904 103H502.904V106H505.904V103ZM556.848 43.608L559.431 45.1342L556.848 43.608ZM556.72 29.016L554.224 30.6801L554.243 30.7085L554.262 30.7364L556.72 29.016ZM550.064 24.92L549.138 27.7737L549.184 27.7884L549.23 27.8017L550.064 24.92ZM526.64 23.384V20.384H523.64V23.384H526.64ZM526.64 49.24H523.64V52.24H526.64V49.24ZM505.904 7.952H546.096V1.952H505.904V7.952ZM546.096 7.952C551.43 7.952 556.357 8.94498 560.909 10.907L563.284 5.39702C557.937 3.09234 552.196 1.952 546.096 1.952V7.952ZM560.909 10.907C565.357 12.8243 568.928 15.7151 571.677 19.61L576.579 16.1499C573.184 11.3409 568.734 7.7464 563.284 5.39702L560.909 10.907ZM571.716 19.6645C574.423 23.3222 575.864 27.9544 575.864 33.752H581.864C581.864 26.9203 580.148 20.9711 576.54 16.0955L571.716 19.6645ZM575.864 33.752C575.864 41.1296 574.145 47.0154 570.908 51.6075L575.812 55.0645C579.914 49.2459 581.864 42.0758 581.864 33.752H575.864ZM570.889 51.6347C567.619 56.3834 563.409 59.8552 558.216 62.1028L560.6 67.6092C566.842 64.9075 571.933 60.6993 575.831 55.0373L570.889 51.6347ZM556.408 64.856V65.368H562.408V64.856H556.408ZM556.773 66.802L577.253 104.434L582.523 101.566L562.043 63.934L556.773 66.802ZM579.888 100H556.592V106H579.888V100ZM559.256 101.62L540.952 66.2919L535.624 69.0521L553.928 104.38L559.256 101.62ZM538.288 64.672H526.64V70.672H538.288V64.672ZM523.64 67.672V103H529.64V67.672H523.64ZM526.64 100H505.904V106H526.64V100ZM508.904 103V4.952H502.904V103H508.904ZM536.496 52.24C542.725 52.24 547.724 51.7717 551.303 50.7076L549.593 44.9564C546.858 45.7696 542.555 46.24 536.496 46.24V52.24ZM551.303 50.7076C554.825 49.6606 557.78 47.9277 559.431 45.1342L554.265 42.0818C553.697 43.043 552.386 44.1261 549.593 44.9564L551.303 50.7076ZM559.431 45.1342C560.921 42.6128 561.512 39.4046 561.512 35.8H555.512C555.512 38.8514 554.994 40.8485 554.265 42.0818L559.431 45.1342ZM561.512 35.8C561.512 32.5807 560.83 29.6562 559.178 27.2956L554.262 30.7364C554.999 31.7891 555.512 33.3872 555.512 35.8H561.512ZM559.216 27.3519C557.459 24.7166 554.455 23.068 550.898 22.0383L549.23 27.8017C552.158 28.6493 553.591 29.7313 554.224 30.6801L559.216 27.3519ZM550.99 22.0663C547.387 20.898 542.495 20.384 536.496 20.384V26.384C542.273 26.384 546.426 26.894 549.138 27.7737L550.99 22.0663ZM536.496 20.384H526.64V26.384H536.496V20.384ZM523.64 23.384V49.24H529.64V23.384H523.64ZM526.64 52.24H536.496V46.24H526.64V52.24ZM619.172 65.624H622.172V64.8244L621.774 64.1309L619.172 65.624ZM584.356 4.952V1.952H579.176L581.754 6.44514L584.356 4.952ZM607.652 4.952L610.278 3.50163L609.422 1.952H607.652V4.952ZM629.284 44.12L626.658 45.5704L627.514 47.12H629.284V44.12ZM629.796 44.12V47.12H631.566L632.422 45.5704L629.796 44.12ZM651.428 4.952V1.952H649.658L648.802 3.50163L651.428 4.952ZM674.724 4.952L677.326 6.44514L679.904 1.952H674.724V4.952ZM639.908 65.624L637.306 64.1309L636.908 64.8244V65.624H639.908ZM639.908 103V106H642.908V103H639.908ZM619.172 103H616.172V106H619.172V103ZM621.774 64.1309L586.958 3.45885L581.754 6.44514L616.57 67.1171L621.774 64.1309ZM584.356 7.952H607.652V1.952H584.356V7.952ZM605.026 6.40236L626.658 45.5704L631.91 42.6696L610.278 3.50163L605.026 6.40236ZM629.284 47.12H629.796V41.12H629.284V47.12ZM632.422 45.5704L654.054 6.40236L648.802 3.50163L627.17 42.6696L632.422 45.5704ZM651.428 7.952H674.724V1.952H651.428V7.952ZM672.122 3.45885L637.306 64.1309L642.51 67.1171L677.326 6.44514L672.122 3.45885ZM636.908 65.624V103H642.908V65.624H636.908ZM639.908 100H619.172V106H639.908V100ZM622.172 103V65.624H616.172V103H622.172ZM734.854 4.952V1.952H731.854V4.952H734.854ZM798.982 12.12L797.075 14.4358L797.093 14.451L797.112 14.4659L798.982 12.12ZM803.206 52.184L805.767 53.7466L805.773 53.7371L805.779 53.7275L803.206 52.184ZM790.278 63.704L791.569 66.4118L790.278 63.704ZM755.59 67.672V64.672H752.59V67.672H755.59ZM755.59 103V106H758.59V103H755.59ZM734.854 103H731.854V106H734.854V103ZM785.798 43.608L788.381 45.1342L785.798 43.608ZM785.67 29.016L783.119 30.5951L783.146 30.638L783.174 30.6801L785.67 29.016ZM779.142 24.92L778.216 27.7737L778.262 27.7884L778.308 27.8017L779.142 24.92ZM755.59 23.384V20.384H752.59V23.384H755.59ZM755.59 49.24H752.59V52.24H755.59V49.24ZM734.854 7.952H775.046V1.952H734.854V7.952ZM775.046 7.952C784.749 7.952 791.972 10.2331 797.075 14.4358L800.889 9.8042C794.387 4.44952 785.652 1.952 775.046 1.952V7.952ZM797.112 14.4659C802.087 18.4313 804.814 24.648 804.814 33.752H810.814C810.814 23.4 807.653 15.1953 800.852 9.77407L797.112 14.4659ZM804.814 33.752C804.814 40.4857 803.374 46.0725 800.634 50.6405L805.779 53.7275C809.182 48.0555 810.814 41.3542 810.814 33.752H804.814ZM800.645 50.6214C797.889 55.1378 794.031 58.5903 788.987 60.9962L791.569 66.4118C797.618 63.527 802.379 59.2996 805.767 53.7466L800.645 50.6214ZM788.987 60.9962C783.914 63.4154 777.928 64.672 770.95 64.672V70.672C778.65 70.672 785.549 69.2833 791.569 66.4118L788.987 60.9962ZM770.95 64.672H755.59V70.672H770.95V64.672ZM752.59 67.672V103H758.59V67.672H752.59ZM755.59 100H734.854V106H755.59V100ZM737.854 103V4.952H731.854V103H737.854ZM765.446 52.24C771.675 52.24 776.674 51.7717 780.253 50.7076L778.543 44.9564C775.808 45.7696 771.505 46.24 765.446 46.24V52.24ZM780.253 50.7076C783.775 49.6606 786.73 47.9277 788.381 45.1342L783.215 42.0818C782.647 43.043 781.336 44.1261 778.543 44.9564L780.253 50.7076ZM788.381 45.1342C789.871 42.6128 790.462 39.4046 790.462 35.8H784.462C784.462 38.8514 783.944 40.8485 783.215 42.0818L788.381 45.1342ZM790.462 35.8C790.462 32.6352 789.767 29.7536 788.166 27.3519L783.174 30.6801C783.962 31.8623 784.462 33.5034 784.462 35.8H790.462ZM788.221 27.4369C786.543 24.7273 783.526 23.0657 779.976 22.0383L778.308 27.8017C781.244 28.6516 782.578 29.7207 783.119 30.5951L788.221 27.4369ZM780.068 22.0663C776.462 20.8971 771.525 20.384 765.446 20.384V26.384C771.314 26.384 775.507 26.8949 778.216 27.7737L780.068 22.0663ZM765.446 20.384H755.59V26.384H765.446V20.384ZM752.59 23.384V49.24H758.59V23.384H752.59ZM755.59 52.24H765.446V46.24H755.59V52.24ZM824.254 4.952V1.952H821.254V4.952H824.254ZM885.694 4.952H888.694V1.952H885.694V4.952ZM885.694 23.384V26.384H888.694V23.384H885.694ZM844.99 23.384V20.384H841.99V23.384H844.99ZM844.99 42.712H841.99V45.712H844.99V42.712ZM882.622 42.712H885.622V39.712H882.622V42.712ZM882.622 61.144V64.144H885.622V61.144H882.622ZM844.99 61.144V58.144H841.99V61.144H844.99ZM844.99 84.568H841.99V87.568H844.99V84.568ZM886.206 84.568H889.206V81.568H886.206V84.568ZM886.206 103V106H889.206V103H886.206ZM824.254 103H821.254V106H824.254V103ZM824.254 7.952H885.694V1.952H824.254V7.952ZM882.694 4.952V23.384H888.694V4.952H882.694ZM885.694 20.384H844.99V26.384H885.694V20.384ZM841.99 23.384V42.712H847.99V23.384H841.99ZM844.99 45.712H882.622V39.712H844.99V45.712ZM879.622 42.712V61.144H885.622V42.712H879.622ZM882.622 58.144H844.99V64.144H882.622V58.144ZM841.99 61.144V84.568H847.99V61.144H841.99ZM844.99 87.568H886.206V81.568H844.99V87.568ZM883.206 84.568V103H889.206V84.568H883.206ZM886.206 100H824.254V106H886.206V100ZM827.254 103V4.952H821.254V103H827.254ZM906.904 4.952V1.952H903.904V4.952H906.904ZM971.032 12.12L969.125 14.4358L969.143 14.451L969.162 14.4659L971.032 12.12ZM975.256 52.184L977.817 53.7466L977.823 53.7371L977.828 53.7275L975.256 52.184ZM962.328 63.704L963.619 66.4118L962.328 63.704ZM927.64 67.672V64.672H924.64V67.672H927.64ZM927.64 103V106H930.64V103H927.64ZM906.904 103H903.904V106H906.904V103ZM957.848 43.608L960.431 45.1342L957.848 43.608ZM957.72 29.016L955.169 30.5951L955.196 30.638L955.224 30.6801L957.72 29.016ZM951.192 24.92L950.266 27.7737L950.312 27.7884L950.358 27.8017L951.192 24.92ZM927.64 23.384V20.384H924.64V23.384H927.64ZM927.64 49.24H924.64V52.24H927.64V49.24ZM906.904 7.952H947.096V1.952H906.904V7.952ZM947.096 7.952C956.799 7.952 964.022 10.2331 969.125 14.4358L972.939 9.8042C966.437 4.44952 957.702 1.952 947.096 1.952V7.952ZM969.162 14.4659C974.137 18.4313 976.864 24.648 976.864 33.752H982.864C982.864 23.4 979.703 15.1953 972.902 9.77407L969.162 14.4659ZM976.864 33.752C976.864 40.4857 975.424 46.0725 972.684 50.6405L977.828 53.7275C981.232 48.0555 982.864 41.3542 982.864 33.752H976.864ZM972.695 50.6214C969.939 55.1378 966.081 58.5903 961.037 60.9962L963.619 66.4118C969.668 63.527 974.429 59.2996 977.817 53.7466L972.695 50.6214ZM961.037 60.9962C955.964 63.4154 949.978 64.672 943 64.672V70.672C950.7 70.672 957.599 69.2833 963.619 66.4118L961.037 60.9962ZM943 64.672H927.64V70.672H943V64.672ZM924.64 67.672V103H930.64V67.672H924.64ZM927.64 100H906.904V106H927.64V100ZM909.904 103V4.952H903.904V103H909.904ZM937.496 52.24C943.725 52.24 948.724 51.7717 952.303 50.7076L950.593 44.9564C947.858 45.7696 943.555 46.24 937.496 46.24V52.24ZM952.303 50.7076C955.825 49.6606 958.78 47.9277 960.431 45.1342L955.265 42.0818C954.697 43.043 953.386 44.1261 950.593 44.9564L952.303 50.7076ZM960.431 45.1342C961.921 42.6128 962.512 39.4046 962.512 35.8H956.512C956.512 38.8514 955.994 40.8485 955.265 42.0818L960.431 45.1342ZM962.512 35.8C962.512 32.6352 961.817 29.7536 960.216 27.3519L955.224 30.6801C956.012 31.8623 956.512 33.5034 956.512 35.8H962.512ZM960.271 27.4369C958.593 24.7273 955.576 23.0657 952.026 22.0383L950.358 27.8017C953.294 28.6516 954.628 29.7207 955.169 30.5951L960.271 27.4369ZM952.118 22.0663C948.512 20.8971 943.575 20.384 937.496 20.384V26.384C943.364 26.384 947.557 26.8949 950.266 27.7737L952.118 22.0663ZM937.496 20.384H927.64V26.384H937.496V20.384ZM924.64 23.384V49.24H930.64V23.384H924.64ZM927.64 52.24H937.496V46.24H927.64V52.24ZM1008.08 100.184L1006.91 102.948L1006.93 102.954L1006.94 102.96L1008.08 100.184ZM992.208 89.944L990.087 87.8227L988.062 89.8476L989.99 91.9645L992.208 89.944ZM1007.06 75.096L1008.97 72.7859L1006.87 71.0429L1004.93 72.9747L1007.06 75.096ZM1018.83 81.88L1017.67 84.6449L1017.7 84.6571L1017.73 84.6687L1018.83 81.88ZM1042 82.648L1040.31 80.1672L1040.29 80.1833L1040.27 80.1999L1042 82.648ZM1042.51 71.128L1040.34 73.1994L1040.37 73.2247L1040.39 73.2493L1042.51 71.128ZM1032.66 65.112L1033.88 62.3726L1033.87 62.3675L1033.86 62.3625L1032.66 65.112ZM1016.53 58.072L1017.73 55.3225L1017.72 55.3208L1016.53 58.072ZM999.632 46.936L997.304 48.8278L997.325 48.8543L997.347 48.8804L999.632 46.936ZM999.12 16.856L996.669 15.1259L996.658 15.1421L996.646 15.1585L999.12 16.856ZM1011.79 6.87199L1012.97 9.62943L1011.79 6.87199ZM1061.71 16.088L1063.83 18.2093L1066.02 16.0247L1063.77 13.9052L1061.71 16.088ZM1048.14 29.656L1046.29 32.0106L1048.38 33.6637L1050.27 31.7773L1048.14 29.656ZM1038.93 24.152L1037.76 26.9137L1037.81 26.9348L1037.86 26.9541L1038.93 24.152ZM1019.47 25.176L1021.12 27.6841L1021.15 27.6664L1021.17 27.6481L1019.47 25.176ZM1017.81 37.464L1015.63 39.5303L1015.69 39.586L1015.74 39.639L1017.81 37.464ZM1025.1 41.688L1026.2 38.8965L1026.18 38.8892L1026.17 38.8821L1025.1 41.688ZM1041.36 48.088L1040.26 50.8794L1040.28 50.8878L1040.3 50.8957L1041.36 48.088ZM1059.54 59.864L1057.26 61.8197L1057.27 61.831L1057.28 61.8423L1059.54 59.864ZM1055.82 97.24L1057.58 99.6729L1055.82 97.24ZM1029.58 101.536C1022.74 101.536 1015.96 100.17 1009.22 97.4079L1006.94 102.96C1014.37 106.001 1021.92 107.536 1029.58 107.536V101.536ZM1009.25 97.4197C1002.39 94.5277 997.526 91.3261 994.426 87.9235L989.99 91.9645C993.888 96.2419 999.607 99.8669 1006.91 102.948L1009.25 97.4197ZM994.329 92.0653L1009.18 77.2173L1004.93 72.9747L990.087 87.8227L994.329 92.0653ZM1005.14 77.4061C1008.42 80.122 1012.62 82.521 1017.67 84.6449L1020 79.1151C1015.31 77.143 1011.67 75.0193 1008.97 72.7859L1005.14 77.4061ZM1017.73 84.6687C1022.92 86.7278 1027.78 87.824 1032.27 87.824V81.824C1028.74 81.824 1024.64 80.9575 1019.94 79.0913L1017.73 84.6687ZM1032.27 87.824C1036.91 87.824 1040.92 87.0897 1043.73 85.0961L1040.27 80.1999C1038.98 81.1076 1036.51 81.824 1032.27 81.824V87.824ZM1043.69 85.1288C1046.49 83.2247 1048.2 80.5294 1048.2 77.144H1042.2C1042.2 78.196 1041.78 79.17 1040.31 80.1672L1043.69 85.1288ZM1048.2 77.144C1048.2 74.0146 1046.9 71.2743 1044.63 69.0067L1040.39 73.2493C1041.71 74.5657 1042.2 75.8361 1042.2 77.144H1048.2ZM1044.68 69.0566C1042.47 66.7348 1038.73 64.5364 1033.88 62.3726L1031.43 67.8514C1036.14 69.9543 1038.97 71.7665 1040.34 73.1994L1044.68 69.0566ZM1033.86 62.3625L1017.73 55.3225L1015.33 60.8215L1031.46 67.8615L1033.86 62.3625ZM1017.72 55.3208C1010.06 51.9889 1004.9 48.502 1001.92 44.9916L997.347 48.8804C1001.19 53.3913 1007.29 57.3285 1015.33 60.8232L1017.72 55.3208ZM1001.96 45.0442C999.097 41.5203 997.64 37.3367 997.64 32.344H991.64C991.64 38.6153 993.511 44.1596 997.304 48.8278L1001.96 45.0442ZM997.64 32.344C997.64 26.894 998.994 22.3417 1001.59 18.5535L996.646 15.1585C993.273 20.0742 991.64 25.8473 991.64 32.344H997.64ZM1001.57 18.586C1004.29 14.7311 1008.06 11.737 1012.97 9.62943L1010.61 4.11456C1004.78 6.61496 1000.09 10.2769 996.669 15.1259L1001.57 18.586ZM1012.97 9.62943C1017.92 7.50804 1023.57 6.41599 1029.97 6.41599V0.415993C1022.88 0.415993 1016.41 1.62794 1010.61 4.11456L1012.97 9.62943ZM1029.97 6.41599C1041.4 6.41599 1051.24 10.3423 1059.65 18.2708L1063.77 13.9052C1054.26 4.93771 1042.94 0.415993 1029.97 0.415993V6.41599ZM1059.59 13.9667L1046.02 27.5347L1050.27 31.7773L1063.83 18.2093L1059.59 13.9667ZM1050 27.3014C1046.6 24.6113 1043.26 22.5967 1040 21.3498L1037.86 26.9541C1040.4 27.926 1043.21 29.5807 1046.29 32.0106L1050 27.3014ZM1040.1 21.3902C1036.93 20.047 1033.68 19.36 1030.35 19.36V25.36C1032.83 25.36 1035.29 25.8676 1037.76 26.9137L1040.1 21.3902ZM1030.35 19.36C1025.44 19.36 1021.16 20.3779 1017.77 22.7039L1021.17 27.6481C1023.25 26.2194 1026.22 25.36 1030.35 25.36V19.36ZM1017.83 22.6679C1014.44 24.889 1012.38 28.0095 1012.38 31.96H1018.38C1018.38 30.4492 1019.04 29.047 1021.12 27.6841L1017.83 22.6679ZM1012.38 31.96C1012.38 34.8404 1013.59 37.3841 1015.63 39.5303L1019.98 35.3977C1018.78 34.1306 1018.38 33.0049 1018.38 31.96H1012.38ZM1015.74 39.639C1017.83 41.6274 1020.66 43.2144 1024.04 44.4939L1026.17 38.8821C1023.23 37.7723 1021.19 36.5433 1019.87 35.289L1015.74 39.639ZM1024.01 44.4794L1040.26 50.8794L1042.46 45.2965L1026.2 38.8965L1024.01 44.4794ZM1040.3 50.8957C1047.91 53.7602 1053.5 57.4407 1057.26 61.8197L1061.81 57.9083C1057.21 52.5593 1050.68 48.3891 1042.42 45.2803L1040.3 50.8957ZM1057.28 61.8423C1061.1 66.1907 1062.94 71.001 1062.94 76.376H1068.94C1068.94 69.463 1066.51 63.2653 1061.79 57.8857L1057.28 61.8423ZM1062.94 76.376C1062.94 84.5565 1059.95 90.5626 1054.07 94.8071L1057.58 99.6729C1065.18 94.1894 1068.94 86.2861 1068.94 76.376H1062.94ZM1054.07 94.8071C1047.97 99.2074 1039.89 101.536 1029.58 101.536V107.536C1040.78 107.536 1050.2 105.001 1057.58 99.6729L1054.07 94.8071ZM1084.08 4.952V1.952H1081.08V4.952H1084.08ZM1104.81 4.952H1107.81V1.952H1104.81V4.952ZM1104.81 103V106H1107.81V103H1104.81ZM1084.08 103H1081.08V106H1084.08V103ZM1084.08 7.952H1104.81V1.952H1084.08V7.952ZM1101.81 4.952V103H1107.81V4.952H1101.81ZM1104.81 100H1084.08V106H1104.81V100ZM1087.08 103V4.952H1081.08V103H1087.08ZM1148.06 98.264L1146.58 100.872L1146.59 100.879L1146.6 100.885L1148.06 98.264ZM1130.52 80.472L1127.89 81.9065L1127.9 81.9189L1130.52 80.472ZM1131.29 27.48L1128.73 25.9156V25.9156L1131.29 27.48ZM1149.85 9.688L1148.43 7.04655L1148.42 7.05319L1149.85 9.688ZM1199.9 10.072L1198.39 12.6623L1198.41 12.6738L1198.43 12.6849L1199.9 10.072ZM1208.35 16.856L1210.46 18.9868L1212.46 17.0068L1210.61 14.8857L1208.35 16.856ZM1194.01 31.064L1191.86 33.1514L1193.97 35.3308L1196.12 33.1948L1194.01 31.064ZM1184.67 24.792L1183.52 27.5632L1183.53 27.5681L1183.54 27.5728L1184.67 24.792ZM1159.2 26.712L1160.73 29.2888L1160.75 29.278L1160.77 29.267L1159.2 26.712ZM1148.57 37.848L1145.95 36.3951L1145.94 36.4131L1145.93 36.4313L1148.57 37.848ZM1148.32 70.744L1145.63 72.0856L1145.64 72.0954L1145.64 72.105L1148.32 70.744ZM1158.43 81.624L1156.91 84.2098L1156.94 84.2273L1156.97 84.2441L1158.43 81.624ZM1189.02 81.24L1190.41 83.8966L1190.53 83.8351L1190.64 83.7635L1189.02 81.24ZM1194.4 77.016L1196.48 74.8565L1194.51 72.963L1192.44 74.7382L1194.4 77.016ZM1208.73 90.84L1210.81 93.001L1213.06 90.8415L1210.81 88.6805L1208.73 90.84ZM1192.99 101.08L1194.08 103.874L1194.1 103.867L1194.12 103.86L1192.99 101.08ZM1174.04 101.536C1164.67 101.536 1156.52 99.5424 1149.52 95.6429L1146.6 100.885C1154.62 105.348 1163.79 107.536 1174.04 107.536V101.536ZM1149.54 95.6556C1142.52 91.6639 1137.07 86.1361 1133.15 79.0251L1127.9 81.9189C1132.34 89.9972 1138.58 96.3307 1146.58 100.872L1149.54 95.6556ZM1133.16 79.0375C1129.25 71.8567 1127.25 63.5307 1127.25 53.976H1121.25C1121.25 64.3893 1123.44 73.7273 1127.89 81.9065L1133.16 79.0375ZM1127.25 53.976C1127.25 44.4819 1129.48 36.203 1133.85 29.0443L1128.73 25.9156C1123.72 34.117 1121.25 43.5021 1121.25 53.976H1127.25ZM1133.85 29.0443C1138.28 21.8 1144.08 16.2447 1151.29 12.3228L1148.42 7.05319C1140.26 11.494 1133.69 17.8 1128.73 25.9156L1133.85 29.0443ZM1151.27 12.3294C1158.6 8.38498 1166.43 6.41599 1174.81 6.41599V0.415993C1165.44 0.415993 1156.63 2.62834 1148.43 7.04658L1151.27 12.3294ZM1174.81 6.41599C1183.43 6.41599 1191.27 8.50373 1198.39 12.6623L1201.41 7.48172C1193.34 2.76559 1184.45 0.415993 1174.81 0.415993V6.41599ZM1198.43 12.6849C1201.48 14.4095 1204.03 16.4605 1206.09 18.8263L1210.61 14.8857C1208.06 11.9608 1204.97 9.48921 1201.37 7.45906L1198.43 12.6849ZM1206.24 14.7252L1191.9 28.9332L1196.12 33.1948L1210.46 18.9868L1206.24 14.7252ZM1196.17 28.9766C1193.23 25.9404 1189.76 23.616 1185.79 22.0112L1183.54 27.5728C1186.75 28.8693 1189.51 30.7263 1191.86 33.1514L1196.17 28.9766ZM1185.82 22.0208C1181.95 20.4169 1177.89 19.616 1173.66 19.616V25.616C1177.11 25.616 1180.39 26.2657 1183.52 27.5632L1185.82 22.0208ZM1173.66 19.616C1167.9 19.616 1162.53 21.1357 1157.62 24.157L1160.77 29.267C1164.73 26.827 1169.01 25.616 1173.66 25.616V19.616ZM1157.66 24.1352C1152.74 27.068 1148.83 31.1797 1145.95 36.3951L1151.2 39.3009C1153.6 34.9589 1156.78 31.6467 1160.73 29.2888L1157.66 24.1352ZM1145.93 36.4313C1143.11 41.6889 1141.73 47.5597 1141.73 53.976H1147.73C1147.73 48.4456 1148.91 43.5645 1151.22 39.2647L1145.93 36.4313ZM1141.73 53.976C1141.73 60.7505 1143 66.8158 1145.63 72.0856L1151 69.4024C1148.86 65.1149 1147.73 60.0015 1147.73 53.976H1141.73ZM1145.64 72.105C1148.28 77.2851 1152.04 81.3469 1156.91 84.2098L1159.95 79.0382C1156.11 76.7811 1153.13 73.5896 1150.99 69.3829L1145.64 72.105ZM1156.97 84.2441C1161.9 86.9978 1167.5 88.336 1173.66 88.336V82.336C1168.39 82.336 1163.83 81.1995 1159.89 79.0039L1156.97 84.2441ZM1173.66 88.336C1179.26 88.336 1184.85 86.815 1190.41 83.8966L1187.63 78.5834C1182.78 81.1263 1178.13 82.336 1173.66 82.336V88.336ZM1190.64 83.7635C1192.02 82.8756 1193.95 81.3505 1196.35 79.2938L1192.44 74.7382C1190.06 76.7775 1188.41 78.0684 1187.4 78.7165L1190.64 83.7635ZM1192.31 79.1755L1206.65 92.9995L1210.81 88.6805L1196.48 74.8565L1192.31 79.1755ZM1206.65 88.679C1202.32 92.8531 1197.39 96.0555 1191.86 98.3002L1194.12 103.86C1200.36 101.326 1205.93 97.7016 1210.81 93.001L1206.65 88.679ZM1191.89 98.2863C1186.38 100.445 1180.44 101.536 1174.04 101.536V107.536C1181.13 107.536 1187.82 106.323 1194.08 103.874L1191.89 98.2863ZM1244.36 98.008L1242.86 100.606L1242.88 100.615L1242.9 100.625L1244.36 98.008ZM1226.06 79.832L1223.45 81.3204L1223.46 81.3374L1223.47 81.3543L1226.06 79.832ZM1226.44 27.48L1223.88 25.9156V25.9156L1226.44 27.48ZM1245.13 9.688L1246.55 12.3294L1245.13 9.688ZM1313.48 27.48L1316.04 25.9156V25.9156L1313.48 27.48ZM1313.48 80.728L1316.03 82.3051L1316.04 82.2987L1316.04 82.2924L1313.48 80.728ZM1294.79 98.392L1296.19 101.045L1296.21 101.04L1296.22 101.033L1294.79 98.392ZM1243.72 69.976L1241.1 71.4289L1243.72 69.976ZM1254.6 81.24L1253.07 83.8209L1254.6 81.24ZM1284.81 81.624L1286.23 84.267L1286.25 84.2569L1286.27 84.2465L1284.81 81.624ZM1295.95 70.616L1293.36 69.0929L1295.95 70.616ZM1296.2 37.976L1293.58 39.4289L1296.2 37.976ZM1285.32 26.712L1283.79 29.2929L1285.32 26.712ZM1255.11 26.456L1256.53 29.099L1256.55 29.0889L1256.57 29.0785L1255.11 26.456ZM1243.98 37.336L1246.56 38.8591L1243.98 37.336ZM1269.96 101.536C1261.15 101.536 1253.13 99.4804 1245.83 95.391L1242.9 100.625C1251.13 105.24 1260.17 107.536 1269.96 107.536V101.536ZM1245.86 95.4104C1238.63 91.2333 1232.9 85.546 1228.64 78.3097L1223.47 81.3543C1228.26 89.478 1234.73 95.908 1242.86 100.606L1245.86 95.4104ZM1228.66 78.3436C1224.5 71.0585 1222.4 62.9579 1222.4 53.976H1216.4C1216.4 63.9381 1218.74 73.0748 1223.45 81.3204L1228.66 78.3436ZM1222.4 53.976C1222.4 44.4819 1224.63 36.203 1229 29.0443L1223.88 25.9156C1218.87 34.117 1216.4 43.5021 1216.4 53.976H1222.4ZM1229 29.0443C1233.42 21.808 1239.26 16.2534 1246.55 12.3294L1243.71 7.04658C1235.46 11.4852 1228.85 17.792 1223.88 25.9156L1229 29.0443ZM1246.55 12.3294C1253.88 8.3826 1261.67 6.41599 1269.96 6.41599V0.415993C1260.67 0.415993 1251.91 2.63072 1243.71 7.04658L1246.55 12.3294ZM1269.96 6.41599C1278.25 6.41599 1286.04 8.3826 1293.37 12.3294L1296.22 7.04658C1288.02 2.63072 1279.25 0.415993 1269.96 0.415993V6.41599ZM1293.37 12.3294C1300.66 16.2534 1306.5 21.808 1310.92 29.0443L1316.04 25.9156C1311.08 17.792 1304.46 11.4852 1296.22 7.04658L1293.37 12.3294ZM1310.92 29.0443C1315.3 36.203 1317.52 44.4819 1317.52 53.976H1323.52C1323.52 43.5021 1321.05 34.117 1316.04 25.9156L1310.92 29.0443ZM1317.52 53.976C1317.52 63.6512 1315.29 72.013 1310.92 79.1637L1316.04 82.2924C1321.06 74.083 1323.52 64.6101 1323.52 53.976H1317.52ZM1310.93 79.1509C1306.51 86.3036 1300.67 91.822 1293.37 95.7506L1296.22 101.033C1304.45 96.5993 1311.07 90.3417 1316.03 82.3051L1310.93 79.1509ZM1293.39 95.7385C1286.06 99.6067 1278.26 101.536 1269.96 101.536V107.536C1279.24 107.536 1288 105.369 1296.19 101.045L1293.39 95.7385ZM1236.75 53.976C1236.75 60.3315 1238.19 66.1712 1241.1 71.4289L1246.35 68.523C1243.97 64.2235 1242.75 59.3965 1242.75 53.976H1236.75ZM1241.1 71.4289C1244 76.6646 1248 80.8127 1253.07 83.8209L1256.13 78.6591C1251.99 76.206 1248.74 72.8447 1246.35 68.523L1241.1 71.4289ZM1253.07 83.8209C1258.17 86.8403 1263.82 88.336 1269.96 88.336V82.336C1264.84 82.336 1260.25 81.1011 1256.13 78.6591L1253.07 83.8209ZM1269.96 88.336C1275.74 88.336 1281.18 86.9788 1286.23 84.267L1283.39 78.981C1279.22 81.2185 1274.76 82.336 1269.96 82.336V88.336ZM1286.27 84.2465C1291.37 81.4132 1295.46 77.3531 1298.53 72.1391L1293.36 69.0929C1290.8 73.4363 1287.47 76.7148 1283.35 79.0015L1286.27 84.2465ZM1298.53 72.1391C1301.65 66.8379 1303.17 60.7508 1303.17 53.976H1297.17C1297.17 59.8306 1295.87 64.8368 1293.36 69.0929L1298.53 72.1391ZM1303.17 53.976C1303.17 47.6205 1301.74 41.7808 1298.83 36.523L1293.58 39.4289C1295.96 43.7285 1297.17 48.5555 1297.17 53.976H1303.17ZM1298.83 36.523C1295.93 31.2874 1291.93 27.1393 1286.85 24.1311L1283.79 29.2929C1287.93 31.746 1291.19 35.1073 1293.58 39.4289L1298.83 36.523ZM1286.85 24.1311C1281.76 21.1117 1276.1 19.616 1269.96 19.616V25.616C1275.08 25.616 1279.67 26.8509 1283.79 29.2929L1286.85 24.1311ZM1269.96 19.616C1264.16 19.616 1258.71 21.025 1253.66 23.8335L1256.57 29.0785C1260.73 26.767 1265.18 25.616 1269.96 25.616V19.616ZM1253.69 23.813C1248.57 26.5633 1244.47 30.5912 1241.39 35.8129L1246.56 38.8591C1249.12 34.5235 1252.44 31.2981 1256.53 29.099L1253.69 23.813ZM1241.39 35.8129C1238.27 41.1141 1236.75 47.2012 1236.75 53.976H1242.75C1242.75 48.1214 1244.05 43.1152 1246.56 38.8591L1241.39 35.8129Z" fill="url(#paint0_linear_175_1959)" mask="url(#path-1-outside-1_175_1959)"/>
</g>
<defs>
<linearGradient id="paint0_linear_175_1959" x1="662.5" y1="3.36471" x2="662.5" y2="102.941" gradientUnits="userSpaceOnUse">
<stop stop-color="#0059FF"/>
<stop offset="1" stop-color="#27AAE2" stop-opacity="0"/>
</linearGradient>
</defs>
</svg>
