<svg width="641" height="582" viewBox="0 0 641 582" fill="none" xmlns="http://www.w3.org/2000/svg">
<g opacity="0.1">
<mask id="mask0_175_1078" style="mask-type:luminance" maskUnits="userSpaceOnUse" x="98" y="117" width="444" height="457">
<path d="M136.09 197.955C68.1806 293.799 95.5912 437.686 197.313 519.336C299.035 600.985 436.549 589.479 504.459 493.636C572.368 397.792 544.957 253.905 443.235 172.255C341.513 90.6055 204 102.112 136.09 197.955Z" fill="white"/>
</mask>
<g mask="url(#mask0_175_1078)">
<path d="M355.299 665.421C347.711 659.803 340.395 653.777 333.899 646.526C330.851 643.049 328.076 639.163 324.628 635.39C321.579 631.913 318.531 628.435 314.81 625.07C307.768 618.636 300.852 612.906 292.99 607.696C285.128 602.486 277.12 598.388 268.838 594.699C264.697 592.854 260.156 590.714 256.016 588.869C251.748 586.32 247.881 584.067 243.887 581.11C236.298 575.492 228.709 569.875 221.541 562.736C217.82 559.371 214.771 555.894 211.996 552.008C208.948 548.531 206.173 544.645 203.125 541.168C197.028 534.213 189.986 527.779 182.796 522.457C175.208 516.839 168.018 511.516 159.737 507.827C155.596 505.982 151.455 504.137 146.914 501.997C142.773 500.152 138.233 498.011 134.239 495.055C126.104 490.253 118.789 484.227 111.074 477.905C107.353 474.54 104.031 471.471 100.584 467.698C97.5353 464.22 94.3608 460.039 91.3125 456.562C85.7622 448.791 79.3924 442.244 72.35 435.81C65.3077 429.375 57.719 423.757 50.2566 418.843C46.3888 416.59 42.1217 414.042 37.9808 412.197C33.8398 410.352 29.2995 408.212 25.4317 405.959C17.1499 402.269 9.28808 397.059 1.97258 391.033L2.24573 390.625C9.83439 396.243 17.423 401.861 26.1043 405.846C30.2452 407.691 34.3861 409.536 38.9265 411.676C43.0674 413.521 47.6077 415.662 51.4755 417.915C59.6104 422.716 67.1991 428.334 74.2414 434.768C81.5569 440.794 88.0529 448.045 93.8764 455.408C99.6999 462.771 106.196 470.022 113.511 476.048C120.827 482.074 128.142 488.1 136.277 492.901C140.145 495.154 144.686 497.295 148.826 499.14C152.967 500.984 157.108 502.829 161.649 504.97C168.985 509.18 176.847 514.39 184.435 520.008C192.024 525.626 199.066 532.06 204.89 539.423C207.938 542.9 210.713 546.786 213.761 550.263C216.81 553.741 219.585 557.626 223.306 560.991C230.075 567.834 237.664 573.452 245.252 579.07C252.841 584.687 261.249 589.081 269.804 592.362C278.485 596.348 286.494 600.445 294.083 606.063C301.671 611.681 309.26 617.299 316.029 624.142C319.351 627.211 322.798 630.984 325.574 634.87C328.622 638.347 331.397 642.233 334.845 646.006C340.941 652.961 347.984 659.395 355.299 665.421Z" fill="#D3FCFD"/>
<path d="M362.698 655.48C355.109 649.862 347.793 643.836 341.695 636.882C338.646 633.405 335.198 629.632 332.421 625.748C329.372 622.271 326.323 618.794 322.602 615.429C315.559 608.995 308.642 603.265 300.78 598.054C292.918 592.843 284.91 588.744 276.629 585.052C272.488 583.206 267.948 581.065 263.807 579.219C259.54 576.67 255.673 574.416 251.678 571.459C244.089 565.84 236.5 560.222 229.331 553.084C225.609 549.72 222.56 546.243 219.784 542.358C216.735 538.881 213.959 534.996 210.91 531.52C204.812 524.566 197.769 518.132 190.579 512.809C182.99 507.19 175.801 501.868 167.519 498.176C163.379 496.33 159.238 494.484 154.698 492.343C150.557 490.497 146.017 488.355 142.023 485.398C133.888 480.595 126.572 474.569 118.857 468.247C115.135 464.882 111.813 461.813 108.365 458.041C105.316 454.564 102.14 450.383 99.0915 446.906C93.5393 439.137 87.1684 432.591 80.1252 426.157C73.082 419.723 65.4929 414.105 58.0304 409.19C54.1627 406.936 49.8955 404.387 45.7549 402.541C41.6143 400.695 37.0742 398.553 33.2065 396.3C24.7987 391.905 17.2097 386.286 9.62068 380.668L9.89359 380.26C17.4826 385.878 25.0716 391.497 33.7523 395.484C37.893 397.33 42.0336 399.176 46.5736 401.318C50.7143 403.163 55.2543 405.305 59.122 407.559C67.2569 412.362 74.8459 417.98 81.8892 424.414C89.2053 430.44 95.7027 437.69 101.528 445.051C107.353 452.413 113.85 459.662 121.166 465.689C128.483 471.715 135.799 477.741 143.934 482.544C147.801 484.798 152.341 486.939 156.482 488.785C160.623 490.631 164.763 492.477 169.303 494.618C177.984 498.606 185.573 504.224 193.162 509.843C200.751 515.461 207.794 521.895 213.619 529.257C216.668 532.733 219.444 536.618 222.493 540.095C225.542 543.572 228.318 547.457 232.04 550.821C238.81 557.663 246.399 563.282 253.988 568.9C261.577 574.519 269.985 578.914 278.539 582.198C287.093 585.482 295.228 590.285 303.09 595.495C310.679 601.114 318.268 606.732 325.038 613.574C328.36 616.643 331.809 620.416 334.585 624.3C336.416 628.705 339.192 632.59 342.241 636.066C348.738 643.316 355.382 649.454 362.698 655.48Z" fill="#D3FCFD"/>
<path d="M370.446 645.817C362.858 640.199 355.542 634.173 349.046 626.922C345.998 623.445 343.223 619.559 340.174 616.082C337.126 612.604 334.078 609.127 330.357 605.762C323.588 598.919 315.999 593.301 308.537 588.387C300.675 583.178 292.666 579.08 284.384 575.39C280.243 573.545 275.703 571.405 271.562 569.56C267.295 567.012 263.427 564.759 259.433 561.802C251.845 556.184 244.256 550.566 237.087 543.428C233.366 540.063 230.318 536.585 227.543 532.7C224.495 529.222 221.72 525.337 218.671 521.859C212.575 514.905 205.532 508.47 198.343 503.148C190.754 497.53 183.565 492.208 175.283 488.518C171.142 486.673 167.001 484.829 162.461 482.688C158.32 480.843 153.78 478.703 149.786 475.746C141.651 470.945 134.335 464.918 126.62 458.597C122.9 455.232 119.578 452.162 116.13 448.389C113.082 444.912 109.907 440.731 106.859 437.253C101.309 429.482 94.939 422.935 87.8967 416.501C80.8544 410.067 73.2657 404.449 65.8033 399.535C61.9355 397.282 57.6684 394.733 53.5274 392.888C49.3865 391.044 44.8462 388.903 40.9784 386.65C32.2972 382.665 24.4354 377.455 17.1199 371.429L17.393 371.021C24.9817 376.639 32.5703 382.257 41.2516 386.242C45.3925 388.087 49.5334 389.932 54.0737 392.072C58.2147 393.917 62.755 396.057 66.6228 398.31C74.7577 403.112 82.3464 408.73 89.3887 415.164C96.7042 421.19 103.2 428.441 109.024 435.804C114.847 443.167 121.343 450.417 128.659 456.443C135.974 462.469 143.29 468.496 151.425 473.297C155.292 475.55 159.833 477.691 163.974 479.535C168.115 481.38 172.256 483.225 176.796 485.365C185.477 489.351 193.066 494.969 200.654 500.587C208.243 506.205 215.285 512.639 221.109 520.002C224.157 523.479 226.932 527.365 229.981 530.842C233.029 534.32 235.804 538.205 239.525 541.57C246.294 548.413 253.883 554.031 261.472 559.649C269.06 565.266 277.468 569.66 286.023 572.941C294.578 576.223 302.713 581.024 310.575 586.234C318.164 591.852 325.752 597.47 332.522 604.312C335.843 607.382 339.291 611.155 342.066 615.04C343.769 618.743 346.817 622.22 349.992 626.401C356.089 633.356 363.131 639.791 370.446 645.817Z" fill="#D3FCFD"/>
<path d="M378.243 636.172C370.654 630.554 363.338 624.528 356.84 617.278C353.791 613.801 350.343 610.029 347.567 606.144C344.518 602.667 341.469 599.19 337.748 595.825C330.705 589.391 323.788 583.661 315.926 578.45C308.064 573.239 300.056 569.14 291.774 565.448C287.634 563.603 283.094 561.461 278.953 559.615C274.686 557.066 270.818 554.812 266.824 551.855C259.235 546.237 251.646 540.618 244.476 533.481C240.755 530.116 237.706 526.639 234.93 522.754C231.881 519.278 229.105 515.393 226.056 511.916C219.958 504.962 212.915 498.528 205.725 493.205C198.136 487.587 190.947 482.264 182.665 478.573C178.525 476.727 174.384 474.881 169.844 472.739C165.703 470.894 161.163 468.752 157.169 465.795C149.034 460.992 141.718 454.966 134.003 448.644C130.281 445.279 126.959 442.21 123.511 438.437C120.462 434.961 117.287 430.78 114.238 427.303C108.686 419.534 102.315 412.988 95.2716 406.554C88.2284 400.12 80.6394 394.501 73.1768 389.586C69.3091 387.333 65.042 384.783 60.9013 382.938C56.7607 381.092 52.2206 378.95 48.3529 376.697C39.9451 372.302 32.3561 366.683 24.7671 361.065L25.04 360.657C32.629 366.275 40.2181 371.894 48.8988 375.881C53.0394 377.727 57.18 379.573 61.7201 381.714C65.8607 383.56 70.4008 385.702 74.2685 387.955C82.4034 392.758 89.9924 398.376 97.0356 404.81C104.352 410.837 110.849 418.086 116.674 425.448C122.499 432.81 128.996 440.059 136.312 446.085C142.683 452.631 150.272 458.25 158.407 463.053C162.275 465.306 166.815 467.448 170.956 469.294C175.096 471.139 179.237 472.985 183.777 475.127C192.458 479.114 200.047 484.732 207.636 490.351C215.225 495.969 222.268 502.403 228.093 509.765C231.142 513.242 233.918 517.127 236.967 520.603C240.016 524.08 242.792 527.965 246.513 531.33C253.283 538.172 260.872 543.79 268.461 549.409C276.051 555.027 284.458 559.422 293.012 562.706C301.567 565.99 309.702 570.793 317.563 576.003C325.153 581.622 332.742 587.24 339.512 594.082C342.834 597.151 346.282 600.924 349.058 604.808C351.561 609.101 354.61 612.578 357.659 616.055C363.884 623.712 371.2 629.738 378.243 636.172Z" fill="#D3FCFD"/>
<path d="M385.918 625.827C378.329 620.209 371.013 614.183 364.515 606.933C361.467 603.456 358.018 599.684 355.242 595.799C352.193 592.322 349.144 588.845 345.423 585.48C338.38 579.046 331.463 573.316 323.601 568.105C315.739 562.894 307.731 558.795 299.449 555.103C295.309 553.258 290.769 551.116 286.628 549.27C282.361 546.721 278.493 544.467 274.499 541.51C266.91 535.892 259.321 530.273 252.151 523.136C248.43 519.771 245.381 516.294 242.605 512.41C239.556 508.933 236.78 505.048 233.731 501.571C227.633 494.617 220.59 488.183 213.4 482.86C205.811 477.242 198.622 471.919 190.34 468.228C186.2 466.382 182.059 464.536 177.519 462.394C173.379 460.549 168.838 458.407 164.844 455.45C156.709 450.647 149.393 444.621 141.678 438.299C137.956 434.934 134.635 431.865 131.186 428.092C128.137 424.616 124.962 420.435 121.913 416.958C116.361 409.189 109.99 402.643 102.947 396.209C95.9035 389.775 88.3145 384.156 80.8519 379.241C76.9842 376.988 72.7171 374.438 68.5764 372.593C64.4358 370.747 59.8957 368.605 56.028 366.352C47.6202 361.957 40.0312 356.338 32.4422 350.72L32.7151 350.312C40.3041 355.93 47.8932 361.549 56.5739 365.536C60.7145 367.382 64.8551 369.228 69.3952 371.369C73.5358 373.215 78.0759 375.357 81.9436 377.61C90.0785 382.413 97.6675 388.031 104.711 394.465C112.027 400.492 118.524 407.741 124.349 415.103C130.174 422.465 136.671 429.714 143.988 435.74C151.304 441.767 158.62 447.793 166.755 452.596C170.622 454.849 175.162 456.991 179.303 458.836C183.444 460.682 187.584 462.528 192.124 464.67C200.805 468.657 208.394 474.275 215.983 479.894C223.572 485.512 230.615 491.946 236.44 499.308C239.489 502.785 242.265 506.669 245.314 510.146C248.363 513.623 251.139 517.508 254.861 520.873C261.631 527.715 269.22 533.333 276.809 538.952C284.398 544.57 292.806 548.965 301.36 552.249C309.914 555.533 318.049 560.336 325.911 565.546C333.5 571.165 341.089 576.783 347.859 583.625C351.181 586.694 354.63 590.467 357.406 594.351C360.455 597.828 363.231 601.713 366.28 605.19C371.286 613.775 378.602 619.801 385.918 625.827Z" fill="#D3FCFD"/>
<path d="M393.689 616.173C386.1 610.554 378.784 604.528 372.287 597.278C369.238 593.801 365.79 590.029 363.013 586.144C359.965 582.667 356.916 579.19 353.194 575.825C346.151 569.391 339.234 563.661 331.372 558.45C323.51 553.24 315.502 549.14 307.221 545.449C303.08 543.603 298.54 541.461 294.4 539.616C290.132 537.066 286.265 534.813 282.27 531.856C274.681 526.237 267.092 520.619 259.923 513.481C256.201 510.116 253.152 506.639 250.376 502.755C247.327 499.278 244.551 495.393 241.502 491.916C235.405 484.962 228.361 478.528 221.172 473.206C213.583 467.587 206.393 462.264 198.112 458.573C193.971 456.727 189.831 454.881 185.29 452.74C181.15 450.894 176.61 448.752 172.616 445.795C164.481 440.992 157.165 434.966 149.449 428.644C145.728 425.279 142.406 422.21 138.958 418.438C135.909 414.961 132.733 410.78 129.684 407.303C124.132 399.534 117.761 392.988 110.718 386.554C103.675 380.12 96.0858 374.501 88.6233 369.586C84.7556 367.333 80.4884 364.784 76.3478 362.938C72.2072 361.092 67.6671 358.951 63.7994 356.697C55.3916 352.302 47.8026 346.683 40.2135 341.065L40.4865 340.657C48.0755 346.276 55.6645 351.894 64.3452 355.881C68.4859 357.727 72.6265 359.573 77.1665 361.714C81.3072 363.56 85.8473 365.702 89.715 367.955C97.8498 372.758 105.439 378.377 112.482 384.811C119.798 390.837 126.295 398.086 132.121 405.448C137.946 412.81 144.443 420.059 151.759 426.086C159.075 432.112 166.391 438.138 174.526 442.941C178.394 445.194 182.934 447.336 187.074 449.182C191.215 451.028 195.356 452.873 199.896 455.015C208.576 459.002 216.165 464.621 223.754 470.239C231.344 475.857 238.387 482.291 244.212 489.653C247.261 493.13 250.037 497.015 253.086 500.492C256.135 503.969 258.911 507.853 262.632 511.218C269.402 518.06 276.991 523.678 284.58 529.297C292.169 534.915 300.577 539.31 309.131 542.594C317.685 545.878 325.82 550.681 333.682 555.891C341.271 561.51 348.86 567.128 355.631 573.97C358.952 577.039 362.401 580.812 365.177 584.697C368.226 588.174 371.002 592.058 374.051 595.535C379.057 604.12 386.373 610.146 393.689 616.173Z" fill="#D3FCFD"/>
<path d="M401.065 606.223C393.476 600.605 386.16 594.579 379.663 587.329C376.614 583.852 373.165 580.08 370.389 576.195C367.34 572.718 364.291 569.241 360.57 565.876C353.527 559.442 346.61 553.712 338.748 548.501C330.886 543.29 322.878 539.191 314.597 535.499C310.456 533.654 305.916 531.512 301.775 529.666C297.508 527.117 293.64 524.863 289.646 521.906C282.057 516.288 274.468 510.669 267.298 503.532C263.577 500.167 260.528 496.69 257.752 492.805C254.703 489.329 251.927 485.444 248.878 481.967C242.78 475.013 235.737 468.579 228.548 463.256C220.958 457.638 213.769 452.315 205.488 448.624C201.347 446.778 197.206 444.932 192.666 442.79C188.526 440.945 183.986 438.803 179.991 435.846C171.856 431.043 164.54 425.017 156.825 418.695C153.104 415.33 149.782 412.261 146.333 408.488C143.284 405.012 140.109 400.831 137.06 397.354C131.508 389.585 125.137 383.039 118.094 376.605C111.051 370.171 103.462 364.552 95.9991 359.637C92.1314 357.384 87.8642 354.834 83.7236 352.989C79.583 351.143 75.0429 349.001 71.1752 346.748C62.7674 342.353 55.1784 336.734 47.5893 331.116L47.8623 330.708C55.4513 336.326 63.0403 341.945 71.721 345.932C75.8617 347.778 80.0023 349.624 84.5423 351.765C88.683 353.611 93.223 355.753 97.0908 358.006C105.226 362.809 112.815 368.427 119.858 374.861C127.174 380.888 133.671 388.137 139.496 395.499C145.321 402.861 151.819 410.11 159.135 416.136C166.451 422.163 173.767 428.189 181.902 432.992C185.77 435.245 190.31 437.387 194.45 439.232C198.591 441.078 202.732 442.924 207.272 445.066C215.952 449.053 223.541 454.671 231.13 460.29C238.719 465.908 245.763 472.342 251.588 479.704C254.636 483.181 257.413 487.065 260.461 490.542C263.51 494.019 266.286 497.904 270.008 501.269C276.778 508.111 284.367 513.729 291.956 519.348C299.545 524.966 307.953 529.361 316.507 532.645C325.061 535.929 333.196 540.732 341.058 545.942C348.647 551.561 356.236 557.179 363.006 564.021C366.328 567.09 369.777 570.863 372.553 574.747C375.602 578.224 378.378 582.109 381.427 585.586C386.706 593.763 393.749 600.197 401.065 606.223Z" fill="#D3FCFD"/>
<path d="M408.838 596.569C401.249 590.951 393.933 584.924 387.435 577.675C384.386 574.198 380.938 570.425 378.162 566.541C375.113 563.064 372.064 559.587 368.343 556.222C361.3 549.788 354.383 544.057 346.521 538.847C338.659 533.636 330.651 529.537 322.369 525.845C318.229 523.999 313.689 521.858 309.548 520.012C305.281 517.463 301.413 515.209 297.419 512.252C289.83 506.634 282.241 501.015 275.071 493.878C271.35 490.513 268.301 487.036 265.525 483.151C262.476 479.674 259.7 475.79 256.651 472.313C250.553 465.359 243.51 458.925 236.32 453.602C228.731 447.984 221.542 442.661 213.26 438.969C209.12 437.123 204.979 435.278 200.439 433.136C196.298 431.29 191.758 429.149 187.764 426.192C179.629 421.389 172.313 415.363 164.598 409.041C160.876 405.676 157.554 402.607 154.106 398.834C151.057 395.357 147.882 391.177 144.833 387.7C139.281 379.93 132.91 373.384 125.867 366.95C118.823 360.516 111.234 354.898 103.772 349.983C99.9041 347.729 95.637 345.18 91.4964 343.334C87.3557 341.489 82.8156 339.347 78.9479 337.093C70.5401 332.698 62.9511 327.08 55.3621 321.461L55.635 321.054C63.2241 326.672 70.8131 332.291 79.4938 336.278C83.6344 338.124 87.7751 339.969 92.3151 342.111C96.4557 343.957 100.996 346.098 104.864 348.352C112.998 353.155 120.587 358.773 127.631 365.207C134.947 371.233 141.444 378.483 147.269 385.845C153.094 393.206 159.591 400.456 166.908 406.482C174.224 412.508 181.54 418.534 189.675 423.337C193.542 425.591 198.082 427.732 202.223 429.578C206.364 431.424 210.504 433.27 215.044 435.411C223.725 439.399 231.314 445.017 238.903 450.635C246.492 456.254 253.535 462.688 259.36 470.05C262.409 473.526 265.185 477.411 268.234 480.888C271.283 484.365 274.059 488.25 277.781 491.615C284.551 498.456 292.14 504.075 299.729 509.693C307.318 515.312 315.726 519.707 324.28 522.991C332.834 526.274 340.969 531.077 348.831 536.288C356.42 541.906 364.009 547.525 370.779 554.367C374.101 557.436 377.549 561.208 380.325 565.093C383.374 568.57 386.15 572.455 389.199 575.932C394.479 584.109 401.522 590.543 408.838 596.569Z" fill="#D3FCFD"/>
<path d="M416.212 586.62C408.623 581.001 401.307 574.975 394.81 567.726C391.761 564.249 388.312 560.476 385.536 556.591C382.487 553.114 379.438 549.638 375.717 546.273C368.674 539.839 361.757 534.108 353.895 528.897C346.033 523.687 338.025 519.587 329.744 515.896C325.603 514.05 321.063 511.909 316.922 510.063C312.655 507.514 308.788 505.26 304.793 502.303C297.204 496.684 289.615 491.066 282.446 483.928C278.724 480.564 275.675 477.087 272.899 473.202C269.85 469.725 267.074 465.84 264.025 462.363C257.927 455.41 250.884 448.976 243.695 443.653C236.106 438.034 228.916 432.712 220.635 429.02C216.494 427.174 212.353 425.328 207.813 423.187C203.673 421.341 199.133 419.2 195.138 416.243C187.004 411.44 179.687 405.414 171.972 399.092C168.251 395.727 164.929 392.658 161.48 388.885C158.431 385.408 155.256 381.228 152.207 377.751C146.655 369.981 140.284 363.435 133.241 357.001C126.198 350.567 118.609 344.949 111.146 340.034C107.278 337.78 103.011 335.231 98.8707 333.385C94.73 331.539 90.1899 329.398 86.3222 327.144C77.9144 322.749 70.3254 317.131 62.7364 311.512L63.0093 311.105C70.5984 316.723 78.1874 322.341 86.8681 326.329C91.0087 328.174 95.1494 330.02 99.6894 332.162C103.83 334.008 108.37 336.149 112.238 338.403C120.373 343.205 127.962 348.824 135.005 355.258C142.321 361.284 148.818 368.534 154.643 375.895C160.468 383.257 166.966 390.507 174.282 396.533C181.598 402.559 188.914 408.585 197.049 413.388C200.917 415.642 205.457 417.783 209.597 419.629C213.738 421.475 217.879 423.321 222.419 425.462C231.099 429.449 238.688 435.068 246.277 440.686C253.866 446.305 260.91 452.739 266.735 460.1C269.784 463.577 272.56 467.462 275.609 470.939C278.658 474.416 281.434 478.301 285.155 481.665C291.925 488.507 299.514 494.126 307.103 499.744C314.692 505.362 323.1 509.758 331.654 513.041C340.208 516.325 348.343 521.128 356.205 526.339C363.794 531.957 371.383 537.576 378.153 544.417C381.475 547.486 384.924 551.259 387.7 555.144C390.749 558.621 393.525 562.506 396.574 565.982C402.252 574.455 409.296 580.889 416.212 586.62Z" fill="#D3FCFD"/>
<path d="M423.987 576.966C416.398 571.347 409.082 565.321 402.584 558.072C399.535 554.595 396.087 550.822 393.311 546.937C390.262 543.46 387.213 539.983 383.492 536.619C376.448 530.185 369.532 524.454 361.67 519.243C353.808 514.033 345.799 509.933 337.518 506.242C333.378 504.396 328.837 502.255 324.697 500.409C320.43 497.859 316.562 495.606 312.568 492.649C304.979 487.03 297.39 481.412 290.22 474.274C286.499 470.91 283.45 467.433 280.674 463.548C277.625 460.071 274.849 456.186 271.8 452.709C265.702 445.755 258.659 439.321 251.469 433.999C243.88 428.38 236.69 423.058 228.409 419.366C224.268 417.52 220.128 415.674 215.588 413.533C211.447 411.687 206.907 409.546 202.913 406.589C194.778 401.786 187.462 395.759 179.746 389.438C176.025 386.073 172.703 383.004 169.255 379.231C166.206 375.754 163.03 371.574 159.981 368.097C154.429 360.327 148.059 353.781 141.015 347.347C133.972 340.913 126.383 335.295 118.921 330.38C115.053 328.126 110.786 325.577 106.645 323.731C102.504 321.885 97.9644 319.744 94.0967 317.49C85.6889 313.095 78.0999 307.477 70.5108 301.858L70.7838 301.45C78.3728 307.069 85.9618 312.687 94.6425 316.675C98.7831 318.52 102.924 320.366 107.464 322.508C111.604 324.353 116.145 326.495 120.012 328.749C128.147 333.551 135.736 339.17 142.779 345.604C150.095 351.63 156.593 358.88 162.418 366.241C168.243 373.603 174.74 380.853 182.056 386.879C189.372 392.905 196.688 398.931 204.823 403.734C208.691 405.988 213.231 408.129 217.372 409.975C221.512 411.821 225.653 413.667 230.193 415.808C238.874 419.795 246.463 425.414 254.052 431.032C261.641 436.651 268.684 443.085 274.509 450.446C277.558 453.923 280.334 457.808 283.383 461.285C286.432 464.762 289.208 468.646 292.929 472.011C299.7 478.853 307.289 484.472 314.878 490.09C322.467 495.708 330.874 500.104 339.429 503.387C347.983 506.671 356.118 511.474 363.98 516.685C371.569 522.303 379.158 527.922 385.928 534.763C389.25 537.832 392.698 541.605 395.474 545.49C398.523 548.967 401.299 552.851 404.348 556.328C409.627 564.506 416.671 570.94 423.987 576.966Z" fill="#D3FCFD"/>
<path d="M431.76 567.312C424.171 561.694 416.855 555.667 410.358 548.418C407.309 544.941 403.86 541.168 401.084 537.284C398.035 533.807 394.986 530.33 391.265 526.965C384.222 520.531 377.305 514.8 369.443 509.59C361.581 504.379 353.573 500.28 345.292 496.588C341.151 494.742 336.611 492.601 332.47 490.755C328.203 488.206 324.335 485.952 320.341 482.995C312.752 477.377 305.163 471.758 297.993 464.621C294.272 461.256 291.223 457.779 288.447 453.894C285.398 450.417 282.622 446.532 279.573 443.056C273.475 436.102 266.432 429.668 259.242 424.345C251.653 418.727 244.464 413.404 236.182 409.712C232.042 407.866 227.901 406.021 223.361 403.879C219.221 402.033 214.68 399.892 210.686 396.935C202.551 392.132 195.235 386.106 187.52 379.784C183.798 376.419 180.477 373.35 177.028 369.577C173.979 366.1 170.804 361.92 167.755 358.443C162.203 350.673 155.832 344.127 148.789 337.693C141.745 331.259 134.156 325.641 126.694 320.726C122.826 318.472 118.559 315.923 114.418 314.077C110.278 312.231 105.738 310.09 101.87 307.836C93.4622 303.441 85.8732 297.823 78.2842 292.204L78.5571 291.797C86.1461 297.415 93.7352 303.034 102.416 307.021C106.556 308.867 110.697 310.712 115.237 312.854C119.378 314.7 123.918 316.841 127.786 319.095C135.92 323.898 143.509 329.516 150.553 335.95C157.869 341.976 164.366 349.226 170.191 356.588C176.016 363.949 182.514 371.199 189.83 377.225C197.146 383.251 204.462 389.277 212.597 394.08C216.464 396.334 221.004 398.475 225.145 400.321C229.286 402.167 233.426 404.013 237.966 406.154C246.647 410.142 254.236 415.76 261.825 421.378C269.414 426.997 276.457 433.431 282.282 440.792C285.331 444.269 288.107 448.154 291.156 451.631C294.205 455.108 296.981 458.993 300.703 462.358C307.473 469.199 315.062 474.818 322.651 480.436C330.24 486.055 338.648 490.45 347.202 493.734C355.756 497.017 363.891 501.82 371.753 507.031C379.342 512.649 386.931 518.268 393.701 525.109C397.023 528.179 400.472 531.951 403.248 535.836C406.297 539.313 409.073 543.198 412.122 546.675C417.401 554.852 424.444 561.286 431.76 567.312Z" fill="#D3FCFD"/>
<path d="M439.134 557.362C431.545 551.744 424.229 545.717 417.732 538.468C414.683 534.991 411.234 531.218 408.458 527.334C405.409 523.857 402.36 520.38 398.639 517.015C391.596 510.581 384.679 504.85 376.817 499.64C368.955 494.429 360.947 490.33 352.666 486.638C348.525 484.792 343.985 482.651 339.844 480.805C335.577 478.256 331.709 476.002 327.715 473.045C320.126 467.427 312.537 461.808 305.368 454.671C301.646 451.306 298.597 447.829 295.821 443.944C292.772 440.467 289.996 436.583 286.947 433.106C280.849 426.152 273.806 419.718 266.617 414.395C259.028 408.777 251.838 403.454 243.557 399.762C239.416 397.916 235.275 396.071 230.735 393.929C226.595 392.083 222.055 389.942 218.06 386.985C209.926 382.182 202.609 376.156 194.894 369.834C191.173 366.469 187.851 363.4 184.402 359.627C181.353 356.15 178.178 351.97 175.129 348.493C169.577 340.723 163.206 334.177 156.163 327.743C149.12 321.309 141.531 315.691 134.068 310.776C130.2 308.522 125.933 305.973 121.793 304.127C117.652 302.281 113.112 300.14 109.244 297.886C100.836 293.491 93.2474 287.873 85.6584 282.254L85.9313 281.847C93.5203 287.465 101.109 293.084 109.79 297.071C113.931 298.917 118.071 300.762 122.611 302.904C126.752 304.75 131.292 306.891 135.16 309.145C143.295 313.948 150.884 319.566 157.927 326C165.243 332.026 171.74 339.276 177.565 346.638C183.39 353.999 189.888 361.249 197.204 367.275C204.52 373.301 211.836 379.327 219.971 384.13C223.839 386.384 228.379 388.525 232.519 390.371C236.66 392.217 240.801 394.063 245.341 396.204C254.021 400.192 261.61 405.81 269.199 411.428C276.788 417.047 283.832 423.481 289.657 430.842C292.706 434.319 295.482 438.204 298.531 441.681C301.579 445.158 304.356 449.043 308.077 452.408C314.847 459.249 322.436 464.868 330.025 470.486C337.614 476.105 346.022 480.5 354.576 483.784C363.13 487.067 371.265 491.87 379.127 497.081C386.716 502.699 394.305 508.318 401.075 515.16C404.397 518.229 407.846 522.001 410.622 525.886C413.671 529.363 416.447 533.248 419.496 536.725C424.775 544.902 432.091 550.928 439.134 557.362Z" fill="#D3FCFD"/>
<path d="M447.203 547.311C439.614 541.692 432.298 535.666 425.8 528.417C422.752 524.94 419.303 521.167 416.527 517.282C413.478 513.805 410.429 510.328 406.708 506.964C399.665 500.53 392.748 494.799 384.886 489.588C377.024 484.378 369.016 480.278 360.734 476.587C356.594 474.741 352.054 472.599 347.913 470.754C343.646 468.204 339.778 465.951 335.784 462.994C328.195 457.375 320.606 451.757 313.436 444.619C309.715 441.255 306.666 437.778 303.89 433.893C300.841 430.416 298.065 426.531 295.016 423.054C288.918 416.1 281.875 409.666 274.685 404.344C267.096 398.725 259.907 393.403 251.625 389.711C247.485 387.865 243.344 386.019 238.804 383.878C234.663 382.032 230.123 379.891 226.129 376.934C217.994 372.131 210.678 366.104 202.963 359.783C199.241 356.418 195.92 353.349 192.471 349.576C189.422 346.099 186.247 341.919 183.198 338.442C177.646 330.672 171.275 324.126 164.232 317.692C157.188 311.258 149.599 305.64 142.137 300.725C138.269 298.471 134.002 295.922 129.861 294.076C125.721 292.23 121.181 290.089 117.313 287.835C108.905 283.44 101.316 277.822 93.7272 272.203L94.0001 271.795C101.589 277.414 109.178 283.032 117.859 287.02C121.999 288.865 126.14 290.711 130.68 292.853C134.821 294.698 139.361 296.84 143.229 299.094C151.363 303.896 158.952 309.515 165.996 315.949C173.312 321.975 179.809 329.225 185.634 336.586C191.459 343.948 197.956 351.198 205.273 357.224C212.589 363.25 219.905 369.276 228.04 374.079C231.907 376.333 236.447 378.474 240.588 380.32C244.729 382.166 248.869 384.011 253.409 386.153C262.09 390.14 269.679 395.759 277.268 401.377C284.857 406.996 291.9 413.43 297.725 420.791C300.774 424.268 303.55 428.153 306.599 431.63C309.648 435.107 312.424 438.991 316.146 442.356C322.916 449.198 330.505 454.817 338.094 460.435C345.683 466.053 354.091 470.448 362.645 473.732C371.199 477.016 379.334 481.819 387.196 487.03C394.785 492.648 402.374 498.266 409.144 505.108C412.466 508.177 415.914 511.95 418.691 515.835C420.521 520.239 423.297 524.124 426.746 527.897C432.571 535.258 439.887 541.285 447.203 547.311Z" fill="#D3FCFD"/>
<path d="M454.577 537.361C446.988 531.743 439.672 525.716 433.175 518.467C430.126 514.99 426.677 511.217 423.901 507.333C420.852 503.856 417.803 500.379 414.082 497.014C407.039 490.58 400.122 484.849 392.26 479.639C384.398 474.428 376.39 470.329 368.109 466.637C363.968 464.791 359.428 462.65 355.287 460.804C351.02 458.255 347.153 456.001 343.158 453.044C335.569 447.426 327.98 441.807 320.811 434.67C317.089 431.305 314.04 427.828 311.264 423.943C308.215 420.466 305.439 416.582 302.39 413.105C296.292 406.151 289.249 399.717 282.06 394.394C274.471 388.776 267.281 383.453 259 379.761C254.859 377.915 250.718 376.07 246.178 373.928C242.038 372.082 237.498 369.941 233.504 366.984C225.369 362.181 218.053 356.155 210.337 349.833C206.616 346.468 203.294 343.399 199.845 339.626C196.797 336.149 193.621 331.969 190.572 328.492C185.02 320.722 178.649 314.176 171.606 307.742C164.563 301.308 156.974 295.69 149.511 290.775C145.644 288.521 141.376 285.972 137.236 284.126C133.095 282.281 128.555 280.139 124.687 277.885C116.28 273.49 108.691 267.872 101.101 262.253L101.374 261.846C108.963 267.464 116.552 273.083 125.233 277.07C129.374 278.916 133.514 280.761 138.054 282.903C142.195 284.749 146.735 286.89 150.603 289.144C158.738 293.947 166.327 299.565 173.37 305.999C180.686 312.025 187.183 319.275 193.008 326.637C198.833 333.998 205.331 341.248 212.647 347.274C219.963 353.3 227.279 359.326 235.414 364.129C239.282 366.383 243.822 368.524 247.962 370.37C252.103 372.216 256.244 374.062 260.784 376.203C269.464 380.191 277.053 385.809 284.642 391.427C292.231 397.046 299.275 403.48 305.1 410.842C308.149 414.318 310.925 418.203 313.974 421.68C317.023 425.157 319.799 429.042 323.52 432.407C330.29 439.248 337.879 444.867 345.468 450.485C353.057 456.104 361.465 460.499 370.019 463.783C377.755 468.29 386.162 472.685 393.751 478.303C401.34 483.922 408.93 489.54 415.7 496.382C419.022 499.451 422.47 503.224 425.246 507.108C428.295 510.585 431.071 514.47 434.12 517.947C440.344 525.604 447.661 531.631 454.577 537.361Z" fill="#D3FCFD"/>
<path d="M462.352 527.707C454.763 522.089 447.446 516.062 440.949 508.813C437.9 505.336 434.452 501.563 431.676 497.679C428.627 494.202 425.578 490.725 421.857 487.36C414.813 480.926 407.897 475.195 400.035 469.985C392.173 464.774 384.164 460.675 375.883 456.983C371.743 455.137 367.202 452.996 363.062 451.15C358.795 448.601 354.927 446.347 350.933 443.39C343.344 437.772 335.755 432.153 328.585 425.016C324.864 421.651 321.815 418.174 319.039 414.289C315.99 410.812 313.214 406.927 310.165 403.451C304.067 396.497 297.024 390.063 289.834 384.74C282.245 379.122 275.055 373.799 266.774 370.107C262.633 368.261 258.493 366.416 253.953 364.274C249.812 362.428 245.272 360.287 241.278 357.33C233.143 352.527 225.827 346.501 218.111 340.179C214.39 336.814 211.068 333.745 207.62 329.972C204.571 326.495 201.395 322.315 198.346 318.838C192.794 311.068 186.424 304.522 179.38 298.088C172.337 291.654 164.748 286.036 157.286 281.121C153.418 278.867 149.151 276.318 145.01 274.472C140.869 272.626 136.329 270.485 132.462 268.231C124.054 263.836 116.465 258.218 108.876 252.599L109.149 252.192C116.738 257.81 124.327 263.429 133.008 267.416C137.148 269.262 141.289 271.107 145.829 273.249C149.969 275.095 154.51 277.236 158.377 279.49C166.512 284.293 174.101 289.911 181.144 296.345C188.46 302.371 194.958 309.621 200.783 316.983C206.608 324.344 213.105 331.594 220.421 337.62C227.737 343.646 235.053 349.672 243.188 354.475C247.056 356.729 251.596 358.87 255.737 360.716C259.877 362.562 264.018 364.408 268.558 366.549C277.239 370.537 284.828 376.155 292.417 381.773C300.006 387.392 307.049 393.826 312.874 401.187C315.923 404.664 318.699 408.549 321.748 412.026C324.797 415.503 327.573 419.388 331.294 422.753C338.065 429.594 345.654 435.213 353.243 440.831C360.832 446.45 369.239 450.845 377.794 454.129C386.348 457.412 394.483 462.215 402.345 467.426C409.934 473.044 417.523 478.663 424.293 485.505C427.615 488.574 431.063 492.346 433.839 496.231C436.888 499.708 439.664 503.593 442.713 507.07C447.992 515.247 455.036 521.681 462.352 527.707Z" fill="#D3FCFD"/>
<path d="M470.123 518.053C462.534 512.434 455.218 506.408 448.721 499.159C445.672 495.682 442.223 491.909 439.447 488.024C436.398 484.547 433.349 481.07 429.628 477.705C422.585 471.271 415.668 465.541 407.806 460.33C399.944 455.12 391.936 451.02 383.655 447.329C379.514 445.483 374.974 443.341 370.833 441.496C366.566 438.946 362.699 436.693 358.704 433.736C351.115 428.117 343.526 422.499 336.357 415.361C332.635 411.997 329.586 408.52 326.81 404.635C323.761 401.158 320.985 397.273 317.936 393.796C311.838 386.842 304.795 380.408 297.606 375.086C290.017 369.467 282.827 364.145 274.546 360.453C270.405 358.607 266.264 356.761 261.724 354.62C257.584 352.774 253.044 350.633 249.049 347.675C240.915 342.873 233.599 336.846 225.883 330.524C222.162 327.16 218.84 324.09 215.391 320.318C212.342 316.841 209.167 312.66 206.118 309.183C200.566 301.414 194.195 294.868 187.152 288.434C180.109 282 172.52 276.382 165.057 271.467C161.189 269.213 156.922 266.664 152.782 264.818C148.641 262.972 144.101 260.831 140.233 258.577C131.825 254.182 124.236 248.564 116.647 242.945L116.92 242.537C124.509 248.156 132.098 253.774 140.779 257.762C144.92 259.607 149.06 261.453 153.6 263.595C157.741 265.44 162.281 267.582 166.149 269.835C174.284 274.638 181.873 280.257 188.916 286.691C196.232 292.717 202.729 299.967 208.554 307.328C214.379 314.69 220.877 321.939 228.193 327.966C235.509 333.992 242.825 340.018 250.96 344.821C254.828 347.075 259.368 349.216 263.508 351.062C267.649 352.908 271.79 354.753 276.33 356.895C285.01 360.882 292.599 366.501 300.188 372.119C307.777 377.738 314.821 384.172 320.646 391.533C323.695 395.01 326.471 398.895 329.52 402.372C332.569 405.849 335.345 409.733 339.066 413.098C345.836 419.94 353.425 425.558 361.014 431.177C368.603 436.795 377.011 441.19 385.565 444.474C392.901 448.686 401.309 453.081 408.898 458.699C416.487 464.318 424.076 469.936 430.846 476.778C434.168 479.847 437.617 483.62 440.393 487.504C443.442 490.981 446.218 494.866 449.267 498.343C455.764 505.593 462.807 512.027 470.123 518.053Z" fill="#D3FCFD"/>
<path d="M477.5 508.104C469.911 502.485 462.594 496.459 456.097 489.209C453.048 485.732 449.6 481.96 446.824 478.075C443.775 474.598 440.726 471.121 437.004 467.756C429.961 461.322 423.045 455.592 415.183 450.381C407.321 445.17 399.312 441.071 391.031 437.38C386.89 435.534 382.35 433.392 378.21 431.546C373.943 428.997 370.075 426.744 366.081 423.786C358.492 418.168 350.903 412.55 343.733 405.412C340.012 402.047 336.963 398.57 334.187 394.686C331.138 391.209 328.362 387.324 325.313 383.847C319.215 376.893 312.172 370.459 304.982 365.136C297.393 359.518 290.203 354.195 281.922 350.504C277.781 348.658 273.641 346.812 269.101 344.671C264.96 342.825 260.42 340.683 256.426 337.726C248.291 332.923 240.975 326.897 233.259 320.575C229.538 317.21 226.216 314.141 222.768 310.369C219.719 306.892 216.543 302.711 213.494 299.234C207.942 291.465 201.571 284.919 194.528 278.485C187.485 272.051 179.896 266.432 172.434 261.517C168.566 259.264 164.299 256.715 160.158 254.869C156.017 253.023 151.477 250.881 147.61 248.628C139.202 244.233 131.613 238.614 124.024 232.996L124.297 232.588C131.886 238.207 139.475 243.825 148.155 247.812C152.296 249.658 156.437 251.504 160.977 253.645C165.117 255.491 169.657 257.633 173.525 259.886C181.66 264.689 189.249 270.308 196.292 276.742C203.608 282.768 210.106 290.017 215.931 297.379C221.756 304.741 228.253 311.99 235.569 318.016C242.885 324.043 250.201 330.069 258.336 334.872C262.204 337.125 266.744 339.267 270.885 341.113C275.025 342.958 279.166 344.804 283.706 346.946C292.387 350.933 299.976 356.551 307.565 362.17C315.154 367.788 322.197 374.222 328.022 381.584C331.071 385.061 333.847 388.946 336.896 392.423C339.945 395.899 342.721 399.784 346.442 403.149C352.667 410.806 360.256 416.425 367.845 422.043C375.434 427.662 383.842 432.057 392.396 435.341C400.95 438.624 409.085 443.427 416.947 448.638C424.536 454.256 432.125 459.875 438.895 466.717C442.217 469.786 445.665 473.558 448.441 477.443C451.49 480.92 454.266 484.805 457.315 488.282C463.14 495.643 470.183 502.077 477.5 508.104Z" fill="#D3FCFD"/>
<path d="M485.276 498.451C477.686 492.832 470.37 486.806 463.873 479.557C460.824 476.08 457.376 472.307 454.6 468.422C451.551 464.945 448.502 461.469 444.78 458.104C437.737 451.67 430.821 445.939 422.959 440.729C415.097 435.518 407.088 431.419 398.807 427.727C394.666 425.881 390.126 423.74 385.986 421.894C381.719 419.345 377.851 417.091 373.857 414.134C366.268 408.515 358.679 402.897 351.509 395.76C347.788 392.395 344.739 388.918 341.963 385.033C338.914 381.556 336.138 377.671 333.089 374.194C326.991 367.241 319.948 360.807 312.758 355.484C305.169 349.865 297.979 344.543 289.698 340.851C285.557 339.005 281.417 337.16 276.877 335.018C272.736 333.172 268.196 331.031 264.202 328.074C256.067 323.271 248.751 317.245 241.035 310.923C237.314 307.558 233.992 304.489 230.544 300.716C227.495 297.239 224.319 293.059 221.27 289.582C215.718 281.812 209.347 275.266 202.304 268.832C195.261 262.398 187.672 256.78 180.209 251.865C176.342 249.611 172.075 247.062 167.934 245.216C163.793 243.37 159.253 241.229 155.386 238.975C146.978 234.58 139.389 228.962 131.8 223.343L132.073 222.936C139.662 228.554 147.251 234.172 155.931 238.16C160.072 240.005 164.213 241.851 168.753 243.993C172.893 245.839 177.433 247.98 181.301 250.234C189.436 255.037 197.025 260.655 204.068 267.089C211.384 273.115 217.882 280.365 223.707 287.726C229.532 295.088 236.029 302.338 243.345 308.364C250.661 314.39 257.977 320.416 266.112 325.219C269.98 327.473 274.52 329.614 278.661 331.46C282.801 333.306 286.942 335.152 291.482 337.293C300.163 341.28 307.752 346.899 315.341 352.517C322.93 358.136 329.973 364.57 335.798 371.931C338.847 375.408 341.623 379.293 344.672 382.77C347.721 386.247 350.497 390.132 354.218 393.496C360.988 400.338 368.577 405.957 376.166 411.575C383.756 417.194 392.163 421.589 400.717 424.872C409.272 428.156 417.407 432.959 425.268 438.17C432.857 443.788 440.447 449.407 447.217 456.248C450.539 459.318 453.987 463.09 456.763 466.975C459.812 470.452 462.588 474.337 465.637 477.813C470.916 485.991 477.959 492.425 485.276 498.451Z" fill="#D3FCFD"/>
<path d="M492.651 488.502C485.062 482.883 477.746 476.857 471.248 469.607C468.199 466.131 464.751 462.358 461.975 458.473C458.926 454.996 455.877 451.519 452.156 448.154C445.112 441.72 438.196 435.99 430.334 430.779C422.472 425.569 414.463 421.469 406.182 417.778C402.042 415.932 397.501 413.79 393.361 411.945C389.094 409.395 385.226 407.142 381.232 404.185C373.643 398.566 366.054 392.948 358.884 385.81C355.163 382.445 352.114 378.969 349.338 375.084C346.289 371.607 343.513 367.722 340.464 364.245C334.366 357.291 327.323 350.857 320.133 345.535C312.544 339.916 305.354 334.593 297.073 330.902C292.932 329.056 288.792 327.21 284.252 325.069C280.111 323.223 275.571 321.081 271.577 318.124C263.442 313.322 256.126 307.295 248.41 300.973C244.689 297.609 241.367 294.539 237.919 290.767C234.87 287.29 231.694 283.109 228.645 279.632C223.093 271.863 216.723 265.317 209.679 258.883C202.636 252.449 195.047 246.831 187.585 241.916C183.717 239.662 179.45 237.113 175.309 235.267C171.168 233.421 166.628 231.28 162.761 229.026C154.353 224.631 146.764 219.013 139.175 213.394L139.448 212.986C147.037 218.605 154.626 224.223 163.307 228.21C167.447 230.056 171.588 231.902 176.128 234.044C180.268 235.889 184.809 238.031 188.676 240.284C196.811 245.087 204.4 250.706 211.443 257.14C218.759 263.166 225.257 270.416 231.082 277.777C236.907 285.139 243.404 292.388 250.72 298.415C258.036 304.441 265.352 310.467 273.487 315.27C277.355 317.524 281.895 319.665 286.036 321.511C290.176 323.357 294.317 325.202 298.857 327.344C307.538 331.331 315.127 336.95 322.716 342.568C330.305 348.186 337.348 354.621 343.173 361.982C346.222 365.459 348.998 369.344 352.047 372.821C355.096 376.298 357.872 380.182 361.593 383.547C367.818 391.205 375.407 396.823 382.996 402.441C390.585 408.06 398.993 412.455 407.547 415.739C416.101 419.023 424.236 423.825 432.098 429.036C439.687 434.655 447.276 440.273 454.046 447.115C457.368 450.184 460.816 453.957 463.592 457.841C466.641 461.318 469.417 465.203 472.466 468.68C478.691 476.337 485.335 482.475 492.651 488.502Z" fill="#D3FCFD"/>
<path d="M500.421 478.846C492.832 473.228 485.515 467.201 479.018 459.952C475.969 456.475 472.521 452.702 469.745 448.817C466.696 445.341 463.647 441.864 459.925 438.499C452.882 432.065 445.966 426.334 438.104 421.124C430.242 415.913 422.233 411.814 413.952 408.122C409.811 406.276 405.271 404.135 401.131 402.289C396.864 399.74 392.996 397.486 389.002 394.529C381.413 388.91 373.824 383.292 366.654 376.155C362.933 372.79 359.884 369.313 357.108 365.428C354.059 361.951 351.283 358.066 348.234 354.589C342.136 347.636 335.093 341.202 327.903 335.879C320.314 330.26 313.124 324.938 304.843 321.246C300.702 319.4 296.562 317.555 292.022 315.413C287.881 313.567 283.341 311.426 279.347 308.469C271.212 303.666 263.896 297.64 256.18 291.318C252.459 287.953 249.137 284.884 245.689 281.111C242.64 277.634 239.464 273.454 236.415 269.977C230.863 262.207 224.492 255.661 217.449 249.227C210.406 242.793 202.817 237.175 195.354 232.26C191.487 230.006 187.22 227.457 183.079 225.611C178.938 223.765 174.398 221.624 170.531 219.37C162.123 214.975 154.534 209.357 146.945 203.738L147.218 203.331C154.807 208.949 162.396 214.567 171.076 218.555C175.217 220.401 179.358 222.246 183.898 224.388C188.038 226.234 192.578 228.375 196.446 230.629C204.581 235.432 212.17 241.05 219.213 247.484C226.529 253.51 233.027 260.76 238.852 268.121C244.677 275.483 251.174 282.733 258.49 288.759C265.806 294.785 273.122 300.811 281.257 305.614C285.125 307.868 289.665 310.009 293.806 311.855C297.946 313.701 302.087 315.547 306.627 317.688C315.308 321.675 322.897 327.294 330.486 332.912C338.075 338.531 345.118 344.965 350.943 352.326C353.992 355.803 356.768 359.688 359.817 363.165C362.866 366.642 365.642 370.527 369.363 373.891C376.133 380.733 383.722 386.352 391.311 391.97C398.901 397.589 407.308 401.984 415.862 405.267C424.417 408.551 432.552 413.354 440.413 418.565C448.003 424.183 455.592 429.802 462.362 436.643C465.684 439.713 469.132 443.485 471.908 447.37C474.957 450.847 477.733 454.732 480.782 458.209C486.061 466.386 493.377 472.412 500.421 478.846Z" fill="#D3FCFD"/>
<path d="M508.49 468.795C500.901 463.176 493.585 457.15 487.088 449.9C484.039 446.424 480.591 442.651 477.814 438.766C474.766 435.289 471.717 431.812 467.995 428.447C460.952 422.013 454.035 416.283 446.173 411.072C438.312 405.862 430.303 401.762 422.022 398.071C417.881 396.225 413.341 394.083 409.201 392.238C404.933 389.688 401.066 387.435 397.071 384.478C389.482 378.859 381.893 373.241 374.724 366.103C371.002 362.738 367.953 359.261 365.177 355.377C362.128 351.9 359.352 348.015 356.303 344.538C350.206 337.584 343.162 331.15 335.973 325.828C328.384 320.209 321.194 314.886 312.913 311.195C308.772 309.349 304.632 307.503 300.092 305.362C295.951 303.516 291.411 301.374 287.417 298.417C279.282 293.615 271.966 287.588 264.25 281.266C260.529 277.902 257.207 274.832 253.759 271.06C250.71 267.583 247.534 263.402 244.485 259.925C238.933 252.156 232.562 245.61 225.519 239.176C218.476 232.742 210.887 227.124 203.424 222.209C199.557 219.955 195.289 217.406 191.149 215.56C187.008 213.714 182.468 211.573 178.6 209.319C170.193 204.924 162.604 199.306 155.015 193.687L155.287 193.279C162.877 198.898 170.466 204.516 179.146 208.503C183.287 210.349 187.428 212.195 191.968 214.337C196.108 216.182 200.648 218.324 204.516 220.577C212.651 225.38 220.24 230.999 227.283 237.433C234.599 243.459 241.096 250.709 246.921 258.07C252.747 265.432 259.244 272.681 266.56 278.708C273.876 284.734 281.192 290.76 289.327 295.563C293.195 297.816 297.735 299.958 301.875 301.804C306.016 303.65 310.157 305.495 314.697 307.637C323.377 311.624 330.967 317.243 338.556 322.861C346.145 328.479 353.188 334.913 359.013 342.275C362.062 345.752 364.838 349.637 367.887 353.114C370.936 356.591 373.712 360.475 377.433 363.84C384.203 370.682 391.792 376.3 399.381 381.919C406.97 387.537 415.378 391.932 423.932 395.216C432.487 398.5 440.621 403.303 448.483 408.513C456.072 414.132 463.661 419.75 470.432 426.592C473.754 429.661 477.202 433.434 479.978 437.319C483.027 440.796 485.803 444.68 488.852 448.157C493.858 456.742 501.174 462.768 508.49 468.795Z" fill="#D3FCFD"/>
<path d="M515.864 458.845C508.275 453.227 500.959 447.201 494.462 439.951C491.413 436.474 487.964 432.701 485.188 428.817C482.139 425.34 479.09 421.863 475.369 418.498C468.326 412.064 461.409 406.333 453.547 401.123C445.685 395.912 437.677 391.813 429.396 388.121C425.255 386.275 420.715 384.134 416.574 382.288C412.307 379.739 408.439 377.485 404.445 374.528C396.856 368.91 389.267 363.291 382.097 356.154C378.376 352.789 375.327 349.312 372.551 345.427C369.502 341.95 366.726 338.066 363.677 334.589C357.579 327.635 350.536 321.201 343.346 315.878C335.757 310.26 328.568 304.937 320.287 301.245C316.146 299.4 312.005 297.554 307.465 295.412C303.325 293.567 298.785 291.425 294.79 288.468C286.655 283.665 279.339 277.639 271.624 271.317C267.903 267.952 264.581 264.883 261.132 261.11C258.083 257.633 254.908 253.453 251.859 249.976C246.307 242.207 239.936 235.66 232.893 229.226C225.85 222.792 218.261 217.174 210.798 212.259C206.93 210.006 202.663 207.456 198.523 205.61C194.382 203.765 189.842 201.623 185.974 199.37C177.566 194.974 169.977 189.356 162.388 183.738L162.661 183.33C170.25 188.948 177.839 194.567 186.52 198.554C190.661 200.4 194.801 202.246 199.341 204.387C203.482 206.233 208.022 208.374 211.89 210.628C220.025 215.431 227.614 221.049 234.657 227.483C241.973 233.509 248.47 240.759 254.295 248.121C260.12 255.482 266.618 262.732 273.934 268.758C281.25 274.784 288.566 280.811 296.701 285.613C300.568 287.867 305.109 290.009 309.249 291.854C313.39 293.7 317.53 295.546 322.071 297.687C330.751 301.675 338.34 307.293 345.929 312.912C353.518 318.53 360.561 324.964 366.386 332.326C369.435 335.803 372.211 339.687 375.26 343.164C378.309 346.641 381.085 350.526 384.807 353.891C391.577 360.733 399.166 366.351 406.755 371.969C414.344 377.588 422.752 381.983 431.306 385.267C439.86 388.551 447.995 393.353 455.857 398.564C463.446 404.182 471.035 409.801 477.805 416.643C481.127 419.712 484.576 423.484 487.352 427.369C490.401 430.846 493.177 434.731 496.226 438.208C501.505 446.385 508.548 452.819 515.864 458.845Z" fill="#D3FCFD"/>
<path d="M523.641 449.192C516.052 443.573 508.735 437.547 502.238 430.297C499.189 426.82 495.741 423.048 492.965 419.163C489.916 415.686 486.867 412.209 483.145 408.844C476.102 402.41 469.186 396.68 461.324 391.469C453.462 386.259 445.453 382.159 437.172 378.468C433.031 376.622 428.491 374.48 424.351 372.635C420.084 370.085 416.216 367.832 412.222 364.875C404.633 359.256 397.044 353.638 389.874 346.5C386.153 343.135 383.104 339.658 380.328 335.774C377.279 332.297 374.503 328.412 371.454 324.935C365.356 317.981 358.313 311.547 351.123 306.225C343.534 300.606 336.344 295.283 328.063 291.592C323.922 289.746 319.782 287.9 315.242 285.759C311.101 283.913 306.561 281.771 302.567 278.814C294.432 274.011 287.116 267.985 279.4 261.663C275.679 258.298 272.357 255.229 268.909 251.457C265.86 247.98 262.684 243.799 259.635 240.322C254.083 232.553 247.712 226.007 240.669 219.573C233.626 213.139 226.037 207.52 218.575 202.606C214.707 200.352 210.44 197.803 206.299 195.957C202.158 194.111 197.618 191.97 193.751 189.716C185.343 185.321 177.754 179.702 170.165 174.084L170.438 173.676C178.027 179.295 185.616 184.913 194.296 188.9C198.437 190.746 202.578 192.592 207.118 194.734C211.258 196.579 215.798 198.721 219.666 200.974C227.801 205.777 235.39 211.396 242.433 217.83C249.749 223.856 256.247 231.106 262.072 238.467C267.897 245.829 274.394 253.078 281.71 259.105C289.026 265.131 296.342 271.157 304.477 275.96C308.345 278.213 312.885 280.355 317.026 282.201C321.166 284.047 325.307 285.892 329.847 288.034C338.528 292.021 346.117 297.64 353.706 303.258C361.295 308.876 368.338 315.31 374.163 322.672C377.212 326.149 379.988 330.034 383.037 333.511C386.086 336.988 388.862 340.872 392.583 344.237C399.353 351.079 406.943 356.697 414.532 362.316C422.121 367.934 430.528 372.329 439.083 375.613C447.637 378.897 455.772 383.7 463.634 388.91C471.223 394.529 478.812 400.147 485.582 406.989C488.904 410.058 492.352 413.831 495.128 417.716C498.177 421.193 500.953 425.077 504.002 428.554C509.281 436.731 516.324 443.165 523.641 449.192Z" fill="#D3FCFD"/>
<path d="M531.013 439.242C523.424 433.623 516.108 427.597 509.611 420.347C506.562 416.871 503.114 413.098 500.338 409.213C497.289 405.736 494.24 402.259 490.518 398.894C483.475 392.46 476.558 386.73 468.697 381.519C460.835 376.309 452.826 372.209 444.545 368.518C440.404 366.672 435.864 364.53 431.724 362.685C427.456 360.135 423.589 357.882 419.595 354.925C412.006 349.306 404.416 343.688 397.247 336.55C393.526 333.185 390.477 329.709 387.701 325.824C384.652 322.347 381.875 318.462 378.827 314.985C372.729 308.031 365.685 301.597 358.496 296.275C350.907 290.656 343.717 285.333 335.436 281.642C331.295 279.796 327.155 277.95 322.615 275.809C318.474 273.963 313.934 271.821 309.94 268.864C301.805 264.062 294.489 258.035 286.773 251.713C283.052 248.349 279.73 245.279 276.282 241.507C273.233 238.03 270.057 233.849 267.008 230.372C261.456 222.603 255.085 216.057 248.042 209.623C240.999 203.189 233.41 197.571 225.947 192.656C222.08 190.402 217.813 187.853 213.672 186.007C209.531 184.161 204.991 182.02 201.123 179.766C192.716 175.371 185.127 169.753 177.538 164.134L177.811 163.726C185.4 169.345 192.989 174.963 201.669 178.95C205.81 180.796 209.951 182.642 214.491 184.784C218.631 186.629 223.171 188.771 227.039 191.024C235.174 195.827 242.763 201.446 249.806 207.88C257.122 213.906 263.62 221.156 269.445 228.517C275.27 235.879 281.767 243.128 289.083 249.155C296.399 255.181 303.715 261.207 311.85 266.01C315.718 268.263 320.258 270.405 324.399 272.251C328.539 274.097 332.68 275.942 337.22 278.084C345.901 282.071 353.49 287.69 361.079 293.308C368.668 298.926 375.711 305.36 381.536 312.722C384.585 316.199 387.361 320.084 390.41 323.561C393.459 327.038 396.235 330.922 399.956 334.287C406.726 341.129 414.315 346.747 421.904 352.366C429.493 357.984 437.901 362.379 446.455 365.663C455.01 368.947 463.144 373.75 471.006 378.961C478.595 384.579 486.184 390.197 492.955 397.039C496.277 400.108 499.725 403.881 502.501 407.766C505.55 411.243 508.326 415.127 511.375 418.604C516.654 426.781 523.697 433.215 531.013 439.242Z" fill="#D3FCFD"/>
<path d="M538.788 429.588C531.199 423.97 523.883 417.944 517.385 410.694C514.336 407.217 510.888 403.445 508.112 399.56C505.063 396.083 502.014 392.606 498.293 389.241C491.25 382.807 484.333 377.077 476.471 371.866C468.609 366.655 460.601 362.556 452.319 358.864C448.179 357.019 443.639 354.877 439.498 353.031C435.231 350.482 431.363 348.228 427.369 345.271C419.78 339.653 412.191 334.034 405.021 326.897C401.3 323.532 398.251 320.055 395.475 316.17C392.426 312.694 389.65 308.809 386.601 305.332C380.503 298.378 373.46 291.944 366.27 286.621C358.681 281.003 351.492 275.68 343.21 271.989C339.07 270.143 334.929 268.297 330.389 266.155C326.248 264.31 321.708 262.168 317.714 259.211C309.579 254.408 302.263 248.382 294.548 242.06C290.826 238.695 287.504 235.626 284.056 231.853C281.007 228.376 277.832 224.196 274.783 220.719C269.231 212.95 262.86 206.404 255.817 199.97C248.773 193.536 241.184 187.917 233.722 183.002C229.854 180.749 225.587 178.199 221.446 176.354C217.306 174.508 212.766 172.366 208.898 170.113C200.49 165.718 192.901 160.099 185.312 154.481L185.585 154.073C193.174 159.691 200.763 165.31 209.444 169.297C213.584 171.143 217.725 172.989 222.265 175.13C226.406 176.976 230.946 179.118 234.814 181.371C242.948 186.174 250.537 191.792 257.581 198.226C264.897 204.253 271.394 211.502 277.219 218.864C283.044 226.226 289.541 233.475 296.858 239.501C304.174 245.528 311.49 251.554 319.625 256.357C323.492 258.61 328.032 260.752 332.173 262.597C336.314 264.443 340.454 266.289 344.994 268.431C353.675 272.418 361.264 278.036 368.853 283.655C376.442 289.273 383.485 295.707 389.31 303.069C392.359 306.546 395.135 310.43 398.184 313.907C401.233 317.384 404.009 321.269 407.731 324.634C414.501 331.476 422.09 337.094 429.679 342.713C437.268 348.331 445.676 352.726 454.23 356.01C462.784 359.294 470.919 364.097 478.781 369.307C486.37 374.926 493.959 380.544 500.729 387.386C504.051 390.455 507.499 394.228 510.275 398.112C513.324 401.589 516.1 405.474 519.149 408.951C524.429 417.128 531.472 423.562 538.788 429.588Z" fill="#D3FCFD"/>
<path d="M546.562 419.935C538.973 414.317 531.657 408.291 525.159 401.041C522.11 397.564 518.662 393.792 515.886 389.907C512.837 386.43 509.788 382.953 506.067 379.588C499.024 373.154 492.107 367.424 484.245 362.213C476.383 357.002 468.375 352.903 460.093 349.211C455.953 347.365 451.413 345.224 447.272 343.378C443.005 340.829 439.137 338.575 435.143 335.618C427.554 330 419.965 324.381 412.795 317.244C409.074 313.879 406.025 310.402 403.249 306.517C400.2 303.04 397.424 299.156 394.375 295.679C388.277 288.725 381.234 282.291 374.044 276.968C366.455 271.35 359.266 266.027 350.984 262.335C346.844 260.49 342.703 258.644 338.163 256.502C334.022 254.657 329.482 252.515 325.488 249.558C317.353 244.755 310.037 238.729 302.322 232.407C298.6 229.042 295.278 225.973 291.83 222.2C288.781 218.723 285.606 214.543 282.557 211.066C277.004 203.297 270.634 196.751 263.59 190.317C256.547 183.883 248.958 178.264 241.496 173.349C237.628 171.096 233.361 168.546 229.22 166.701C225.08 164.855 220.54 162.713 216.672 160.46C208.264 156.065 200.675 150.446 193.086 144.828L193.359 144.42C200.948 150.038 208.537 155.657 217.218 159.644C221.358 161.49 225.499 163.336 230.039 165.477C234.18 167.323 238.72 169.464 242.587 171.718C250.722 176.521 258.311 182.139 265.354 188.573C272.671 194.6 279.168 201.849 284.993 209.211C290.818 216.572 297.315 223.822 304.631 229.848C311.947 235.874 319.264 241.901 327.398 246.704C331.266 248.957 335.806 251.099 339.947 252.944C344.087 254.79 348.228 256.636 352.768 258.778C361.449 262.765 369.038 268.383 376.627 274.002C384.216 279.62 391.259 286.054 397.084 293.416C400.133 296.893 402.909 300.777 405.958 304.254C409.007 307.731 411.783 311.616 415.504 314.981C422.275 321.823 429.864 327.441 437.453 333.059C445.042 338.678 453.45 343.073 462.004 346.357C470.558 349.641 478.693 354.443 486.555 359.654C494.144 365.273 501.733 370.891 508.503 377.733C511.825 380.802 515.273 384.575 518.049 388.459C521.098 391.936 523.874 395.821 526.923 399.298C532.202 407.475 539.246 413.909 546.562 419.935Z" fill="#D3FCFD"/>
<path d="M553.939 409.987C546.35 404.368 539.034 398.342 532.537 391.093C529.488 387.616 526.039 383.843 523.263 379.958C520.214 376.481 517.165 373.004 513.444 369.64C506.401 363.206 499.484 357.475 491.622 352.264C483.76 347.054 475.752 342.954 467.471 339.263C463.33 337.417 458.79 335.276 454.649 333.43C450.382 330.88 446.514 328.627 442.52 325.67C434.931 320.051 427.342 314.433 420.172 307.295C416.451 303.931 413.402 300.454 410.626 296.569C407.577 293.092 404.801 289.207 401.752 285.73C395.654 278.776 388.611 272.342 381.421 267.02C373.832 261.401 366.643 256.079 358.362 252.387C354.221 250.541 350.08 248.695 345.54 246.554C341.4 244.708 336.859 242.567 332.865 239.61C324.73 234.807 317.414 228.78 309.699 222.459C305.977 219.094 302.656 216.025 299.207 212.252C296.158 208.775 292.983 204.595 289.934 201.118C284.382 193.348 278.011 186.802 270.968 180.368C263.925 173.934 256.335 168.316 248.873 163.401C245.005 161.147 240.738 158.598 236.597 156.752C232.457 154.906 227.917 152.765 224.049 150.511C215.641 146.116 208.052 140.498 200.463 134.879L200.736 134.471C208.325 140.09 215.914 145.708 224.595 149.696C228.736 151.541 232.876 153.387 237.416 155.529C241.557 157.374 246.097 159.516 249.965 161.77C258.099 166.572 265.689 172.191 272.732 178.625C280.048 184.651 286.545 191.901 292.37 199.262C298.195 206.624 304.693 213.874 312.009 219.9C319.325 225.926 326.641 231.952 334.776 236.755C338.643 239.009 343.183 241.15 347.324 242.996C351.465 244.842 355.605 246.688 360.145 248.829C368.826 252.816 376.415 258.435 384.004 264.053C391.593 269.672 398.636 276.106 404.461 283.467C407.51 286.944 410.286 290.829 413.335 294.306C416.384 297.783 419.16 301.668 422.882 305.032C429.652 311.874 437.241 317.493 444.83 323.111C452.419 328.729 460.827 333.125 469.381 336.408C477.935 339.692 486.07 344.495 493.932 349.706C501.521 355.324 509.11 360.943 515.88 367.784C518.383 372.077 521.432 375.554 524.481 379.031C527.53 382.508 530.306 386.392 533.355 389.869C539.58 397.527 546.623 403.961 553.939 409.987Z" fill="#D3FCFD"/>
<path d="M561.71 400.332C554.121 394.714 546.805 388.687 540.308 381.438C537.532 377.553 534.083 373.78 531.034 370.304C527.985 366.827 524.936 363.35 521.215 359.985C514.172 353.551 507.255 347.82 499.393 342.61C491.531 337.399 483.523 333.3 475.242 329.608C471.101 327.762 466.561 325.621 462.42 323.775C458.153 321.226 454.286 318.972 450.291 316.015C442.702 310.397 435.113 304.778 427.944 297.641C424.222 294.276 421.173 290.799 418.397 286.914C415.348 283.437 412.572 279.553 409.523 276.076C403.425 269.122 396.382 262.688 389.193 257.365C381.604 251.747 374.414 246.424 366.133 242.732C361.992 240.886 357.851 239.041 353.311 236.899C349.171 235.053 344.631 232.912 340.637 229.955C332.502 225.152 325.186 219.126 317.47 212.804C313.749 209.439 310.427 206.37 306.978 202.597C303.929 199.12 300.754 194.94 297.705 191.463C292.153 183.693 285.782 177.147 278.739 170.713C271.696 164.279 264.107 158.661 256.644 153.746C252.776 151.492 248.509 148.943 244.369 147.097C240.228 145.251 235.688 143.11 231.82 140.856C223.413 136.461 215.824 130.843 208.234 125.224L208.507 124.817C216.096 130.435 223.685 136.054 232.366 140.041C236.507 141.887 240.647 143.732 245.187 145.874C249.328 147.72 253.868 149.861 257.736 152.115C265.871 156.918 273.46 162.536 280.503 168.97C287.819 174.996 294.316 182.246 300.141 189.608C305.966 196.969 312.464 204.219 319.78 210.245C327.096 216.271 334.412 222.297 342.547 227.1C346.415 229.354 350.955 231.495 355.095 233.341C359.236 235.187 363.377 237.033 367.917 239.174C376.597 243.162 384.186 248.78 391.775 254.398C399.364 260.017 406.408 266.451 412.233 273.812C415.282 277.289 418.058 281.174 421.107 284.651C424.156 288.128 426.932 292.013 430.653 295.378C437.423 302.219 445.012 307.838 452.601 313.456C460.19 319.075 468.598 323.47 477.152 326.754C485.706 330.037 493.841 334.84 501.703 340.051C509.292 345.669 516.881 351.288 523.652 358.13C526.973 361.199 530.422 364.971 533.198 368.856C536.247 372.333 539.023 376.218 542.072 379.695C547.351 387.872 554.667 393.898 561.71 400.332Z" fill="#D3FCFD"/>
<path d="M569.383 389.985C561.794 384.367 554.478 378.34 547.98 371.091C544.931 367.614 541.483 363.841 538.707 359.957C535.658 356.48 532.609 353.003 528.888 349.638C521.844 343.204 514.928 337.473 507.066 332.263C499.204 327.052 491.196 322.953 482.914 319.261C478.774 317.415 474.234 315.274 470.093 313.428C465.826 310.879 461.958 308.625 457.964 305.668C450.375 300.05 442.786 294.431 435.616 287.294C431.895 283.929 428.846 280.452 426.07 276.567C423.021 273.09 420.245 269.206 417.196 265.729C411.098 258.775 404.055 252.341 396.865 247.018C389.276 241.4 382.087 236.077 373.805 232.385C369.665 230.539 365.524 228.694 360.984 226.552C356.843 224.706 352.303 222.565 348.309 219.608C340.174 214.805 332.858 208.779 325.143 202.457C321.421 199.092 318.099 196.023 314.651 192.25C311.602 188.773 308.427 184.593 305.378 181.116C299.825 173.346 293.455 166.8 286.411 160.366C279.368 153.932 271.779 148.314 264.317 143.399C260.449 141.145 256.182 138.596 252.041 136.75C247.901 134.905 243.361 132.763 239.493 130.509C231.085 126.114 223.496 120.496 215.907 114.878L216.18 114.47C223.769 120.088 231.358 125.707 240.039 129.694C244.179 131.54 248.32 133.385 252.86 135.527C257.001 137.373 261.541 139.514 265.408 141.768C273.543 146.571 281.132 152.189 288.175 158.623C295.492 164.649 301.989 171.899 307.814 179.261C313.639 186.622 320.136 193.872 327.452 199.898C334.768 205.924 342.085 211.95 350.219 216.753C354.087 219.007 358.627 221.148 362.768 222.994C366.09 226.063 370.503 227.501 374.77 230.051C383.451 234.038 391.04 239.656 398.629 245.275C406.218 250.893 413.261 257.327 419.086 264.689C422.135 268.166 424.911 272.051 427.96 275.527C431.009 279.004 433.785 282.889 437.507 286.254C444.277 293.096 451.866 298.714 459.455 304.333C467.044 309.951 475.452 314.346 484.006 317.63C492.56 320.914 500.695 325.717 508.557 330.927C516.146 336.546 523.735 342.164 530.505 349.006C533.827 352.075 537.276 355.848 540.052 359.732C543.101 363.209 545.877 367.094 548.926 370.571C554.751 377.933 562.067 383.959 569.383 389.985Z" fill="#D3FCFD"/>
<path d="M577.154 380.331C569.565 374.712 562.249 368.686 555.751 361.437C552.702 357.96 549.254 354.187 546.478 350.302C543.429 346.825 540.38 343.348 536.659 339.984C529.616 333.55 522.699 327.819 514.837 322.608C506.975 317.398 498.967 313.298 490.685 309.607C486.545 307.761 482.005 305.62 477.864 303.774C473.597 301.224 469.729 298.971 465.735 296.014C458.146 290.395 450.557 284.777 443.387 277.639C439.666 274.275 436.617 270.798 433.841 266.913C430.792 263.436 428.016 259.551 424.967 256.074C418.869 249.12 411.826 242.686 404.636 237.364C397.047 231.745 389.858 226.423 381.576 222.731C377.436 220.885 373.295 219.039 368.755 216.898C364.614 215.052 360.074 212.911 356.08 209.954C347.945 205.151 340.629 199.124 332.914 192.803C329.192 189.438 325.871 186.369 322.422 182.596C319.373 179.119 316.198 174.939 313.149 171.462C307.597 163.692 301.226 157.146 294.183 150.712C287.139 144.278 279.55 138.66 272.088 133.745C268.22 131.491 263.953 128.942 259.812 127.096C255.672 125.25 251.132 123.109 247.264 120.855C238.856 116.46 231.267 110.842 223.678 105.223L223.951 104.815C231.54 110.434 239.129 116.052 247.81 120.04C251.95 121.885 256.091 123.731 260.631 125.873C264.772 127.718 269.312 129.86 273.18 132.114C281.314 136.916 288.903 142.535 295.947 148.969C303.263 154.995 309.76 162.245 315.585 169.606C321.41 176.968 327.907 184.218 335.224 190.244C342.54 196.27 349.856 202.296 357.991 207.099C361.858 209.353 366.398 211.494 370.539 213.34C374.68 215.186 378.82 217.031 383.36 219.173C392.041 223.16 399.63 228.779 407.219 234.397C414.808 240.016 421.851 246.45 427.676 253.811C430.725 257.288 433.501 261.173 436.55 264.65C439.599 268.127 442.375 272.012 446.097 275.376C452.867 282.218 460.456 287.837 468.045 293.455C475.634 299.073 484.042 303.469 492.596 306.752C501.15 310.036 509.285 314.839 517.147 320.05C524.736 325.668 532.325 331.287 539.095 338.128C542.417 341.197 545.865 344.97 548.642 348.855C550.472 353.259 553.248 357.144 556.697 360.917C562.795 367.871 569.838 374.305 577.154 380.331Z" fill="#D3FCFD"/>
<path d="M584.531 370.382C576.942 364.764 569.626 358.737 563.129 351.488C560.08 348.011 556.632 344.238 553.856 340.354C550.807 336.877 547.758 333.4 544.036 330.035C536.993 323.601 530.076 317.87 522.215 312.66C514.353 307.449 506.344 303.35 498.063 299.658C493.922 297.812 489.382 295.671 485.242 293.825C480.974 291.276 477.107 289.022 473.113 286.065C465.524 280.447 457.935 274.828 450.765 267.691C447.044 264.326 443.995 260.849 441.219 256.964C438.17 253.487 435.394 249.603 432.345 246.126C426.247 239.172 419.203 232.738 412.014 227.415C404.425 221.797 397.235 216.474 388.954 212.782C384.813 210.936 380.673 209.091 376.133 206.949C371.992 205.103 367.452 202.962 363.458 200.005C355.323 195.202 348.007 189.176 340.291 182.854C336.57 179.489 333.248 176.42 329.8 172.647C326.751 169.17 323.575 164.99 320.526 161.513C314.974 153.743 308.603 147.197 301.56 140.763C294.517 134.329 286.928 128.711 279.465 123.796C275.598 121.542 271.331 118.993 267.19 117.147C263.049 115.302 258.509 113.16 254.641 110.906C246.234 106.511 238.645 100.893 231.056 95.2745L231.329 94.8667C238.918 100.485 246.507 106.104 255.187 110.091C259.328 111.937 263.469 113.782 268.009 115.924C272.149 117.77 276.689 119.911 280.557 122.165C288.692 126.968 296.281 132.586 303.324 139.02C310.64 145.046 317.138 152.296 322.963 159.658C328.788 167.019 335.285 174.269 342.601 180.295C349.917 186.321 357.233 192.347 365.368 197.15C369.236 199.404 373.776 201.545 377.917 203.391C382.057 205.237 386.198 207.083 390.738 209.224C399.419 213.212 407.008 218.83 414.597 224.448C422.186 230.067 429.229 236.501 435.054 243.863C438.103 247.339 440.879 251.224 443.928 254.701C446.977 258.178 449.753 262.063 453.474 265.428C460.244 272.269 467.833 277.888 475.422 283.506C483.011 289.125 491.419 293.52 499.973 296.804C508.528 300.087 516.662 304.89 524.524 310.101C532.113 315.719 539.702 321.338 546.473 328.18C549.795 331.249 553.243 335.021 556.019 338.906C559.068 342.383 561.844 346.268 564.893 349.745C570.572 358.218 577.615 364.652 584.531 370.382Z" fill="#D3FCFD"/>
<path d="M592.301 360.727C584.712 355.109 577.396 349.083 570.899 341.833C567.85 338.356 564.402 334.584 561.626 330.699C558.577 327.222 555.528 323.745 551.806 320.38C544.763 313.946 537.846 308.216 529.984 303.005C522.123 297.794 514.114 293.695 505.833 290.003C501.692 288.157 497.152 286.016 493.012 284.17C488.744 281.621 484.877 279.367 480.882 276.41C473.293 270.792 465.704 265.173 458.535 258.036C454.813 254.671 451.764 251.194 448.988 247.309C445.939 243.832 443.163 239.948 440.114 236.471C434.017 229.517 426.973 223.083 419.784 217.76C412.195 212.142 405.005 206.819 396.724 203.127C392.583 201.282 388.443 199.436 383.903 197.294C379.762 195.449 375.222 193.307 371.228 190.35C363.093 185.547 355.777 179.521 348.061 173.199C344.34 169.834 341.018 166.765 337.57 162.992C334.521 159.515 331.345 155.335 328.296 151.858C322.744 144.089 316.373 137.543 309.33 131.109C302.287 124.675 294.698 119.056 287.235 114.141C283.368 111.888 279.1 109.338 274.96 107.493C270.819 105.647 266.279 103.505 262.411 101.252C254.004 96.8566 246.415 91.2381 238.826 85.6197L239.099 85.2119C246.688 90.8304 254.277 96.4488 262.957 100.436C267.098 102.282 271.239 104.128 275.779 106.269C279.919 108.115 284.459 110.256 288.327 112.51C296.462 117.313 304.051 122.931 311.094 129.365C318.41 135.392 324.908 142.641 330.733 150.003C336.558 157.364 343.055 164.614 350.371 170.64C357.687 176.666 365.003 182.693 373.138 187.496C377.006 189.749 381.546 191.891 385.686 193.736C389.827 195.582 393.968 197.428 398.508 199.569C405.97 204.484 413.832 209.695 421.421 215.314C429.01 220.932 436.054 227.366 441.879 234.728C444.927 238.205 447.703 242.089 450.752 245.566C453.928 249.747 456.977 253.224 460.698 256.588C467.468 263.43 475.057 269.049 482.647 274.667C490.236 280.285 498.643 284.681 507.198 287.964C515.752 291.248 523.887 296.051 531.749 301.262C539.338 306.88 546.927 312.499 553.697 319.34C557.019 322.409 560.467 326.182 563.243 330.067C566.292 333.544 569.068 337.429 572.117 340.905C577.942 348.267 584.985 354.701 592.301 360.727Z" fill="#D3FCFD"/>
<path d="M600.077 351.074C592.488 345.455 585.172 339.429 578.675 332.18C575.626 328.703 572.177 324.93 569.401 321.045C566.352 317.568 563.303 314.091 559.582 310.727C552.539 304.293 545.622 298.562 537.76 293.351C529.898 288.141 521.89 284.041 513.609 280.35C509.468 278.504 504.928 276.362 500.787 274.517C496.52 271.967 492.653 269.714 488.658 266.757C481.069 261.138 473.48 255.52 466.311 248.382C462.589 245.017 459.54 241.541 456.764 237.656C453.715 234.179 450.939 230.294 447.89 226.817C441.792 219.863 434.749 213.429 427.56 208.107C419.971 202.488 412.781 197.166 404.5 193.474C400.359 191.628 396.218 189.782 391.678 187.641C387.538 185.795 382.998 183.654 379.004 180.696C370.869 175.894 363.553 169.867 355.837 163.545C352.116 160.181 348.794 157.111 345.345 153.339C342.296 149.862 339.121 145.681 336.072 142.204C330.52 134.435 324.149 127.889 317.106 121.455C310.063 115.021 302.474 109.403 295.011 104.488C291.143 102.234 286.876 99.6847 282.736 97.8389C278.595 95.9932 274.055 93.8516 270.187 91.5981C261.78 87.203 254.191 81.5846 246.601 75.9661L246.874 75.5584C254.463 81.1768 262.052 86.7952 270.733 90.7825C274.874 92.6283 279.014 94.4741 283.554 96.6156C287.695 98.4614 292.235 100.603 296.103 102.856C304.238 107.659 311.827 113.278 318.87 119.712C326.186 125.738 332.683 132.988 338.508 140.349C344.333 147.711 350.831 154.96 358.147 160.987C365.463 167.013 372.779 173.039 380.914 177.842C384.782 180.096 389.322 182.237 393.462 184.083C397.603 185.929 401.744 187.774 406.284 189.916C414.964 193.903 422.553 199.522 430.142 205.14C437.731 210.759 444.775 217.193 450.6 224.554C453.649 228.031 456.425 231.916 459.474 235.393C462.523 238.87 465.299 242.754 469.02 246.119C475.79 252.961 483.379 258.579 490.968 264.198C498.557 269.816 506.965 274.211 515.519 277.495C524.073 280.779 532.208 285.582 540.07 290.793C547.659 296.411 555.248 302.029 562.019 308.871C565.34 311.94 568.789 315.713 571.565 319.598C574.614 323.075 577.39 326.959 580.439 330.436C585.718 338.614 592.761 345.048 600.077 351.074Z" fill="#D3FCFD"/>
<path d="M607.454 341.126C599.865 335.507 592.549 329.481 586.052 322.232C583.003 318.755 579.554 314.982 576.778 311.097C573.729 307.62 570.68 304.143 566.959 300.779C559.916 294.345 552.999 288.614 545.137 283.403C537.275 278.193 529.267 274.093 520.986 270.402C516.845 268.556 512.305 266.414 508.164 264.569C503.897 262.019 500.029 259.766 496.035 256.809C488.446 251.19 480.857 245.572 473.688 238.434C469.966 235.069 466.917 231.593 464.141 227.708C461.092 224.231 458.316 220.346 455.267 216.869C449.169 209.915 442.126 203.481 434.937 198.159C427.348 192.54 420.158 187.218 411.877 183.526C407.736 181.68 403.595 179.834 399.055 177.693C394.915 175.847 390.375 173.706 386.38 170.748C378.246 165.946 370.929 159.919 363.214 153.597C359.493 150.233 356.171 147.163 352.722 143.391C349.673 139.914 346.498 135.733 343.449 132.257C337.897 124.487 331.526 117.941 324.483 111.507C317.44 105.073 309.851 99.4545 302.388 94.5396C298.52 92.286 294.253 89.7367 290.113 87.891C285.972 86.0452 281.432 83.9037 277.564 81.6501C269.156 77.255 261.567 71.6366 253.978 66.0181L254.251 65.6104C261.84 71.2288 269.429 76.8472 278.11 80.8345C282.251 82.6803 286.391 84.5261 290.931 86.6676C295.072 88.5134 299.612 90.6549 303.48 92.9085C311.615 97.7113 319.204 103.33 326.247 109.764C333.563 115.79 340.06 123.04 345.885 130.401C351.71 137.763 358.208 145.012 365.524 151.039C372.84 157.065 380.156 163.091 388.291 167.894C392.159 170.148 396.699 172.289 400.839 174.135C404.98 175.981 409.121 177.826 413.661 179.968C421.123 184.883 428.985 190.094 436.574 195.712C444.163 201.33 451.206 207.764 457.031 215.126C460.08 218.603 462.856 222.488 465.905 225.965C468.954 229.442 471.73 233.326 475.452 236.691C482.222 243.533 489.811 249.151 497.4 254.77C504.989 260.388 513.397 264.783 521.951 268.067C530.505 271.351 538.64 276.154 546.502 281.364C554.091 286.983 561.68 292.601 568.45 299.443C571.772 302.512 575.22 306.285 577.996 310.17C581.045 313.647 583.821 317.531 586.87 321.008C593.095 328.666 600.138 335.1 607.454 341.126Z" fill="#D3FCFD"/>
<path d="M615.228 331.471C607.639 325.853 600.322 319.827 593.825 312.577C590.776 309.1 587.328 305.328 584.552 301.443C581.503 297.966 578.454 294.489 574.733 291.124C567.689 284.69 560.773 278.96 552.911 273.749C545.049 268.538 537.04 264.439 528.759 260.747C524.618 258.902 520.078 256.76 515.938 254.914C511.671 252.365 507.803 250.111 503.809 247.154C496.22 241.536 488.631 235.918 481.461 228.78C477.74 225.415 474.691 221.938 471.915 218.054C468.866 214.577 466.09 210.692 463.041 207.215C456.943 200.261 449.9 193.827 442.71 188.504C435.121 182.886 427.931 177.563 419.65 173.872C415.509 172.026 411.369 170.18 406.829 168.039C402.688 166.193 398.148 164.051 394.154 161.094C386.019 156.291 378.703 150.265 370.987 143.943C367.266 140.578 363.944 137.509 360.496 133.737C357.447 130.26 354.271 126.079 351.222 122.602C345.67 114.833 339.299 108.287 332.256 101.853C325.213 95.4187 317.624 89.8002 310.162 84.8853C306.294 82.6317 302.027 80.0824 297.886 78.2367C293.745 76.3909 289.205 74.2494 285.338 71.9958C276.93 67.6007 269.341 61.9823 261.752 56.3638L262.025 55.9561C269.614 61.5745 277.203 67.1929 285.883 71.1802C290.024 73.026 294.165 74.8718 298.705 77.0133C302.845 78.8591 307.385 81.0006 311.253 83.2542C319.388 88.0571 326.977 93.6755 334.02 100.109C341.336 106.136 347.834 113.385 353.659 120.747C359.484 128.109 365.981 135.358 373.297 141.384C380.613 147.411 387.929 153.437 396.064 158.24C399.932 160.493 404.472 162.635 408.613 164.481C412.753 166.326 416.894 168.172 421.434 170.314C430.115 174.301 437.704 179.919 445.293 185.538C452.882 191.156 459.925 197.59 465.75 204.952C468.799 208.429 471.575 212.314 474.624 215.79C477.673 219.267 480.449 223.152 484.17 226.517C490.941 233.359 498.53 238.977 506.119 244.596C513.708 250.214 522.115 254.609 530.67 257.893C539.224 261.177 547.359 265.98 555.221 271.19C562.81 276.809 570.399 282.427 577.169 289.269C580.491 292.338 583.939 296.111 586.715 299.995C589.764 303.472 592.54 307.357 595.589 310.834C600.868 319.011 607.911 325.445 615.228 331.471Z" fill="#D3FCFD"/>
<path d="M622.896 321.124C615.307 315.505 607.991 309.479 601.494 302.229C598.445 298.752 594.996 294.98 592.22 291.095C589.171 287.618 586.123 284.141 582.401 280.776C575.358 274.342 568.441 268.612 560.579 263.401C552.717 258.19 544.709 254.091 536.428 250.4C532.287 248.554 527.747 246.412 523.606 244.566C519.339 242.017 515.472 239.764 511.477 236.806C503.888 231.188 496.299 225.57 489.13 218.432C485.408 215.067 482.359 211.59 479.583 207.706C476.534 204.229 473.758 200.344 470.709 196.867C464.611 189.913 457.568 183.479 450.379 178.156C442.79 172.538 435.6 167.215 427.319 163.524C423.178 161.678 419.038 159.832 414.497 157.691C410.357 155.845 405.817 153.703 401.823 150.746C393.688 145.943 386.372 139.917 378.656 133.595C374.935 130.23 371.613 127.161 368.164 123.389C365.115 119.912 361.94 115.731 358.891 112.254C353.339 104.485 346.968 97.9388 339.925 91.5048C332.882 85.0708 325.293 79.4524 317.83 74.5374C313.963 72.2838 309.695 69.7346 305.555 67.8888C301.414 66.043 296.874 63.9015 293.006 61.6479C284.599 57.2528 277.01 51.6344 269.42 46.016L269.693 45.6082C277.282 51.2266 284.871 56.845 293.552 60.8323C297.693 62.6781 301.833 64.5239 306.374 66.6654C310.514 68.5112 315.054 70.6527 318.922 72.9063C327.057 77.7091 334.646 83.3276 341.689 89.7616C349.005 95.7878 355.502 103.037 361.327 110.399C367.152 117.761 373.65 125.01 380.966 131.036C388.282 137.063 395.598 143.089 403.733 147.892C407.601 150.145 412.141 152.287 416.281 154.133C420.422 155.978 424.563 157.824 429.103 159.966C436.565 164.881 444.827 170.387 451.743 176.118C459.332 181.736 466.375 188.17 472.2 195.532C475.249 199.009 478.025 202.893 481.074 206.37C484.123 209.847 486.899 213.732 490.621 217.097C497.391 223.938 504.98 229.557 512.569 235.175C520.158 240.794 528.566 245.189 537.12 248.473C545.674 251.756 553.809 256.559 561.671 261.77C569.26 267.388 576.849 273.007 583.619 279.849C586.941 282.918 590.39 286.69 593.166 290.575C596.215 294.052 598.991 297.937 602.04 301.414C608.664 309.367 615.98 315.393 622.896 321.124Z" fill="#D3FCFD"/>
<path d="M630.669 311.47C623.08 305.851 615.764 299.825 609.267 292.576C606.218 289.099 602.77 285.326 599.993 281.441C596.945 277.964 593.896 274.487 590.174 271.123C583.131 264.689 576.214 258.958 568.352 253.747C560.491 248.537 552.482 244.437 544.201 240.746C540.06 238.9 535.52 236.758 531.38 234.913C527.112 232.363 523.245 230.11 519.25 227.153C511.661 221.534 504.072 215.916 496.903 208.778C493.181 205.413 490.132 201.937 487.356 198.052C484.307 194.575 481.531 190.69 478.482 187.213C472.385 180.259 465.341 173.825 458.152 168.503C450.563 162.884 443.373 157.562 435.092 153.87C430.951 152.024 426.811 150.178 422.271 148.037C418.13 146.191 413.59 144.05 409.596 141.092C401.461 136.29 394.145 130.263 386.429 123.941C382.708 120.577 379.386 117.507 375.938 113.735C372.889 110.258 369.713 106.077 366.664 102.601C361.112 94.8311 354.741 88.285 347.698 81.851C340.655 75.417 333.066 69.7986 325.603 64.8836C321.736 62.63 317.468 60.0808 313.328 58.235C309.187 56.3892 304.647 54.2477 300.779 51.9941C292.372 47.599 284.783 41.9806 277.194 36.3622L277.466 35.9544C285.056 41.5728 292.645 47.1912 301.325 51.1785C305.466 53.0243 309.607 54.8701 314.147 57.0116C318.287 58.8574 322.827 60.9989 326.695 63.2525C334.83 68.0553 342.419 73.6738 349.462 80.1078C356.778 86.134 363.276 93.3836 369.101 100.745C374.926 108.107 381.423 115.356 388.739 121.383C396.055 127.409 403.371 133.435 411.506 138.238C415.374 140.492 419.914 142.633 424.054 144.479C428.195 146.325 432.336 148.17 436.876 150.312C445.556 154.299 453.146 159.918 460.735 165.536C468.324 171.155 475.367 177.589 481.192 184.95C484.241 188.427 487.017 192.312 490.066 195.789C493.115 199.266 495.891 203.15 499.612 206.515C506.382 213.357 513.971 218.975 521.56 224.594C529.149 230.212 537.557 234.607 546.111 237.891C554.666 241.175 562.8 245.978 570.662 251.189C578.251 256.807 585.84 262.425 592.611 269.267C595.933 272.336 599.381 276.109 602.157 279.994C605.206 283.471 607.982 287.355 611.031 290.832C616.037 299.417 623.353 305.444 630.669 311.47Z" fill="#D3FCFD"/>
</g>
</g>
</svg>
