<svg width="146" height="552" viewBox="0 0 146 552" fill="none" xmlns="http://www.w3.org/2000/svg">
<g opacity="0.5">
<mask id="mask0_175_1647" style="mask-type:luminance" maskUnits="userSpaceOnUse" x="43" y="54" width="417" height="445">
<path d="M455.199 335.391C478.495 217.279 406.11 94.9443 293.522 62.1483C180.935 29.3522 70.7801 98.5139 47.4843 216.626C24.1884 334.737 96.5734 457.072 209.161 489.868C321.748 522.664 431.903 453.502 455.199 335.391Z" fill="white"/>
</mask>
<g mask="url(#mask0_175_1647)">
<path d="M94.6259 -5.9502C103.218 -4.06099 111.732 -1.70946 120.015 2.02902C123.93 3.84855 127.767 6.13039 132.134 8.04935C136.049 9.86888 139.964 11.6884 144.409 13.145C152.846 15.9589 160.908 18.211 169.578 19.6379C178.247 21.0648 186.619 21.4676 195.069 21.4081C199.293 21.3783 203.97 21.448 208.195 21.4183C212.794 21.9503 216.942 22.3828 221.464 23.3772C230.056 25.2664 238.648 27.1556 247.46 30.5312C251.904 31.9878 255.819 33.8073 259.657 36.0892C263.572 37.9087 267.409 40.1906 271.324 42.0101C279.154 45.6491 287.592 48.463 295.731 50.2528C304.323 52.142 312.463 53.9317 320.912 53.8722C325.137 53.8425 329.362 53.8127 334.039 53.8824C338.263 53.8527 342.94 53.9224 347.462 54.9167C356.209 55.8813 364.724 58.2328 373.69 60.6837C378.135 62.1404 382.128 63.4976 386.495 65.4165C390.41 67.2361 394.7 69.6173 398.615 71.4369C406.29 76.0005 414.197 79.1773 422.634 81.9911C431.071 84.805 439.663 86.6942 447.88 88.0216C452.028 88.4542 456.627 88.9862 460.852 88.9565C465.077 88.9267 469.754 88.9964 473.901 89.429C482.35 89.3695 491.02 90.7964 499.534 93.1479L499.457 93.6102C490.865 91.721 482.273 89.8318 473.371 89.7919C469.147 89.8216 464.922 89.8514 460.245 89.7817C456.02 89.8114 451.343 89.7417 447.196 89.3092C438.449 88.3446 429.857 86.4554 421.42 83.6415C412.906 81.29 404.623 77.5515 396.871 73.4502C389.118 69.3488 380.836 65.6103 372.321 63.2588C363.807 60.9073 355.292 58.5557 346.546 57.5912C342.398 57.1586 337.721 57.0889 333.497 57.1187C329.272 57.1484 325.047 57.1782 320.37 57.1085C312.528 56.3428 303.859 54.9159 295.267 53.0267C286.675 51.1375 278.238 48.3236 270.485 44.2222C266.57 42.4027 262.733 40.1209 258.817 38.3013C254.902 36.4818 251.065 34.2 246.62 32.7433C238.261 29.4672 229.669 27.578 221.077 25.6888C212.485 23.7995 203.661 23.2973 195.134 23.8191C186.232 23.7792 177.86 23.3764 169.268 21.4871C160.676 19.5979 152.084 17.7087 143.725 14.4326C139.732 13.0754 135.365 11.1564 131.527 8.87456C127.612 7.05503 123.775 4.77319 119.408 2.85423C111.578 -0.784822 103.14 -3.59867 94.6259 -5.9502Z" fill="url(#paint0_linear_175_1647)"/>
<path d="M92.4216 6.58691C101.014 8.47699 109.528 10.8293 117.358 14.469C121.273 16.2889 125.64 18.2082 129.478 20.4903C133.393 22.3102 137.308 24.13 141.752 25.5871C150.189 28.4017 158.252 30.6546 166.921 32.0824C175.591 33.5102 183.963 33.9139 192.413 33.8554C196.638 33.8262 201.315 33.8964 205.54 33.8671C210.14 34.3996 214.287 34.8327 218.809 35.8274C227.402 37.7175 235.994 39.6076 244.806 42.984C249.25 44.441 253.165 46.2609 257.003 48.543C260.917 50.3628 264.755 52.645 268.67 54.4648C276.5 58.1045 284.937 60.9191 293.077 62.7097C301.669 64.5998 309.809 66.3904 318.259 66.3319C322.484 66.3026 326.708 66.2734 331.386 66.3436C335.611 66.3144 340.288 66.3846 344.81 67.3793C353.557 68.3449 362.072 70.6972 371.038 73.149C375.483 74.6061 379.475 75.9637 383.843 77.883C387.758 79.7029 392.047 82.0844 395.962 83.9043C403.637 88.4685 411.544 91.646 419.982 94.4606C428.419 97.2752 437.011 99.1653 445.228 100.494C449.376 100.927 453.975 101.459 458.2 101.43C462.425 101.401 467.102 101.471 471.25 101.904C480.074 102.407 488.666 104.297 497.258 106.187L497.181 106.65C488.589 104.759 479.997 102.869 471.095 102.828C466.87 102.858 462.645 102.887 457.968 102.817C453.743 102.846 449.066 102.776 444.918 102.343C436.171 101.377 427.579 99.4871 419.142 96.6725C410.627 94.3202 402.345 90.581 394.593 86.479C386.84 82.377 378.558 78.6378 370.044 76.2855C361.529 73.9332 353.014 71.5808 344.267 70.6153C340.12 70.1823 335.443 70.112 331.218 70.1413C326.993 70.1705 322.768 70.1998 318.091 70.1296C309.189 70.0886 300.597 68.1985 292.005 66.3085C283.412 64.4184 274.975 61.6038 267.223 57.5018C263.308 55.6819 259.471 53.3998 255.556 51.58C251.641 49.7601 247.803 47.478 243.359 46.0209C234.999 42.744 226.407 40.854 217.815 38.9639C209.223 37.0738 200.398 36.5706 191.871 37.0914C183.343 37.6122 174.596 36.6466 165.927 35.2188C157.335 33.3288 148.742 31.4387 140.383 28.1618C136.39 26.8042 132.023 24.8849 128.186 22.6028C124.956 19.4956 121.118 17.2134 117.203 15.3936C108.921 11.6544 100.936 8.93926 92.4216 6.58691Z" fill="url(#paint1_linear_175_1647)"/>
<path d="M89.7847 19.0293C98.3766 20.9185 106.891 23.27 115.173 27.0085C119.088 28.828 122.926 31.1099 126.841 32.9294C130.756 34.7489 134.671 36.5685 139.116 38.0251C147.475 41.3013 156.067 43.1905 164.284 44.5179C172.954 45.9448 181.326 46.3476 189.775 46.2881C194 46.2584 198.677 46.3281 202.902 46.2983C207.501 46.8303 211.648 47.2629 216.17 48.2572C224.762 50.1464 233.354 52.0356 242.166 55.4112C246.611 56.8679 250.526 58.6874 254.363 60.9692C258.278 62.7888 262.116 65.0706 266.031 66.8901C273.861 70.5292 282.298 73.343 290.438 75.1328C299.03 77.022 307.169 78.8118 315.619 78.7523C319.844 78.7225 324.068 78.6928 328.745 78.7625C332.97 78.7327 337.647 78.8024 342.169 79.7967C350.916 80.7613 359.43 83.1128 368.397 85.5638C372.842 87.0204 376.834 88.3776 381.201 90.2966C385.116 92.1161 389.406 94.4974 393.321 96.3169C400.996 100.881 408.904 104.057 417.341 106.871C425.778 109.685 434.37 111.574 442.587 112.902C446.734 113.334 451.334 113.866 455.558 113.837C459.783 113.807 464.46 113.876 468.607 114.309C477.509 114.349 486.178 115.776 494.693 118.127L494.615 118.59C486.024 116.7 477.432 114.811 468.53 114.771C464.305 114.801 460.081 114.831 455.404 114.761C451.179 114.791 446.502 114.721 442.355 114.289C433.608 113.324 425.016 111.435 416.579 108.621C408.064 106.27 399.782 102.531 392.03 98.4297C384.277 94.3283 375.995 90.5898 367.48 88.2383C358.966 85.8867 350.451 83.5352 341.704 82.5706C337.557 82.1381 332.88 82.0684 328.655 82.0981C324.431 82.1279 320.206 82.1576 315.529 82.088C306.628 82.048 298.036 80.1588 289.444 78.2696C280.852 76.3804 272.415 73.5666 264.662 69.4652C260.747 67.6457 256.909 65.3638 252.994 63.5443C249.079 61.7248 245.242 59.4429 240.797 57.9863C232.437 54.7101 223.846 52.8209 215.254 50.9317C206.662 49.0425 197.837 48.5402 189.311 49.0621C180.784 49.5839 172.037 48.6193 163.368 47.1924C154.776 45.3032 146.184 43.414 137.824 40.1378C133.832 38.7806 129.464 36.8617 125.627 34.5798C122.771 32.0345 118.856 30.215 114.566 27.8337C106.736 24.1947 98.2992 21.3808 89.7847 19.0293Z" fill="url(#paint2_linear_175_1647)"/>
<path d="M87.1264 31.4688C95.7185 33.3588 104.233 35.7111 112.515 39.4502C116.43 41.2701 120.797 43.1894 124.635 45.4715C128.55 47.2913 132.465 49.1112 136.909 50.5682C145.346 53.3828 153.409 55.6356 162.078 57.0634C170.748 58.4912 179.12 58.8949 187.57 58.8363C191.795 58.8071 196.472 58.8772 200.697 58.848C205.297 59.3804 209.444 59.8135 213.966 60.8082C222.558 62.6982 231.151 64.5883 239.962 67.9646C244.407 69.4217 248.322 71.2415 252.159 73.5236C256.074 75.3434 259.912 77.6255 263.827 79.4454C271.657 83.0851 280.094 85.8996 288.234 87.6902C296.826 89.5802 304.966 91.3708 313.415 91.3122C317.64 91.283 321.865 91.2537 326.542 91.3239C330.767 91.2946 335.445 91.3648 339.967 92.3596C348.714 93.3251 357.228 95.6774 366.195 98.1292C370.64 99.5862 374.632 100.944 378.999 102.863C382.914 104.683 387.204 107.064 391.119 108.884C398.794 113.449 406.701 116.626 415.138 119.441C423.576 122.255 432.168 124.145 440.385 125.473C444.532 125.906 449.132 126.439 453.357 126.41C457.582 126.38 462.259 126.451 466.406 126.884C475.231 127.387 483.823 129.277 492.415 131.167L492.338 131.629C483.746 129.739 475.154 127.849 466.251 127.808C462.027 127.837 457.802 127.867 453.125 127.796C448.9 127.826 444.222 127.756 440.075 127.323C431.328 126.357 422.736 124.467 414.299 121.652C405.784 119.3 397.502 115.561 389.75 111.459C381.997 107.357 373.715 103.618 365.201 101.266C357.293 98.0882 348.701 96.1982 339.954 95.2327C335.807 94.7997 331.129 94.7295 326.904 94.7588C322.68 94.7881 318.455 94.8173 313.777 94.7471C304.875 94.7062 296.283 92.8162 287.691 90.9262C279.099 89.0361 270.662 86.2215 262.91 82.1196C258.995 80.2997 255.157 78.0176 251.242 76.1978C247.327 74.378 243.49 72.0958 239.045 70.6388C230.686 67.3619 222.094 65.4719 213.501 63.5819C204.909 61.6918 196.085 61.1886 187.557 61.7095C179.03 62.2303 170.283 61.2648 161.613 59.8371C153.021 57.947 144.429 56.057 136.07 52.7801C132.077 51.4226 127.71 49.5033 123.873 47.2211C120.113 44.4768 116.198 42.6569 112.283 40.8371C104.078 36.6357 95.5635 34.2833 87.1264 31.4688Z" fill="url(#paint3_linear_175_1647)"/>
<path d="M84.8434 44.5088C93.4355 46.3988 101.95 48.7511 110.232 52.4903C114.147 54.3101 118.514 56.2294 122.352 58.5115C126.267 60.3314 130.182 62.1512 134.626 63.6082C143.063 66.4228 151.126 68.6757 159.795 70.1034C168.465 71.5312 176.837 71.9349 185.287 71.8764C189.512 71.8471 194.189 71.9173 198.414 71.888C203.014 72.4205 207.161 72.8535 211.683 73.8482C220.276 75.7383 228.868 77.6283 237.679 81.0047C242.124 82.4617 246.039 84.2815 249.876 86.5636C253.791 88.3835 257.629 90.6656 261.544 92.4854C269.374 96.1251 277.811 98.9397 285.951 100.73C294.543 102.62 302.683 104.411 311.133 104.352C315.357 104.323 319.582 104.294 324.26 104.364C328.484 104.335 333.162 104.405 337.684 105.4C346.431 106.365 354.945 108.717 363.912 111.169C368.357 112.626 372.349 113.984 376.716 115.903C380.631 117.723 384.921 120.105 388.836 121.924C396.511 126.489 404.418 129.666 412.855 132.481C421.293 135.295 429.885 137.185 438.102 138.513C442.249 138.946 446.849 139.479 451.074 139.45C455.299 139.42 459.976 139.491 464.123 139.924C472.948 140.427 481.54 142.317 490.132 144.207L490.055 144.669C481.463 142.779 472.871 140.889 463.968 140.848C459.744 140.877 455.519 140.907 450.842 140.837C446.617 140.866 441.939 140.796 437.792 140.363C429.045 139.397 420.453 137.507 412.016 134.692C403.501 132.34 395.219 128.601 387.467 124.499C379.714 120.397 371.432 116.658 362.918 114.306C354.403 111.953 345.888 109.601 337.141 108.636C332.994 108.203 328.317 108.132 324.092 108.162C319.867 108.191 315.642 108.22 310.965 108.15C302.063 108.109 293.471 106.219 284.879 104.329C276.286 102.439 267.849 99.6244 260.097 95.5224C256.182 93.7026 252.345 91.4205 248.43 89.6006C244.515 87.7808 240.677 85.4987 236.233 84.0416C227.873 80.7648 219.281 78.8747 210.689 76.9847C202.097 75.0947 193.272 74.5915 184.745 75.1123C176.217 75.6331 167.47 74.6677 158.801 73.2399C150.209 71.3499 141.617 69.4598 133.257 66.183C129.265 64.8254 124.897 62.9061 121.06 60.624C117.145 58.8041 113.308 56.522 109.393 54.7022C101.873 49.2134 93.358 46.8611 84.8434 44.5088Z" fill="url(#paint4_linear_175_1647)"/>
<path d="M82.1951 56.9492C90.7872 58.8393 99.3018 61.1916 107.584 64.9307C111.499 66.7505 115.866 68.6699 119.703 70.952C123.618 72.7718 127.533 74.5916 131.978 76.0487C140.415 78.8633 148.477 81.1161 157.147 82.5439C165.817 83.9716 174.189 84.3753 182.639 84.3168C186.864 84.2875 191.541 84.3577 195.766 84.3284C200.365 84.8609 204.513 85.2939 209.035 86.2887C217.627 88.1787 226.219 90.0687 235.031 93.4451C239.476 94.9021 243.391 96.722 247.228 99.0041C251.143 100.824 254.981 103.106 258.895 104.926C266.725 108.566 275.162 111.38 283.302 113.171C291.894 115.061 300.034 116.851 308.484 116.793C312.709 116.763 316.934 116.734 321.611 116.804C325.836 116.775 330.513 116.845 335.035 117.84C343.782 118.806 352.297 121.158 361.264 123.61C365.709 125.067 369.701 126.424 374.068 128.344C377.983 130.163 382.273 132.545 386.188 134.365C393.863 138.929 401.77 142.106 410.207 144.921C418.644 147.736 427.236 149.626 435.454 150.954C439.601 151.387 444.201 151.919 448.426 151.89C452.651 151.861 457.328 151.931 461.475 152.364C470.3 152.867 478.892 154.757 487.484 156.647L487.406 157.11C478.814 155.22 470.222 153.33 461.32 153.289C457.095 153.318 452.87 153.347 448.193 153.277C443.968 153.306 439.291 153.236 435.144 152.803C426.397 151.838 417.804 149.947 409.367 147.133C400.853 144.781 392.571 141.041 384.818 136.939C377.066 132.838 368.784 129.098 360.269 126.746C351.755 124.394 343.24 122.041 334.493 121.076C330.345 120.643 325.668 120.573 321.443 120.602C317.218 120.631 312.994 120.661 308.316 120.59C299.414 120.549 290.822 118.659 282.23 116.769C273.638 114.879 265.201 112.065 257.449 107.963C253.534 106.143 249.696 103.861 245.781 102.041C241.866 100.221 238.029 97.9391 233.584 96.4821C225.225 93.2052 216.632 91.3152 208.04 89.4251C199.448 87.5351 190.624 87.0319 182.096 87.5527C173.569 88.0736 164.822 87.1081 156.152 85.6803C147.56 83.7903 138.968 81.9003 130.609 78.6234C126.616 77.2658 122.249 75.3465 118.412 73.0644C114.497 71.2446 110.659 68.9625 106.744 67.1426C99.2243 61.6538 90.7097 59.3015 82.1951 56.9492Z" fill="url(#paint5_linear_175_1647)"/>
<path d="M79.9985 69.4863C88.5906 71.3764 97.1052 73.7287 105.387 77.4678C109.302 79.2877 113.669 81.207 117.507 83.4891C121.422 85.3089 125.337 87.1287 129.781 88.5858C138.218 91.4004 146.281 93.6532 154.95 95.081C163.62 96.5087 171.992 96.9125 180.442 96.8539C184.667 96.8246 189.344 96.8948 193.569 96.8655C198.169 97.398 202.316 97.831 206.838 98.8258C215.431 100.716 224.023 102.606 232.834 105.982C237.279 107.439 241.194 109.259 245.032 111.541C248.946 113.361 252.784 115.643 256.699 117.463C264.529 121.103 272.966 123.917 281.106 125.708C289.698 127.598 297.838 129.388 306.288 129.33C310.512 129.301 314.737 129.271 319.415 129.341C323.639 129.312 328.317 129.382 332.839 130.377C341.586 131.343 350.1 133.695 359.067 136.147C363.512 137.604 367.504 138.961 371.872 140.881C375.786 142.7 380.076 145.082 383.991 146.902C391.666 151.466 399.573 154.644 408.01 157.458C416.448 160.273 425.04 162.163 433.257 163.491C437.404 163.924 442.004 164.456 446.229 164.427C450.454 164.398 455.131 164.468 459.279 164.901C468.103 165.404 476.695 167.294 485.287 169.184L485.21 169.647C476.618 167.757 468.026 165.867 459.124 165.826C454.899 165.855 450.674 165.884 445.997 165.814C441.772 165.843 437.094 165.773 432.947 165.34C424.2 164.375 415.608 162.485 407.171 159.67C398.656 157.318 390.374 153.579 382.622 149.477C374.869 145.375 366.587 141.636 358.073 139.283C349.558 136.931 341.043 134.579 332.296 133.613C328.149 133.18 323.472 133.11 319.247 133.139C315.022 133.168 310.797 133.198 306.12 133.128C297.218 133.087 288.626 131.197 280.034 129.307C271.441 127.416 263.004 124.602 255.252 120.5C251.337 118.68 247.5 116.398 243.585 114.578C239.67 112.758 235.832 110.476 231.388 109.019C223.028 105.742 214.436 103.852 205.844 101.962C197.252 100.072 188.427 99.569 179.9 100.09C171.372 100.611 162.625 99.6452 153.956 98.2174C145.364 96.3274 136.772 94.4374 128.412 91.1605C124.42 89.8029 120.052 87.8836 116.215 85.6015C112.3 83.7817 108.463 81.4996 104.548 79.6797C96.9502 74.6532 88.5131 71.8386 79.9985 69.4863Z" fill="url(#paint6_linear_175_1647)"/>
<path d="M77.3509 81.9277C85.943 83.8178 94.4576 86.1701 102.74 89.9092C106.655 91.7291 111.022 93.6484 114.859 95.9305C118.774 97.7503 122.689 99.5702 127.134 101.027C135.571 103.842 143.633 106.095 152.303 107.522C160.972 108.95 169.345 109.354 177.795 109.295C182.02 109.266 186.697 109.336 190.922 109.307C195.521 109.839 199.669 110.272 204.191 111.267C212.783 113.157 221.375 115.047 230.187 118.424C234.632 119.881 238.546 121.7 242.384 123.983C246.299 125.802 250.136 128.085 254.051 129.904C261.881 133.544 270.318 136.359 278.458 138.149C287.05 140.039 295.19 141.83 303.64 141.771C307.865 141.742 312.09 141.713 316.767 141.783C320.992 141.754 325.669 141.824 330.191 142.819C338.938 143.784 347.453 146.136 356.42 148.588C360.864 150.045 364.857 151.403 369.224 153.322C373.139 155.142 377.429 157.523 381.344 159.343C389.018 163.908 396.926 167.085 405.363 169.9C413.8 172.714 422.392 174.604 430.609 175.932C434.757 176.365 439.357 176.898 443.581 176.869C447.806 176.839 452.484 176.91 456.631 177.343C465.456 177.846 474.048 179.736 482.64 181.626L482.562 182.088C473.97 180.198 465.378 178.308 456.476 178.267C452.251 178.296 448.026 178.326 443.349 178.255C439.124 178.285 434.447 178.215 430.299 177.782C421.552 176.816 412.96 174.926 404.523 172.111C396.009 169.759 387.727 166.02 379.974 161.918C372.222 157.816 363.94 154.077 355.425 151.725C346.91 149.372 338.396 147.02 329.649 146.054C325.501 145.621 320.824 145.551 316.599 145.581C312.374 145.61 308.149 145.639 303.472 145.569C294.57 145.528 285.978 143.638 277.386 141.748C268.794 139.858 260.357 137.043 252.604 132.941C248.689 131.122 244.852 128.839 240.937 127.02C237.022 125.2 233.185 122.918 228.74 121.461C220.38 118.184 211.788 116.294 203.196 114.404C194.604 112.514 185.78 112.01 177.252 112.531C168.725 113.052 159.978 112.087 151.308 110.659C142.716 108.769 134.124 106.879 125.764 103.602C121.772 102.244 117.405 100.325 113.567 98.0429C109.652 96.2231 105.815 93.941 101.9 92.1211C94.3026 87.0946 85.8655 84.28 77.3509 81.9277Z" fill="url(#paint7_linear_175_1647)"/>
<path d="M75.1557 94.4648C83.7478 96.3549 92.2624 98.7072 100.544 102.446C104.459 104.266 108.827 106.185 112.664 108.468C116.579 110.287 120.494 112.107 124.939 113.564C133.376 116.379 141.438 118.632 150.108 120.059C158.777 121.487 167.15 121.891 175.599 121.832C179.824 121.803 184.502 121.873 188.726 121.844C193.326 122.377 197.474 122.81 201.996 123.804C210.588 125.694 219.18 127.584 227.992 130.961C232.436 132.418 236.351 134.238 240.189 136.52C244.104 138.34 247.941 140.622 251.856 142.441C259.686 146.081 268.123 148.896 276.263 150.686C284.855 152.576 292.995 154.367 301.445 154.308C305.67 154.279 309.895 154.25 314.572 154.32C318.797 154.291 323.474 154.361 327.996 155.356C336.743 156.321 345.258 158.673 354.224 161.125C358.669 162.582 362.662 163.94 367.029 165.859C370.944 167.679 375.233 170.061 379.148 171.88C386.823 176.445 394.731 179.622 403.168 182.437C411.605 185.251 420.197 187.141 428.414 188.47C432.562 188.903 437.161 189.435 441.386 189.406C445.611 189.376 450.288 189.447 454.436 189.88C463.26 190.383 471.852 192.273 480.444 194.163L480.367 194.625C471.775 192.735 463.183 190.845 454.281 190.804C450.056 190.833 445.831 190.863 441.154 190.793C436.929 190.822 432.252 190.752 428.104 190.319C419.357 189.353 410.765 187.463 402.328 184.649C393.813 182.296 385.531 178.557 377.779 174.455C370.027 170.353 361.744 166.614 353.23 164.262C344.715 161.909 336.201 159.557 327.454 158.592C323.306 158.159 318.629 158.088 314.404 158.118C310.179 158.147 305.954 158.176 301.277 158.106C292.375 158.065 283.783 156.175 275.191 154.285C266.599 152.395 258.162 149.58 250.409 145.478C246.494 143.659 242.657 141.377 238.742 139.557C234.827 137.737 230.989 135.455 226.545 133.998C218.185 130.721 209.593 128.831 201.001 126.941C192.409 125.051 183.584 124.548 175.057 125.068C166.53 125.589 157.783 124.624 149.113 123.196C140.521 121.306 131.929 119.416 123.569 116.139C119.577 114.781 115.21 112.862 111.372 110.58C107.457 108.76 103.62 106.478 99.7048 104.658C91.6552 99.5323 83.2181 96.7177 75.1557 94.4648Z" fill="url(#paint8_linear_175_1647)"/>
<path d="M72.5074 106.905C81.0995 108.795 89.6141 111.148 97.8962 114.887C101.811 116.707 106.178 118.626 110.016 120.908C113.931 122.728 117.846 124.548 122.29 126.005C130.727 128.819 138.79 131.072 147.459 132.5C156.129 133.928 164.501 134.331 172.951 134.273C177.176 134.244 181.853 134.314 186.078 134.284C190.678 134.817 194.825 135.25 199.347 136.245C207.939 138.135 216.532 140.025 225.343 143.401C229.788 144.858 233.703 146.678 237.54 148.96C241.455 150.78 245.293 153.062 249.208 154.882C257.038 158.522 265.475 161.336 273.615 163.127C282.207 165.017 290.347 166.807 298.796 166.749C303.021 166.719 307.246 166.69 311.923 166.76C316.148 166.731 320.826 166.801 325.348 167.796C334.095 168.762 342.609 171.114 351.576 173.566C356.021 175.023 360.013 176.38 364.38 178.3C368.295 180.119 372.585 182.501 376.5 184.321C384.175 188.885 392.082 192.062 400.519 194.877C408.956 197.692 417.549 199.582 425.766 200.91C429.913 201.343 434.513 201.875 438.738 201.846C442.963 201.817 447.64 201.887 451.787 202.32C460.612 202.823 469.204 204.713 477.796 206.603L477.719 207.066C469.127 205.176 460.535 203.286 451.632 203.245C447.408 203.274 443.183 203.303 438.505 203.233C434.281 203.262 429.603 203.192 425.456 202.759C416.709 201.794 408.117 199.904 399.68 197.089C391.165 194.737 382.883 190.998 375.131 186.896C367.378 182.794 359.096 179.054 350.581 176.702C342.067 174.35 333.552 171.998 324.805 171.032C320.658 170.599 315.981 170.529 311.756 170.558C307.531 170.587 303.306 170.617 298.629 170.546C289.727 170.506 281.135 168.616 272.543 166.725C263.95 164.835 255.513 162.021 247.761 157.919C243.846 156.099 240.008 153.817 236.094 151.997C232.179 150.177 228.341 147.895 223.896 146.438C215.537 143.161 206.945 141.271 198.353 139.381C189.761 137.491 180.936 136.988 172.409 137.509C163.881 138.03 155.134 137.064 146.465 135.636C137.873 133.746 129.281 131.856 120.921 128.579C116.928 127.222 112.561 125.303 108.724 123.02C104.809 121.201 100.971 118.919 97.0565 117.099C89.4591 112.072 81.022 109.258 72.5074 106.905Z" fill="url(#paint9_linear_175_1647)"/>
<path d="M69.8591 119.346C78.4512 121.236 86.9658 123.588 95.2479 127.327C99.1628 129.147 103.53 131.066 107.367 133.348C111.282 135.168 115.197 136.988 119.642 138.445C128.079 141.26 136.141 143.513 144.811 144.94C153.481 146.368 161.853 146.772 170.303 146.713C174.528 146.684 179.205 146.754 183.43 146.725C188.029 147.257 192.177 147.69 196.699 148.685C205.291 150.575 213.883 152.465 222.695 155.842C227.14 157.299 231.055 159.118 234.892 161.401C238.807 163.22 242.645 165.503 246.559 167.322C254.389 170.962 262.826 173.777 270.966 175.567C279.558 177.457 287.698 179.248 296.148 179.189C300.373 179.16 304.598 179.131 309.275 179.201C313.5 179.172 318.177 179.242 322.699 180.237C331.446 181.202 339.961 183.554 348.928 186.006C353.373 187.463 357.365 188.821 361.732 190.74C365.647 192.56 369.937 194.941 373.852 196.761C381.527 201.325 389.434 204.503 397.871 207.317C406.308 210.132 414.9 212.022 423.118 213.35C427.265 213.783 431.865 214.316 436.09 214.287C440.315 214.257 444.992 214.328 449.139 214.761C457.964 215.264 466.556 217.154 475.148 219.044L475.07 219.506C466.478 217.616 457.886 215.726 448.984 215.685C444.759 215.714 440.534 215.744 435.857 215.673C431.632 215.703 426.955 215.632 422.808 215.199C414.061 214.234 405.468 212.344 397.031 209.529C388.517 207.177 380.235 203.438 372.482 199.336C364.73 195.234 356.448 191.495 347.933 189.143C339.419 186.79 330.904 184.438 322.157 183.472C318.009 183.039 313.332 182.969 309.107 182.999C304.882 183.028 300.658 183.057 295.98 182.987C287.078 182.946 278.486 181.056 269.894 179.166C261.302 177.276 252.865 174.461 245.113 170.359C241.198 168.54 237.36 166.257 233.445 164.438C229.53 162.618 225.693 160.336 221.248 158.879C212.889 155.602 204.296 153.712 195.704 151.822C187.112 149.932 178.288 149.428 169.76 149.949C161.233 150.47 152.486 149.505 143.816 148.077C135.224 146.187 126.632 144.297 118.273 141.02C114.28 139.662 109.913 137.743 106.076 135.461C102.161 133.641 98.3231 131.359 94.4082 129.539C86.8108 124.513 78.3737 121.698 69.8591 119.346Z" fill="url(#paint10_linear_175_1647)"/>
<path d="M67.6617 131.885C76.2538 133.775 84.7684 136.127 93.0505 139.866C96.9654 141.686 101.333 143.605 105.17 145.888C109.085 147.707 113 149.527 117.445 150.984C125.882 153.799 133.944 156.052 142.614 157.479C151.283 158.907 159.656 159.311 168.105 159.252C172.33 159.223 177.008 159.293 181.232 159.264C185.832 159.796 189.98 160.229 194.502 161.224C203.094 163.114 211.686 165.004 220.498 168.381C224.942 169.838 228.857 171.657 232.695 173.94C236.61 175.759 240.447 178.042 244.362 179.861C252.192 183.501 260.629 186.316 268.769 188.106C277.361 189.996 285.501 191.787 293.951 191.728C298.176 191.699 302.401 191.67 307.078 191.74C311.303 191.711 315.98 191.781 320.502 192.776C329.249 193.741 337.764 196.093 346.73 198.545C351.175 200.002 355.168 201.36 359.535 203.279C363.45 205.099 367.739 207.48 371.654 209.3C379.329 213.865 387.237 217.042 395.674 219.857C404.111 222.671 412.703 224.561 420.92 225.889C425.068 226.322 429.667 226.855 433.892 226.826C438.117 226.796 442.794 226.867 446.942 227.3C455.766 227.803 464.358 229.693 472.95 231.583L472.873 232.045C464.281 230.155 455.689 228.265 446.787 228.224C442.562 228.253 438.337 228.283 433.66 228.212C429.435 228.242 424.758 228.172 420.61 227.739C411.863 226.773 403.271 224.883 394.834 222.068C386.319 219.716 378.037 215.977 370.285 211.875C362.532 207.773 354.25 204.034 345.736 201.682C337.221 199.329 328.707 196.977 319.96 196.012C315.812 195.579 311.135 195.508 306.91 195.538C302.685 195.567 298.46 195.596 293.783 195.526C284.881 195.485 276.289 193.595 267.697 191.705C259.105 189.815 250.668 187 242.915 182.898C239 181.079 235.163 178.796 231.248 176.977C227.333 175.157 223.495 172.875 219.051 171.418C210.691 168.141 202.099 166.251 193.507 164.361C184.915 162.471 176.09 161.967 167.563 162.488C159.036 163.009 150.289 162.044 141.619 160.616C133.027 158.726 124.435 156.836 116.075 153.559C112.083 152.201 107.716 150.282 103.878 148C99.9632 146.18 96.1257 143.898 92.2108 142.078C84.6134 137.052 76.0988 134.699 67.6617 131.885Z" fill="url(#paint11_linear_175_1647)"/>
<path d="M64.9256 144.825C73.5177 146.715 82.0323 149.068 90.3144 152.807C94.2293 154.627 98.5965 156.546 102.434 158.828C106.349 160.648 110.264 162.468 114.709 163.925C123.146 166.739 131.208 168.992 139.878 170.42C148.547 171.848 156.92 172.251 165.369 172.193C169.594 172.163 174.271 172.234 178.496 172.204C183.096 172.737 187.243 173.17 191.766 174.165C200.358 176.055 208.95 177.945 217.762 181.321C222.206 182.778 226.121 184.598 229.959 186.88C233.874 188.7 237.711 190.982 241.626 192.802C249.456 196.441 257.893 199.256 266.033 201.047C274.625 202.937 282.765 204.727 291.215 204.669C295.44 204.639 299.665 204.61 304.342 204.68C308.567 204.651 313.244 204.721 317.766 205.716C326.513 206.681 335.028 209.034 343.994 211.486C348.439 212.943 352.431 214.3 356.799 216.219C360.714 218.039 365.003 220.421 368.918 222.241C376.593 226.805 384.5 229.982 392.938 232.797C401.375 235.612 409.967 237.502 418.184 238.83C422.332 239.263 426.931 239.795 431.156 239.766C435.381 239.737 440.058 239.807 444.206 240.24C453.03 240.743 461.622 242.633 470.214 244.523L470.137 244.986C461.545 243.096 452.953 241.205 444.051 241.165C439.826 241.194 435.601 241.223 430.924 241.153C426.699 241.182 422.022 241.112 417.874 240.679C409.127 239.714 400.535 237.823 392.098 235.009C383.583 232.657 375.301 228.917 367.549 224.815C359.796 220.714 351.514 216.974 343 214.622C334.485 212.27 325.971 209.917 317.223 208.952C313.076 208.519 308.399 208.449 304.174 208.478C299.949 208.507 295.724 208.537 291.047 208.466C282.145 208.425 273.553 206.535 264.961 204.645C256.369 202.755 247.931 199.941 240.179 195.839C236.264 194.019 232.427 191.737 228.512 189.917C224.597 188.097 220.759 185.815 216.315 184.358C207.955 181.081 199.363 179.191 190.771 177.301C182.179 175.411 173.354 174.908 164.827 175.429C156.3 175.95 147.552 174.984 138.883 173.556C130.291 171.666 121.699 169.776 113.339 166.499C109.347 165.142 104.98 163.222 101.142 160.94C97.9118 157.833 94.0744 155.551 89.7072 153.632C81.9548 149.53 73.4402 147.178 64.9256 144.825Z" fill="url(#paint12_linear_175_1647)"/>
<path d="M62.7304 157.364C71.3225 159.254 79.8371 161.607 88.1192 165.346C92.0341 167.166 96.4013 169.085 100.239 171.367C104.154 173.187 108.069 175.007 112.513 176.464C120.95 179.278 129.013 181.531 137.682 182.959C146.352 184.387 154.724 184.79 163.174 184.732C167.399 184.703 172.076 184.773 176.301 184.743C180.901 185.276 185.048 185.709 189.57 186.704C198.162 188.594 206.755 190.484 215.566 193.86C220.011 195.317 223.926 197.137 227.763 199.419C231.678 201.239 235.516 203.521 239.431 205.341C247.261 208.981 255.698 211.795 263.838 213.586C272.43 215.476 280.57 217.266 289.019 217.208C293.244 217.178 297.469 217.149 302.146 217.219C306.371 217.19 311.049 217.26 315.571 218.255C324.318 219.221 332.832 221.573 341.799 224.025C346.244 225.482 350.236 226.839 354.603 228.759C358.518 230.578 362.808 232.96 366.723 234.78C374.398 239.344 382.305 242.521 390.742 245.336C399.18 248.151 407.772 250.041 415.989 251.369C420.136 251.802 424.736 252.334 428.961 252.305C433.186 252.276 437.863 252.346 442.01 252.779C450.835 253.282 459.427 255.172 468.019 257.062L467.942 257.525C459.35 255.635 450.758 253.745 441.855 253.704C437.631 253.733 433.406 253.762 428.728 253.692C424.504 253.721 419.826 253.651 415.679 253.218C406.932 252.253 398.34 250.363 389.903 247.548C381.388 245.196 373.106 241.456 365.354 237.355C357.601 233.253 349.319 229.513 340.805 227.161C332.29 224.809 323.775 222.456 315.028 221.491C310.881 221.058 306.204 220.988 301.979 221.017C297.754 221.046 293.529 221.076 288.852 221.005C279.95 220.965 271.358 219.074 262.766 217.184C254.173 215.294 245.736 212.48 237.984 208.378C234.069 206.558 230.232 204.276 226.317 202.456C222.402 200.636 218.564 198.354 214.119 196.897C205.76 193.62 197.168 191.73 188.576 189.84C179.984 187.95 171.159 187.447 162.632 187.968C154.337 187.102 145.512 186.599 136.92 184.709C128.328 182.819 119.736 180.928 111.376 177.652C107.384 176.294 103.017 174.375 99.1794 172.093C95.2644 170.273 91.4269 167.991 87.512 166.171C79.3074 161.969 70.7928 159.617 62.7304 157.364Z" fill="url(#paint13_linear_175_1647)"/>
<path d="M60.0844 169.805C68.6764 171.695 77.191 174.047 85.4731 177.786C89.3881 179.606 93.7553 181.525 97.5927 183.807C101.508 185.627 105.423 187.447 109.867 188.904C118.304 191.719 126.367 193.972 135.036 195.399C143.706 196.827 152.078 197.231 160.528 197.172C164.753 197.143 169.43 197.213 173.655 197.184C178.255 197.716 182.402 198.149 186.924 199.144C195.516 201.034 204.109 202.924 212.92 206.301C217.365 207.758 221.28 209.577 225.117 211.86C229.032 213.679 232.87 215.961 236.785 217.781C244.615 221.421 253.052 224.236 261.192 226.026C269.784 227.916 277.924 229.707 286.373 229.648C290.598 229.619 294.823 229.59 299.5 229.66C303.725 229.631 308.402 229.701 312.925 230.696C321.672 231.661 330.186 234.013 339.153 236.465C343.598 237.922 347.59 239.28 351.957 241.199C355.872 243.019 360.162 245.4 364.077 247.22C371.752 251.784 379.659 254.962 388.096 257.776C396.533 260.591 405.126 262.481 413.343 263.809C417.49 264.242 422.09 264.775 426.315 264.746C430.54 264.716 435.217 264.786 439.364 265.219C448.189 265.723 456.781 267.613 465.373 269.503L465.296 269.965C456.704 268.075 448.111 266.185 439.209 266.144C434.984 266.173 430.76 266.203 426.082 266.132C421.857 266.162 417.18 266.091 413.033 265.658C404.286 264.693 395.694 262.803 387.257 259.988C378.742 257.636 370.46 253.897 362.708 249.795C354.955 245.693 346.673 241.954 338.158 239.602C329.644 237.249 321.129 234.897 312.382 233.931C308.235 233.498 303.558 233.428 299.333 233.458C295.108 233.487 290.883 233.516 286.206 233.446C277.304 233.405 268.712 231.515 260.119 229.625C251.527 227.735 243.09 224.92 235.338 220.818C231.423 218.998 227.585 216.716 223.671 214.897C219.756 213.077 215.918 210.795 211.473 209.338C203.114 206.061 194.522 204.171 185.93 202.281C177.338 200.391 168.513 199.887 159.986 200.408C151.458 200.929 142.711 199.964 134.042 198.536C125.45 196.646 116.857 194.756 108.498 191.479C104.505 190.121 100.138 188.202 96.3008 185.92C92.3859 184.1 88.5484 181.818 84.6335 179.998C77.036 174.972 68.5989 172.157 60.0844 169.805Z" fill="url(#paint14_linear_175_1647)"/>
<path d="M57.4375 182.245C66.0296 184.135 74.5442 186.487 82.8263 190.227C86.7412 192.046 91.1084 193.966 94.9459 196.248C98.8608 198.068 102.776 199.888 107.22 201.345C115.658 204.159 123.72 206.412 132.389 207.84C141.059 209.268 149.431 209.671 157.881 209.613C162.106 209.583 166.783 209.654 171.008 209.624C175.608 210.157 179.755 210.59 184.277 211.585C192.87 213.475 201.462 215.365 210.273 218.741C214.718 220.198 218.633 222.018 222.471 224.3C226.385 226.12 230.223 228.402 234.138 230.222C241.968 233.861 250.405 236.676 258.545 238.467C267.137 240.357 275.277 242.147 283.727 242.089C287.951 242.059 292.176 242.03 296.854 242.1C301.079 242.071 305.756 242.141 310.278 243.136C319.025 244.101 327.539 246.454 336.506 248.906C340.951 250.363 344.943 251.72 349.311 253.639C353.226 255.459 357.515 257.841 361.43 259.661C369.105 264.225 377.012 267.402 385.45 270.217C393.887 273.031 402.479 274.922 410.696 276.25C414.844 276.683 419.443 277.215 423.668 277.186C427.893 277.157 432.57 277.227 436.718 277.66C445.542 278.163 454.134 280.053 462.726 281.943L462.649 282.405C454.057 280.515 445.465 278.625 436.563 278.584C432.338 278.614 428.113 278.643 423.436 278.573C419.211 278.602 414.534 278.532 410.386 278.099C401.639 277.133 393.047 275.243 384.61 272.429C376.095 270.076 367.813 266.337 360.061 262.235C352.308 258.133 344.026 254.394 335.512 252.042C326.997 249.69 318.482 247.337 309.735 246.372C305.588 245.939 300.911 245.869 296.686 245.898C292.461 245.927 288.236 245.957 283.559 245.886C274.657 245.845 266.065 243.955 257.473 242.065C248.881 240.175 240.443 237.361 232.691 233.259C228.776 231.439 224.939 229.157 221.024 227.337C217.109 225.517 213.271 223.235 208.827 221.778C200.467 218.501 191.875 216.611 183.283 214.721C174.691 212.831 165.866 212.328 157.339 212.849C149.496 212.082 140.672 211.579 132.08 209.689C123.487 207.799 114.895 205.909 106.536 202.632C102.543 201.274 98.1761 199.355 94.3387 197.073C90.4237 195.253 86.5863 192.971 82.6713 191.151C74.3892 187.412 65.9521 184.597 57.4375 182.245Z" fill="url(#paint15_linear_175_1647)"/>
<path d="M55.2401 194.783C63.8322 196.673 72.3468 199.026 80.6289 202.765C84.5439 204.585 88.911 206.504 92.7485 208.786C96.6634 210.606 100.578 212.426 105.023 213.883C113.46 216.697 121.523 218.95 130.192 220.378C138.862 221.806 147.234 222.209 155.684 222.151C159.909 222.121 164.586 222.192 168.811 222.162C173.411 222.695 177.558 223.128 182.08 224.123C190.672 226.013 199.264 227.903 208.076 231.279C212.521 232.736 216.436 234.556 220.273 236.838C224.188 238.658 228.026 240.94 231.941 242.76C239.77 246.399 248.207 249.214 256.347 251.005C264.939 252.895 273.079 254.685 281.529 254.627C285.754 254.597 289.979 254.568 294.656 254.638C298.881 254.609 303.558 254.679 308.08 255.674C316.827 256.639 325.342 258.992 334.309 261.444C338.754 262.901 342.746 264.258 347.113 266.178C351.028 267.997 355.318 270.379 359.233 272.199C366.908 276.763 374.815 279.94 383.252 282.755C391.689 285.57 400.281 287.46 408.499 288.788C412.646 289.221 417.246 289.753 421.471 289.724C425.696 289.695 430.373 289.765 434.52 290.198C443.345 290.701 451.937 292.591 460.529 294.481L460.451 294.944C451.859 293.054 443.267 291.163 434.365 291.123C430.14 291.152 425.915 291.181 421.238 291.111C417.013 291.14 412.336 291.07 408.189 290.637C399.442 289.672 390.85 287.781 382.412 284.967C373.898 282.615 365.616 278.875 357.863 274.773C350.111 270.672 341.829 266.932 333.314 264.58C324.8 262.228 316.285 259.875 307.538 258.91C303.391 258.477 298.713 258.407 294.488 258.436C290.264 258.465 286.039 258.495 281.361 258.424C272.459 258.383 263.867 256.493 255.275 254.603C246.683 252.713 238.246 249.899 230.494 245.797C226.579 243.977 222.741 241.695 218.826 239.875C214.911 238.055 211.074 235.773 206.629 234.316C198.425 230.115 189.832 228.225 181.24 226.335C172.648 224.445 163.824 223.941 155.296 224.462C146.769 224.983 138.022 224.018 129.352 222.59C120.76 220.7 112.168 218.81 103.809 215.533C99.8162 214.175 95.449 212.256 91.6116 209.974C87.6966 208.154 83.8592 205.872 79.9442 204.052C72.1918 199.95 63.7547 197.136 55.2401 194.783Z" fill="url(#paint16_linear_175_1647)"/>
<path d="M52.5918 207.224C61.1839 209.114 69.6985 211.466 77.9806 215.205C81.8955 217.025 86.2627 218.944 90.1002 221.226C94.0151 223.046 97.9301 224.866 102.375 226.323C110.812 229.138 118.874 231.391 127.544 232.818C136.213 234.246 144.586 234.65 153.036 234.591C157.26 234.562 161.938 234.632 166.163 234.603C170.762 235.135 174.91 235.568 179.432 236.563C188.024 238.453 196.616 240.343 205.428 243.719C209.872 245.177 213.787 246.996 217.625 249.278C221.54 251.098 225.377 253.38 229.292 255.2C237.122 258.84 245.559 261.655 253.699 263.445C262.291 265.335 270.431 267.126 278.881 267.067C283.106 267.038 287.331 267.009 292.008 267.079C296.233 267.05 300.91 267.12 305.432 268.114C314.179 269.08 322.694 271.432 331.661 273.884C336.105 275.341 340.098 276.699 344.465 278.618C348.38 280.438 352.669 282.819 356.584 284.639C364.259 289.203 372.167 292.381 380.604 295.195C389.041 298.01 397.633 299.9 405.85 301.228C409.998 301.661 414.597 302.194 418.822 302.165C423.047 302.135 427.724 302.205 431.872 302.638C440.696 303.142 449.289 305.032 457.881 306.922L457.803 307.384C449.211 305.494 440.619 303.604 431.717 303.563C427.492 303.592 423.267 303.622 418.59 303.551C414.365 303.581 409.688 303.51 405.54 303.077C396.793 302.112 388.201 300.222 379.764 297.407C371.25 295.055 362.967 291.316 355.215 287.214C347.463 283.112 339.18 279.373 330.666 277.021C322.151 274.668 313.637 272.316 304.89 271.35C300.742 270.917 296.065 270.847 291.84 270.876C287.615 270.906 283.39 270.935 278.713 270.865C269.811 270.824 261.219 268.934 252.627 267.044C244.035 265.154 235.598 262.339 227.845 258.237C223.93 256.417 220.093 254.135 216.178 252.315C212.263 250.496 208.426 248.214 203.981 246.756C195.621 243.48 187.029 241.59 178.437 239.7C169.845 237.81 161.02 237.306 152.493 237.827C143.966 238.348 135.219 237.382 126.549 235.955C117.957 234.065 109.365 232.175 101.005 228.898C97.0129 227.54 92.6457 225.621 88.8083 223.339C84.8933 221.519 81.0559 219.237 77.1409 217.417C69.5435 212.391 61.1064 209.576 52.5918 207.224Z" fill="url(#paint17_linear_175_1647)"/>
<path d="M50.3967 219.761C58.9888 221.651 67.5034 224.003 75.7855 227.742C79.7004 229.562 84.0676 231.481 87.905 233.764C91.82 235.583 95.7349 237.403 100.18 238.86C108.617 241.675 116.679 243.928 125.349 245.355C134.018 246.783 142.391 247.187 150.84 247.128C155.065 247.099 159.742 247.169 163.967 247.14C168.567 247.672 172.715 248.105 177.237 249.1C185.829 250.99 194.421 252.88 203.233 256.257C207.677 257.714 211.592 259.533 215.43 261.816C219.345 263.635 223.182 265.918 227.097 267.737C234.927 271.377 243.364 274.192 251.504 275.982C260.096 277.872 268.236 279.663 276.686 279.604C280.911 279.575 285.136 279.546 289.813 279.616C294.038 279.587 298.715 279.657 303.237 280.652C311.984 281.617 320.499 283.969 329.465 286.421C333.91 287.878 337.903 289.236 342.27 291.155C346.185 292.975 350.474 295.356 354.389 297.176C362.064 301.741 369.972 304.918 378.409 307.733C386.846 310.547 395.438 312.437 403.655 313.765C407.803 314.198 412.402 314.731 416.627 314.702C420.852 314.672 425.529 314.743 429.677 315.176C438.501 315.679 447.093 317.569 455.685 319.459L455.608 319.921C447.016 318.031 438.424 316.141 429.522 316.1C425.297 316.129 421.072 316.159 416.395 316.088C412.17 316.118 407.493 316.048 403.345 315.615C394.598 314.649 386.006 312.759 377.569 309.944C369.054 307.592 360.772 303.853 353.02 299.751C345.267 295.649 336.985 291.91 328.471 289.558C319.956 287.205 311.442 284.853 302.694 283.888C298.547 283.455 293.87 283.384 289.645 283.414C285.42 283.443 281.195 283.472 276.518 283.402C267.616 283.361 259.024 281.471 250.432 279.581C241.84 277.691 233.403 274.876 225.65 270.774C221.735 268.955 217.898 266.672 213.983 264.853C210.068 263.033 206.23 260.751 201.786 259.294C193.581 255.092 184.989 253.202 176.397 251.312C167.805 249.422 158.98 248.919 150.453 249.44C141.926 249.961 133.179 248.995 124.509 247.567C115.917 245.677 107.325 243.787 98.9652 240.51C94.9727 239.153 90.6056 237.233 86.7681 234.951C82.8532 233.132 79.0157 230.849 75.1008 229.03C66.8961 224.828 58.9113 222.113 50.3967 219.761Z" fill="url(#paint18_linear_175_1647)"/>
<path d="M47.7476 232.203C56.3396 234.093 64.8542 236.445 73.1364 240.185C77.0513 242.004 81.4185 243.924 85.2559 246.206C89.1709 248.026 93.0858 249.846 97.5305 251.303C105.968 254.117 114.03 256.37 122.7 257.798C131.369 259.226 139.741 259.629 148.191 259.571C152.416 259.541 157.093 259.612 161.318 259.582C165.918 260.115 170.065 260.548 174.588 261.543C183.18 263.433 191.772 265.323 200.584 268.699C205.028 270.156 208.943 271.976 212.781 274.258C216.696 276.078 220.533 278.36 224.448 280.18C232.278 283.819 240.715 286.634 248.855 288.425C257.447 290.315 265.587 292.105 274.037 292.047C278.262 292.017 282.486 291.988 287.164 292.058C291.389 292.029 296.066 292.099 300.588 293.094C309.335 294.059 317.85 296.412 326.816 298.864C331.261 300.321 335.253 301.678 339.621 303.597C343.536 305.417 347.825 307.799 351.74 309.619C359.415 314.183 367.322 317.36 375.76 320.175C384.197 322.989 392.789 324.88 401.006 326.208C405.154 326.641 409.753 327.173 413.978 327.144C418.203 327.115 422.88 327.185 427.028 327.618C435.852 328.121 444.444 330.011 453.036 331.901L452.959 332.363C444.367 330.473 435.775 328.583 426.873 328.542C422.648 328.572 418.423 328.601 413.746 328.531C409.521 328.56 404.844 328.49 400.696 328.057C391.949 327.091 383.357 325.201 374.92 322.387C366.405 320.035 358.123 316.295 350.371 312.193C342.618 308.091 334.336 304.352 325.822 302C317.307 299.648 308.792 297.295 300.045 296.33C295.898 295.897 291.221 295.827 286.996 295.856C282.771 295.885 278.546 295.915 273.869 295.844C264.967 295.803 256.375 293.913 247.783 292.023C239.191 290.133 230.753 287.319 223.001 283.217C219.086 281.397 215.249 279.115 211.334 277.295C207.419 275.475 203.581 273.193 199.137 271.736C190.777 268.459 182.185 266.569 173.593 264.679C165.001 262.789 156.176 262.286 147.649 262.807C139.122 263.327 130.374 262.362 121.705 260.934C113.113 259.044 104.521 257.154 96.1611 253.877C92.1686 252.52 87.8015 250.6 83.964 248.318C80.0491 246.498 76.2116 244.216 72.2967 242.397C64.6993 237.37 56.1847 235.018 47.7476 232.203Z" fill="url(#paint19_linear_175_1647)"/>
<path d="M45.0122 245.144C53.6043 247.034 62.1189 249.386 70.401 253.125C74.3159 254.945 78.6831 256.864 82.5206 259.146C86.4355 260.966 90.3505 262.786 94.7951 264.243C103.232 267.058 111.295 269.31 119.964 270.738C128.634 272.166 137.006 272.57 145.456 272.511C149.681 272.482 154.358 272.552 158.583 272.523C163.183 273.055 167.33 273.488 171.852 274.483C180.444 276.373 189.036 278.263 197.848 281.639C202.293 283.096 206.208 284.916 210.045 287.198C213.96 289.018 217.798 291.3 221.713 293.12C229.542 296.76 237.98 299.574 246.119 301.365C254.712 303.255 262.851 305.046 271.301 304.987C275.526 304.958 279.751 304.928 284.428 304.999C288.653 304.969 293.33 305.04 297.852 306.034C306.6 307 315.114 309.352 324.081 311.804C328.526 313.261 332.518 314.619 336.885 316.538C340.8 318.358 345.09 320.739 349.005 322.559C356.68 327.123 364.587 330.301 373.024 333.115C381.461 335.93 390.053 337.82 398.271 339.148C402.418 339.581 407.018 340.114 411.243 340.084C415.468 340.055 420.145 340.125 424.292 340.558C433.117 341.062 441.709 342.952 450.301 344.842L450.224 345.304C441.631 343.414 433.039 341.524 424.137 341.483C419.912 341.512 415.687 341.541 411.01 341.471C406.785 341.501 402.108 341.43 397.961 340.997C389.214 340.032 380.622 338.142 372.185 335.327C363.67 332.975 355.388 329.236 347.635 325.134C339.883 321.032 331.601 317.293 323.086 314.94C314.572 312.588 306.057 310.236 297.31 309.27C293.163 308.837 288.485 308.767 284.261 308.796C280.036 308.826 275.811 308.855 271.134 308.785C262.231 308.744 253.639 306.854 245.047 304.964C236.455 303.074 228.018 300.259 220.266 296.157C216.351 294.337 212.513 292.055 208.598 290.235C204.683 288.416 200.846 286.133 196.401 284.676C188.042 281.4 179.45 279.51 170.858 277.619C162.265 275.729 153.441 275.226 144.914 275.747C136.386 276.268 127.639 275.302 118.97 273.875C110.377 271.985 101.785 270.095 93.4257 266.818C89.4333 265.46 85.0661 263.541 81.2287 261.259C77.3137 259.439 73.4763 257.157 69.5613 255.337C62.0414 249.848 53.5268 247.496 45.0122 245.144Z" fill="url(#paint20_linear_175_1647)"/>
<path d="M42.8148 257.683C51.4069 259.573 59.9215 261.925 68.2036 265.664C72.1186 267.484 76.4857 269.403 80.3232 271.685C84.2381 273.505 88.1531 275.325 92.5977 276.782C101.035 279.597 109.097 281.85 117.767 283.277C126.436 284.705 134.809 285.109 143.259 285.05C147.484 285.021 152.161 285.091 156.386 285.062C160.985 285.594 165.133 286.027 169.655 287.022C178.247 288.912 186.839 290.802 195.651 294.178C200.095 295.636 204.01 297.455 207.848 299.737C211.763 301.557 215.6 303.839 219.515 305.659C227.345 309.299 235.782 312.114 243.922 313.904C252.514 315.794 260.654 317.585 269.104 317.526C273.329 317.497 277.554 317.468 282.231 317.538C286.456 317.508 291.133 317.579 295.655 318.573C304.402 319.539 312.917 321.891 321.884 324.343C326.328 325.8 330.321 327.158 334.688 329.077C338.603 330.897 342.892 333.278 346.807 335.098C354.482 339.662 362.39 342.84 370.827 345.654C379.264 348.469 387.856 350.359 396.073 351.687C400.221 352.12 404.82 352.653 409.045 352.623C413.27 352.594 417.947 352.664 422.095 353.097C430.919 353.601 439.512 355.491 448.104 357.381L448.026 357.843C439.434 355.953 430.842 354.063 421.94 354.022C417.715 354.051 413.49 354.081 408.813 354.01C404.588 354.04 399.911 353.969 395.763 353.536C387.016 352.571 378.424 350.681 369.987 347.866C361.473 345.514 353.19 341.775 345.438 337.673C337.686 333.571 329.404 329.832 320.889 327.479C312.374 325.127 303.86 322.775 295.113 321.809C290.965 321.376 286.288 321.306 282.063 321.335C277.838 321.365 273.613 321.394 268.936 321.324C260.034 321.283 251.442 319.393 242.85 317.503C234.258 315.613 225.821 312.798 218.068 308.696C214.153 306.876 210.316 304.594 206.401 302.774C202.486 300.955 198.649 298.673 194.204 297.215C185.844 293.939 177.252 292.049 168.66 290.159C160.068 288.269 151.243 287.765 142.716 288.286C134.189 288.807 125.442 287.842 116.772 286.414C108.18 284.524 99.5879 282.634 91.2283 279.357C87.2359 277.999 82.8687 276.08 79.0313 273.798C75.1163 271.978 71.2789 269.696 67.3639 267.876C59.7665 262.85 51.3294 260.035 42.8148 257.683Z" fill="url(#paint21_linear_175_1647)"/>
<path d="M40.168 270.123C48.7601 272.013 57.2747 274.365 65.5568 278.105C69.4717 279.924 73.8389 281.844 77.6763 284.126C81.5913 285.946 85.5062 287.765 89.9509 289.223C98.388 292.037 106.45 294.29 115.12 295.718C123.79 297.145 132.162 297.549 140.612 297.491C144.837 297.461 149.514 297.532 153.739 297.502C158.338 298.035 162.486 298.468 167.008 299.462C175.6 301.353 184.192 303.243 193.004 306.619C197.449 308.076 201.364 309.896 205.201 312.178C209.116 313.998 212.953 316.28 216.868 318.1C224.698 321.739 233.135 324.554 241.275 326.345C249.867 328.235 258.007 330.025 266.457 329.967C270.682 329.937 274.907 329.908 279.584 329.978C283.809 329.949 288.486 330.019 293.008 331.014C301.755 331.979 310.27 334.332 319.237 336.783C323.681 338.24 327.674 339.598 332.041 341.517C335.956 343.337 340.246 345.719 344.161 347.539C351.835 352.103 359.743 355.28 368.18 358.095C376.617 360.909 385.209 362.799 393.427 364.128C397.574 364.561 402.174 365.093 406.399 365.064C410.623 365.035 415.301 365.105 419.448 365.538C428.273 366.041 436.865 367.931 445.457 369.821L445.379 370.283C436.787 368.393 428.195 366.503 419.293 366.462C415.068 366.492 410.843 366.521 406.166 366.451C401.941 366.48 397.264 366.41 393.117 365.977C384.369 365.011 375.777 363.121 367.34 360.307C358.826 357.954 350.544 354.215 342.791 350.113C335.039 346.011 326.757 342.272 318.242 339.92C309.727 337.568 301.213 335.215 292.466 334.25C288.318 333.817 283.641 333.747 279.416 333.776C275.191 333.805 270.966 333.834 266.289 333.764C257.387 333.723 248.795 331.833 240.203 329.943C231.611 328.053 223.174 325.239 215.421 321.137C211.507 319.317 207.669 317.035 203.754 315.215C199.839 313.395 196.002 311.113 191.557 309.656C183.197 306.379 174.605 304.489 166.013 302.599C157.421 300.709 148.597 300.206 140.069 300.727C131.542 301.247 122.795 300.282 114.125 298.854C105.533 296.964 96.9411 295.074 88.5815 291.797C84.589 290.44 80.2219 288.52 76.3844 286.238C72.4695 284.418 68.632 282.136 64.7171 280.316C57.1197 275.29 48.6826 272.475 40.168 270.123Z" fill="url(#paint22_linear_175_1647)"/>
<path d="M37.9728 282.66C46.5649 284.55 55.0795 286.903 63.3616 290.642C67.2766 292.461 71.6437 294.381 75.4812 296.663C79.3961 298.483 83.3111 300.303 87.7558 301.76C96.1929 304.574 104.255 306.827 112.925 308.255C121.594 309.683 129.967 310.086 138.417 310.028C142.642 309.998 147.319 310.069 151.544 310.039C156.143 310.572 160.291 311.005 164.813 312C173.405 313.89 181.997 315.78 190.809 319.156C195.253 320.613 199.168 322.433 203.006 324.715C206.921 326.535 210.758 328.817 214.673 330.637C222.503 334.276 230.94 337.091 239.08 338.882C247.672 340.772 255.812 342.562 264.262 342.504C268.487 342.474 272.712 342.445 277.389 342.515C281.614 342.486 286.291 342.556 290.813 343.551C299.56 344.516 308.075 346.869 317.042 349.321C321.486 350.778 325.479 352.135 329.846 354.054C333.761 355.874 338.05 358.256 341.965 360.076C349.64 364.64 357.548 367.817 365.985 370.632C374.422 373.447 383.014 375.337 391.231 376.665C395.379 377.098 399.978 377.63 404.203 377.601C408.428 377.572 413.105 377.642 417.253 378.075C426.077 378.578 434.67 380.468 443.262 382.358L443.184 382.821C434.592 380.93 426 379.04 417.098 379C412.873 379.029 408.648 379.058 403.971 378.988C399.746 379.017 395.069 378.947 390.921 378.514C382.174 377.548 373.582 375.658 365.145 372.844C356.631 370.492 348.348 366.752 340.596 362.65C332.844 358.548 324.562 354.809 316.047 352.457C307.532 350.105 299.018 347.752 290.271 346.787C286.123 346.354 281.446 346.284 277.221 346.313C272.996 346.342 268.771 346.372 264.094 346.301C255.192 346.26 246.6 344.37 238.008 342.48C229.416 340.59 220.979 337.776 213.226 333.674C209.311 331.854 205.474 329.572 201.559 327.752C197.644 325.932 193.807 323.65 189.362 322.193C181.002 318.916 172.41 317.026 163.818 315.136C155.226 313.246 146.402 312.743 137.874 313.264C129.347 313.785 120.6 312.819 111.93 311.391C103.338 309.501 94.746 307.611 86.3864 304.334C82.3939 302.977 78.0268 301.057 74.1893 298.775C70.2743 296.956 66.4369 294.673 62.5219 292.854C54.9245 287.827 46.4874 285.012 37.9728 282.66Z" fill="url(#paint23_linear_175_1647)"/>
<path d="M35.3238 295.102C43.9159 296.992 52.4305 299.344 60.7126 303.083C64.6275 304.903 68.9947 306.822 72.8322 309.104C76.7471 310.924 80.662 312.744 85.1067 314.201C93.5438 317.016 101.606 319.268 110.276 320.696C118.945 322.124 127.318 322.528 135.768 322.469C139.992 322.44 144.67 322.51 148.895 322.481C153.494 323.013 157.642 323.446 162.164 324.441C170.756 326.331 179.348 328.221 188.16 331.597C192.604 333.054 196.519 334.874 200.357 337.156C204.272 338.976 208.109 341.258 212.024 343.078C219.854 346.718 228.291 349.532 236.431 351.323C245.023 353.213 253.163 355.004 261.613 354.945C265.838 354.916 270.063 354.887 274.74 354.957C278.965 354.927 283.642 354.998 288.164 355.992C296.911 356.958 305.426 359.31 314.393 361.762C318.837 363.219 322.83 364.577 327.197 366.496C331.112 368.316 335.401 370.697 339.316 372.517C346.991 377.081 354.899 380.259 363.336 383.073C371.773 385.888 380.365 387.778 388.582 389.106C392.73 389.539 397.329 390.072 401.554 390.042C405.779 390.013 410.456 390.083 414.604 390.516C423.428 391.02 432.021 392.91 440.613 394.8L440.535 395.262C431.943 393.372 423.351 391.482 414.449 391.441C410.224 391.47 405.999 391.499 401.322 391.429C397.097 391.459 392.42 391.388 388.272 390.955C379.525 389.99 370.933 388.1 362.496 385.285C353.982 382.933 345.699 379.194 337.947 375.092C330.195 370.99 321.912 367.251 313.398 364.898C304.883 362.546 296.369 360.194 287.622 359.228C283.474 358.795 278.797 358.725 274.572 358.754C270.347 358.784 266.122 358.813 261.445 358.743C252.543 358.702 243.951 356.812 235.359 354.922C226.767 353.032 218.33 350.217 210.577 346.115C206.662 344.295 202.825 342.013 198.91 340.193C194.995 338.374 191.158 336.091 186.713 334.634C178.353 331.358 169.761 329.468 161.169 327.577C152.577 325.687 143.752 325.184 135.225 325.705C126.698 326.226 117.951 325.26 109.281 323.833C100.689 321.943 92.0969 320.053 83.7373 316.776C79.7449 315.418 75.3777 313.499 71.5402 311.217C67.6253 309.397 63.7879 307.115 59.8729 305.295C52.2755 300.268 43.8384 297.454 35.3238 295.102Z" fill="url(#paint24_linear_175_1647)"/>
<path d="M32.674 307.541C41.266 309.431 49.7806 311.783 58.0627 315.523C61.9777 317.342 66.3449 319.262 70.1823 321.544C74.0973 323.364 78.0122 325.183 82.4569 326.64C90.894 329.455 98.9563 331.708 107.626 333.136C116.296 334.563 124.668 334.967 133.118 334.909C137.343 334.879 142.02 334.95 146.245 334.92C150.844 335.453 154.992 335.886 159.514 336.88C168.106 338.77 176.698 340.661 185.51 344.037C189.955 345.494 193.87 347.314 197.707 349.596C201.622 351.416 205.459 353.698 209.374 355.518C217.204 359.157 225.641 361.972 233.781 363.762C242.373 365.653 250.513 367.443 258.963 367.385C263.188 367.355 267.413 367.326 272.09 367.396C276.315 367.367 280.992 367.437 285.514 368.432C294.261 369.397 302.776 371.75 311.743 374.201C316.187 375.658 320.18 377.016 324.547 378.935C328.462 380.755 332.752 383.137 336.667 384.957C344.341 389.521 352.249 392.698 360.686 395.513C369.123 398.327 377.715 400.217 385.933 401.546C390.08 401.979 394.68 402.511 398.905 402.482C403.129 402.453 407.807 402.523 411.954 402.956C420.779 403.459 429.371 405.349 437.963 407.239L437.885 407.701C429.293 405.811 420.701 403.921 411.799 403.88C407.574 403.91 403.349 403.939 398.672 403.869C394.447 403.898 389.77 403.828 385.623 403.395C376.875 402.429 368.283 400.539 359.846 397.725C351.332 395.372 343.05 391.633 335.297 387.531C327.545 383.429 319.263 379.69 310.748 377.338C302.233 374.986 293.719 372.633 284.972 371.668C280.824 371.235 276.147 371.165 271.922 371.194C267.697 371.223 263.472 371.252 258.795 371.182C249.893 371.141 241.301 369.251 232.709 367.361C224.117 365.471 215.68 362.657 207.927 358.555C204.013 356.735 200.175 354.453 196.26 352.633C192.345 350.813 188.508 348.531 184.063 347.074C175.703 343.797 167.111 341.907 158.519 340.017C149.927 338.127 141.103 337.624 132.575 338.145C124.048 338.665 115.301 337.7 106.631 336.272C98.0392 334.382 89.4471 332.492 81.0875 329.215C77.095 327.858 72.7279 325.938 68.8904 323.656C64.9755 321.836 61.138 319.554 57.2231 317.734C49.6256 312.708 41.1885 309.893 32.674 307.541Z" fill="url(#paint25_linear_175_1647)"/>
<path d="M30.4781 320.079C39.0702 321.969 47.5848 324.321 55.8669 328.061C59.7818 329.88 64.149 331.8 67.9865 334.082C71.9014 335.902 75.8163 337.722 80.261 339.179C88.6981 341.993 96.7605 344.246 105.43 345.674C114.1 347.101 122.472 347.505 130.922 347.447C135.147 347.417 139.824 347.488 144.049 347.458C148.648 347.991 152.796 348.424 157.318 349.419C165.91 351.309 174.502 353.199 183.314 356.575C187.759 358.032 191.674 359.852 195.511 362.134C199.426 363.954 203.264 366.236 207.178 368.056C215.008 371.695 223.445 374.51 231.585 376.301C240.177 378.191 248.317 379.981 256.767 379.923C260.992 379.893 265.217 379.864 269.894 379.934C274.119 379.905 278.796 379.975 283.318 380.97C292.065 381.935 300.58 384.288 309.547 386.739C313.992 388.197 317.984 389.554 322.351 391.473C326.266 393.293 330.556 395.675 334.471 397.495C342.146 402.059 350.053 405.236 358.49 408.051C366.927 410.865 375.519 412.755 383.737 414.084C387.884 414.517 392.484 415.049 396.709 415.02C400.934 414.991 405.611 415.061 409.758 415.494C418.583 415.997 427.175 417.887 435.767 419.777L435.689 420.239C427.097 418.349 418.505 416.459 409.603 416.418C405.378 416.448 401.153 416.477 396.476 416.407C392.251 416.436 387.574 416.366 383.427 415.933C374.68 414.967 366.087 413.077 357.65 410.263C349.136 407.91 340.854 404.171 333.101 400.069C325.349 395.967 317.067 392.228 308.552 389.876C300.038 387.524 291.523 385.171 282.776 384.206C278.628 383.773 273.951 383.703 269.726 383.732C265.502 383.761 261.277 383.79 256.599 383.72C247.697 383.679 239.105 381.789 230.513 379.899C221.921 378.009 213.484 375.195 205.732 371.093C201.817 369.273 197.979 366.991 194.064 365.171C190.149 363.351 186.312 361.069 181.867 359.612C173.508 356.335 164.915 354.445 156.323 352.555C147.731 350.665 138.907 350.162 130.379 350.683C121.852 351.203 113.105 350.238 104.435 348.81C95.8433 346.92 87.2512 345.03 78.8916 341.753C75.1316 339.009 71.2167 337.189 67.3017 335.369C63.3868 333.549 59.5494 331.267 55.6344 329.447C47.4298 325.246 38.9927 322.431 30.4781 320.079Z" fill="url(#paint26_linear_175_1647)"/>
<path d="M27.8297 332.52C36.4218 334.41 44.9364 336.762 53.2185 340.501C57.056 342.783 61.4231 344.702 65.3381 346.522C69.253 348.342 73.168 350.162 77.6126 351.619C86.0497 354.434 94.1121 356.686 102.782 358.114C111.451 359.542 119.824 359.946 128.273 359.887C132.498 359.858 137.176 359.928 141.4 359.899C146 360.431 150.148 360.864 154.67 361.859C163.262 363.749 171.854 365.639 180.666 369.015C185.11 370.472 189.025 372.292 192.863 374.574C196.778 376.394 200.615 378.676 204.53 380.496C212.36 384.136 220.797 386.95 228.937 388.741C237.529 390.631 245.669 392.422 254.119 392.363C258.344 392.334 262.569 392.304 267.246 392.375C271.471 392.345 276.148 392.416 280.67 393.41C289.417 394.376 297.932 396.728 306.898 399.18C311.343 400.637 315.336 401.995 319.703 403.914C323.618 405.734 327.907 408.115 331.822 409.935C339.497 414.499 347.405 417.677 355.842 420.491C364.279 423.306 372.871 425.196 381.088 426.524C385.236 426.957 389.835 427.49 394.06 427.46C398.285 427.431 402.962 427.501 407.11 427.934C415.934 428.438 424.526 430.328 433.119 432.218L433.041 432.68C424.449 430.79 415.857 428.9 406.955 428.859C402.73 428.888 398.505 428.917 393.828 428.847C389.603 428.877 384.926 428.806 380.778 428.373C372.031 427.408 363.439 425.518 355.002 422.703C346.487 420.351 338.205 416.612 330.453 412.51C322.701 408.408 314.418 404.669 305.904 402.316C297.389 399.964 288.875 397.612 280.128 396.646C275.98 396.213 271.303 396.143 267.078 396.172C262.853 396.202 258.628 396.231 253.951 396.161C245.049 396.12 236.457 394.23 227.865 392.34C219.273 390.45 210.836 387.635 203.083 383.533C199.168 381.713 195.331 379.431 191.416 377.611C187.501 375.792 183.663 373.509 179.219 372.052C170.859 368.776 162.267 366.885 153.675 364.995C145.083 363.105 136.258 362.602 127.731 363.123C119.204 363.644 110.457 362.678 101.787 361.251C93.1949 359.361 84.6028 357.471 76.2432 354.194C72.2508 352.836 67.8836 350.917 64.0462 348.635C60.1312 346.815 56.2938 344.533 52.3788 342.713C44.7814 337.686 36.2668 335.334 27.8297 332.52Z" fill="url(#paint27_linear_175_1647)"/>
<path d="M25.5453 345.56C34.1374 347.45 42.652 349.802 50.9341 353.541C54.849 355.361 59.2162 357.28 63.0537 359.562C66.9686 361.382 70.8835 363.202 75.3282 364.659C83.7653 367.474 91.8277 369.726 100.497 371.154C109.167 372.582 117.539 372.986 125.989 372.927C130.214 372.898 134.891 372.968 139.116 372.939C143.716 373.471 147.863 373.904 152.385 374.899C160.977 376.789 169.569 378.679 178.381 382.055C182.826 383.512 186.741 385.332 190.578 387.614C194.493 389.434 198.331 391.716 202.246 393.536C210.076 397.176 218.513 399.99 226.653 401.781C235.245 403.671 243.385 405.462 251.834 405.403C256.059 405.374 260.284 405.345 264.961 405.415C269.186 405.385 273.863 405.456 278.386 406.45C287.133 407.416 295.647 409.768 304.614 412.22C309.059 413.677 313.051 415.035 317.418 416.954C321.333 418.774 325.623 421.155 329.538 422.975C337.213 427.539 345.12 430.717 353.557 433.531C361.994 436.346 370.586 438.236 378.804 439.564C382.951 439.997 387.551 440.53 391.776 440.5C396.001 440.471 400.678 440.541 404.825 440.974C413.65 441.478 422.242 443.368 430.834 445.258L430.757 445.72C422.165 443.83 413.572 441.94 404.67 441.899C400.445 441.928 396.221 441.957 391.543 441.887C387.318 441.917 382.641 441.846 378.494 441.413C369.747 440.448 361.155 438.558 352.718 435.743C344.203 433.391 335.921 429.652 328.168 425.55C320.416 421.448 312.134 417.709 303.619 415.356C295.105 413.004 286.59 410.652 277.843 409.686C273.696 409.253 269.019 409.183 264.794 409.212C260.801 407.855 256.499 408.346 251.899 407.814C242.997 407.773 234.405 405.883 225.813 403.993C217.221 402.103 208.784 399.288 201.031 395.186C197.116 393.367 193.279 391.084 189.364 389.265C185.449 387.445 181.612 385.163 177.167 383.706C168.807 380.429 160.215 378.539 151.623 376.649C143.031 374.759 134.206 374.255 125.679 374.776C117.152 375.297 108.405 374.332 99.7351 372.904C91.143 371.014 82.5509 369.124 74.1913 365.847C70.1988 364.489 65.8317 362.57 61.9942 360.288C58.0793 358.468 54.2418 356.186 50.3269 354.366C42.5745 350.264 34.0599 347.912 25.5453 345.56Z" fill="url(#paint28_linear_175_1647)"/>
<path d="M22.8992 357.999C31.4913 359.889 40.0059 362.241 48.288 365.981C52.203 367.8 56.5701 369.72 60.4076 372.002C64.3225 373.822 68.2375 375.641 72.6821 377.098C81.1193 379.913 89.1816 382.166 97.8512 383.594C106.521 385.021 114.893 385.425 123.343 385.367C127.568 385.337 132.245 385.408 136.47 385.378C141.07 385.911 145.217 386.344 149.739 387.338C158.331 389.228 166.923 391.119 175.735 394.495C180.18 395.952 184.095 397.772 187.932 400.054C191.847 401.874 195.685 404.156 199.6 405.976C207.43 409.615 215.867 412.43 224.006 414.22C232.599 416.111 240.738 417.901 249.188 417.843C253.413 417.813 257.638 417.784 262.315 417.854C266.54 417.825 271.217 417.895 275.74 418.89C284.487 419.855 293.001 422.208 301.968 424.659C306.413 426.116 310.405 427.474 314.772 429.393C318.687 431.213 322.977 433.595 326.892 435.415C334.567 439.979 342.474 443.156 350.911 445.971C359.348 448.785 367.94 450.675 376.158 452.004C380.305 452.437 384.905 452.969 389.13 452.94C393.355 452.911 398.032 452.981 402.179 453.414C411.004 453.917 419.596 455.807 428.188 457.697L428.111 458.159C419.518 456.269 410.926 454.379 402.024 454.338C397.799 454.368 393.574 454.397 388.897 454.327C384.672 454.356 379.995 454.286 375.848 453.853C367.101 452.887 358.509 450.997 350.072 448.183C341.557 445.83 333.275 442.091 325.522 437.989C317.77 433.887 309.488 430.148 300.973 427.796C292.459 425.444 283.944 423.091 275.197 422.126C271.05 421.693 266.372 421.623 262.148 421.652C257.923 421.681 253.698 421.71 249.021 421.64C240.119 421.599 231.526 419.709 222.934 417.819C214.342 415.929 205.905 413.115 198.153 409.013C194.238 407.193 190.4 404.911 186.485 403.091C182.57 401.271 178.733 398.989 174.288 397.532C165.929 394.255 157.337 392.365 148.745 390.475C140.152 388.585 131.328 388.082 122.801 388.603C114.273 389.123 105.526 388.158 96.8565 386.73C88.2644 384.84 79.6724 382.95 71.3128 379.673C67.3203 378.316 62.9531 376.396 59.1157 374.114C55.8854 371.007 52.048 368.725 47.6808 366.806C39.8509 363.166 31.4138 360.351 22.8992 357.999Z" fill="url(#paint29_linear_175_1647)"/>
<path d="M20.7033 370.539C29.2954 372.429 37.81 374.781 46.0921 378.521C50.0071 380.34 54.3742 382.26 58.2117 384.542C62.1266 386.362 66.0416 388.181 70.4862 389.639C78.9233 392.453 86.9857 394.706 95.6553 396.134C104.325 397.561 112.697 397.965 121.147 397.907C125.372 397.877 130.049 397.948 134.274 397.918C138.874 398.451 143.021 398.884 147.543 399.878C156.135 401.769 164.727 403.659 173.539 407.035C177.984 408.492 181.899 410.312 185.736 412.594C189.651 414.414 193.489 416.696 197.404 418.516C205.234 422.155 213.671 424.97 221.811 426.761C230.403 428.651 238.543 430.441 246.992 430.383C251.217 430.353 255.442 430.324 260.119 430.394C264.344 430.365 269.021 430.435 273.544 431.43C282.291 432.395 290.805 434.748 299.772 437.199C304.217 438.656 308.209 440.014 312.576 441.933C316.491 443.753 320.781 446.135 324.696 447.955C332.371 452.519 340.278 455.696 348.715 458.511C357.152 461.325 365.744 463.215 373.962 464.544C378.109 464.977 382.709 465.509 386.934 465.48C391.159 465.451 395.836 465.521 399.983 465.954C408.808 466.457 417.4 468.347 425.992 470.237L425.915 470.699C417.323 468.809 408.73 466.919 399.828 466.878C395.603 466.908 391.379 466.937 386.701 466.867C382.476 466.896 377.799 466.826 373.652 466.393C364.905 465.427 356.313 463.537 347.876 460.723C339.361 458.37 331.079 454.631 323.327 450.529C315.574 446.427 307.292 442.688 298.777 440.336C290.263 437.984 281.748 435.631 273.001 434.666C268.854 434.233 264.177 434.163 259.952 434.192C255.727 434.221 251.502 434.25 246.825 434.18C237.923 434.139 229.33 432.249 220.738 430.359C212.146 428.469 203.709 425.655 195.957 421.553C192.042 419.733 188.204 417.451 184.289 415.631C180.375 413.811 176.537 411.529 172.092 410.072C163.733 406.795 155.141 404.905 146.549 403.015C137.957 401.125 129.132 400.622 120.605 401.143C112.077 401.663 103.33 400.698 94.6606 399.27C86.0685 397.38 77.4764 395.49 69.1168 392.213C65.1244 390.856 60.7572 388.936 56.9198 386.654C53.0048 384.834 49.1674 382.552 45.2524 380.732C37.2028 375.606 28.7657 372.792 20.7033 370.539Z" fill="url(#paint30_linear_175_1647)"/>
<path d="M18.0543 382.978C26.6463 384.868 35.1609 387.22 43.4431 390.959C47.358 392.779 51.7252 394.698 55.5626 396.98C59.4776 398.8 63.3925 400.62 67.8372 402.077C76.2743 404.892 84.3367 407.144 93.0062 408.572C101.676 410 110.048 410.404 118.498 410.345C122.723 410.316 127.4 410.386 131.625 410.357C136.225 410.889 140.372 411.322 144.894 412.317C153.486 414.207 162.078 416.097 170.89 419.473C175.335 420.93 179.25 422.75 183.087 425.032C187.002 426.852 190.84 429.134 194.755 430.954C202.585 434.594 211.022 437.408 219.162 439.199C227.754 441.089 235.893 442.88 244.343 442.821C248.568 442.792 252.793 442.762 257.47 442.833C261.695 442.803 266.372 442.874 270.895 443.868C279.642 444.834 288.156 447.186 297.123 449.638C301.568 451.095 305.56 452.453 309.927 454.372C313.842 456.192 318.132 458.573 322.047 460.393C329.722 464.957 337.629 468.135 346.066 470.949C354.503 473.764 363.095 475.654 371.313 476.982C375.46 477.415 380.06 477.948 384.285 477.918C388.51 477.889 393.187 477.959 397.334 478.392C406.159 478.896 414.751 480.786 423.343 482.676L423.266 483.138C414.674 481.248 406.081 479.358 397.179 479.317C392.954 479.346 388.729 479.375 384.052 479.305C379.827 479.335 375.15 479.264 371.003 478.831C362.256 477.866 353.664 475.976 345.227 473.161C336.712 470.809 328.43 467.07 320.677 462.968C312.925 458.866 304.643 455.127 296.128 452.774C287.614 450.422 279.099 448.07 270.352 447.104C266.205 446.671 261.528 446.601 257.303 446.63C253.078 446.66 248.853 446.689 244.176 446.619C235.958 445.29 227.289 443.863 218.697 441.973C210.104 440.083 201.667 437.268 193.915 433.166C190 431.346 186.163 429.064 182.248 427.244C177.958 424.863 174.043 423.043 169.598 421.586C161.239 418.309 152.647 416.419 144.055 414.529C135.462 412.639 126.638 412.136 118.111 412.656C109.583 413.177 100.836 412.212 92.1666 410.784C83.5745 408.894 74.9824 407.004 66.6228 403.727C62.6303 402.37 58.2632 400.45 54.4257 398.168C50.5108 396.348 46.6733 394.066 42.7584 392.246C35.006 388.144 26.5689 385.33 18.0543 382.978Z" fill="url(#paint31_linear_175_1647)"/>
<path d="M15.4059 395.419C23.998 397.309 32.5126 399.661 40.7947 403.4C44.7097 405.22 49.0769 407.14 52.9143 409.422C56.8293 411.242 60.7442 413.061 65.1889 414.518C73.626 417.333 81.6883 419.586 90.3579 421.014C99.0275 422.441 107.4 422.845 115.85 422.787C120.075 422.757 124.752 422.827 128.977 422.798C133.576 423.331 137.724 423.764 142.246 424.758C150.838 426.648 159.43 428.538 168.242 431.915C172.687 433.372 176.602 435.192 180.439 437.474C184.354 439.294 188.191 441.576 192.106 443.396C199.936 447.035 208.373 449.85 216.513 451.64C225.105 453.53 233.245 455.321 241.695 455.262C245.92 455.233 250.145 455.204 254.822 455.274C259.047 455.245 263.724 455.315 268.246 456.31C276.993 457.275 285.508 459.628 294.475 462.079C298.919 463.536 302.912 464.894 307.279 466.813C311.194 468.633 315.484 471.015 319.399 472.835C327.073 477.399 334.981 480.576 343.418 483.391C351.855 486.205 360.447 488.095 368.665 489.424C372.812 489.857 377.412 490.389 381.637 490.36C385.861 490.331 390.539 490.401 394.686 490.834C403.511 491.337 412.103 493.227 420.695 495.117L420.617 495.579C412.025 493.689 403.433 491.799 394.531 491.758C390.306 491.788 386.081 491.817 381.404 491.747C377.179 491.776 372.502 491.706 368.355 491.273C359.607 490.307 351.015 488.417 342.578 485.603C334.064 483.25 325.782 479.511 318.029 475.409C310.277 471.307 301.995 467.568 293.48 465.216C284.965 462.863 276.451 460.511 267.704 459.546C263.556 459.113 258.879 459.042 254.654 459.072C250.429 459.101 246.204 459.13 241.527 459.06C232.625 459.019 224.033 457.129 215.441 455.239C206.849 453.349 198.412 450.535 190.659 446.433C186.745 444.613 182.907 442.331 178.992 440.511C175.077 438.691 171.24 436.409 166.795 434.952C158.435 431.675 149.843 429.785 141.251 427.895C132.659 426.005 123.835 425.502 115.307 426.022C106.78 426.543 98.0328 425.578 89.3632 424.15C80.7712 422.26 72.1791 420.37 63.8195 417.093C59.827 415.736 55.4599 413.816 51.6224 411.534C47.7075 409.714 43.87 407.432 39.9551 405.612C32.3576 400.586 23.9205 397.771 15.4059 395.419Z" fill="url(#paint32_linear_175_1647)"/>
<path d="M13.2108 407.957C21.8028 409.847 30.3174 412.199 38.5996 415.939C42.5145 417.758 46.8817 419.678 50.7191 421.96C54.6341 423.78 58.549 425.599 62.9937 427.056C71.4308 429.871 79.4931 432.124 88.1627 433.552C96.8323 434.979 105.205 435.383 113.655 435.325C117.879 435.295 122.557 435.366 126.782 435.336C131.381 435.869 135.529 436.302 140.051 437.296C148.643 439.186 157.235 441.077 166.047 444.453C170.491 445.91 174.406 447.73 178.244 450.012C182.159 451.832 185.996 454.114 189.911 455.934C197.741 459.573 206.178 462.388 214.318 464.178C222.91 466.069 231.05 467.859 239.5 467.801C243.725 467.771 247.95 467.742 252.627 467.812C256.852 467.783 261.529 467.853 266.051 468.848C274.798 469.813 283.313 472.166 292.28 474.617C296.724 476.074 300.717 477.432 305.084 479.351C308.999 481.171 313.288 483.553 317.203 485.373C324.878 489.937 332.786 493.114 341.223 495.929C349.66 498.743 358.252 500.633 366.469 501.962C370.617 502.395 375.216 502.927 379.441 502.898C383.666 502.869 388.343 502.939 392.491 503.372C401.315 503.875 409.907 505.765 418.5 507.655L418.422 508.117C409.83 506.227 401.238 504.337 392.336 504.296C388.111 504.326 383.886 504.355 379.209 504.285C374.984 504.314 370.307 504.244 366.159 503.811C357.412 502.845 348.82 500.955 340.383 498.141C331.868 495.788 323.586 492.049 315.834 487.947C308.082 483.845 299.799 480.106 291.285 477.754C282.77 475.402 274.256 473.049 265.509 472.084C261.361 471.651 256.684 471.581 252.459 471.61C248.234 471.639 244.009 471.668 239.332 471.598C231.115 470.27 222.445 468.842 213.853 466.952C205.261 465.062 196.824 462.248 189.071 458.146C185.157 456.326 181.319 454.044 177.404 452.224C173.489 450.404 169.652 448.122 165.207 446.665C156.847 443.388 148.255 441.498 139.663 439.608C131.071 437.718 122.247 437.215 113.719 437.735C105.192 438.256 96.4448 437.291 87.7753 435.863C79.1832 433.973 70.5911 432.083 62.2315 428.806C58.239 427.449 53.8719 425.529 50.0344 423.247C46.1195 421.427 42.282 419.145 38.3671 417.325C30.1625 413.124 21.7253 410.309 13.2108 407.957Z" fill="url(#paint33_linear_175_1647)"/>
<path d="M10.5624 420.397C19.1545 422.287 27.6691 424.64 35.9512 428.379C39.8662 430.199 44.2333 432.118 48.0708 434.4C51.9858 436.22 55.9007 438.04 60.3454 439.497C68.7825 442.311 76.8448 444.564 85.5144 445.992C94.184 447.42 102.556 447.824 111.006 447.765C115.231 447.736 119.908 447.806 124.133 447.777C128.733 448.309 132.88 448.742 137.402 449.737C145.995 451.627 154.587 453.517 163.398 456.893C167.843 458.35 171.758 460.17 175.595 462.452C179.51 464.272 183.348 466.554 187.263 468.374C195.093 472.014 203.53 474.828 211.67 476.619C220.262 478.509 228.402 480.3 236.852 480.241C241.076 480.212 245.301 480.182 249.979 480.253C254.203 480.223 258.881 480.294 263.403 481.288C272.15 482.254 280.664 484.606 289.631 487.058C294.076 488.515 298.068 489.872 302.435 491.792C306.35 493.612 310.64 495.993 314.555 497.813C322.23 502.377 330.137 505.555 338.574 508.369C347.012 511.184 355.604 513.074 363.821 514.402C367.968 514.835 372.568 515.368 376.793 515.338C381.018 515.309 385.695 515.379 389.843 515.812C398.667 516.315 407.259 518.205 415.851 520.096L415.774 520.558C407.182 518.668 398.59 516.778 389.688 516.737C385.463 516.766 381.238 516.795 376.561 516.725C372.336 516.754 367.658 516.684 363.511 516.251C354.764 515.286 346.172 513.396 337.735 510.581C329.22 508.229 320.938 504.49 313.186 500.388C305.433 496.286 297.151 492.547 288.637 490.194C280.122 487.842 271.607 485.49 262.86 484.524C258.713 484.091 254.036 484.021 249.811 484.05C245.586 484.08 241.361 484.109 236.684 484.039C227.782 483.998 219.19 482.108 210.598 480.218C202.005 478.328 193.568 475.513 185.816 471.411C181.901 469.591 178.064 467.309 174.149 465.489C170.234 463.669 166.396 461.387 161.952 459.93C153.592 456.653 145 454.763 136.408 452.873C127.816 450.983 118.991 450.48 110.464 451.001C101.936 451.522 93.1893 450.556 84.5197 449.129C75.9276 447.239 67.3356 445.348 58.976 442.072C54.9835 440.714 50.6164 438.795 46.7789 436.513C42.8639 434.693 39.0265 432.411 35.1115 430.591C27.5141 425.564 19.077 422.75 10.5624 420.397Z" fill="url(#paint34_linear_175_1647)"/>
<path d="M8.27954 433.438C16.8716 435.328 25.3862 437.68 33.6683 441.419C37.5833 443.239 41.9505 445.158 45.7879 447.44C49.7029 449.26 53.6178 451.08 58.0625 452.537C66.4996 455.352 74.5619 457.604 83.2315 459.032C91.9011 460.46 100.273 460.864 108.723 460.805C112.948 460.776 117.625 460.846 121.85 460.817C126.45 461.349 130.597 461.782 135.12 462.777C143.712 464.667 152.304 466.557 161.116 469.933C165.56 471.39 169.475 473.21 173.313 475.492C177.228 477.312 181.065 479.594 184.98 481.414C192.81 485.054 201.247 487.868 209.387 489.659C217.979 491.549 226.119 493.34 234.569 493.281C238.794 493.252 243.018 493.222 247.696 493.293C251.921 493.263 256.598 493.334 261.12 494.328C269.867 495.294 278.382 497.646 287.348 500.098C291.793 501.555 295.785 502.912 300.153 504.832C304.068 506.652 308.357 509.033 312.272 510.853C319.947 515.417 327.854 518.595 336.292 521.409C344.729 524.224 353.321 526.114 361.538 527.442C365.686 527.875 370.285 528.408 374.51 528.378C378.735 528.349 383.412 528.419 387.56 528.852C396.384 529.356 404.976 531.246 413.568 533.136L413.491 533.598C404.899 531.708 396.307 529.818 387.405 529.777C383.18 529.806 378.955 529.835 374.278 529.765C370.053 529.795 365.376 529.724 361.228 529.291C352.481 528.326 343.889 526.436 335.452 523.621C326.937 521.269 318.655 517.53 310.903 513.428C303.15 509.326 294.868 505.587 286.354 503.234C277.839 500.882 269.324 498.53 260.577 497.564C256.43 497.131 251.753 497.061 247.528 497.09C243.303 497.12 239.078 497.149 234.401 497.079C226.184 495.75 217.062 494.223 208.999 491.97C200.407 490.08 191.97 487.266 184.218 483.164C180.303 481.344 176.465 479.062 172.55 477.242C168.635 475.422 164.798 473.14 160.353 471.683C151.994 468.406 143.402 466.516 134.81 464.626C126.217 462.736 117.393 462.233 108.866 462.754C100.338 463.274 91.5911 462.309 82.9215 460.881C74.3294 458.991 65.7374 457.101 57.3778 453.824C53.3853 452.467 49.0181 450.547 45.1807 448.265C41.2657 446.446 37.4283 444.163 33.5134 442.344C24.8565 438.043 16.3419 435.69 8.27954 433.438Z" fill="url(#paint35_linear_175_1647)"/>
<path d="M5.6297 445.877C14.2218 447.767 22.7364 450.119 31.0185 453.858C34.9334 455.678 39.3006 457.598 43.1381 459.88C47.053 461.7 50.968 463.519 55.4126 464.976C63.8497 467.791 71.9121 470.044 80.5817 471.472C89.2513 472.899 97.6236 473.303 106.073 473.245C110.298 473.215 114.976 473.285 119.2 473.256C123.8 473.789 127.948 474.222 132.47 475.216C141.062 477.106 149.654 478.996 158.466 482.373C162.91 483.83 166.825 485.65 170.663 487.932C174.578 489.752 178.415 492.034 182.33 493.854C190.16 497.493 198.597 500.308 206.737 502.098C215.329 503.988 223.469 505.779 231.919 505.72C236.144 505.691 240.369 505.662 245.046 505.732C249.271 505.703 253.948 505.773 258.47 506.768C267.217 507.733 275.732 510.086 284.698 512.537C289.143 513.994 293.136 515.352 297.503 517.271C301.418 519.091 305.707 521.473 309.622 523.293C317.297 527.857 325.205 531.034 333.642 533.849C342.079 536.663 350.671 538.553 358.888 539.882C363.036 540.315 367.635 540.847 371.86 540.818C376.085 540.789 380.762 540.859 384.91 541.292C393.734 541.795 402.326 543.685 410.918 545.575L410.841 546.037C402.249 544.147 393.657 542.257 384.755 542.216C380.53 542.246 376.305 542.275 371.628 542.205C367.403 542.234 362.726 542.164 358.578 541.731C349.831 540.765 341.239 538.875 332.802 536.061C324.287 533.708 316.005 529.969 308.253 525.867C300.501 521.765 292.218 518.026 283.704 515.674C275.189 513.322 266.675 510.969 257.928 510.004C253.78 509.571 249.103 509.501 244.878 509.53C240.653 509.559 236.428 509.588 231.751 509.518C222.849 509.477 214.257 507.587 205.665 505.697C197.073 503.807 188.636 500.993 180.883 496.891C176.968 495.071 173.131 492.789 169.216 490.969C165.301 489.149 161.463 486.867 157.019 485.41C148.659 482.133 140.067 480.243 131.475 478.353C122.883 476.463 114.058 475.96 105.531 476.48C97.0037 477.001 88.2566 476.036 79.587 474.608C70.9949 472.718 62.4028 470.828 54.0432 467.551C50.0508 466.194 45.6836 464.274 41.8462 461.992C37.9312 460.172 34.0938 457.89 30.1788 456.07C22.6589 450.582 14.1443 448.229 5.6297 445.877Z" fill="url(#paint36_linear_175_1647)"/>
</g>
</g>
<defs>
<linearGradient id="paint0_linear_175_1647" x1="93.1355" y1="2.94944" x2="503.14" y2="71.6144" gradientUnits="userSpaceOnUse">
<stop stop-color="#A1CC95"/>
<stop offset="1" stop-color="#26AAE1"/>
</linearGradient>
<linearGradient id="paint1_linear_175_1647" x1="90.8911" y1="15.7169" x2="500.902" y2="84.4524" gradientUnits="userSpaceOnUse">
<stop stop-color="#A1CC95"/>
<stop offset="1" stop-color="#26AAE1"/>
</linearGradient>
<linearGradient id="paint2_linear_175_1647" x1="88.2942" y1="27.9289" x2="498.299" y2="96.5939" gradientUnits="userSpaceOnUse">
<stop stop-color="#A1CC95"/>
<stop offset="1" stop-color="#26AAE1"/>
</linearGradient>
<linearGradient id="paint3_linear_175_1647" x1="85.5959" y1="40.5987" x2="496.063" y2="109.408" gradientUnits="userSpaceOnUse">
<stop stop-color="#A1CC95"/>
<stop offset="1" stop-color="#26AAE1"/>
</linearGradient>
<linearGradient id="paint4_linear_175_1647" x1="83.3129" y1="53.6388" x2="493.78" y2="122.448" gradientUnits="userSpaceOnUse">
<stop stop-color="#A1CC95"/>
<stop offset="1" stop-color="#26AAE1"/>
</linearGradient>
<linearGradient id="paint5_linear_175_1647" x1="80.6646" y1="66.0792" x2="491.132" y2="134.888" gradientUnits="userSpaceOnUse">
<stop stop-color="#A1CC95"/>
<stop offset="1" stop-color="#26AAE1"/>
</linearGradient>
<linearGradient id="paint6_linear_175_1647" x1="78.468" y1="78.6163" x2="488.935" y2="147.425" gradientUnits="userSpaceOnUse">
<stop stop-color="#A1CC95"/>
<stop offset="1" stop-color="#26AAE1"/>
</linearGradient>
<linearGradient id="paint7_linear_175_1647" x1="75.8204" y1="91.0577" x2="486.287" y2="159.867" gradientUnits="userSpaceOnUse">
<stop stop-color="#A1CC95"/>
<stop offset="1" stop-color="#26AAE1"/>
</linearGradient>
<linearGradient id="paint8_linear_175_1647" x1="73.6252" y1="103.595" x2="484.092" y2="172.404" gradientUnits="userSpaceOnUse">
<stop stop-color="#A1CC95"/>
<stop offset="1" stop-color="#26AAE1"/>
</linearGradient>
<linearGradient id="paint9_linear_175_1647" x1="70.9769" y1="116.035" x2="481.444" y2="184.844" gradientUnits="userSpaceOnUse">
<stop stop-color="#A1CC95"/>
<stop offset="1" stop-color="#26AAE1"/>
</linearGradient>
<linearGradient id="paint10_linear_175_1647" x1="68.3286" y1="128.476" x2="478.796" y2="197.285" gradientUnits="userSpaceOnUse">
<stop stop-color="#A1CC95"/>
<stop offset="1" stop-color="#26AAE1"/>
</linearGradient>
<linearGradient id="paint11_linear_175_1647" x1="66.1312" y1="141.015" x2="476.598" y2="209.824" gradientUnits="userSpaceOnUse">
<stop stop-color="#A1CC95"/>
<stop offset="1" stop-color="#26AAE1"/>
</linearGradient>
<linearGradient id="paint12_linear_175_1647" x1="63.3951" y1="153.955" x2="473.862" y2="222.764" gradientUnits="userSpaceOnUse">
<stop stop-color="#A1CC95"/>
<stop offset="1" stop-color="#26AAE1"/>
</linearGradient>
<linearGradient id="paint13_linear_175_1647" x1="61.1999" y1="166.494" x2="471.667" y2="235.303" gradientUnits="userSpaceOnUse">
<stop stop-color="#A1CC95"/>
<stop offset="1" stop-color="#26AAE1"/>
</linearGradient>
<linearGradient id="paint14_linear_175_1647" x1="58.5538" y1="178.935" x2="469.021" y2="247.744" gradientUnits="userSpaceOnUse">
<stop stop-color="#A1CC95"/>
<stop offset="1" stop-color="#26AAE1"/>
</linearGradient>
<linearGradient id="paint15_linear_175_1647" x1="55.907" y1="191.375" x2="466.374" y2="260.184" gradientUnits="userSpaceOnUse">
<stop stop-color="#A1CC95"/>
<stop offset="1" stop-color="#26AAE1"/>
</linearGradient>
<linearGradient id="paint16_linear_175_1647" x1="53.7096" y1="203.913" x2="464.177" y2="272.722" gradientUnits="userSpaceOnUse">
<stop stop-color="#A1CC95"/>
<stop offset="1" stop-color="#26AAE1"/>
</linearGradient>
<linearGradient id="paint17_linear_175_1647" x1="51.0613" y1="216.354" x2="461.528" y2="285.163" gradientUnits="userSpaceOnUse">
<stop stop-color="#A1CC95"/>
<stop offset="1" stop-color="#26AAE1"/>
</linearGradient>
<linearGradient id="paint18_linear_175_1647" x1="48.8662" y1="228.891" x2="459.333" y2="297.7" gradientUnits="userSpaceOnUse">
<stop stop-color="#A1CC95"/>
<stop offset="1" stop-color="#26AAE1"/>
</linearGradient>
<linearGradient id="paint19_linear_175_1647" x1="46.217" y1="241.333" x2="456.684" y2="310.142" gradientUnits="userSpaceOnUse">
<stop stop-color="#A1CC95"/>
<stop offset="1" stop-color="#26AAE1"/>
</linearGradient>
<linearGradient id="paint20_linear_175_1647" x1="43.4817" y1="254.274" x2="453.949" y2="323.082" gradientUnits="userSpaceOnUse">
<stop stop-color="#A1CC95"/>
<stop offset="1" stop-color="#26AAE1"/>
</linearGradient>
<linearGradient id="paint21_linear_175_1647" x1="41.2843" y1="266.813" x2="451.751" y2="335.622" gradientUnits="userSpaceOnUse">
<stop stop-color="#A1CC95"/>
<stop offset="1" stop-color="#26AAE1"/>
</linearGradient>
<linearGradient id="paint22_linear_175_1647" x1="38.6375" y1="279.253" x2="449.104" y2="348.062" gradientUnits="userSpaceOnUse">
<stop stop-color="#A1CC95"/>
<stop offset="1" stop-color="#26AAE1"/>
</linearGradient>
<linearGradient id="paint23_linear_175_1647" x1="36.4423" y1="291.79" x2="446.909" y2="360.599" gradientUnits="userSpaceOnUse">
<stop stop-color="#A1CC95"/>
<stop offset="1" stop-color="#26AAE1"/>
</linearGradient>
<linearGradient id="paint24_linear_175_1647" x1="33.7933" y1="304.232" x2="444.26" y2="373.04" gradientUnits="userSpaceOnUse">
<stop stop-color="#A1CC95"/>
<stop offset="1" stop-color="#26AAE1"/>
</linearGradient>
<linearGradient id="paint25_linear_175_1647" x1="31.1434" y1="316.671" x2="441.61" y2="385.48" gradientUnits="userSpaceOnUse">
<stop stop-color="#A1CC95"/>
<stop offset="1" stop-color="#26AAE1"/>
</linearGradient>
<linearGradient id="paint26_linear_175_1647" x1="28.9476" y1="329.209" x2="439.415" y2="398.018" gradientUnits="userSpaceOnUse">
<stop stop-color="#A1CC95"/>
<stop offset="1" stop-color="#26AAE1"/>
</linearGradient>
<linearGradient id="paint27_linear_175_1647" x1="26.2992" y1="341.65" x2="436.766" y2="410.458" gradientUnits="userSpaceOnUse">
<stop stop-color="#A1CC95"/>
<stop offset="1" stop-color="#26AAE1"/>
</linearGradient>
<linearGradient id="paint28_linear_175_1647" x1="24.0148" y1="354.69" x2="434.482" y2="423.498" gradientUnits="userSpaceOnUse">
<stop stop-color="#A1CC95"/>
<stop offset="1" stop-color="#26AAE1"/>
</linearGradient>
<linearGradient id="paint29_linear_175_1647" x1="21.3687" y1="367.129" x2="431.836" y2="435.938" gradientUnits="userSpaceOnUse">
<stop stop-color="#A1CC95"/>
<stop offset="1" stop-color="#26AAE1"/>
</linearGradient>
<linearGradient id="paint30_linear_175_1647" x1="19.1728" y1="379.669" x2="429.64" y2="448.478" gradientUnits="userSpaceOnUse">
<stop stop-color="#A1CC95"/>
<stop offset="1" stop-color="#26AAE1"/>
</linearGradient>
<linearGradient id="paint31_linear_175_1647" x1="16.5237" y1="392.108" x2="426.991" y2="460.916" gradientUnits="userSpaceOnUse">
<stop stop-color="#A1CC95"/>
<stop offset="1" stop-color="#26AAE1"/>
</linearGradient>
<linearGradient id="paint32_linear_175_1647" x1="13.8754" y1="404.549" x2="424.342" y2="473.358" gradientUnits="userSpaceOnUse">
<stop stop-color="#A1CC95"/>
<stop offset="1" stop-color="#26AAE1"/>
</linearGradient>
<linearGradient id="paint33_linear_175_1647" x1="11.6802" y1="417.087" x2="422.147" y2="485.896" gradientUnits="userSpaceOnUse">
<stop stop-color="#A1CC95"/>
<stop offset="1" stop-color="#26AAE1"/>
</linearGradient>
<linearGradient id="paint34_linear_175_1647" x1="9.03193" y1="429.527" x2="419.499" y2="498.336" gradientUnits="userSpaceOnUse">
<stop stop-color="#A1CC95"/>
<stop offset="1" stop-color="#26AAE1"/>
</linearGradient>
<linearGradient id="paint35_linear_175_1647" x1="6.74903" y1="442.567" x2="417.216" y2="511.376" gradientUnits="userSpaceOnUse">
<stop stop-color="#A1CC95"/>
<stop offset="1" stop-color="#26AAE1"/>
</linearGradient>
<linearGradient id="paint36_linear_175_1647" x1="4.09919" y1="455.007" x2="414.566" y2="523.816" gradientUnits="userSpaceOnUse">
<stop stop-color="#A1CC95"/>
<stop offset="1" stop-color="#26AAE1"/>
</linearGradient>
</defs>
</svg>
