<svg width="708" height="825" viewBox="0 0 708 825" fill="none" xmlns="http://www.w3.org/2000/svg">
<path fill-rule="evenodd" clip-rule="evenodd" d="M632.981 323.322L632.9 323.274L161.737 43.0784C161.726 43.0717 161.715 43.065 161.704 43.0584C124.741 21.2464 77.6069 34.2552 55.574 77.7782C55.5617 77.8022 55.5496 77.8263 55.5374 77.8505L44.5222 99.9272C44.4888 99.9941 44.4552 100.061 44.4213 100.128C44.3887 100.192 44.3559 100.256 44.3228 100.32C21.8479 143.88 37.6904 198.677 76.2787 221.474L76.3353 221.508L344.667 380.765C354.478 386.588 360.534 397.114 360.637 408.523C360.739 419.932 354.873 430.565 345.168 436.564L73.6743 604.36C73.6499 604.376 73.6255 604.391 73.6011 604.406C35.8081 628.134 20.6522 683.018 43.037 726.844L55.0179 748.672C55.0736 748.774 55.129 748.876 55.1837 748.978C77.9101 791.452 124.945 803.89 162.266 781.077L600.114 507.089C601.879 505.984 603.745 505.052 605.687 504.303C627.689 495.823 647.526 478.914 657.94 457.508C658.353 456.66 658.802 455.83 659.286 455.021L661.039 452.093C689.689 397.202 670.798 345.664 632.981 323.322ZM689.49 468.075L687.272 471.778C672.858 501.407 646.247 523.629 617.418 534.74L179.438 808.811C125.107 842.144 57.4691 822.391 26.4226 764.367L14.2257 742.145C-15.7122 684.121 3.13755 610.048 56.3603 576.715L328.018 408.816L59.6868 249.559C5.35522 217.46 -14.6033 143.387 15.3345 85.3634L26.4226 63.1414C56.3604 3.88293 123.998 -17.1044 178.329 14.9939L649.573 295.237C703.905 327.336 726.081 398.94 689.49 468.075Z" fill="url(#paint0_radial_15_1196)"/>
<defs>
<radialGradient id="paint0_radial_15_1196" cx="0" cy="0" r="1" gradientUnits="userSpaceOnUse" gradientTransform="translate(1041.1 -55.725) rotate(130.866) scale(1977.56 1695.86)">
<stop offset="0.260452" stop-color="#A1CC95"/>
<stop offset="0.422247" stop-color="#26AAE1" stop-opacity="0"/>
</radialGradient>
</defs>
</svg>
