<svg width="469" height="767" viewBox="0 0 469 767" fill="none" xmlns="http://www.w3.org/2000/svg">
<g opacity="0.1">
<mask id="mask0_175_900" style="mask-type:luminance" maskUnits="userSpaceOnUse" x="-108" y="155" width="446" height="457">
<path d="M-72.9784 236.522C-138.978 332.688 -108.47 476.575 -4.83751 557.902C98.7949 639.229 236.308 627.199 302.308 531.033C368.307 434.866 337.799 290.979 234.167 209.652C130.534 128.326 -6.97922 140.355 -72.9784 236.522Z" fill="white"/>
</mask>
<g mask="url(#mask0_175_900)">
<path d="M150.161 703.403C142.562 697.789 135.225 691.762 128.67 684.496C125.592 681.011 122.776 677.113 119.298 673.332C116.221 669.847 113.143 666.362 109.405 662.994C102.328 656.554 95.3901 650.823 87.5306 645.621C79.6711 640.42 71.6897 636.341 63.4474 632.674C59.3262 630.84 54.8051 628.712 50.684 626.878C46.4238 624.336 42.5636 622.09 38.5643 619.135C30.9657 613.521 23.3671 607.907 16.1513 600.759C12.4129 597.391 9.33537 593.906 6.51876 590.008C3.44122 586.523 0.624605 582.625 -2.45292 579.139C-8.60798 572.169 -15.6848 565.729 -22.8835 560.411C-30.4821 554.797 -37.6807 549.478 -45.9231 545.811C-50.0442 543.978 -54.1654 542.145 -58.6864 540.016C-62.8076 538.182 -67.3287 536.053 -71.328 533.099C-79.4484 528.31 -86.7861 522.283 -94.5237 515.961C-98.2621 512.593 -101.601 509.521 -105.078 505.74C-108.155 502.255 -111.372 498.062 -114.45 494.577C-120.083 486.78 -126.499 480.223 -133.576 473.783C-140.652 467.343 -148.251 461.729 -155.711 456.824C-159.571 454.577 -163.831 452.035 -167.952 450.202C-172.073 448.369 -176.594 446.24 -180.455 443.993C-188.697 440.327 -196.556 435.125 -203.894 429.098L-203.633 428.686C-196.035 434.3 -188.436 439.914 -179.794 443.876C-175.673 445.709 -171.551 447.543 -167.03 449.672C-162.909 451.505 -158.388 453.634 -154.528 455.88C-146.407 460.668 -138.809 466.282 -131.732 472.722C-124.394 478.749 -117.839 486.015 -111.945 493.398C-106.051 500.782 -99.4961 508.047 -92.1584 514.074C-84.8207 520.101 -77.483 526.128 -69.3626 530.916C-65.5023 533.163 -60.9813 535.292 -56.8601 537.125C-52.7389 538.958 -48.6178 540.792 -44.0967 542.921C-36.7761 547.118 -28.9166 552.319 -21.318 557.933C-13.7194 563.547 -6.64262 569.987 -0.748464 577.37C2.32906 580.855 5.14569 584.754 8.22321 588.239C11.3007 591.724 14.1173 595.622 17.8557 598.99C24.6716 605.842 32.2702 611.456 39.8688 617.07C47.4674 622.685 55.8488 627.06 64.352 630.314C72.9942 634.276 80.9756 638.356 88.5743 643.97C96.1729 649.584 103.771 655.198 110.587 662.051C113.926 665.123 117.403 668.903 120.22 672.802C123.297 676.287 126.114 680.185 129.591 683.965C135.747 690.936 142.823 697.376 150.161 703.403Z" fill="#26AAE1"/>
<path d="M157.572 693.463C149.972 687.848 142.634 681.821 136.477 674.852C133.399 671.367 129.921 667.587 127.103 663.69C124.025 660.206 120.946 656.721 117.207 653.354C110.13 646.914 103.191 641.183 95.331 635.981C87.4711 630.779 79.4898 626.697 71.2478 623.028C67.1268 621.194 62.6058 619.064 58.4848 617.23C54.2245 614.687 50.3642 612.44 46.3646 609.485C38.7654 603.871 31.1661 598.256 23.9489 591.109C20.21 587.741 17.1317 584.257 14.3141 580.359C11.2358 576.875 8.41819 572.978 5.3399 569.493C-0.816678 562.524 -7.89458 556.085 -15.0939 550.766C-22.6931 545.151 -29.8924 539.832 -38.1344 536.163C-42.2554 534.329 -46.3764 532.494 -50.8974 530.365C-55.0184 528.53 -59.5393 526.4 -63.5389 523.445C-71.6595 518.656 -78.9981 512.629 -86.7366 506.306C-90.4756 502.939 -93.8146 499.867 -97.2928 496.087C-100.371 492.602 -103.589 488.41 -106.667 484.925C-112.302 477.131 -118.719 470.574 -125.797 464.135C-132.875 457.695 -140.474 452.081 -147.934 447.174C-151.795 444.927 -156.055 442.385 -160.176 440.55C-164.297 438.716 -168.818 436.586 -172.678 434.339C-181.06 429.962 -188.659 424.348 -196.258 418.733L-195.997 418.321C-188.398 423.935 -180.799 429.55 -172.157 433.514C-168.036 435.348 -163.915 437.183 -159.394 439.313C-155.273 441.147 -150.752 443.277 -146.892 445.524C-138.771 450.314 -131.172 455.928 -124.094 462.368C-116.755 468.395 -110.199 475.659 -104.303 483.041C-98.407 490.422 -91.8505 497.687 -84.5119 503.714C-77.1734 509.741 -69.8348 515.768 -61.7142 520.557C-57.8538 522.804 -53.3329 524.934 -49.2119 526.769C-45.0909 528.603 -40.9699 530.438 -36.4489 532.568C-27.807 536.532 -20.2077 542.147 -12.6085 547.761C-5.00922 553.376 2.06866 559.815 7.96456 567.197C11.0429 570.681 13.8605 574.578 16.9388 578.063C20.017 581.547 22.8347 585.444 26.5736 588.812C33.3908 595.664 40.9901 601.278 48.5893 606.893C56.1886 612.507 64.5699 616.884 73.0725 620.141C81.5752 623.397 89.6958 628.187 97.5557 633.389C105.155 639.003 112.754 644.618 119.571 651.47C122.91 654.542 126.389 658.322 129.206 662.219C131.103 666.645 133.92 670.542 136.998 674.027C143.555 681.291 150.233 687.436 157.572 693.463Z" fill="#26AAE1"/>
<path d="M165.308 683.798C157.71 678.184 150.372 672.157 143.817 664.892C140.739 661.406 137.923 657.508 134.845 654.023C131.768 650.538 128.69 647.053 124.952 643.685C118.136 636.832 110.537 631.218 103.078 626.313C95.2182 621.112 87.2368 617.032 78.9945 613.365C74.8734 611.532 70.3523 609.403 66.2311 607.569C61.971 605.028 58.1107 602.781 54.1114 599.826C46.5128 594.212 38.9142 588.598 31.6984 581.45C27.9601 578.082 24.8825 574.597 22.0659 570.699C18.9884 567.214 16.1718 563.316 13.0942 559.831C6.93918 552.86 -0.13762 546.421 -7.3363 541.102C-14.9349 535.488 -22.1336 530.169 -30.3759 526.503C-34.4971 524.669 -38.6182 522.836 -43.1393 520.707C-47.2604 518.873 -51.7816 516.745 -55.7808 513.79C-63.9012 509.002 -71.2389 502.975 -78.9766 496.652C-82.7149 493.285 -86.0534 490.212 -89.5308 486.432C-92.6083 482.947 -95.8249 478.753 -98.9024 475.268C-104.536 467.472 -110.952 460.914 -118.028 454.474C-125.105 448.034 -132.704 442.42 -140.163 437.515C-144.024 435.268 -148.284 432.727 -152.405 430.893C-156.526 429.06 -161.047 426.931 -164.907 424.685C-173.55 420.722 -181.409 415.521 -188.747 409.494L-188.486 409.081C-180.887 414.695 -173.289 420.309 -164.647 424.272C-160.525 426.105 -156.404 427.938 -151.883 430.067C-147.762 431.901 -143.241 434.03 -139.381 436.276C-131.26 441.064 -123.662 446.678 -116.585 453.118C-109.247 459.145 -102.692 466.411 -96.798 473.794C-90.9039 481.177 -84.3489 488.443 -77.0112 494.47C-69.6735 500.497 -62.3358 506.524 -54.2154 511.312C-50.3551 513.559 -45.834 515.687 -41.7129 517.521C-37.5917 519.354 -33.4706 521.188 -28.9495 523.317C-20.3072 527.279 -12.7086 532.893 -5.11003 538.507C2.48858 544.121 9.56538 550.561 15.4595 557.944C18.5371 561.429 21.3537 565.327 24.4312 568.812C27.5087 572.298 30.3253 576.196 34.0637 579.563C40.8796 586.416 48.4782 592.03 56.0768 597.644C63.6754 603.258 72.0568 607.634 80.56 610.887C89.0632 614.141 97.1836 618.929 105.043 624.131C112.642 629.745 120.24 635.359 127.056 642.211C130.395 645.284 133.872 649.064 136.689 652.962C138.445 656.682 141.522 660.168 144.739 664.361C150.894 671.331 157.971 677.771 165.308 683.798Z" fill="#26AAE1"/>
<path d="M173.116 674.154C165.517 668.539 158.179 662.512 151.622 655.248C148.544 651.763 145.066 647.983 142.248 644.086C139.17 640.601 136.092 637.117 132.353 633.749C125.275 627.31 118.336 621.578 110.476 616.376C102.616 611.174 94.6351 607.093 86.3931 603.424C82.2721 601.59 77.7511 599.46 73.6301 597.626C69.3698 595.083 65.5095 592.836 61.5099 589.881C53.9107 584.267 46.3115 578.652 39.0943 571.505C35.3554 568.137 32.2772 564.653 29.4596 560.755C26.3814 557.271 23.5638 553.374 20.4855 549.889C14.329 542.92 7.25118 536.481 0.0519069 531.162C-7.54731 525.547 -14.7466 520.228 -22.9886 516.559C-27.1096 514.725 -31.2306 512.891 -35.7516 510.761C-39.8726 508.926 -44.3935 506.796 -48.3931 503.841C-56.5137 499.052 -63.8523 493.025 -71.5908 486.702C-75.3297 483.335 -78.6686 480.263 -82.1468 476.483C-85.2251 472.998 -88.4426 468.806 -91.5209 465.321C-97.156 457.527 -103.573 450.97 -110.651 444.531C-117.729 438.091 -125.328 432.477 -132.788 427.57C-136.648 425.323 -140.909 422.781 -145.03 420.946C-149.151 419.112 -153.672 416.982 -157.532 414.735C-165.913 410.358 -173.512 404.744 -181.112 399.129L-180.851 398.717C-173.252 404.331 -165.653 409.946 -157.011 413.91C-152.89 415.745 -148.769 417.579 -144.248 419.709C-140.127 421.543 -135.606 423.673 -131.745 425.92C-123.625 430.71 -116.026 436.324 -108.948 442.764C-101.609 448.791 -95.0527 456.055 -89.1568 463.437C-83.261 470.819 -76.7045 478.083 -69.366 484.11C-62.9488 490.667 -55.3496 496.281 -47.229 501.071C-43.3686 503.318 -38.8477 505.447 -34.7267 507.282C-30.6057 509.116 -26.4847 510.951 -21.9637 513.081C-13.3217 517.045 -5.7225 522.659 1.87672 528.274C9.47595 533.888 16.5538 540.328 22.4496 547.709C25.5279 551.194 28.3454 555.091 31.4237 558.576C34.5019 562.06 37.3195 565.957 41.0584 569.325C47.8756 576.177 55.4748 581.791 63.074 587.406C70.6732 593.02 79.0545 597.397 87.5572 600.653C96.0599 603.91 104.181 608.699 112.04 613.901C119.64 619.516 127.239 625.13 134.056 631.982C137.395 635.054 140.873 638.834 143.691 642.731C146.248 647.041 149.326 650.526 152.404 654.01C158.7 661.687 166.038 667.714 173.116 674.154Z" fill="#26AAE1"/>
<path d="M180.791 663.809C173.192 658.194 165.854 652.167 159.297 644.903C156.219 641.418 152.741 637.638 149.923 633.741C146.845 630.257 143.767 626.772 140.028 623.404C132.95 616.965 126.011 611.233 118.151 606.031C110.291 600.83 102.31 596.748 94.0681 593.079C89.9471 591.245 85.4261 589.115 81.3051 587.281C77.0449 584.738 73.1845 582.491 69.1849 579.536C61.5857 573.922 53.9865 568.307 46.7694 561.16C43.0305 557.792 39.9522 554.308 37.1347 550.411C34.0564 546.926 31.2388 543.029 28.1606 539.544C22.0041 532.575 14.9262 526.136 7.72696 520.817C0.127742 515.202 -7.07153 509.883 -15.3135 506.214C-19.4346 504.38 -23.5555 502.546 -28.0765 500.416C-32.1975 498.581 -36.7185 496.451 -40.7181 493.496C-48.8387 488.707 -56.1772 482.68 -63.9157 476.358C-67.6546 472.99 -70.9935 469.918 -74.4718 466.138C-77.55 462.653 -80.7676 458.461 -83.8458 454.976C-89.4809 447.182 -95.8982 440.625 -102.976 434.186C-110.054 427.746 -117.653 422.132 -125.113 417.225C-128.973 414.978 -133.234 412.436 -137.355 410.602C-141.476 408.767 -145.997 406.637 -149.857 404.39C-158.238 400.014 -165.837 394.399 -173.437 388.785L-173.176 388.372C-165.577 393.987 -157.977 399.601 -149.336 403.565C-145.215 405.4 -141.094 407.234 -136.573 409.364C-132.452 411.198 -127.931 413.328 -124.07 415.575C-115.95 420.365 -108.35 425.979 -101.273 432.419C-93.9341 438.446 -87.3776 445.71 -81.4818 453.092C-75.586 460.474 -69.0295 467.738 -61.6909 473.765C-54.3524 479.792 -47.0139 485.819 -38.8933 490.609C-35.033 492.856 -30.512 494.986 -26.391 496.82C-22.27 498.654 -18.149 500.489 -13.628 502.619C-4.98603 506.583 2.61318 512.197 10.2124 517.812C17.8116 523.426 24.8895 529.866 30.7853 537.248C33.8636 540.732 36.6811 544.629 39.7594 548.114C42.8376 551.598 45.6552 555.495 49.3941 558.863C56.2113 565.715 63.8105 571.33 71.4097 576.944C79.0089 582.558 87.3902 586.935 95.8929 590.192C104.396 593.448 112.516 598.237 120.376 603.439C127.975 609.054 135.575 614.668 142.392 621.52C145.731 624.592 149.209 628.372 152.026 632.269C155.105 635.754 157.922 639.651 161.001 643.136C166.114 651.755 173.453 657.782 180.791 663.809Z" fill="#26AAE1"/>
<path d="M188.563 654.154C180.964 648.54 173.625 642.513 167.069 635.248C163.99 631.764 160.512 627.983 157.694 624.086C154.616 620.602 151.538 617.117 147.799 613.75C140.721 607.31 133.783 601.579 125.923 596.377C118.063 591.175 110.081 587.093 101.839 583.425C97.7185 581.59 93.1975 579.46 89.0765 577.626C84.8162 575.083 80.9559 572.837 76.9563 569.882C69.3571 564.267 61.7579 558.653 54.5407 551.505C50.8018 548.137 47.7236 544.653 44.906 540.756C41.8278 537.271 39.0102 533.374 35.9319 529.89C29.7754 522.92 22.6976 516.481 15.4983 511.162C7.89908 505.547 0.69982 500.228 -7.54219 496.56C-11.6632 494.725 -15.7842 492.891 -20.3052 490.761C-24.4262 488.927 -28.9471 486.797 -32.9467 483.842C-41.0673 479.052 -48.4059 473.025 -56.1444 466.703C-59.8833 463.335 -63.2222 460.263 -66.7004 456.483C-69.7787 452.999 -72.9962 448.806 -76.0744 445.321C-81.7096 437.527 -88.1268 430.971 -95.2046 424.531C-102.282 418.092 -109.882 412.477 -117.342 407.571C-121.202 405.324 -125.462 402.781 -129.583 400.947C-133.704 399.112 -138.225 396.983 -142.086 394.736C-150.467 390.359 -158.066 384.744 -165.665 379.13L-165.405 378.717C-157.805 384.332 -150.206 389.946 -141.564 393.911C-137.443 395.745 -133.322 397.579 -128.801 399.709C-124.68 401.544 -120.159 403.674 -116.299 405.92C-108.178 410.71 -100.579 416.324 -93.5012 422.764C-86.1627 428.791 -79.6062 436.056 -73.7104 443.437C-67.8146 450.819 -61.2581 458.084 -53.9196 464.111C-46.581 470.138 -39.2425 476.165 -31.1219 480.954C-27.2616 483.201 -22.7406 485.331 -18.6196 487.165C-14.4986 489 -10.3776 490.834 -5.85664 492.964C2.78533 496.928 10.3845 502.543 17.9838 508.157C25.583 513.772 32.6608 520.211 38.5567 527.593C41.6349 531.077 44.4525 534.974 47.5307 538.459C50.609 541.944 53.4266 545.841 57.1655 549.208C63.9826 556.06 71.5819 561.675 79.1811 567.289C86.7803 572.904 95.1616 577.281 103.664 580.537C112.167 583.793 120.288 588.582 128.147 593.784C135.747 599.399 143.346 605.013 150.163 611.865C153.502 614.937 156.98 618.718 159.798 622.615C162.876 626.099 165.694 629.996 168.772 633.481C173.886 642.1 181.224 648.127 188.563 654.154Z" fill="#26AAE1"/>
<path d="M195.939 644.205C188.339 638.59 181.001 632.563 174.444 625.299C171.366 621.814 167.888 618.034 165.07 614.137C161.992 610.653 158.914 607.168 155.175 603.8C148.097 597.361 141.158 591.629 133.299 586.427C125.439 581.226 117.457 577.144 109.215 573.475C105.094 571.641 100.573 569.511 96.4524 567.677C92.1921 565.134 88.3318 562.887 84.3322 559.932C76.7329 554.318 69.1337 548.703 61.9166 541.556C58.1777 538.188 55.0994 534.704 52.2819 530.807C49.2036 527.322 46.386 523.425 43.3078 519.94C37.1513 512.971 30.0734 506.532 22.8742 501.213C15.2749 495.598 8.07568 490.279 -0.166332 486.61C-4.28734 484.776 -8.40835 482.942 -12.9293 480.812C-17.0503 478.977 -21.5713 476.847 -25.5709 473.892C-33.6915 469.103 -41.03 463.076 -48.7685 456.754C-52.5074 453.386 -55.8463 450.314 -59.3245 446.534C-62.4028 443.049 -65.6204 438.857 -68.6986 435.372C-74.3337 427.578 -80.7509 421.021 -87.8288 414.582C-94.9066 408.142 -102.506 402.528 -109.966 397.621C-113.826 395.374 -118.086 392.832 -122.207 390.998C-126.328 389.163 -130.849 387.033 -134.71 384.786C-143.091 380.41 -150.69 374.795 -158.289 369.181L-158.029 368.768C-150.43 374.383 -142.83 379.997 -134.188 383.961C-130.067 385.796 -125.946 387.63 -121.425 389.76C-117.304 391.594 -112.783 393.724 -108.923 395.971C-100.802 400.761 -93.2032 406.375 -86.1254 412.815C-78.7869 418.842 -72.2304 426.106 -66.3345 433.488C-60.4387 440.87 -53.8823 448.134 -46.5437 454.161C-39.2052 460.188 -31.8667 466.215 -23.7461 471.005C-19.8858 473.252 -15.3648 475.382 -11.2438 477.216C-7.12277 479.05 -3.00175 480.885 1.51921 483.015C10.1612 486.979 17.7604 492.593 25.3596 498.208C32.9589 503.822 40.0367 510.262 45.9325 517.644C49.0108 521.128 51.8283 525.025 54.9066 528.51C57.9849 531.994 60.8024 535.891 64.5413 539.259C71.3585 546.111 78.9577 551.726 86.5569 557.34C94.1562 562.954 102.537 567.331 111.04 570.588C119.543 573.844 127.663 578.633 135.523 583.835C143.123 589.45 150.722 595.064 157.539 601.916C160.878 604.988 164.356 608.768 167.174 612.665C170.252 616.15 173.07 620.047 176.148 623.532C181.522 631.738 188.6 638.178 195.939 644.205Z" fill="#26AAE1"/>
<path d="M203.711 634.551C196.112 628.936 188.774 622.909 182.217 615.645C179.139 612.16 175.661 608.38 172.843 604.483C169.765 600.998 166.687 597.514 162.948 594.146C155.87 587.707 148.931 581.975 141.071 576.773C133.211 571.571 125.23 567.49 116.988 563.821C112.867 561.987 108.346 559.857 104.225 558.022C99.9648 555.48 96.1045 553.233 92.1049 550.278C84.5056 544.664 76.9064 539.049 69.6893 531.902C65.9504 528.534 62.8721 525.049 60.0546 521.152C56.9763 517.668 54.1588 513.771 51.0805 510.286C44.924 503.317 37.8461 496.877 30.6469 491.558C23.0477 485.944 15.8484 480.625 7.60639 476.956C3.48537 475.122 -0.635649 473.287 -5.15661 471.157C-9.27763 469.323 -13.7986 467.193 -17.7982 464.238C-25.9187 459.449 -33.2573 453.422 -40.9958 447.099C-44.7347 443.732 -48.0736 440.66 -51.5519 436.88C-54.6301 433.395 -57.8477 429.202 -60.9259 425.718C-66.5611 417.924 -72.9783 411.367 -80.0561 404.928C-87.1339 398.488 -94.7332 392.874 -102.193 387.967C-106.053 385.72 -110.314 383.178 -114.435 381.343C-118.556 379.509 -123.077 377.379 -126.937 375.132C-135.318 370.755 -142.918 365.141 -150.517 359.526L-150.256 359.114C-142.657 364.728 -135.058 370.343 -126.416 374.307C-122.295 376.141 -118.174 377.976 -113.653 380.106C-109.532 381.94 -105.011 384.07 -101.15 386.317C-93.0298 391.106 -85.4305 396.721 -78.3527 403.16C-71.0141 409.187 -64.4577 416.452 -58.5619 423.834C-52.666 431.215 -46.1096 438.48 -38.771 444.507C-31.4325 450.534 -24.0939 456.561 -15.9734 461.35C-12.113 463.597 -7.59207 465.727 -3.47105 467.562C0.649938 469.396 4.77095 471.23 9.29192 473.36C17.9339 477.325 25.5331 482.939 33.1323 488.554C40.7316 494.168 47.8094 500.608 53.7052 507.989C56.7835 511.474 59.6011 515.371 62.6793 518.856C65.7576 522.34 68.5751 526.237 72.314 529.605C79.1312 536.457 86.7304 542.071 94.3296 547.686C101.929 553.3 110.31 557.677 118.813 560.933C127.316 564.19 135.436 568.979 143.296 574.181C150.895 579.795 158.494 585.41 165.312 592.262C168.651 595.334 172.129 599.114 174.946 603.011C178.025 606.496 180.842 610.393 183.92 613.877C189.295 622.084 196.373 628.524 203.711 634.551Z" fill="#26AAE1"/>
<path d="M211.086 624.601C203.487 618.987 196.148 612.96 189.592 605.695C186.513 602.211 183.035 598.431 180.218 594.533C177.139 591.049 174.061 587.564 170.322 584.197C163.244 577.757 156.306 572.026 148.446 566.824C140.586 561.622 132.605 557.541 124.363 553.872C120.242 552.037 115.721 549.907 111.6 548.073C107.339 545.531 103.479 543.284 99.4794 540.329C91.8802 534.714 84.2809 529.1 77.0638 521.952C73.3249 518.585 70.2466 515.1 67.4291 511.203C64.3508 507.718 61.5333 503.821 58.455 500.337C52.2985 493.368 45.2207 486.928 38.0214 481.609C30.4222 475.995 23.2229 470.676 14.9809 467.007C10.8599 465.172 6.73886 463.338 2.2179 461.208C-1.90311 459.374 -6.42405 457.244 -10.4237 454.289C-18.5442 449.499 -25.8828 443.472 -33.6213 437.15C-37.3602 433.782 -40.6991 430.71 -44.1773 426.93C-47.2556 423.446 -50.4732 419.253 -53.5514 415.769C-59.1866 407.974 -65.6038 401.418 -72.6816 394.978C-79.7594 388.539 -87.3587 382.924 -94.8186 378.018C-98.6789 375.771 -102.939 373.228 -107.06 371.394C-111.181 369.56 -115.702 367.43 -119.563 365.183C-127.944 360.806 -135.543 355.191 -143.142 349.577L-142.882 349.164C-135.282 354.779 -127.683 360.393 -119.041 364.358C-114.92 366.192 -110.799 368.026 -106.278 370.156C-102.157 371.991 -97.6362 374.121 -93.7759 376.368C-85.6553 381.157 -78.056 386.771 -70.9782 393.211C-63.6396 399.238 -57.0832 406.503 -51.1873 413.884C-45.2915 421.266 -38.735 428.531 -31.3965 434.558C-24.058 440.585 -16.7194 446.612 -8.59885 451.401C-4.73852 453.648 -0.217559 455.778 3.90346 457.612C8.02445 459.447 12.1455 461.281 16.6664 463.411C25.3084 467.375 32.9076 472.99 40.5068 478.604C48.1061 484.219 55.1839 490.658 61.0797 498.04C64.158 501.524 66.9756 505.422 70.0538 508.906C73.1321 512.391 75.9496 516.288 79.6885 519.655C86.5057 526.507 94.1049 532.122 101.704 537.736C109.303 543.351 117.685 547.728 126.187 550.984C134.69 554.24 142.811 559.03 150.671 564.232C158.27 569.846 165.869 575.46 172.686 582.313C176.025 585.385 179.503 589.165 182.321 593.062C185.399 596.546 188.217 600.443 191.295 603.928C197.069 612.43 204.147 618.87 211.086 624.601Z" fill="#26AAE1"/>
<path d="M218.86 614.947C211.261 609.333 203.922 603.306 197.366 596.041C194.288 592.557 190.809 588.777 187.992 584.88C184.914 581.395 181.835 577.91 178.096 574.543C171.019 568.103 164.08 562.372 156.22 557.17C148.36 551.968 140.379 547.887 132.137 544.218C128.016 542.383 123.495 540.254 119.374 538.419C115.114 535.877 111.253 533.63 107.254 530.675C99.6545 525.06 92.0552 519.446 84.8381 512.298C81.0992 508.931 78.0209 505.446 75.2034 501.549C72.1251 498.064 69.3076 494.167 66.2293 490.683C60.0728 483.714 52.9949 477.274 45.7957 471.955C38.1964 466.341 30.9972 461.022 22.7552 457.353C18.6342 455.518 14.5132 453.684 9.99219 451.554C5.87118 449.72 1.35022 447.59 -2.64937 444.635C-10.77 439.846 -18.1085 433.819 -25.847 427.496C-29.5859 424.128 -32.9248 421.056 -36.4031 417.276C-39.4813 413.792 -42.6988 409.599 -45.7771 406.115C-51.4122 398.32 -57.8294 391.764 -64.9073 385.324C-71.9851 378.885 -79.5844 373.27 -87.0443 368.364C-90.9046 366.117 -95.1649 363.574 -99.2859 361.74C-103.407 359.906 -107.928 357.776 -111.788 355.529C-120.17 351.152 -127.769 345.538 -135.368 339.923L-135.107 339.511C-127.508 345.125 -119.909 350.739 -111.267 354.704C-107.146 356.538 -103.025 358.373 -98.5038 360.502C-94.3828 362.337 -89.8619 364.467 -86.0016 366.714C-77.881 371.503 -70.2817 377.118 -63.2039 383.557C-55.8653 389.584 -49.3089 396.849 -43.413 404.23C-37.5172 411.612 -30.9608 418.877 -23.6222 424.904C-16.2837 430.931 -8.94516 436.958 -0.824557 441.747C3.03575 443.994 7.55671 446.124 11.6777 447.958C15.7987 449.793 19.9198 451.627 24.4407 453.757C33.0827 457.721 40.6819 463.336 48.2811 468.95C55.8803 474.565 62.9582 481.004 68.854 488.386C71.9323 491.871 74.7499 495.768 77.8281 499.252C80.9064 502.737 83.7239 506.634 87.4628 510.001C94.28 516.854 101.879 522.468 109.478 528.082C117.078 533.697 125.459 538.074 133.962 541.33C142.464 544.586 150.585 549.376 158.445 554.578C166.044 560.192 173.643 565.807 180.46 572.659C183.799 575.731 187.278 579.511 190.095 583.408C193.173 586.892 195.991 590.79 199.069 594.274C204.444 602.481 211.522 608.92 218.86 614.947Z" fill="#26AAE1"/>
<path d="M226.634 605.294C219.034 599.679 211.696 593.652 205.139 586.387C202.061 582.903 198.583 579.123 195.765 575.226C192.687 571.741 189.609 568.257 185.87 564.889C178.792 558.45 171.853 552.718 163.994 547.516C156.134 542.314 148.152 538.233 139.91 534.564C135.789 532.73 131.268 530.6 127.147 528.765C122.887 526.223 119.027 523.976 115.027 521.021C107.428 515.406 99.8287 509.792 92.6115 502.644C88.8726 499.277 85.7944 495.792 82.9768 491.895C79.8986 488.411 77.081 484.514 74.0027 481.029C67.8462 474.06 60.7684 467.62 53.5691 462.301C45.9699 456.687 38.7706 451.368 30.5286 447.699C26.4076 445.865 22.2866 444.03 17.7656 441.9C13.6446 440.066 9.12368 437.936 5.12407 434.981C-2.99651 430.192 -10.3351 424.165 -18.0736 417.842C-21.8125 414.475 -25.1514 411.403 -28.6296 407.623C-31.7079 404.138 -34.9254 399.945 -38.0036 396.461C-43.6388 388.667 -50.056 382.11 -57.1338 375.671C-64.2117 369.231 -71.8109 363.616 -79.2709 358.71C-83.1312 356.463 -87.3915 353.921 -91.5125 352.086C-95.6335 350.252 -100.154 348.122 -104.015 345.875C-112.396 341.498 -119.995 335.884 -127.594 330.269L-127.334 329.857C-119.735 335.471 -112.135 341.086 -103.493 345.05C-99.3724 346.884 -95.2514 348.719 -90.7304 350.849C-86.6094 352.683 -82.0884 354.813 -78.2281 357.06C-70.1075 361.849 -62.5083 367.464 -55.4304 373.903C-48.0919 379.93 -41.5355 387.195 -35.6396 394.577C-29.7438 401.958 -23.1873 409.223 -15.8488 415.25C-8.51024 421.277 -1.1717 427.304 6.94888 432.093C10.8092 434.34 15.3302 436.47 19.4512 438.305C23.5722 440.139 27.6932 441.973 32.2142 444.103C40.8561 448.068 48.4553 453.682 56.0546 459.297C63.6538 464.911 70.7316 471.351 76.6275 478.732C79.7057 482.217 82.5233 486.114 85.6015 489.598C88.6798 493.083 91.4974 496.98 95.2363 500.348C102.053 507.2 109.653 512.814 117.252 518.429C124.851 524.043 133.232 528.42 141.735 531.676C150.238 534.932 158.358 539.722 166.218 544.924C173.818 550.538 181.417 556.153 188.234 563.005C191.573 566.077 195.051 569.857 197.869 573.754C200.947 577.239 203.764 581.136 206.843 584.62C212.217 592.827 219.295 599.267 226.634 605.294Z" fill="#26AAE1"/>
<path d="M234.008 595.344C226.408 589.729 219.07 583.702 212.513 576.438C209.435 572.953 205.957 569.173 203.139 565.276C200.061 561.791 196.983 558.307 193.244 554.939C186.166 548.5 179.227 542.768 171.368 537.566C163.508 532.364 155.526 528.283 147.284 524.614C143.163 522.78 138.642 520.65 134.521 518.815C130.261 516.273 126.401 514.026 122.401 511.071C114.802 505.457 107.203 499.842 99.9856 492.695C96.2467 489.327 93.1684 485.843 90.3508 481.945C87.2726 478.461 84.455 474.564 81.3767 471.079C75.2202 464.11 68.1424 457.67 60.9431 452.351C53.3439 446.737 46.1446 441.418 37.9026 437.749C33.7816 435.915 29.6606 434.08 25.1397 431.951C21.0186 430.116 16.4977 427.986 12.4981 425.031C4.37752 420.242 -2.96105 414.215 -10.6995 407.892C-14.4384 404.525 -17.7774 401.453 -21.2556 397.673C-24.3339 394.188 -27.5514 389.996 -30.6296 386.511C-36.2648 378.717 -42.682 372.16 -49.7598 365.721C-56.8377 359.281 -64.4369 353.667 -71.8968 348.76C-75.7572 346.513 -80.0174 343.971 -84.1384 342.136C-88.2594 340.302 -92.7804 338.172 -96.6408 335.925C-105.022 331.548 -112.621 325.934 -120.22 320.319L-119.96 319.907C-112.361 325.521 -104.761 331.136 -96.1194 335.1C-91.9984 336.935 -87.8773 338.769 -83.3564 340.899C-79.2354 342.733 -74.7144 344.863 -70.8541 347.11C-62.7335 351.899 -55.1343 357.514 -48.0564 363.953C-40.7179 369.98 -34.1614 377.245 -28.2656 384.627C-22.3698 392.008 -15.8133 399.273 -8.47475 405.3C-1.13621 411.327 6.20233 417.354 14.3229 422.143C18.1832 424.39 22.7042 426.52 26.8252 428.355C30.9462 430.189 35.0672 432.024 39.5882 434.153C48.2302 438.118 55.8294 443.732 63.4286 449.347C71.0278 454.961 78.1057 461.401 84.0015 468.782C87.0797 472.267 89.8973 476.164 92.9756 479.649C96.0538 483.133 98.8714 487.03 102.61 490.398C109.427 497.25 117.027 502.864 124.626 508.479C132.225 514.093 140.606 518.47 149.109 521.726C157.612 524.983 165.732 529.772 173.592 534.974C181.192 540.588 188.791 546.203 195.608 553.055C198.947 556.127 202.425 559.907 205.243 563.804C208.321 567.289 211.138 571.186 214.217 574.67C219.591 582.877 226.93 588.904 234.008 595.344Z" fill="#26AAE1"/>
<path d="M242.076 585.292C234.477 579.678 227.139 573.651 220.582 566.386C217.504 562.902 214.026 559.122 211.208 555.225C208.13 551.74 205.052 548.256 201.313 544.888C194.235 538.448 187.296 532.717 179.436 527.515C171.576 522.313 163.595 518.232 155.353 514.563C151.232 512.729 146.711 510.599 142.59 508.764C138.33 506.222 134.47 503.975 130.47 501.02C122.871 495.405 115.272 489.791 108.054 482.643C104.316 479.276 101.237 475.791 98.4197 471.894C95.3414 468.41 92.5239 464.512 89.4456 461.028C83.2891 454.059 76.2113 447.619 69.012 442.3C61.4128 436.686 54.2135 431.367 45.9715 427.698C41.8505 425.864 37.7295 424.029 33.2085 421.899C29.0875 420.065 24.5665 417.935 20.5669 414.98C12.4464 410.191 5.10782 404.164 -2.63069 397.841C-6.36959 394.474 -9.70851 391.402 -13.1867 387.622C-16.265 384.137 -19.4825 379.944 -22.5608 376.46C-28.1959 368.666 -34.6131 362.109 -41.691 355.669C-48.7688 349.23 -56.368 343.615 -63.828 338.709C-67.6883 336.462 -71.9486 333.92 -76.0696 332.085C-80.1906 330.251 -84.7116 328.121 -88.5719 325.874C-96.9531 321.497 -104.552 315.883 -112.152 310.268L-111.891 309.856C-104.292 315.47 -96.6925 321.085 -88.0505 325.049C-83.9295 326.883 -79.8085 328.718 -75.2875 330.848C-71.1665 332.682 -66.6456 334.812 -62.7852 337.059C-54.6646 341.848 -47.0654 347.463 -39.9876 353.902C-32.649 359.929 -26.0926 367.194 -20.1967 374.576C-14.3009 381.957 -7.74444 389.222 -0.405904 395.249C6.93263 401.276 14.2712 407.303 22.3918 412.092C26.2521 414.339 30.773 416.469 34.8941 418.303C39.015 420.138 43.1361 421.972 47.657 424.102C56.299 428.066 63.8982 433.681 71.4974 439.295C79.0967 444.91 86.1745 451.349 92.0703 458.731C95.1486 462.216 97.9662 466.113 101.044 469.597C104.123 473.082 106.94 476.979 110.679 480.347C117.496 487.199 125.096 492.813 132.695 498.428C140.294 504.042 148.675 508.419 157.178 511.675C165.681 514.931 173.801 519.721 181.661 524.923C189.26 530.537 196.86 536.152 203.677 543.004C207.016 546.076 210.494 549.856 213.311 553.753C215.208 558.18 218.025 562.077 221.504 565.857C227.399 573.238 234.738 579.265 242.076 585.292Z" fill="#26AAE1"/>
<path d="M249.451 575.343C241.851 569.728 234.513 563.701 227.956 556.437C224.878 552.952 221.4 549.172 218.582 545.275C215.504 541.79 212.426 538.306 208.687 534.938C201.609 528.499 194.671 522.767 186.811 517.565C178.951 512.363 170.969 508.282 162.727 504.613C158.606 502.779 154.085 500.649 149.964 498.815C145.704 496.272 141.844 494.025 137.844 491.07C130.245 485.456 122.646 479.841 115.429 472.694C111.69 469.326 108.612 465.842 105.794 461.944C102.716 458.46 99.8981 454.563 96.8199 451.078C90.6634 444.109 83.5855 437.67 76.3863 432.351C68.787 426.736 61.5878 421.417 53.3458 417.748C49.2247 415.914 45.1038 414.079 40.5828 411.95C36.4618 410.115 31.9408 407.985 27.9412 405.03C19.8206 400.241 12.4821 394.214 4.74358 387.891C1.00468 384.524 -2.33424 381.452 -5.81245 377.672C-8.89072 374.187 -12.1083 369.995 -15.1865 366.51C-20.8216 358.716 -27.2389 352.159 -34.3167 345.72C-41.3945 339.28 -48.9938 333.666 -56.4537 328.759C-60.314 326.512 -64.5743 323.97 -68.6953 322.135C-72.8163 320.301 -77.3373 318.171 -81.1976 315.924C-89.5789 311.547 -97.1781 305.933 -104.777 300.318L-104.517 299.906C-96.9174 305.52 -89.3182 311.135 -80.6762 315.099C-76.5552 316.934 -72.4342 318.768 -67.9133 320.898C-63.7923 322.732 -59.2713 324.862 -55.411 327.109C-47.2904 331.898 -39.6912 337.513 -32.6133 343.952C-25.2748 349.979 -18.7183 357.244 -12.8225 364.626C-6.92665 372.007 -0.370175 379.272 6.96836 385.299C14.3069 391.326 21.6454 397.353 29.766 402.143C33.6263 404.389 38.1473 406.519 42.2683 408.354C46.3893 410.188 50.5103 412.023 55.0313 414.152C63.6733 418.117 71.2725 423.731 78.8717 429.346C86.4709 434.96 93.5488 441.4 99.4446 448.781C102.523 452.266 105.34 456.163 108.419 459.648C111.497 463.132 114.315 467.029 118.053 470.397C124.871 477.249 132.47 482.863 140.069 488.478C147.668 494.092 156.05 498.469 164.552 501.725C172.273 506.219 180.654 510.596 188.253 516.211C195.853 521.825 203.452 527.44 210.269 534.292C213.608 537.364 217.086 541.144 219.904 545.041C222.982 548.525 225.8 552.423 228.878 555.907C235.174 563.584 242.512 569.611 249.451 575.343Z" fill="#26AAE1"/>
<path d="M257.225 565.689C249.626 560.074 242.287 554.047 235.731 546.782C232.653 543.298 229.174 539.518 226.357 535.621C223.279 532.136 220.2 528.652 216.461 525.284C209.384 518.845 202.445 513.113 194.585 507.911C186.725 502.709 178.744 498.628 170.502 494.959C166.381 493.125 161.86 490.995 157.739 489.16C153.479 486.618 149.618 484.371 145.619 481.416C138.019 475.802 130.42 470.187 123.203 463.039C119.464 459.672 116.386 456.187 113.568 452.29C110.49 448.806 107.673 444.909 104.594 441.424C98.4378 434.455 91.3599 428.015 84.1607 422.696C76.5614 417.082 69.3622 411.763 61.1202 408.094C56.9992 406.26 52.8781 404.425 48.3572 402.295C44.2362 400.461 39.7152 398.331 35.7156 395.376C27.595 390.587 20.2565 384.56 12.518 378.237C8.7791 374.87 5.44017 371.798 1.96196 368.018C-1.11631 364.533 -4.33385 360.34 -7.41209 356.856C-13.0472 349.062 -19.4644 342.505 -26.5423 336.066C-33.6201 329.626 -41.2194 324.012 -48.6793 319.105C-52.5396 316.858 -56.7999 314.316 -60.9209 312.481C-65.0419 310.647 -69.5629 308.517 -73.4232 306.27C-81.8045 301.893 -89.4037 296.279 -97.0029 290.664L-96.7423 290.252C-89.143 295.866 -81.5438 301.481 -72.9018 305.445C-68.7808 307.279 -64.6598 309.114 -60.1389 311.244C-56.0178 313.078 -51.4969 315.208 -47.6366 317.455C-39.5159 322.244 -31.9167 327.859 -24.8389 334.298C-17.5004 340.325 -10.9439 347.59 -5.04803 354.972C0.847786 362.353 7.40424 369.618 14.7428 375.645C22.0813 381.672 29.4198 387.699 37.5404 392.488C41.4007 394.735 45.9217 396.865 50.0427 398.7C54.1637 400.534 58.2847 402.368 62.8057 404.498C71.4477 408.463 79.0469 414.077 86.6461 419.692C94.2454 425.306 101.323 431.746 107.219 439.127C110.297 442.612 113.115 446.509 116.193 449.993C119.271 453.478 122.089 457.375 125.828 460.743C132.645 467.595 140.244 473.209 147.843 478.824C155.443 484.438 163.824 488.815 172.327 492.071C180.829 495.328 188.95 500.117 196.81 505.319C204.409 510.933 212.008 516.548 218.825 523.4C222.164 526.472 225.643 530.252 228.46 534.149C231.538 537.634 234.356 541.531 237.434 545.015C242.809 553.222 249.887 559.662 257.225 565.689Z" fill="#26AAE1"/>
<path d="M264.997 556.034C257.397 550.42 250.059 544.393 243.502 537.128C240.424 533.644 236.946 529.863 234.128 525.966C231.05 522.482 227.972 518.997 224.233 515.63C217.155 509.19 210.216 503.459 202.357 498.257C194.497 493.055 186.515 488.973 178.273 485.305C174.152 483.47 169.631 481.34 165.51 479.506C161.25 476.963 157.39 474.717 153.39 471.762C145.791 466.147 138.192 460.533 130.975 453.385C127.236 450.018 124.157 446.533 121.34 442.636C118.262 439.151 115.444 435.254 112.366 431.77C106.209 424.8 99.1314 418.361 91.9322 413.042C84.3329 407.427 77.1337 402.109 68.8917 398.44C64.7706 396.605 60.6496 394.771 56.1287 392.641C52.0077 390.807 47.4867 388.677 43.4871 385.722C35.3665 380.932 28.028 374.905 20.2895 368.583C16.5506 365.215 13.2116 362.143 9.73342 358.363C6.65515 354.879 3.43761 350.686 0.359368 347.201C-5.27579 339.407 -11.693 332.851 -18.7708 326.411C-25.8487 319.972 -33.4479 314.357 -40.9078 309.451C-44.7682 307.204 -49.0284 304.661 -53.1494 302.827C-57.2704 300.992 -61.7914 298.863 -65.6517 296.616C-74.033 292.239 -81.6322 286.624 -89.2315 281.01L-88.9708 280.597C-81.3715 286.212 -73.7723 291.826 -65.1304 295.791C-61.0093 297.625 -56.8883 299.459 -52.3674 301.589C-48.2464 303.424 -43.7254 305.554 -39.8651 307.8C-31.7445 312.59 -24.1453 318.204 -17.0674 324.644C-9.72887 330.671 -3.17242 337.936 2.72343 345.317C8.61925 352.699 15.1757 359.964 22.5143 365.991C29.8528 372.018 37.1913 378.045 45.3119 382.834C49.1722 385.081 53.6932 387.211 57.8142 389.045C61.9352 390.88 66.0562 392.714 70.5772 394.844C79.2192 398.808 86.8184 404.423 94.4176 410.037C102.017 415.652 109.095 422.091 114.99 429.473C118.069 432.957 120.886 436.854 123.965 440.339C127.043 443.824 129.86 447.721 133.599 451.088C140.416 457.94 148.016 463.555 155.615 469.169C163.214 474.784 171.595 479.161 180.098 482.417C187.419 486.615 195.8 490.992 203.399 496.607C210.999 502.221 218.598 507.835 225.415 514.688C228.754 517.76 232.232 521.54 235.05 525.437C238.128 528.921 240.945 532.818 244.024 536.303C250.58 543.568 257.658 550.007 264.997 556.034Z" fill="#26AAE1"/>
<path d="M272.373 546.085C264.774 540.471 257.435 534.444 250.879 527.179C247.8 523.694 244.322 519.914 241.505 516.017C238.426 512.533 235.348 509.048 231.609 505.681C224.531 499.241 217.593 493.51 209.733 488.308C201.873 483.106 193.892 479.024 185.65 475.356C181.529 473.521 177.008 471.391 172.887 469.557C168.626 467.014 164.766 464.767 160.766 461.812C153.167 456.198 145.568 450.584 138.351 443.436C134.612 440.068 131.534 436.584 128.716 432.687C125.638 429.202 122.82 425.305 119.742 421.821C113.586 414.851 106.508 408.412 99.3085 403.093C91.7093 397.478 84.51 392.159 76.268 388.491C72.147 386.656 68.026 384.822 63.505 382.692C59.384 380.857 54.8631 378.728 50.8634 375.773C42.7429 370.983 35.4043 364.956 27.6658 358.634C23.9269 355.266 20.588 352.194 17.1098 348.414C14.0315 344.93 10.814 340.737 7.73571 337.252C2.10055 329.458 -4.31665 322.902 -11.3945 316.462C-18.4723 310.022 -26.0716 304.408 -33.5315 299.502C-37.3918 297.255 -41.6521 294.712 -45.7731 292.878C-49.8941 291.043 -54.4151 288.913 -58.2754 286.667C-66.6567 282.29 -74.2559 276.675 -81.8551 271.061L-81.5944 270.648C-73.9952 276.263 -66.396 281.877 -57.754 285.841C-53.633 287.676 -49.512 289.51 -44.991 291.64C-40.87 293.475 -36.3491 295.604 -32.4887 297.851C-24.3681 302.641 -16.7689 308.255 -9.69107 314.695C-2.35253 320.722 4.20392 327.986 10.0998 335.368C15.9956 342.75 22.5521 350.014 29.8906 356.041C37.2291 362.068 44.5677 368.095 52.6883 372.885C56.5486 375.132 61.0696 377.262 65.1906 379.096C69.3116 380.93 73.4326 382.765 77.9535 384.895C86.5955 388.859 94.1947 394.474 101.794 400.088C109.393 405.702 116.471 412.142 122.367 419.524C125.445 423.008 128.263 426.905 131.341 430.39C134.419 433.875 137.237 437.772 140.976 441.139C147.271 448.816 154.871 454.431 162.47 460.045C170.069 465.66 178.45 470.037 186.953 473.293C195.456 476.549 203.576 481.338 211.436 486.54C219.036 492.155 226.635 497.769 233.452 504.621C236.791 507.693 240.269 511.473 243.087 515.371C246.165 518.855 248.982 522.752 252.061 526.237C257.957 533.619 265.034 540.058 272.373 546.085Z" fill="#26AAE1"/>
<path d="M280.149 536.432C272.55 530.818 265.211 524.791 258.655 517.526C255.576 514.042 252.098 510.262 249.281 506.365C246.202 502.88 243.124 499.396 239.385 496.028C232.307 489.588 225.369 483.857 217.509 478.655C209.649 473.453 201.668 469.372 193.426 465.703C189.305 463.869 184.784 461.739 180.663 459.904C176.402 457.362 172.542 455.115 168.542 452.16C160.943 446.545 153.344 440.931 146.127 433.783C142.388 430.416 139.31 426.931 136.492 423.034C133.414 419.55 130.596 415.652 127.518 412.168C121.362 405.199 114.284 398.759 107.084 393.44C99.4853 387.826 92.286 382.507 84.044 378.838C79.923 377.004 75.802 375.169 71.281 373.039C67.16 371.205 62.639 369.075 58.6394 366.12C50.5188 361.331 43.1803 355.304 35.4418 348.981C31.7029 345.614 28.364 342.542 24.8858 338.762C21.8075 335.277 18.59 331.084 15.5117 327.6C9.8766 319.806 3.45938 313.249 -3.61845 306.809C-10.6963 300.37 -18.2956 294.755 -25.7555 289.849C-29.6158 287.602 -33.8761 285.06 -37.9971 283.225C-42.1181 281.391 -46.6391 279.261 -50.4994 277.014C-58.8807 272.637 -66.4799 267.023 -74.0791 261.408L-73.8184 260.996C-66.2192 266.61 -58.62 272.225 -49.978 276.189C-45.857 278.023 -41.736 279.858 -37.215 281.988C-33.094 283.822 -28.5731 285.952 -24.7127 288.199C-16.5921 292.988 -8.99292 298.603 -1.91507 305.042C5.42347 311.069 11.9799 318.334 17.8758 325.716C23.7716 333.097 30.328 340.362 37.6666 346.389C45.0051 352.416 52.3437 358.443 60.4643 363.232C64.3246 365.479 68.8455 367.609 72.9665 369.443C77.0876 371.278 81.2086 373.112 85.7295 375.242C94.3715 379.206 101.971 384.821 109.57 390.435C117.169 396.05 124.247 402.489 130.143 409.871C133.221 413.356 136.039 417.253 139.117 420.737C142.195 424.222 145.013 428.119 148.752 431.487C155.569 438.339 163.168 443.953 170.767 449.568C178.366 455.182 186.748 459.559 195.25 462.815C203.753 466.071 211.874 470.861 219.734 476.063C227.333 481.677 234.932 487.292 241.749 494.144C245.088 497.216 248.566 500.996 251.384 504.893C254.462 508.378 257.28 512.275 260.358 515.759C265.733 523.966 272.81 530.405 280.149 536.432Z" fill="#26AAE1"/>
<path d="M287.524 526.483C279.925 520.869 272.586 514.842 266.03 507.577C262.952 504.093 259.473 500.313 256.656 496.415C253.578 492.931 250.499 489.446 246.76 486.079C239.683 479.639 232.744 473.908 224.884 468.706C217.024 463.504 209.043 459.423 200.801 455.754C196.68 453.919 192.159 451.789 188.038 449.955C183.778 447.413 179.917 445.166 175.918 442.211C168.318 436.596 160.719 430.982 153.502 423.834C149.763 420.467 146.685 416.982 143.867 413.085C140.789 409.6 137.971 405.703 134.893 402.219C128.737 395.25 121.659 388.81 114.46 383.491C106.86 377.877 99.6611 372.558 91.4191 368.889C87.2981 367.054 83.1771 365.22 78.6561 363.09C74.5351 361.256 70.0142 359.126 66.0146 356.171C57.894 351.381 50.5554 345.354 42.8169 339.032C39.078 335.664 35.7391 332.592 32.2609 328.812C29.1826 325.328 25.9651 321.135 22.8869 317.651C17.2517 309.856 10.8345 303.3 3.75667 296.86C-3.32118 290.421 -10.9204 284.806 -18.3804 279.9C-22.2407 277.653 -26.501 275.11 -30.622 273.276C-34.743 271.442 -39.2639 269.312 -43.1243 267.065C-51.5056 262.688 -59.1048 257.073 -66.704 251.459L-66.4433 251.046C-58.8441 256.661 -51.2449 262.275 -42.6029 266.24C-38.4819 268.074 -34.3609 269.908 -29.8399 272.038C-25.7189 273.873 -21.198 276.003 -17.3376 278.25C-9.21702 283.039 -1.6178 288.653 5.46005 295.093C12.7986 301.12 19.355 308.385 25.2509 315.766C31.1467 323.148 37.7032 330.413 45.0417 336.44C52.3802 342.467 59.7188 348.494 67.8394 353.283C71.6997 355.53 76.2206 357.66 80.3417 359.494C84.4627 361.329 88.5837 363.163 93.1047 365.293C101.747 369.257 109.346 374.872 116.945 380.486C124.544 386.101 131.622 392.54 137.518 399.922C140.596 403.406 143.414 407.304 146.492 410.788C149.57 414.273 152.388 418.17 156.127 421.537C162.423 429.215 170.022 434.829 177.621 440.443C185.22 446.058 193.602 450.435 202.104 453.691C210.607 456.947 218.728 461.737 226.587 466.939C234.187 472.553 241.786 478.168 248.603 485.02C251.942 488.092 255.42 491.872 258.238 495.769C261.316 499.253 264.134 503.15 267.212 506.635C273.508 514.312 280.186 520.456 287.524 526.483Z" fill="#26AAE1"/>
<path d="M295.294 516.828C287.695 511.213 280.356 505.186 273.8 497.921C270.722 494.437 267.243 490.657 264.426 486.76C261.348 483.275 258.269 479.791 254.53 476.423C247.453 469.983 240.514 464.252 232.654 459.05C224.794 453.848 216.813 449.767 208.571 446.098C204.45 444.264 199.929 442.134 195.808 440.299C191.548 437.757 187.687 435.51 183.688 432.555C176.088 426.94 168.489 421.326 161.272 414.178C157.533 410.811 154.455 407.326 151.637 403.429C148.559 399.945 145.742 396.047 142.663 392.563C136.507 385.594 129.429 379.154 122.23 373.835C114.63 368.221 107.431 362.902 99.1891 359.233C95.0681 357.399 90.9471 355.564 86.4262 353.434C82.3051 351.6 77.7842 349.47 73.7846 346.515C65.664 341.726 58.3254 335.699 50.587 329.376C46.8481 326.009 43.5091 322.937 40.0309 319.157C36.9526 315.672 33.7351 311.479 30.6569 307.995C25.0217 300.201 18.6045 293.644 11.5267 287.204C4.44884 280.765 -3.15039 275.15 -10.6103 270.244C-14.4707 267.997 -18.7309 265.455 -22.8519 263.62C-26.9729 261.786 -31.4939 259.656 -35.3543 257.409C-43.7355 253.032 -51.3347 247.418 -58.934 241.803L-58.6733 241.391C-51.0741 247.005 -43.4749 252.62 -34.8329 256.584C-30.7119 258.418 -26.5908 260.253 -22.0699 262.383C-17.9489 264.217 -13.4279 266.347 -9.56758 268.594C-1.44698 273.383 6.15222 278.998 13.2301 285.437C20.5686 291.464 27.1251 298.729 33.0209 306.111C38.9167 313.492 45.4732 320.757 52.8117 326.784C60.1503 332.811 67.4888 338.838 75.6094 343.627C79.4697 345.874 83.9907 348.004 88.1117 349.839C92.2327 351.673 96.3537 353.507 100.875 355.637C109.517 359.602 117.116 365.216 124.715 370.83C132.314 376.445 139.392 382.884 145.288 390.266C148.366 393.751 151.184 397.648 154.262 401.132C157.34 404.617 160.158 408.514 163.897 411.882C170.714 418.734 178.313 424.348 185.912 429.963C193.512 435.577 201.893 439.954 210.396 443.21C218.898 446.466 227.019 451.256 234.879 456.458C242.478 462.072 250.077 467.687 256.894 474.539C260.233 477.611 263.712 481.391 266.529 485.288C269.607 488.773 272.425 492.67 275.503 496.154C280.878 504.361 288.216 510.388 295.294 516.828Z" fill="#26AAE1"/>
<path d="M303.364 506.776C295.765 501.162 288.426 495.135 281.87 487.87C278.791 484.386 275.313 480.606 272.496 476.708C269.417 473.224 266.339 469.739 262.6 466.372C255.522 459.932 248.584 454.201 240.724 448.999C232.864 443.797 224.883 439.715 216.641 436.047C212.52 434.212 207.999 432.082 203.878 430.248C199.617 427.706 195.757 425.459 191.757 422.504C184.158 416.889 176.559 411.275 169.342 404.127C165.603 400.76 162.525 397.275 159.707 393.378C156.629 389.893 153.811 385.996 150.733 382.512C144.576 375.543 137.499 369.103 130.299 363.784C122.7 358.17 115.501 352.851 107.259 349.182C103.138 347.347 99.0168 345.513 94.4959 343.383C90.3749 341.549 85.8539 339.419 81.8543 336.464C73.7337 331.674 66.3952 325.647 58.6567 319.325C54.9178 315.957 51.5788 312.885 48.1006 309.105C45.0224 305.621 41.8048 301.428 38.7266 297.944C33.0914 290.149 26.6742 283.593 19.5964 277.153C12.5185 270.714 4.91932 265.099 -2.54062 260.193C-6.40095 257.946 -10.6612 255.403 -14.7822 253.569C-18.9032 251.735 -23.4242 249.605 -27.2845 247.358C-35.6658 242.981 -43.265 237.366 -50.8643 231.752L-50.6036 231.339C-43.0044 236.954 -35.4051 242.568 -26.7631 246.533C-22.6421 248.367 -18.5211 250.201 -14.0002 252.331C-9.87917 254.166 -5.35821 256.296 -1.49788 258.543C6.62272 263.332 14.2219 268.946 21.2998 275.386C28.6383 281.413 35.1948 288.678 41.0906 296.059C46.9864 303.441 53.5429 310.706 60.8814 316.733C68.22 322.76 75.5585 328.787 83.6791 333.576C87.5394 335.823 92.0604 337.953 96.1814 339.787C100.302 341.622 104.423 343.456 108.944 345.586C117.586 349.55 125.186 355.165 132.785 360.779C140.384 366.394 147.462 372.833 153.358 380.215C156.436 383.699 159.254 387.597 162.332 391.081C165.41 394.566 168.228 398.463 171.967 401.83C178.784 408.682 186.383 414.297 193.982 419.911C201.581 425.526 209.963 429.903 218.465 433.159C226.968 436.415 235.089 441.205 242.949 446.406C250.548 452.021 258.147 457.635 264.964 464.487C268.303 467.56 271.781 471.34 274.599 475.237C277.677 478.721 280.495 482.618 283.573 486.103C288.687 494.722 296.025 500.749 303.364 506.776Z" fill="#26AAE1"/>
<path d="M310.737 496.827C303.138 491.212 295.8 485.185 289.243 477.921C286.165 474.436 282.687 470.656 279.869 466.759C276.791 463.274 273.713 459.79 269.974 456.422C262.896 449.983 255.957 444.251 248.097 439.049C240.238 433.847 232.256 429.766 224.014 426.097C219.893 424.263 215.372 422.133 211.251 420.299C206.991 417.756 203.131 415.509 199.131 412.554C191.532 406.94 183.933 401.325 176.715 394.178C172.977 390.81 169.898 387.326 167.081 383.428C164.002 379.944 161.185 376.047 158.107 372.562C151.95 365.593 144.872 359.154 137.673 353.835C130.074 348.22 122.875 342.901 114.633 339.232C110.511 337.398 106.39 335.564 101.87 333.434C97.7485 331.599 93.2276 329.469 89.228 326.514C81.1074 321.725 73.7688 315.698 66.0303 309.375C62.2914 306.008 58.9525 302.936 55.4743 299.156C52.396 295.671 49.1785 291.479 46.1002 287.994C40.4651 280.2 34.0479 273.643 26.9701 267.204C19.8922 260.764 12.293 255.15 4.83303 250.243C0.972705 247.996 -3.28757 245.454 -7.40859 243.619C-11.5296 241.785 -16.0505 239.655 -19.9108 237.408C-28.2921 233.031 -35.8914 227.417 -43.4906 221.802L-43.2299 221.39C-35.6307 227.004 -28.0314 232.619 -19.3895 236.583C-15.2685 238.418 -11.1475 240.252 -6.62653 242.382C-2.50551 244.216 2.01545 246.346 5.87578 248.593C13.9964 253.382 21.5956 258.997 28.6734 265.436C36.012 271.464 42.5684 278.728 48.4643 286.11C54.3601 293.491 60.9166 300.756 68.2551 306.783C75.5936 312.81 82.9322 318.837 91.0528 323.627C94.9131 325.873 99.4341 328.003 103.555 329.838C107.676 331.672 111.797 333.507 116.318 335.636C124.96 339.601 132.559 345.215 140.158 350.83C147.758 356.444 154.836 362.884 160.731 370.265C163.81 373.75 166.627 377.647 169.705 381.132C172.784 384.616 175.601 388.513 179.34 391.881C186.157 398.733 193.757 404.347 201.356 409.962C208.955 415.576 217.336 419.953 225.839 423.209C234.342 426.466 242.462 431.255 250.322 436.457C257.921 442.071 265.521 447.686 272.338 454.538C275.677 457.61 279.155 461.39 281.973 465.287C285.051 468.772 287.868 472.669 290.947 476.153C296.321 484.36 303.399 490.8 310.737 496.827Z" fill="#26AAE1"/>
<path d="M318.514 487.173C310.915 481.559 303.576 475.532 297.02 468.267C293.942 464.783 290.463 461.002 287.646 457.105C284.568 453.621 281.489 450.136 277.75 446.769C270.673 440.329 263.734 434.598 255.874 429.396C248.014 424.194 240.033 420.112 231.791 416.444C227.67 414.609 223.149 412.479 219.028 410.645C214.768 408.103 210.907 405.856 206.908 402.901C199.308 397.286 191.709 391.672 184.492 384.524C180.753 381.157 177.675 377.672 174.857 373.775C171.779 370.29 168.961 366.393 165.883 362.909C159.727 355.939 152.649 349.5 145.45 344.181C137.85 338.566 130.651 333.248 122.409 329.579C118.288 327.744 114.167 325.91 109.646 323.78C105.525 321.946 101.004 319.816 97.0046 316.861C88.884 312.071 81.5454 306.044 73.8069 299.722C70.068 296.354 66.7291 293.282 63.2509 289.502C60.1726 286.018 56.9551 281.825 53.8768 278.34C48.2417 270.546 41.8245 263.99 34.7467 257.55C27.6688 251.111 20.0696 245.496 12.6096 240.59C8.74932 238.343 4.48904 235.8 0.368023 233.966C-3.75297 232.132 -8.27393 230.002 -12.1342 227.755C-20.5155 223.378 -28.1148 217.763 -35.714 212.149L-35.4533 211.736C-27.8541 217.351 -20.2548 222.965 -11.6129 226.93C-7.49187 228.764 -3.37088 230.598 1.15008 232.728C5.2711 234.563 9.79206 236.693 13.6524 238.94C21.773 243.729 29.3722 249.343 36.45 255.783C43.7886 261.81 50.3451 269.075 56.2409 276.456C62.1367 283.838 68.6932 291.103 76.0317 297.13C83.3703 303.157 90.7088 309.184 98.8294 313.973C102.69 316.22 107.211 318.35 111.332 320.184C115.453 322.019 119.574 323.853 124.095 325.983C132.737 329.947 140.336 335.562 147.935 341.176C155.534 346.791 162.612 353.23 168.508 360.612C171.586 364.096 174.404 367.993 177.482 371.478C180.56 374.963 183.378 378.86 187.117 382.227C193.934 389.079 201.533 394.694 209.132 400.308C216.732 405.923 225.113 410.3 233.616 413.556C242.118 416.812 250.239 421.601 258.099 426.803C265.698 432.418 273.297 438.032 280.114 444.884C283.453 447.956 286.932 451.737 289.749 455.634C292.827 459.118 295.645 463.015 298.723 466.5C304.098 474.707 311.176 481.146 318.514 487.173Z" fill="#26AAE1"/>
<path d="M325.887 477.223C318.288 471.609 310.949 465.582 304.393 458.317C301.314 454.833 297.836 451.053 295.019 447.155C291.94 443.671 288.862 440.186 285.123 436.819C278.045 430.379 271.107 424.648 263.247 419.446C255.387 414.244 247.406 410.162 239.164 406.494C235.043 404.659 230.522 402.529 226.401 400.695C222.14 398.153 218.28 395.906 214.28 392.951C206.681 387.336 199.082 381.722 191.865 374.574C188.126 371.207 185.048 367.722 182.23 363.825C179.152 360.34 176.334 356.443 173.256 352.959C167.1 345.99 160.022 339.55 152.822 334.231C145.223 328.617 138.024 323.298 129.782 319.629C125.661 317.794 121.54 315.96 117.019 313.83C112.898 311.996 108.377 309.866 104.377 306.911C96.2568 302.121 88.9182 296.094 81.1797 289.772C77.4408 286.404 74.1019 283.332 70.6237 279.552C67.5454 276.068 64.3279 271.875 61.2497 268.391C55.6145 260.596 49.1973 254.04 42.1195 247.6C35.0416 241.161 27.4424 235.546 19.9824 230.64C16.1221 228.393 11.8618 225.85 7.74083 224.016C3.61983 222.182 -0.901127 220.052 -4.76143 217.805C-13.1427 213.428 -20.742 207.813 -28.3412 202.199L-28.0805 201.786C-20.4813 207.401 -12.882 213.015 -4.24005 216.98C-0.119062 218.814 4.00193 220.648 8.52289 222.778C12.6439 224.613 17.1649 226.743 21.0252 228.99C29.1458 233.779 36.745 239.393 43.8228 245.833C51.1614 251.86 57.7179 259.125 63.6137 266.506C69.5095 273.888 76.066 281.153 83.4045 287.18C90.7431 293.207 98.0816 299.234 106.202 304.023C110.062 306.27 114.583 308.4 118.704 310.234C122.825 312.069 126.946 313.903 131.467 316.033C140.109 319.997 147.709 325.612 155.308 331.226C162.907 336.841 169.985 343.28 175.881 350.662C178.959 354.146 181.777 358.044 184.855 361.528C187.933 365.013 190.751 368.91 194.49 372.277C201.307 379.129 208.906 384.744 216.505 390.358C224.104 395.973 232.486 400.35 240.988 403.606C249.491 406.862 257.612 411.652 265.472 416.853C273.071 422.468 280.67 428.082 287.487 434.935C290.826 438.007 294.304 441.787 297.122 445.684C300.2 449.168 303.018 453.065 306.096 456.55C311.47 464.757 318.548 471.196 325.887 477.223Z" fill="#26AAE1"/>
<path d="M333.661 467.57C326.062 461.955 318.724 455.928 312.167 448.664C309.089 445.179 305.611 441.399 302.793 437.502C299.715 434.017 296.637 430.533 292.898 427.165C285.82 420.726 278.881 414.994 271.021 409.792C263.161 404.59 255.18 400.509 246.938 396.84C242.817 395.006 238.296 392.876 234.175 391.042C229.915 388.499 226.055 386.252 222.055 383.297C214.456 377.683 206.857 372.068 199.639 364.921C195.9 361.553 192.822 358.069 190.005 354.171C186.926 350.687 184.109 346.79 181.031 343.305C174.874 336.336 167.796 329.897 160.597 324.578C152.998 318.963 145.798 313.644 137.556 309.975C133.435 308.141 129.314 306.307 124.793 304.177C120.672 302.342 116.152 300.212 112.152 297.257C104.031 292.468 96.6928 286.441 88.9543 280.118C85.2154 276.751 81.8764 273.679 78.3982 269.899C75.3199 266.414 72.1024 262.222 69.0242 258.737C63.389 250.943 56.9718 244.386 49.894 237.947C42.8161 231.507 35.2169 225.893 27.757 220.986C23.8966 218.739 19.6364 216.197 15.5154 214.363C11.3944 212.528 6.87339 210.398 3.01306 208.151C-5.36823 203.774 -12.9674 198.16 -20.5667 192.545L-20.306 192.133C-12.7068 197.747 -5.10754 203.362 3.53443 207.326C7.65545 209.161 11.7765 210.995 16.2974 213.125C20.4184 214.959 24.9394 217.089 28.7997 219.336C36.9203 224.126 44.5195 229.74 51.5974 236.18C58.9359 242.207 65.4924 249.471 71.3882 256.853C77.284 264.235 83.8405 271.499 91.1791 277.526C98.5176 283.553 105.856 289.58 113.977 294.37C117.837 296.617 122.358 298.746 126.479 300.581C130.6 302.415 134.721 304.25 139.242 306.38C147.884 310.344 155.483 315.958 163.082 321.573C170.682 327.187 177.759 333.627 183.655 341.008C186.734 344.493 189.551 348.39 192.629 351.875C195.708 355.359 198.525 359.256 202.264 362.624C209.081 369.476 216.68 375.09 224.28 380.705C231.879 386.319 240.26 390.696 248.763 393.952C257.266 397.209 265.386 401.998 273.246 407.2C280.845 412.815 288.445 418.429 295.262 425.281C298.601 428.353 302.079 432.133 304.896 436.03C307.975 439.515 310.792 443.412 313.871 446.897C319.245 455.103 326.323 461.543 333.661 467.57Z" fill="#26AAE1"/>
<path d="M341.435 457.917C333.836 452.302 326.498 446.275 319.941 439.011C316.863 435.526 313.385 431.746 310.567 427.849C307.489 424.364 304.411 420.88 300.672 417.512C293.594 411.073 286.655 405.341 278.795 400.139C270.935 394.937 262.954 390.856 254.712 387.187C250.591 385.353 246.07 383.223 241.949 381.388C237.689 378.846 233.828 376.599 229.829 373.644C222.23 368.03 214.63 362.415 207.413 355.268C203.674 351.9 200.596 348.415 197.779 344.518C194.7 341.034 191.883 337.137 188.804 333.652C182.648 326.683 175.57 320.243 168.371 314.924C160.772 309.31 153.572 303.991 145.33 300.322C141.209 298.488 137.088 296.653 132.567 294.524C128.446 292.689 123.925 290.559 119.926 287.604C111.805 282.815 104.467 276.788 96.7282 270.465C92.9893 267.098 89.6504 264.026 86.1722 260.246C83.0939 256.761 79.8764 252.569 76.7981 249.084C71.163 241.29 64.7458 234.733 57.6679 228.294C50.5901 221.854 42.9908 216.24 35.5309 211.333C31.6705 209.086 27.4103 206.544 23.2893 204.709C19.1683 202.875 14.6473 200.745 10.787 198.498C2.4057 194.121 -5.19351 188.507 -12.7927 182.892L-12.5321 182.48C-4.93282 188.094 2.66638 193.709 11.3084 197.673C15.4294 199.507 19.5504 201.342 24.0713 203.472C28.1924 205.306 32.7133 207.436 36.5736 209.683C44.6942 214.472 52.2935 220.087 59.3713 226.526C66.7098 232.553 73.2663 239.818 79.1621 247.2C85.058 254.581 91.6144 261.846 98.953 267.873C106.291 273.9 113.63 279.927 121.751 284.716C125.611 286.963 130.132 289.093 134.253 290.928C138.374 292.762 142.495 294.597 147.016 296.726C155.658 300.691 163.257 306.305 170.856 311.92C178.456 317.534 185.533 323.974 191.429 331.355C194.507 334.84 197.325 338.737 200.403 342.222C203.482 345.706 206.299 349.603 210.038 352.971C216.855 359.823 224.454 365.437 232.054 371.052C239.653 376.666 248.034 381.043 256.537 384.299C265.04 387.556 273.16 392.345 281.02 397.547C288.619 403.161 296.219 408.776 303.036 415.628C306.375 418.7 309.853 422.48 312.67 426.377C315.749 429.862 318.566 433.759 321.644 437.243C327.019 445.45 334.097 451.89 341.435 457.917Z" fill="#26AAE1"/>
<path d="M348.812 447.968C341.213 442.354 333.875 436.327 327.318 429.062C324.24 425.578 320.762 421.798 317.944 417.901C314.866 414.416 311.788 410.931 308.049 407.564C300.971 401.124 294.032 395.393 286.172 390.191C278.313 384.989 270.331 380.908 262.089 377.239C257.968 375.404 253.447 373.275 249.326 371.44C245.066 368.898 241.206 366.651 237.206 363.696C229.607 358.081 222.008 352.467 214.79 345.319C211.052 341.952 207.973 338.467 205.156 334.57C202.078 331.085 199.26 327.188 196.182 323.704C190.025 316.735 182.947 310.295 175.748 304.976C168.149 299.362 160.95 294.043 152.708 290.374C148.587 288.54 144.466 286.705 139.945 284.575C135.824 282.741 131.303 280.611 127.303 277.656C119.182 272.867 111.844 266.84 104.105 260.517C100.366 257.149 97.0275 254.077 93.5493 250.297C90.4711 246.813 87.2535 242.62 84.1753 239.136C78.5402 231.341 72.1229 224.785 65.0451 218.345C57.9673 211.906 50.368 206.291 42.9081 201.385C39.0477 199.138 34.7875 196.595 30.6665 194.761C26.5455 192.927 22.0245 190.797 18.1642 188.55C9.78289 184.173 2.18368 178.559 -5.41555 172.944L-5.15486 172.532C2.44436 178.146 10.0436 183.76 18.6855 187.725C22.8066 189.559 26.9276 191.394 31.4485 193.523C35.5696 195.358 40.0905 197.488 43.9508 199.735C52.0714 204.524 59.6706 210.139 66.7485 216.578C74.087 222.605 80.6435 229.87 86.5393 237.251C92.4352 244.633 98.9916 251.898 106.33 257.925C113.669 263.952 121.007 269.979 129.128 274.768C132.988 277.015 137.509 279.145 141.63 280.979C145.751 282.814 149.872 284.648 154.393 286.778C163.035 290.742 170.634 296.357 178.234 301.971C185.833 307.586 192.911 314.025 198.806 321.407C201.885 324.892 204.702 328.789 207.78 332.273C210.859 335.758 213.676 339.655 217.415 343.022C224.232 349.875 231.832 355.489 239.431 361.103C247.03 366.718 255.411 371.095 263.914 374.351C272.417 377.607 280.537 382.397 288.397 387.599C295.996 393.213 303.596 398.828 310.413 405.68C312.97 409.989 316.048 413.474 319.126 416.958C322.205 420.443 325.022 424.34 328.1 427.825C334.396 435.502 341.474 441.941 348.812 447.968Z" fill="#26AAE1"/>
<path d="M356.584 438.314C348.985 432.699 341.646 426.672 335.09 419.407C332.272 415.51 328.794 411.73 325.715 408.246C322.637 404.761 319.559 401.277 315.82 397.909C308.742 391.47 301.804 385.738 293.944 380.536C286.084 375.334 278.102 371.253 269.86 367.584C265.739 365.75 261.218 363.62 257.097 361.785C252.837 359.243 248.977 356.996 244.977 354.041C237.378 348.427 229.779 342.812 222.562 335.664C218.823 332.297 215.745 328.812 212.927 324.915C209.849 321.431 207.031 317.534 203.953 314.049C197.796 307.08 190.719 300.64 183.519 295.321C175.92 289.707 168.721 284.388 160.479 280.719C156.358 278.885 152.237 277.05 147.716 274.92C143.595 273.086 139.074 270.956 135.074 268.001C126.954 263.212 119.615 257.185 111.877 250.862C108.138 247.495 104.799 244.423 101.321 240.643C98.2423 237.158 95.0248 232.965 91.9465 229.481C86.3114 221.687 79.8942 215.13 72.8164 208.691C65.7385 202.251 58.1393 196.637 50.6793 191.73C46.819 189.483 42.5587 186.941 38.4377 185.106C34.3167 183.272 29.7957 181.142 25.9354 178.895C17.5541 174.518 9.95492 168.904 2.35569 163.289L2.61638 162.877C10.2156 168.491 17.8148 174.106 26.4568 178.07C30.5778 179.904 34.6988 181.739 39.2198 183.869C43.3408 185.703 47.8618 187.833 51.7221 190.08C59.8427 194.869 67.4419 200.484 74.5197 206.923C81.8583 212.95 88.4147 220.215 94.3106 227.597C100.206 234.978 106.763 242.243 114.101 248.27C121.44 254.297 128.778 260.324 136.899 265.113C140.759 267.36 145.28 269.49 149.401 271.325C153.522 273.159 157.643 274.993 162.164 277.123C170.806 281.088 178.406 286.702 186.005 292.317C193.604 297.931 200.682 304.371 206.578 311.752C209.656 315.237 212.473 319.134 215.552 322.618C218.63 326.103 221.448 330 225.186 333.368C232.004 340.22 239.603 345.834 247.202 351.449C254.801 357.063 263.183 361.44 271.685 364.696C280.188 367.953 288.309 372.742 296.168 377.944C303.768 383.558 311.367 389.173 318.184 396.025C321.523 399.097 325.001 402.877 327.819 406.774C330.897 410.259 333.715 414.156 336.793 417.64C342.167 425.847 349.506 431.874 356.584 438.314Z" fill="#26AAE1"/>
<path d="M364.256 427.967C356.657 422.352 349.318 416.325 342.762 409.06C339.684 405.576 336.206 401.796 333.388 397.899C330.31 394.414 327.231 390.93 323.493 387.562C316.415 381.123 309.476 375.391 301.616 370.189C293.756 364.987 285.775 360.906 277.533 357.237C273.412 355.403 268.891 353.273 264.77 351.438C260.51 348.896 256.649 346.649 252.65 343.694C245.051 338.079 237.451 332.465 230.234 325.317C226.495 321.95 223.417 318.465 220.599 314.568C217.521 311.084 214.704 307.187 211.625 303.702C205.469 296.733 198.391 290.293 191.192 284.974C183.593 279.36 176.393 274.041 168.151 270.372C164.03 268.538 159.909 266.703 155.388 264.573C151.267 262.739 146.746 260.609 142.747 257.654C134.626 252.865 127.288 246.838 119.549 240.515C115.81 237.148 112.471 234.076 108.993 230.296C105.915 226.811 102.697 222.618 99.619 219.134C93.9839 211.34 87.5667 204.783 80.4888 198.343C73.411 191.904 65.8118 186.289 58.3518 181.383C54.4915 179.136 50.2312 176.594 46.1102 174.759C41.9892 172.925 37.4682 170.795 33.6079 168.548C25.2266 164.171 17.6274 158.557 10.0282 152.942L10.2889 152.53C17.8881 158.144 25.4873 163.759 34.1293 167.723C38.2503 169.557 42.3713 171.392 46.8923 173.522C51.0133 175.356 55.5342 177.486 59.3946 179.733C67.5152 184.522 75.1144 190.137 82.1922 196.576C89.5308 202.603 96.0872 209.868 101.983 217.25C107.879 224.631 114.435 231.896 121.774 237.923C129.112 243.95 136.451 249.977 144.572 254.766C148.432 257.013 152.953 259.143 157.074 260.978C160.413 264.05 164.794 265.471 169.055 268.014C177.697 271.978 185.296 277.593 192.895 283.207C200.494 288.822 207.572 295.261 213.468 302.643C216.546 306.127 219.364 310.024 222.442 313.509C225.52 316.994 228.338 320.891 232.077 324.258C238.894 331.11 246.493 336.725 254.092 342.339C261.692 347.954 270.073 352.331 278.576 355.587C287.078 358.843 295.199 363.632 303.059 368.834C310.658 374.449 318.257 380.063 325.075 386.915C328.413 389.987 331.892 393.768 334.709 397.665C337.788 401.149 340.605 405.046 343.683 408.531C349.579 415.913 356.918 421.94 364.256 427.967Z" fill="#26AAE1"/>
<path d="M372.027 418.312C364.428 412.698 357.09 406.671 350.533 399.406C347.455 395.922 343.977 392.142 341.159 388.244C338.081 384.76 335.003 381.275 331.264 377.908C324.186 371.468 317.247 365.737 309.387 360.535C301.527 355.333 293.546 351.252 285.304 347.583C281.183 345.748 276.662 343.618 272.541 341.784C268.281 339.242 264.42 336.995 260.421 334.04C252.822 328.425 245.222 322.811 238.005 315.663C234.266 312.296 231.188 308.811 228.371 304.914C225.292 301.429 222.475 297.532 219.397 294.048C213.24 287.079 206.162 280.639 198.963 275.32C191.364 269.706 184.164 264.387 175.922 260.718C171.801 258.883 167.68 257.049 163.159 254.919C159.038 253.085 154.517 250.955 150.518 248C142.397 243.21 135.059 237.183 127.32 230.861C123.581 227.493 120.242 224.421 116.764 220.641C113.686 217.157 110.468 212.964 107.39 209.48C101.755 201.685 95.3378 195.129 88.26 188.689C81.1821 182.25 73.5829 176.635 66.123 171.729C62.2626 169.482 58.0023 166.939 53.8813 165.105C49.7603 163.271 45.2394 161.141 41.3791 158.894C32.9978 154.517 25.3985 148.902 17.7993 143.288L18.06 142.875C25.6592 148.49 33.2585 154.104 41.9004 158.069C46.0214 159.903 50.1424 161.737 54.6634 163.867C58.7844 165.702 63.3054 167.832 67.1657 170.079C75.2863 174.868 82.8855 180.482 89.9633 186.922C97.3019 192.949 103.858 200.214 109.754 207.595C115.65 214.977 122.206 222.242 129.545 228.269C136.884 234.296 144.222 240.323 152.343 245.112C156.203 247.359 160.724 249.489 164.845 251.323C168.966 253.158 173.087 254.992 177.608 257.122C186.25 261.086 193.849 266.701 201.448 272.315C209.048 277.93 216.125 284.369 222.021 291.751C225.1 295.235 227.917 299.133 230.995 302.617C234.074 306.102 236.891 309.999 240.63 313.366C247.447 320.218 255.046 325.833 262.646 331.447C270.245 337.062 278.626 341.439 287.129 344.695C295.632 347.951 303.752 352.741 311.612 357.942C319.211 363.557 326.811 369.171 333.628 376.024C336.967 379.096 340.445 382.876 343.262 386.773C345.159 391.199 347.976 395.097 351.454 398.877C357.611 405.846 364.689 412.285 372.027 418.312Z" fill="#26AAE1"/>
<path d="M379.405 408.364C371.806 402.749 364.467 396.722 357.911 389.458C354.832 385.973 351.354 382.193 348.537 378.296C345.458 374.811 342.38 371.327 338.641 367.959C331.563 361.52 324.625 355.788 316.765 350.586C308.905 345.384 300.924 341.303 292.682 337.634C288.561 335.8 284.04 333.67 279.919 331.835C275.658 329.293 271.798 327.046 267.798 324.091C260.199 318.477 252.6 312.862 245.383 305.715C241.644 302.347 238.566 298.862 235.748 294.965C232.67 291.481 229.852 287.584 226.774 284.099C220.618 277.13 213.54 270.69 206.34 265.371C198.741 259.757 191.542 254.438 183.3 250.769C179.179 248.935 175.058 247.1 170.537 244.97C166.416 243.136 161.895 241.006 157.895 238.051C149.775 233.262 142.436 227.235 134.698 220.912C130.959 217.545 127.62 214.473 124.142 210.693C121.064 207.208 117.846 203.015 114.768 199.531C109.133 191.737 102.715 185.18 95.6375 178.741C88.5597 172.301 80.9605 166.687 73.5005 161.78C69.6402 159.533 65.3799 156.991 61.2589 155.156C57.1379 153.322 52.6169 151.192 48.7566 148.945C40.3753 144.568 32.7761 138.954 25.1769 133.339L25.4375 132.927C33.0368 138.541 40.636 144.156 49.278 148.12C53.399 149.954 57.52 151.789 62.0409 153.919C66.162 155.753 70.6829 157.883 74.5432 160.13C82.6639 164.919 90.2631 170.534 97.3409 176.973C104.679 183 111.236 190.265 117.132 197.647C123.028 205.028 129.584 212.293 136.923 218.32C144.261 224.347 151.6 230.374 159.72 235.163C163.581 237.41 168.102 239.54 172.223 241.375C176.344 243.209 180.465 245.043 184.986 247.173C193.628 251.138 201.227 256.752 208.826 262.367C216.425 267.981 223.503 274.421 229.399 281.802C232.477 285.287 235.295 289.184 238.373 292.668C241.451 296.153 244.269 300.05 248.008 303.418C254.825 310.27 262.424 315.884 270.023 321.499C277.622 327.113 286.004 331.49 294.506 334.746C303.009 338.003 311.13 342.792 318.99 347.994C326.589 353.608 334.188 359.223 341.005 366.075C344.344 369.147 347.822 372.927 350.64 376.824C353.718 380.309 356.536 384.206 359.614 387.69C365.388 396.193 372.466 402.632 379.405 408.364Z" fill="#26AAE1"/>
<path d="M387.175 398.709C379.576 393.095 372.237 387.068 365.681 379.803C362.602 376.318 359.124 372.538 356.307 368.641C353.228 365.157 350.15 361.672 346.411 358.304C339.333 351.865 332.395 346.133 324.535 340.931C316.675 335.73 308.694 331.648 300.452 327.979C296.331 326.145 291.81 324.015 287.689 322.181C283.428 319.638 279.568 317.391 275.568 314.436C267.969 308.822 260.37 303.207 253.153 296.06C249.414 292.692 246.336 289.208 243.518 285.311C240.44 281.826 237.622 277.929 234.544 274.444C228.387 267.475 221.31 261.036 214.11 255.717C206.511 250.102 199.312 244.783 191.07 241.115C186.949 239.28 182.828 237.446 178.307 235.316C174.186 233.481 169.665 231.351 165.665 228.397C157.545 223.607 150.206 217.58 142.468 211.258C138.729 207.89 135.39 204.818 131.912 201.038C128.833 197.553 125.616 193.361 122.538 189.876C116.902 182.082 110.485 175.525 103.407 169.086C96.3296 162.646 88.7304 157.032 81.2704 152.125C77.4101 149.879 73.1498 147.336 69.0288 145.502C64.9078 143.667 60.3868 141.537 56.5265 139.29C48.1452 134.914 40.546 129.299 32.9468 123.685L33.2074 123.272C40.8067 128.887 48.4059 134.501 57.0479 138.465C61.1689 140.3 65.2899 142.134 69.8108 144.264C73.9319 146.098 78.4528 148.228 82.3131 150.475C90.4337 155.265 98.033 160.879 105.111 167.319C112.449 173.346 119.006 180.61 124.902 187.992C130.797 195.374 137.354 202.638 144.692 208.665C152.031 214.692 159.37 220.719 167.49 225.509C171.35 227.756 175.871 229.886 179.992 231.72C184.113 233.554 188.234 235.389 192.755 237.519C200.215 242.425 208.075 247.627 215.674 253.241C223.274 258.856 230.352 265.296 236.247 272.677C239.326 276.162 242.143 280.059 245.221 283.543C248.439 287.736 251.517 291.221 255.256 294.588C262.073 301.44 269.673 307.055 277.272 312.669C284.871 318.284 293.252 322.66 301.755 325.917C310.258 329.173 318.378 333.962 326.238 339.164C333.837 344.779 341.437 350.393 348.254 357.245C351.593 360.317 355.071 364.097 357.889 367.995C360.967 371.479 363.784 375.376 366.863 378.861C372.758 386.242 379.836 392.682 387.175 398.709Z" fill="#26AAE1"/>
<path d="M394.951 389.055C387.351 383.441 380.013 377.414 373.456 370.149C370.378 366.665 366.9 362.885 364.082 358.988C361.004 355.503 357.926 352.018 354.187 348.651C347.109 342.211 340.171 336.48 332.311 331.278C324.451 326.076 316.469 321.995 308.227 318.326C304.106 316.491 299.585 314.362 295.464 312.527C291.204 309.985 287.344 307.738 283.344 304.783C275.745 299.168 268.146 293.554 260.929 286.406C257.19 283.039 254.112 279.554 251.294 275.657C248.216 272.173 245.398 268.275 242.32 264.791C236.163 257.822 229.086 251.382 221.886 246.063C214.287 240.449 207.088 235.13 198.846 231.461C194.725 229.627 190.604 227.792 186.083 225.662C181.962 223.828 177.441 221.698 173.441 218.743C165.321 213.954 157.982 207.927 150.244 201.604C146.505 198.237 143.166 195.164 139.688 191.384C136.609 187.9 133.392 183.707 130.313 180.223C124.678 172.428 118.261 165.872 111.183 159.432C104.105 152.993 96.5062 147.378 89.0463 142.472C85.1859 140.225 80.9257 137.683 76.8047 135.848C72.6837 134.014 68.1627 131.884 64.3024 129.637C55.9211 125.26 48.3219 119.646 40.7226 114.031L40.9833 113.619C48.5825 119.233 56.1818 124.847 64.8237 128.812C68.9447 130.646 73.0658 132.481 77.5867 134.61C81.7077 136.445 86.2287 138.575 90.089 140.822C98.2096 145.611 105.809 151.226 112.887 157.665C120.225 163.692 126.782 170.957 132.678 178.338C138.573 185.72 145.13 192.985 152.468 199.012C159.807 205.039 167.145 211.066 175.266 215.855C179.126 218.102 183.647 220.232 187.768 222.066C191.889 223.901 196.01 225.735 200.531 227.865C209.173 231.829 216.772 237.444 224.372 243.058C231.971 248.673 239.049 255.112 244.945 262.494C248.023 265.979 250.84 269.876 253.919 273.36C256.997 276.845 259.814 280.742 263.553 284.109C270.371 290.962 277.97 296.576 285.569 302.19C293.168 307.805 301.55 312.182 310.052 315.438C318.555 318.694 326.676 323.484 334.535 328.686C342.135 334.3 349.734 339.915 356.551 346.767C359.89 349.839 363.368 353.619 366.186 357.516C369.264 361 372.082 364.898 375.16 368.382C380.534 376.589 387.612 383.028 394.951 389.055Z" fill="#26AAE1"/>
<path d="M402.328 379.107C394.728 373.493 387.39 367.466 380.833 360.201C377.755 356.717 374.277 352.936 371.459 349.039C368.381 345.555 365.303 342.07 361.564 338.703C354.486 332.263 347.547 326.532 339.688 321.33C331.828 316.128 323.846 312.046 315.604 308.378C311.483 306.543 306.962 304.413 302.841 302.579C298.581 300.036 294.721 297.79 290.721 294.835C283.122 289.22 275.523 283.606 268.306 276.458C264.567 273.091 261.488 269.606 258.671 265.709C255.593 262.224 252.775 258.327 249.697 254.843C243.54 247.873 236.462 241.434 229.263 236.115C221.664 230.5 214.465 225.182 206.223 221.513C202.102 219.678 197.981 217.844 193.46 215.714C189.339 213.88 184.818 211.75 180.818 208.795C172.697 204.005 165.359 197.978 157.62 191.656C153.882 188.288 150.543 185.216 147.064 181.436C143.986 177.952 140.769 173.759 137.69 170.274C132.055 162.48 125.638 155.924 118.56 149.484C111.482 143.045 103.883 137.43 96.4231 132.524C92.5628 130.277 88.3025 127.734 84.1815 125.9C80.0605 124.065 75.5395 121.936 71.6792 119.689C63.2979 115.312 55.6987 109.697 48.0995 104.083L48.3602 103.67C55.9594 109.285 63.5586 114.899 72.2006 118.864C76.3216 120.698 80.4426 122.532 84.9636 124.662C89.0846 126.497 93.6055 128.627 97.4658 130.873C105.586 135.663 113.186 141.277 120.264 147.717C127.602 153.744 134.159 161.009 140.054 168.39C145.95 175.772 152.507 183.037 159.845 189.064C167.184 195.091 174.522 201.118 182.643 205.907C186.503 208.154 191.024 210.284 195.145 212.118C199.266 213.953 203.387 215.787 207.908 217.917C215.368 222.823 223.228 228.025 230.827 233.64C238.426 239.254 245.504 245.694 251.4 253.075C254.478 256.56 257.296 260.457 260.374 263.942C263.452 267.426 266.27 271.323 270.009 274.691C276.826 281.543 284.425 287.157 292.025 292.772C299.624 298.386 308.005 302.763 316.508 306.019C325.01 309.276 333.131 314.065 340.991 319.267C348.59 324.881 356.189 330.496 363.007 337.348C366.345 340.42 369.824 344.2 372.641 348.097C375.72 351.582 378.537 355.479 381.615 358.963C387.911 366.641 394.989 373.08 402.328 379.107Z" fill="#26AAE1"/>
<path d="M410.101 369.453C402.502 363.838 395.163 357.811 388.607 350.547C385.529 347.062 382.05 343.282 379.233 339.385C376.155 335.9 373.076 332.416 369.337 329.048C362.26 322.609 355.321 316.877 347.461 311.675C339.601 306.473 331.62 302.392 323.378 298.723C319.257 296.889 314.736 294.759 310.615 292.925C306.355 290.382 302.494 288.135 298.495 285.18C290.895 279.566 283.296 273.951 276.079 266.804C272.34 263.436 269.262 259.952 266.444 256.055C263.366 252.57 260.549 248.673 257.47 245.188C251.314 238.219 244.236 231.78 237.037 226.461C229.437 220.846 222.238 215.527 213.996 211.858C209.875 210.024 205.754 208.19 201.233 206.06C197.112 204.225 192.591 202.095 188.592 199.14C180.471 194.351 173.132 188.324 165.394 182.002C161.655 178.634 158.316 175.562 154.838 171.782C151.76 168.297 148.542 164.105 145.464 160.62C139.829 152.826 133.412 146.269 126.334 139.83C119.256 133.39 111.657 127.776 104.197 122.869C100.336 120.622 96.0761 118.08 91.9551 116.246C87.8341 114.411 83.3131 112.281 79.4528 110.034C71.0715 105.657 63.4723 100.043 55.873 94.4286L56.1337 94.016C63.7329 99.6305 71.3321 105.245 79.9741 109.209C84.0951 111.044 88.2161 112.878 92.7371 115.008C96.8581 116.842 101.379 118.972 105.239 121.219C113.36 126.009 120.959 131.623 128.037 138.063C135.376 144.09 141.932 151.354 147.828 158.736C153.724 166.118 160.28 173.382 167.619 179.409C174.957 185.436 182.296 191.463 190.416 196.253C194.277 198.5 198.798 200.629 202.919 202.464C207.04 204.298 211.161 206.133 215.682 208.263C224.324 212.227 231.923 217.841 239.522 223.456C247.121 229.07 254.199 235.51 260.095 242.891C263.173 246.376 265.991 250.273 269.069 253.758C272.147 257.242 274.965 261.139 278.704 264.507C285.521 271.359 293.12 276.973 300.719 282.588C308.319 288.202 316.7 292.579 325.203 295.836C333.705 299.092 341.826 303.881 349.686 309.083C357.285 314.698 364.884 320.312 371.701 327.164C375.04 330.236 378.519 334.016 381.336 337.913C384.414 341.398 387.232 345.295 390.31 348.78C395.685 356.986 402.763 363.426 410.101 369.453Z" fill="#26AAE1"/>
<path d="M417.77 359.105C410.171 353.491 402.832 347.464 396.276 340.199C393.197 336.714 389.719 332.934 386.902 329.037C383.823 325.553 380.745 322.068 377.006 318.701C369.928 312.261 362.99 306.53 355.13 301.328C347.27 296.126 339.289 292.044 331.047 288.376C326.926 286.541 322.405 284.411 318.284 282.577C314.023 280.034 310.163 277.787 306.163 274.832C298.564 269.218 290.965 263.604 283.748 256.456C280.009 253.088 276.931 249.604 274.113 245.707C271.035 242.222 268.217 238.325 265.139 234.84C258.983 227.871 251.905 221.432 244.705 216.113C237.106 210.498 229.907 205.179 221.665 201.511C217.544 199.676 213.423 197.842 208.902 195.712C204.781 193.877 200.26 191.748 196.26 188.793C188.14 184.003 180.801 177.976 173.063 171.654C169.324 168.286 165.985 165.214 162.507 161.434C159.428 157.95 156.211 153.757 153.133 150.272C147.498 142.478 141.08 135.922 134.003 129.482C126.925 123.042 119.325 117.428 111.865 112.522C108.005 110.275 103.745 107.732 99.6239 105.898C95.5029 104.063 90.9819 101.933 87.1216 99.6865C78.7403 95.3097 71.1411 89.6952 63.5418 84.0807L63.8026 83.6682C71.4018 89.2826 79.001 94.8971 87.6429 98.8614C91.764 100.696 95.885 102.53 100.406 104.66C104.527 106.495 109.048 108.624 112.908 110.871C121.029 115.661 128.628 121.275 135.706 127.715C143.044 133.742 149.601 141.006 155.497 148.388C161.393 155.77 167.949 163.034 175.288 169.061C182.626 175.088 189.965 181.115 198.085 185.905C201.946 188.152 206.467 190.282 210.588 192.116C214.709 193.95 218.83 195.785 223.351 197.915C230.81 202.821 239.07 208.319 246.009 214.05C253.608 219.665 260.686 226.104 266.582 233.486C269.66 236.97 272.478 240.868 275.556 244.352C278.634 247.837 281.452 251.734 285.191 255.101C292.008 261.953 299.607 267.568 307.206 273.182C314.805 278.797 323.187 283.174 331.689 286.43C340.192 289.686 348.313 294.476 356.173 299.677C363.772 305.292 371.371 310.906 378.188 317.758C381.527 320.83 385.005 324.611 387.823 328.508C390.901 331.992 393.719 335.889 396.797 339.374C403.493 347.347 410.831 353.374 417.77 359.105Z" fill="#26AAE1"/>
<path d="M425.543 349.451C417.944 343.837 410.605 337.81 404.049 330.545C400.97 327.061 397.492 323.281 394.675 319.383C391.596 315.899 388.518 312.414 384.779 309.047C377.701 302.607 370.763 296.876 362.903 291.674C355.043 286.472 347.062 282.391 338.82 278.722C334.699 276.887 330.178 274.757 326.057 272.923C321.796 270.381 317.936 268.134 313.937 265.179C306.337 259.564 298.738 253.95 291.521 246.802C287.782 243.435 284.704 239.95 281.886 236.053C278.808 232.568 275.99 228.671 272.912 225.187C266.756 218.218 259.678 211.778 252.479 206.459C244.879 200.845 237.68 195.526 229.438 191.857C225.317 190.022 221.196 188.188 216.675 186.058C212.554 184.224 208.033 182.094 204.033 179.139C195.913 174.349 188.574 168.322 180.836 162C177.097 158.632 173.758 155.56 170.28 151.78C167.202 148.296 163.984 144.103 160.906 140.619C155.271 132.824 148.853 126.268 141.776 119.828C134.698 113.389 127.099 107.774 119.639 102.868C115.778 100.621 111.518 98.0784 107.397 96.244C103.276 94.4096 98.755 92.2796 94.8946 90.0327C86.5134 85.6558 78.9141 80.0414 71.3149 74.4269L71.5756 74.0144C79.1749 79.6288 86.774 85.2433 95.416 89.2076C99.537 91.042 103.658 92.8764 108.179 95.0063C112.3 96.8407 116.821 98.9706 120.681 101.218C128.802 106.007 136.401 111.621 143.479 118.061C150.818 124.088 157.374 131.353 163.27 138.734C169.166 146.116 175.722 153.381 183.061 159.408C190.399 165.435 197.738 171.462 205.858 176.251C209.719 178.498 214.24 180.628 218.361 182.462C222.482 184.297 226.603 186.131 231.124 188.261C239.766 192.225 247.365 197.84 254.964 203.454C262.563 209.069 269.641 215.508 275.537 222.89C278.615 226.374 281.433 230.272 284.511 233.756C287.589 237.241 290.407 241.138 294.146 244.505C300.963 251.357 308.562 256.972 316.161 262.586C323.761 268.201 332.142 272.578 340.645 275.834C349.147 279.09 357.268 283.88 365.128 289.082C372.727 294.696 380.326 300.31 387.143 307.163C390.482 310.235 393.96 314.015 396.778 317.912C399.856 321.396 402.674 325.293 405.752 328.778C410.866 337.397 418.204 343.424 425.543 349.451Z" fill="#26AAE1"/>
</g>
</g>
</svg>
