<svg width="413" height="430" viewBox="0 0 413 430" fill="none" xmlns="http://www.w3.org/2000/svg">
<g opacity="0.8">
<mask id="mask0_175_1061" style="mask-type:luminance" maskUnits="userSpaceOnUse" x="0" y="0" width="413" height="430">
<path d="M380.514 160.605L111.142 8.56865C80.1688 -8.9248 40.5149 1.22045 22.5852 31.2295L15.66 42.8444C-2.26964 72.8061 8.26047 111.301 39.2342 128.795L192.443 215.266L33.9691 299.368C2.52109 316.055 -9.19485 354.266 7.78614 384.702L14.3793 396.459C31.4077 426.894 70.7296 438.035 102.178 421.3L358.979 285.003C376.008 279.788 391.424 268.505 400.483 253.382L401.906 251.581C423.82 215.503 411.488 178.099 380.514 160.605Z" fill="white"/>
</mask>
<g mask="url(#mask0_175_1061)">
<path d="M628.783 558.437C615.36 558.437 601.794 557.536 588.56 554.739C581.919 553.364 575.421 551.562 568.923 549.998C562.424 548.434 555.926 547.106 549.333 546.348C536.194 544.641 522.77 544.404 509.489 544.831C496.161 545.257 483.259 547.391 470.262 550.756C463.764 552.368 457.028 553.933 450.246 554.928C443.463 555.924 436.585 556.54 429.755 556.682C416.141 557.014 402.528 556.682 388.867 554.739C382.037 553.838 375.302 552.321 368.708 550.614C362.115 548.908 355.712 546.964 349.308 545.542C336.501 542.555 323.362 541.465 310.129 541.18C296.847 540.848 283.661 541.322 270.759 543.693C264.308 544.831 257.81 546.442 251.17 547.865C244.529 549.287 237.699 550.472 230.821 551.041C217.113 552.321 203.499 552.037 189.886 551.041C183.103 550.567 176.273 549.666 169.538 548.339C162.802 547.011 156.161 545.115 149.758 543.219C136.951 539.236 124.144 536.487 110.863 535.444C97.6292 534.353 84.2057 534.022 70.9719 535.065C64.3313 535.491 57.7856 536.534 51.1924 537.767C44.6466 539.047 38.0534 540.516 31.3654 541.607C17.9893 543.788 4.42352 544.072 -9 543.456L-9 542.982C4.42352 543.266 17.9419 542.697 31.1283 540.185C37.7215 538.999 44.2672 537.34 50.8129 535.918C57.4061 534.496 64.0467 533.31 70.7347 532.694C84.1582 531.367 97.6292 531.604 111.053 532.457C124.476 533.31 137.805 535.965 150.707 539.805C163.608 543.598 176.795 546.253 190.218 547.106C203.594 548.007 217.065 548.196 230.441 546.916C237.129 546.3 243.723 545.115 250.268 543.693C256.814 542.271 263.36 540.611 270 539.426C283.234 536.913 296.8 536.345 310.271 536.629C323.695 536.961 337.213 538.193 350.352 541.275C356.898 542.792 363.348 544.736 369.847 546.49C376.345 548.196 382.891 549.714 389.531 550.614C402.813 552.558 416.284 552.985 429.707 552.7C443.131 552.463 456.459 550.472 469.503 547.248C482.547 544.025 495.971 541.986 509.442 541.749C522.913 541.465 536.384 541.891 549.712 543.835C556.4 544.736 562.946 546.253 569.444 548.007C575.943 549.761 582.394 551.705 588.939 553.222C601.936 556.445 615.407 557.631 628.831 557.962L628.831 558.437L628.783 558.437Z" fill="url(#paint0_linear_175_1061)"/>
<path d="M629.21 540.614C615.786 540.614 602.22 539.713 588.986 536.868C582.346 535.494 575.848 533.692 569.349 532.128C562.851 530.563 556.353 529.236 549.759 528.477C536.621 526.771 523.197 526.534 509.916 526.96C496.587 527.387 483.685 529.52 470.689 532.886C464.19 534.498 457.455 536.063 450.672 537.058C443.889 538.054 437.011 538.67 430.181 538.812C416.568 539.144 402.955 538.812 389.294 536.868C382.464 535.968 375.728 534.451 369.135 532.744C362.542 530.99 356.138 529.094 349.735 527.671C336.928 524.685 323.789 523.594 310.555 523.31C297.274 522.978 284.088 523.452 271.186 525.822C264.735 526.96 258.237 528.572 251.596 529.994C244.956 531.417 238.125 532.602 231.247 533.171C217.539 534.451 203.926 534.166 190.313 533.171C183.53 532.697 176.7 531.796 169.964 530.468C163.229 529.141 156.588 527.245 150.185 525.348C137.378 521.366 124.571 518.617 111.29 517.574C98.0558 516.483 84.6323 516.151 71.3985 517.194C64.7579 517.621 58.2122 518.664 51.619 519.897C45.0732 521.177 38.4801 522.646 31.7921 523.737C18.416 525.917 4.85015 526.202 -8.57336 525.585L-8.57336 525.111C4.85015 525.396 18.3685 524.827 31.5549 522.314C38.1481 521.129 44.6938 519.47 51.2395 518.048C57.8327 516.625 64.4733 515.44 71.1614 514.824C84.5849 513.496 98.0558 513.734 111.479 514.587C124.903 515.44 138.231 518.095 151.133 521.935C164.035 525.728 177.221 528.383 190.645 529.236C204.021 530.137 217.492 530.326 230.868 529.046C237.556 528.43 244.149 527.245 250.695 525.822C257.241 524.4 263.786 522.741 270.427 521.556C283.661 519.043 297.227 518.474 310.698 518.759C324.121 519.091 337.639 520.323 350.778 523.405C357.324 524.922 363.775 526.865 370.273 528.62C376.772 530.326 383.317 531.843 389.958 532.744C403.239 534.688 416.71 535.114 430.134 534.83C443.557 534.593 456.886 532.602 469.93 529.378C482.974 526.154 496.397 524.116 509.868 523.879C523.339 523.594 536.81 524.021 550.139 525.965C556.827 526.865 563.373 528.382 569.871 530.137C576.369 531.891 582.82 533.834 589.366 535.351C602.457 538.433 615.881 539.666 629.304 539.997L629.304 540.471L629.21 540.614Z" fill="url(#paint1_linear_175_1061)"/>
<path d="M629.637 522.782C616.214 522.782 602.648 521.881 589.414 519.037C582.774 517.662 576.275 515.86 569.777 514.296C563.279 512.732 556.78 511.404 550.187 510.646C537.048 508.939 523.625 508.702 510.344 509.129C497.015 509.555 484.113 511.689 471.117 515.054C464.618 516.666 457.883 518.231 451.1 519.226C444.317 520.222 437.439 520.838 430.609 520.98C416.996 521.312 403.382 520.98 389.722 519.037C382.891 518.136 376.156 516.619 369.563 514.912C362.97 513.206 356.566 511.262 350.163 509.84C337.356 506.853 324.217 505.763 310.983 505.478C297.702 505.146 284.516 505.62 271.614 507.991C265.163 509.129 258.665 510.74 252.024 512.163C245.383 513.585 238.553 514.77 231.675 515.339C217.967 516.619 204.354 516.335 190.741 515.339C183.958 514.865 177.127 513.964 170.392 512.637C163.656 511.309 157.016 509.413 150.612 507.517C137.806 503.534 124.999 500.785 111.717 499.742C98.4836 498.651 85.0601 498.32 71.8263 499.363C65.1857 499.789 58.64 500.832 52.0468 502.065C45.5011 503.345 38.9079 504.814 32.2199 505.905C18.8438 508.086 5.27788 508.37 -8.14563 507.754L-8.14563 507.28C5.27788 507.564 18.7963 506.995 31.9827 504.483C38.5759 503.297 45.1216 501.638 51.6673 500.216C58.2605 498.794 64.9011 497.608 71.5892 496.992C85.0127 495.665 98.4836 495.902 111.907 496.755C125.331 497.608 138.659 500.263 151.561 504.103C164.463 507.896 177.649 510.551 191.073 511.404C204.449 512.305 217.92 512.494 231.296 511.214C237.984 510.598 244.577 509.413 251.123 507.991C257.668 506.569 264.214 504.909 270.855 503.724C284.089 501.211 297.654 500.643 311.125 500.927C324.549 501.259 338.067 502.491 351.206 505.573C357.752 507.09 364.203 509.034 370.701 510.788C377.199 512.494 383.745 514.012 390.386 514.912C403.667 516.856 417.138 517.283 430.561 516.998C443.985 516.761 457.314 514.77 470.358 511.546C483.402 508.323 496.825 506.284 510.296 506.047C523.767 505.763 537.238 506.189 550.567 508.133C557.255 509.034 563.801 510.551 570.299 512.305C576.797 514.059 583.248 516.003 589.794 517.52C602.885 520.601 616.309 521.834 629.732 522.166L629.732 522.64L629.637 522.782Z" fill="url(#paint2_linear_175_1061)"/>
<path d="M630.063 504.959C616.64 504.959 603.074 504.058 589.84 501.261C583.199 499.886 576.701 498.085 570.203 496.52C563.704 494.956 557.206 493.629 550.613 492.87C537.474 491.163 524.05 490.926 510.769 491.353C497.441 491.78 484.539 493.913 471.542 497.279C465.044 498.891 458.308 500.455 451.526 501.451C444.743 502.446 437.865 503.063 431.035 503.205C417.421 503.537 403.808 503.205 390.147 501.261C383.317 500.36 376.582 498.843 369.988 497.137C363.395 495.43 356.992 493.486 350.588 492.064C337.781 489.077 324.642 487.987 311.409 487.703C298.127 487.371 284.941 487.845 272.039 490.215C265.589 491.353 259.09 492.965 252.45 494.387C245.809 495.809 238.979 496.994 232.101 497.563C218.393 498.843 204.779 498.559 191.166 497.563C184.383 497.089 177.553 496.189 170.818 494.861C164.082 493.534 157.441 491.637 151.038 489.741C138.231 485.759 125.424 483.009 112.143 481.966C98.9092 480.876 85.4857 480.544 72.2519 481.587C65.6113 482.014 59.0656 483.057 52.4724 484.289C45.9267 485.569 39.3335 487.039 32.6454 488.129C19.2694 490.31 5.70356 490.594 -7.71995 489.978L-7.71995 489.504C5.70356 489.789 19.2219 489.22 32.4083 486.707C39.0014 485.522 45.5472 483.863 52.0929 482.44C58.6861 481.018 65.3267 479.833 72.0148 479.217C85.4383 477.889 98.9092 478.126 112.333 478.98C125.756 479.833 139.085 482.488 151.987 486.328C164.888 490.12 178.075 492.775 191.498 493.629C204.874 494.529 218.345 494.719 231.721 493.439C238.409 492.823 245.003 491.637 251.548 490.215C258.094 488.793 264.64 487.134 271.28 485.948C284.514 483.436 298.08 482.867 311.551 483.151C324.974 483.483 338.493 484.716 351.632 487.797C358.178 489.314 364.628 491.258 371.127 493.012C377.625 494.719 384.171 496.236 390.811 497.137C404.093 499.08 417.564 499.507 430.987 499.223C444.411 498.986 457.739 496.994 470.783 493.771C483.827 490.547 497.251 488.508 510.722 488.271C524.193 487.987 537.664 488.414 550.992 490.357C557.68 491.258 564.226 492.775 570.724 494.529C577.223 496.283 583.674 498.227 590.219 499.744C603.311 502.826 616.734 504.058 630.158 504.39L630.158 504.864L630.063 504.959Z" fill="url(#paint3_linear_175_1061)"/>
<path d="M630.491 487.136C617.067 487.136 603.501 486.235 590.268 483.391C583.627 482.016 577.129 480.214 570.63 478.65C564.132 477.086 557.634 475.758 551.041 475C537.902 473.293 524.478 473.056 511.197 473.483C497.868 473.909 484.967 476.043 471.97 479.409C465.472 481.02 458.736 482.585 451.953 483.58C445.17 484.576 438.293 485.192 431.462 485.335C417.849 485.666 404.236 485.335 390.575 483.391C383.745 482.49 377.009 480.973 370.416 479.266C363.823 477.56 357.419 475.616 351.016 474.194C338.209 471.207 325.07 470.117 311.836 469.832C298.555 469.5 285.369 469.974 272.467 472.345C266.016 473.483 259.518 475.094 252.877 476.517C246.237 477.939 239.406 479.124 232.529 479.693C218.821 480.973 205.207 480.689 191.594 479.693C184.811 479.219 177.981 478.318 171.245 476.991C164.51 475.663 157.869 473.767 151.466 471.871C138.659 467.888 125.852 465.139 112.571 464.096C99.337 463.005 85.9135 462.674 72.6797 463.717C66.0391 464.143 59.4934 465.186 52.9002 466.419C46.3545 467.699 39.7613 469.168 33.0732 470.259C19.6972 472.44 6.13137 472.724 -7.29215 472.108L-7.29215 471.634C6.13137 471.918 19.6497 471.349 32.8361 468.837C39.4292 467.651 45.975 465.992 52.5208 464.57C59.1139 463.148 65.7545 461.963 72.4426 461.346C85.8661 460.019 99.337 460.256 112.761 461.109C126.184 461.963 139.513 464.617 152.414 468.457C165.316 472.25 178.503 474.905 191.926 475.758C205.302 476.659 218.773 476.849 232.149 475.569C238.837 474.952 245.43 473.767 251.976 472.345C258.522 470.923 265.068 469.263 271.708 468.078C284.942 465.566 298.508 464.997 311.979 465.281C325.402 465.613 338.921 466.846 352.06 469.927C358.605 471.444 365.056 473.388 371.555 475.142C378.053 476.849 384.599 478.366 391.239 479.266C404.52 481.21 417.991 481.637 431.415 481.352C444.838 481.115 458.167 479.124 471.211 475.9C484.255 472.677 497.679 470.638 511.15 470.401C524.621 470.117 538.091 470.543 551.42 472.487C558.108 473.388 564.654 474.905 571.152 476.659C577.651 478.413 584.101 480.357 590.647 481.874C603.739 484.955 617.162 486.188 630.586 486.52L630.586 486.994L630.491 487.136Z" fill="url(#paint4_linear_175_1061)"/>
<path d="M630.919 469.313C617.495 469.313 603.929 468.412 590.695 465.615C584.055 464.24 577.557 462.439 571.058 460.874C564.56 459.31 558.062 457.983 551.469 457.224C538.33 455.517 524.906 455.28 511.625 455.707C498.296 456.134 485.394 458.267 472.398 461.633C465.9 463.245 459.164 464.809 452.381 465.805C445.598 466.8 438.72 467.417 431.89 467.559C418.277 467.891 404.664 467.559 391.003 465.615C384.173 464.714 377.437 463.197 370.844 461.491C364.251 459.784 357.847 457.84 351.444 456.418C338.637 453.431 325.498 452.341 312.264 452.057C298.983 451.725 285.797 452.199 272.895 454.569C266.444 455.707 259.946 457.319 253.305 458.741C246.665 460.163 239.834 461.349 232.956 461.917C219.248 463.197 205.635 462.913 192.022 461.917C185.239 461.443 178.409 460.543 171.673 459.215C164.938 457.888 158.297 455.991 151.894 454.095C139.087 450.113 126.28 447.363 112.999 446.32C99.7648 445.23 86.3413 444.898 73.1075 445.941C66.4669 446.368 59.9212 447.411 53.328 448.643C46.7823 449.923 40.1891 451.393 33.5011 452.483C20.125 454.664 6.55917 454.949 -6.86434 454.332L-6.86434 453.858C6.55917 454.143 20.0776 453.574 33.2639 451.061C39.8571 449.876 46.4028 448.217 52.9485 446.794C59.5417 445.372 66.1823 444.187 72.8704 443.571C86.2939 442.243 99.7648 442.48 113.188 443.334C126.612 444.187 139.941 446.842 152.842 450.682C165.744 454.474 178.93 457.129 192.354 457.983C205.73 458.883 219.201 459.073 232.577 457.793C239.265 457.177 245.858 455.991 252.404 454.569C258.95 453.147 265.495 451.488 272.136 450.303C285.37 447.79 298.936 447.221 312.407 447.505C325.83 447.837 339.348 449.07 352.487 452.151C359.033 453.668 365.484 455.612 371.982 457.366C378.481 459.073 385.026 460.59 391.667 461.491C404.948 463.434 418.419 463.861 431.843 463.577C445.266 463.34 458.595 461.349 471.639 458.125C484.683 454.901 498.106 452.863 511.577 452.626C525.048 452.341 538.519 452.768 551.848 454.711C558.536 455.612 565.082 457.129 571.58 458.883C578.078 460.637 584.529 462.581 591.075 464.098C604.166 467.18 617.59 468.412 631.013 468.744L631.013 469.218L630.919 469.313Z" fill="url(#paint5_linear_175_1061)"/>
<path d="M631.298 451.481C617.875 451.481 604.309 450.581 591.075 447.736C584.434 446.361 577.936 444.56 571.438 442.995C564.94 441.431 558.441 440.103 551.848 439.345C538.709 437.638 525.286 437.401 512.004 437.828C498.676 438.255 485.774 440.388 472.777 443.754C466.279 445.366 459.544 446.93 452.761 447.926C445.978 448.921 439.1 449.538 432.27 449.68C418.656 450.012 405.043 449.68 391.382 447.736C384.552 446.835 377.817 445.318 371.223 443.612C364.63 441.858 358.227 439.961 351.823 438.539C339.017 435.552 325.878 434.462 312.644 434.177C299.363 433.846 286.176 434.32 273.275 436.69C266.824 437.828 260.325 439.44 253.685 440.862C247.044 442.284 240.214 443.469 233.336 444.038C219.628 445.318 206.015 445.034 192.401 444.038C185.618 443.564 178.788 442.663 172.053 441.336C165.317 440.009 158.677 438.112 152.273 436.216C139.466 432.234 126.659 429.484 113.378 428.441C100.144 427.351 86.7208 427.019 73.4871 428.062C66.8465 428.489 60.3007 429.532 53.7075 430.764C47.1618 432.044 40.5686 433.514 33.8805 434.604C20.5045 436.785 6.93871 437.069 -6.4848 436.453L-6.4848 435.979C6.93871 436.263 20.4571 435.695 33.6434 433.182C40.2366 431.997 46.7823 430.337 53.3281 428.915C59.9212 427.493 66.5618 426.308 73.2499 425.692C86.6734 424.364 100.144 424.601 113.568 425.454C126.991 426.308 140.32 428.963 153.222 432.803C166.124 436.595 179.31 439.25 192.733 440.103C206.109 441.004 219.58 441.194 232.957 439.914C239.645 439.298 246.238 438.112 252.784 436.69C259.329 435.268 265.875 433.609 272.516 432.423C285.749 429.911 299.315 429.342 312.786 429.626C326.21 429.958 339.728 431.191 352.867 434.272C359.413 435.789 365.864 437.733 372.362 439.487C378.86 441.194 385.406 442.711 392.047 443.612C405.328 445.555 418.799 445.982 432.222 445.698C445.646 445.461 458.974 443.469 472.018 440.246C485.063 437.022 498.486 434.983 511.957 434.746C525.428 434.462 538.899 434.889 552.228 436.832C558.916 437.733 565.461 439.25 571.96 441.004C578.458 442.758 584.909 444.702 591.454 446.219C604.546 449.301 617.969 450.533 631.393 450.865L631.393 451.339L631.298 451.481Z" fill="url(#paint6_linear_175_1061)"/>
<path d="M631.724 433.711C618.3 433.711 604.734 432.81 591.501 430.013C584.86 428.638 578.362 426.837 571.863 425.272C565.365 423.708 558.867 422.381 552.274 421.622C539.135 419.915 525.711 419.678 512.43 420.105C499.101 420.532 486.2 422.665 473.203 426.031C466.705 427.643 459.969 429.207 453.186 430.203C446.403 431.198 439.526 431.815 432.695 431.957C419.082 432.289 405.469 431.957 391.808 430.013C384.978 429.112 378.242 427.595 371.649 425.889C365.056 424.182 358.652 422.238 352.249 420.816C339.442 417.829 326.303 416.739 313.069 416.455C299.788 416.123 286.602 416.597 273.7 418.967C267.249 420.105 260.751 421.717 254.11 423.139C247.47 424.561 240.639 425.746 233.762 426.315C220.053 427.595 206.44 427.311 192.827 426.315C186.044 425.841 179.214 424.941 172.478 423.613C165.743 422.286 159.102 420.389 152.699 418.493C139.892 414.511 127.085 411.761 113.804 410.718C100.57 409.628 87.1465 409.296 73.9127 410.339C67.2721 410.766 60.7263 411.809 54.1331 413.041C47.5874 414.321 40.9943 415.791 34.3062 416.881C20.9301 419.062 7.36425 419.346 -6.05927 418.73L-6.05927 418.256C7.36425 418.541 20.8827 417.972 34.0691 415.459C40.6622 414.274 47.2079 412.615 53.7537 411.192C60.3469 409.77 66.9875 408.585 73.6755 407.969C87.099 406.641 100.57 406.878 113.994 407.732C127.417 408.585 140.746 411.24 153.647 415.08C166.549 418.872 179.736 421.527 193.159 422.381C206.535 423.281 220.006 423.471 233.382 422.191C240.07 421.575 246.663 420.389 253.209 418.967C259.755 417.545 266.301 415.886 272.941 414.701C286.175 412.188 299.741 411.619 313.212 411.903C326.635 412.235 340.154 413.468 353.293 416.549C359.838 418.066 366.289 420.01 372.787 421.764C379.286 423.471 385.832 424.988 392.472 425.889C405.753 427.832 419.224 428.259 432.648 427.975C446.071 427.738 459.4 425.746 472.444 422.523C485.488 419.299 498.912 417.261 512.383 417.023C525.854 416.739 539.324 417.166 552.653 419.109C559.341 420.01 565.887 421.527 572.385 423.281C578.883 425.035 585.334 426.979 591.88 428.496C604.972 431.578 618.395 432.81 631.819 433.142L631.819 433.616L631.724 433.711Z" fill="url(#paint7_linear_175_1061)"/>
<path d="M632.152 415.879C618.728 415.879 605.162 414.978 591.928 412.181C585.288 410.807 578.789 409.005 572.291 407.441C565.793 405.876 559.295 404.549 552.701 403.79C539.563 402.084 526.139 401.847 512.858 402.273C499.529 402.7 486.627 404.833 473.631 408.199C467.132 409.811 460.397 411.376 453.614 412.371C446.831 413.367 439.953 413.983 433.123 414.125C419.51 414.457 405.897 414.125 392.236 412.181C385.406 411.281 378.67 409.764 372.077 408.057C365.484 406.35 359.08 404.407 352.677 402.984C339.87 399.998 326.731 398.907 313.497 398.623C300.216 398.291 287.03 398.765 274.128 401.135C267.677 402.273 261.179 403.885 254.538 405.307C247.897 406.73 241.067 407.915 234.189 408.484C220.481 409.764 206.868 409.479 193.255 408.484C186.472 408.01 179.642 407.109 172.906 405.781C166.171 404.454 159.53 402.558 153.127 400.661C140.32 396.679 127.513 393.929 114.232 392.887C100.998 391.796 87.5743 391.464 74.3405 392.507C67.6999 392.934 61.1541 393.977 54.561 395.209C48.0152 396.489 41.422 397.959 34.734 399.05C21.3579 401.23 7.79213 401.515 -5.63139 400.898L-5.63139 400.424C7.79213 400.709 21.3105 400.14 34.4968 397.627C41.09 396.442 47.6357 394.783 54.1815 393.361C60.7747 391.938 67.4153 390.753 74.1033 390.137C87.5268 388.809 100.998 389.046 114.421 389.9C127.845 390.753 141.173 393.408 154.075 397.248C166.977 401.041 180.163 403.695 193.587 404.549C206.963 405.45 220.434 405.639 233.81 404.359C240.498 403.743 247.091 402.558 253.637 401.135C260.183 399.713 266.728 398.054 273.369 396.869C286.603 394.356 300.169 393.787 313.639 394.072C327.063 394.404 340.581 395.636 353.72 398.718C360.266 400.235 366.717 402.178 373.215 403.932C379.714 405.639 386.259 407.156 392.9 408.057C406.181 410.001 419.652 410.427 433.076 410.143C446.499 409.906 459.828 407.915 472.872 404.691C485.916 401.467 499.339 399.429 512.81 399.192C526.281 398.907 539.752 399.334 553.081 401.278C559.769 402.178 566.315 403.695 572.813 405.45C579.311 407.204 585.762 409.147 592.308 410.664C605.399 413.746 618.823 414.978 632.246 415.31L632.246 415.784L632.152 415.879Z" fill="url(#paint8_linear_175_1061)"/>
<path d="M632.578 398.056C619.154 398.056 605.588 397.155 592.355 394.311C585.714 392.936 579.216 391.134 572.717 389.57C566.219 388.006 559.721 386.678 553.128 385.92C539.989 384.213 526.565 383.976 513.284 384.403C499.955 384.829 487.054 386.963 474.057 390.329C467.559 391.94 460.823 393.505 454.04 394.5C447.257 395.496 440.38 396.112 433.549 396.255C419.936 396.586 406.323 396.255 392.662 394.311C385.832 393.41 379.096 391.893 372.503 390.186C365.91 388.48 359.506 386.536 353.103 385.114C340.296 382.127 327.157 381.037 313.923 380.752C300.642 380.42 287.456 380.894 274.554 383.265C268.103 384.403 261.605 386.014 254.964 387.437C248.324 388.859 241.493 390.044 234.616 390.613C220.907 391.893 207.294 391.609 193.681 390.613C186.898 390.139 180.068 389.238 173.332 387.911C166.597 386.583 159.956 384.687 153.553 382.791C140.746 378.809 127.939 376.059 114.658 375.016C101.424 373.926 88.0004 373.594 74.7666 374.637C68.126 375.063 61.5803 376.106 54.9871 377.339C48.4413 378.619 41.8482 380.089 35.1601 381.179C21.784 383.36 8.21825 383.644 -5.20527 383.028L-5.20527 382.554C8.21825 382.838 21.7366 382.269 34.9229 379.757C41.5161 378.571 48.0619 376.912 54.6076 375.49C61.2008 374.068 67.8414 372.883 74.5295 372.266C87.953 370.939 101.424 371.176 114.847 372.029C128.271 372.883 141.6 375.537 154.501 379.377C167.403 383.17 180.589 385.825 194.013 386.678C207.389 387.579 220.86 387.769 234.236 386.489C240.924 385.872 247.517 384.687 254.063 383.265C260.609 381.843 267.155 380.183 273.795 378.998C287.029 376.486 300.595 375.917 314.066 376.201C327.489 376.533 341.008 377.766 354.146 380.847C360.692 382.364 367.143 384.308 373.641 386.062C380.14 387.769 386.685 389.286 393.326 390.186C406.607 392.13 420.078 392.557 433.502 392.272C446.925 392.035 460.254 390.044 473.298 386.82C486.342 383.597 499.766 381.558 513.237 381.321C526.707 381.037 540.178 381.463 553.507 383.407C560.195 384.308 566.741 385.825 573.239 387.579C579.737 389.333 586.188 391.277 592.734 392.794C605.826 395.875 619.249 397.108 632.673 397.44L632.673 397.914L632.578 398.056Z" fill="url(#paint9_linear_175_1061)"/>
<path d="M633.005 380.233C619.581 380.233 606.016 379.333 592.782 376.535C586.141 375.161 579.643 373.359 573.145 371.795C566.646 370.23 560.148 368.903 553.555 368.144C540.416 366.438 526.992 366.201 513.711 366.627C500.383 367.054 487.481 369.187 474.484 372.553C467.986 374.165 461.25 375.73 454.468 376.725C447.685 377.721 440.807 378.337 433.977 378.479C420.363 378.811 406.75 378.479 393.089 376.536C386.259 375.635 379.524 374.118 372.93 372.411C366.337 370.704 359.934 368.761 353.53 367.338C340.723 364.352 327.584 363.261 314.351 362.977C301.069 362.645 287.883 363.119 274.981 365.49C268.53 366.627 262.032 368.239 255.392 369.661C248.751 371.084 241.921 372.269 235.043 372.838C221.335 374.118 207.721 373.833 194.108 372.838C187.325 372.364 180.495 371.463 173.759 370.135C167.024 368.808 160.383 366.912 153.98 365.015C141.173 361.033 128.366 358.284 115.085 357.241C101.851 356.15 88.4277 355.818 75.1939 356.861C68.5533 357.288 62.0075 358.331 55.4144 359.564C48.8686 360.844 42.2754 362.313 35.5874 363.404C22.2113 365.584 8.64554 365.869 -4.77798 365.252L-4.77798 364.778C8.64554 365.063 22.1639 364.494 35.3503 361.981C41.9434 360.796 48.4892 359.137 55.0349 357.715C61.6281 356.292 68.2687 355.107 74.9567 354.491C88.3802 353.164 101.851 353.401 115.275 354.254C128.698 355.107 142.027 357.762 154.929 361.602C167.83 365.395 181.017 368.05 194.44 368.903C207.816 369.804 221.287 369.993 234.663 368.713C241.351 368.097 247.945 366.912 254.49 365.49C261.036 364.067 267.582 362.408 274.222 361.223C287.456 358.71 301.022 358.141 314.493 358.426C327.916 358.758 341.435 359.99 354.574 363.072C361.12 364.589 367.57 366.532 374.069 368.287C380.567 369.993 387.113 371.51 393.753 372.411C407.035 374.355 420.506 374.781 433.929 374.497C447.353 374.26 460.681 372.269 473.725 369.045C486.769 365.821 500.193 363.783 513.664 363.546C527.135 363.261 540.606 363.688 553.934 365.632C560.622 366.532 567.168 368.05 573.666 369.804C580.165 371.558 586.616 373.501 593.161 375.018C606.253 378.1 619.676 379.333 633.1 379.664L633.1 380.138L633.005 380.233Z" fill="url(#paint10_linear_175_1061)"/>
<path d="M633.385 362.402C619.961 362.402 606.395 361.501 593.161 358.656C586.521 357.282 580.022 355.48 573.524 353.916C567.026 352.351 560.528 351.024 553.934 350.265C540.795 348.558 527.372 348.321 514.091 348.748C500.762 349.175 487.86 351.308 474.864 354.674C468.365 356.286 461.63 357.85 454.847 358.846C448.064 359.842 441.186 360.458 434.356 360.6C420.743 360.932 407.13 360.6 393.469 358.656C386.638 357.756 379.903 356.239 373.31 354.532C366.717 352.825 360.313 350.881 353.91 349.459C341.103 346.473 327.964 345.382 314.73 345.098C301.449 344.766 288.263 345.24 275.361 347.61C268.91 348.748 262.412 350.36 255.771 351.782C249.13 353.204 242.3 354.39 235.422 354.959C221.714 356.239 208.101 355.954 194.488 354.959C187.705 354.484 180.875 353.584 174.139 352.256C167.404 350.929 160.763 349.033 154.36 347.136C141.553 343.154 128.746 340.404 115.465 339.361C102.231 338.271 88.8072 337.939 75.5735 338.982C68.9329 339.409 62.3871 340.452 55.7939 341.684C49.2482 342.964 42.655 344.434 35.967 345.524C22.5909 347.705 9.02508 347.99 -4.39844 347.373L-4.39844 346.899C9.02508 347.184 22.5434 346.615 35.7298 344.102C42.3229 342.917 48.8687 341.258 55.4145 339.835C62.0076 338.413 68.6482 337.228 75.3363 336.612C88.7598 335.284 102.231 335.521 115.654 336.375C129.078 337.228 142.406 339.883 155.308 343.723C168.21 347.516 181.396 350.17 194.82 351.024C208.196 351.924 221.667 352.114 235.043 350.834C241.731 350.218 248.324 349.033 254.87 347.61C261.416 346.188 267.961 344.529 274.602 343.344C287.836 340.831 301.402 340.262 314.873 340.547C328.296 340.878 341.814 342.111 354.953 345.193C361.499 346.71 367.95 348.653 374.448 350.407C380.947 352.114 387.492 353.631 394.133 354.532C407.414 356.476 420.885 356.902 434.309 356.618C447.732 356.381 461.061 354.39 474.105 351.166C487.149 347.942 500.572 345.904 514.043 345.667C527.514 345.382 540.985 345.809 554.314 347.753C561.002 348.653 567.548 350.17 574.046 351.924C580.544 353.679 586.995 355.622 593.541 357.139C606.632 360.221 620.056 361.453 633.479 361.785L633.479 362.259L633.385 362.402Z" fill="url(#paint11_linear_175_1061)"/>
<path d="M633.81 344.579C620.387 344.579 606.821 343.678 593.587 340.881C586.946 339.506 580.448 337.704 573.95 336.14C567.451 334.576 560.953 333.248 554.36 332.49C541.221 330.783 527.798 330.546 514.516 330.973C501.188 331.399 488.286 333.533 475.289 336.899C468.791 338.51 462.056 340.075 455.273 341.07C448.49 342.066 441.612 342.682 434.782 342.825C421.168 343.156 407.555 342.825 393.894 340.881C387.064 339.98 380.329 338.463 373.735 336.756C367.142 335.05 360.739 333.106 354.335 331.684C341.529 328.697 328.39 327.607 315.156 327.322C301.875 326.99 288.688 327.464 275.787 329.835C269.336 330.973 262.837 332.584 256.197 334.007C249.556 335.429 242.726 336.614 235.848 337.183C222.14 338.463 208.527 338.179 194.913 337.183C188.13 336.709 181.3 335.808 174.565 334.481C167.829 333.153 161.189 331.257 154.785 329.361C141.978 325.378 129.171 322.629 115.89 321.586C102.656 320.495 89.2328 320.164 75.999 321.207C69.3584 321.633 62.8127 322.676 56.2195 323.909C49.6738 325.189 43.0806 326.658 36.3925 327.749C23.0164 329.93 9.45069 330.214 -3.97283 329.598L-3.97283 329.124C9.45069 329.408 22.9691 328.839 36.1554 326.327C42.7486 325.141 49.2943 323.482 55.84 322.06C62.4332 320.638 69.0739 319.453 75.7619 318.836C89.1854 317.509 102.656 317.746 116.08 318.599C129.503 319.453 142.832 322.107 155.734 325.947C168.636 329.74 181.822 332.395 195.245 333.248C208.621 334.149 222.092 334.339 235.469 333.059C242.157 332.442 248.75 331.257 255.295 329.835C261.841 328.413 268.387 326.753 275.028 325.568C288.261 323.055 301.827 322.487 315.298 322.771C328.722 323.103 342.24 324.336 355.379 327.417C361.925 328.934 368.376 330.878 374.874 332.632C381.372 334.339 387.918 335.856 394.559 336.756C407.84 338.7 421.311 339.127 434.734 338.842C448.158 338.605 461.486 336.614 474.53 333.39C487.574 330.167 500.998 328.128 514.469 327.891C527.94 327.607 541.411 328.033 554.739 329.977C561.427 330.878 567.973 332.395 574.472 334.149C580.97 335.903 587.421 337.847 593.966 339.364C607.058 342.445 620.481 343.678 633.905 344.01L633.905 344.484L633.81 344.579Z" fill="url(#paint12_linear_175_1061)"/>
<path d="M634.238 326.756C620.814 326.756 607.249 325.855 594.015 323.058C587.374 321.683 580.876 319.881 574.378 318.317C567.879 316.753 561.381 315.425 554.788 314.667C541.649 312.96 528.225 312.723 514.944 313.15C501.616 313.576 488.714 315.71 475.717 319.076C469.219 320.687 462.483 322.252 455.7 323.247C448.918 324.243 442.04 324.859 435.209 325.002C421.596 325.333 407.983 325.002 394.322 323.058C387.492 322.157 380.756 320.64 374.163 318.933C367.57 317.179 361.167 315.283 354.763 313.861C341.956 310.874 328.817 309.784 315.584 309.499C302.302 309.167 289.116 309.641 276.214 312.012C269.763 313.15 263.265 314.761 256.625 316.184C249.984 317.606 243.154 318.791 236.276 319.36C222.568 320.64 208.954 320.356 195.341 319.36C188.558 318.886 181.728 317.985 174.992 316.658C168.257 315.33 161.616 313.434 155.213 311.538C142.406 307.555 129.599 304.806 116.318 303.763C103.084 302.673 89.6607 302.341 76.4269 303.384C69.7863 303.81 63.2405 304.853 56.6473 306.086C50.1016 307.366 43.5084 308.836 36.8204 309.926C23.4443 312.107 9.87842 312.391 -3.54509 311.775L-3.54509 311.301C9.87842 311.585 23.3969 311.016 36.5832 308.504C43.1764 307.318 49.7221 305.659 56.2679 304.237C62.8611 302.815 69.5017 301.63 76.1897 301.013C89.6132 299.686 103.084 299.923 116.508 300.776C129.931 301.63 143.26 304.284 156.162 308.124C169.063 311.917 182.25 314.572 195.673 315.425C209.049 316.326 222.52 316.516 235.896 315.236C242.584 314.619 249.178 313.434 255.723 312.012C262.269 310.59 268.815 308.93 275.455 307.745C288.689 305.233 302.255 304.664 315.726 304.948C329.149 305.28 342.668 306.513 355.807 309.594C362.352 311.111 368.803 313.055 375.302 314.809C381.8 316.516 388.346 318.033 394.986 318.933C408.268 320.877 421.738 321.304 435.162 321.019C448.586 320.782 461.914 318.791 474.958 315.567C488.002 312.344 501.426 310.305 514.897 310.068C528.368 309.784 541.839 310.21 555.167 312.154C561.855 313.055 568.401 314.572 574.899 316.326C581.398 318.08 587.849 320.024 594.394 321.541C607.486 324.622 620.909 325.855 634.333 326.187L634.333 326.661L634.238 326.756Z" fill="url(#paint13_linear_175_1061)"/>
<path d="M634.666 308.933C621.242 308.933 607.676 308.032 594.443 305.235C587.802 303.86 581.304 302.059 574.805 300.494C568.307 298.93 561.809 297.602 555.216 296.844C542.077 295.137 528.653 294.9 515.372 295.327C502.043 295.753 489.142 297.887 476.145 301.253C469.647 302.864 462.911 304.429 456.128 305.425C449.345 306.42 442.468 307.036 435.637 307.179C422.024 307.51 408.411 307.179 394.75 305.235C387.92 304.334 381.184 302.817 374.591 301.11C367.998 299.404 361.594 297.46 355.191 296.038C342.384 293.051 329.245 291.961 316.011 291.676C302.73 291.344 289.544 291.818 276.642 294.189C270.191 295.327 263.693 296.939 257.052 298.361C250.412 299.783 243.581 300.968 236.704 301.537C222.995 302.817 209.382 302.533 195.769 301.537C188.986 301.063 182.156 300.162 175.42 298.835C168.685 297.507 162.044 295.611 155.641 293.715C142.834 289.733 130.027 286.983 116.746 285.94C103.512 284.85 90.0884 284.518 76.8546 285.561C70.214 285.987 63.6683 287.03 57.0751 288.263C50.5294 289.543 43.9362 291.013 37.2482 292.103C23.8721 294.284 10.3063 294.568 -3.11722 293.952L-3.11722 293.478C10.3063 293.762 23.8246 293.193 37.011 290.681C43.6042 289.496 50.1499 287.836 56.6957 286.414C63.2888 284.992 69.9295 283.807 76.6175 283.19C90.041 281.863 103.512 282.1 116.935 282.953C130.359 283.807 143.688 286.461 156.589 290.301C169.491 294.094 182.677 296.749 196.101 297.602C209.477 298.503 222.948 298.693 236.324 297.413C243.012 296.796 249.605 295.611 256.151 294.189C262.697 292.767 269.243 291.107 275.883 289.922C289.117 287.41 302.683 286.841 316.154 287.125C329.577 287.457 343.096 288.69 356.235 291.771C362.78 293.288 369.231 295.232 375.729 296.986C382.228 298.693 388.774 300.21 395.414 301.11C408.695 303.054 422.166 303.481 435.59 303.196C449.013 302.959 462.342 300.968 475.386 297.744C488.43 294.521 501.854 292.482 515.325 292.245C528.795 291.961 542.266 292.387 555.595 294.331C562.283 295.232 568.829 296.749 575.327 298.503C581.826 300.257 588.276 302.201 594.822 303.718C607.914 306.799 621.337 308.032 634.761 308.364L634.761 308.838L634.666 308.933Z" fill="url(#paint14_linear_175_1061)"/>
<path d="M635.091 291.101C621.668 291.101 608.102 290.2 594.868 287.403C588.228 286.028 581.729 284.227 575.231 282.662C568.733 281.098 562.234 279.77 555.641 279.012C542.502 277.305 529.079 277.068 515.798 277.495C502.469 277.922 489.567 280.055 476.571 283.421C470.072 285.033 463.337 286.597 456.554 287.593C449.771 288.588 442.893 289.205 436.063 289.347C422.45 289.679 408.836 289.347 395.176 287.403C388.345 286.502 381.61 284.985 375.017 283.279C368.423 281.572 362.02 279.628 355.617 278.206C342.81 275.219 329.671 274.129 316.437 273.845C303.156 273.513 289.969 273.987 277.068 276.357C270.617 277.495 264.119 279.107 257.478 280.529C250.837 281.951 244.007 283.136 237.129 283.705C223.421 284.985 209.808 284.701 196.195 283.705C189.412 283.231 182.581 282.33 175.846 281.003C169.11 279.676 162.47 277.779 156.066 275.883C143.259 271.901 130.453 269.151 117.171 268.108C103.938 267.018 90.5141 266.686 77.2803 267.729C70.6397 268.156 64.0939 269.199 57.5007 270.431C50.955 271.711 44.3618 273.181 37.6738 274.271C24.2977 276.452 10.7319 276.736 -2.69161 276.12L-2.69161 275.646C10.7319 275.93 24.2503 275.362 37.4366 272.849C44.0298 271.664 50.5756 270.004 57.1213 268.582C63.7145 267.16 70.3551 265.975 77.0431 265.359C90.4666 264.031 103.938 264.268 117.361 265.121C130.785 265.975 144.113 268.63 157.015 272.47C169.917 276.262 183.103 278.917 196.527 279.77C209.903 280.671 223.374 280.861 236.75 279.581C243.438 278.965 250.031 277.779 256.577 276.357C263.122 274.935 269.668 273.276 276.309 272.09C289.543 269.578 303.108 269.009 316.579 269.293C330.003 269.625 343.521 270.858 356.66 273.939C363.206 275.456 369.657 277.4 376.155 279.154C382.653 280.861 389.199 282.378 395.84 283.279C409.121 285.222 422.592 285.649 436.015 285.365C449.439 285.128 462.768 283.136 475.812 279.913C488.856 276.689 502.279 274.65 515.75 274.413C529.221 274.129 542.692 274.556 556.021 276.499C562.709 277.4 569.254 278.917 575.753 280.671C582.251 282.425 588.702 284.369 595.248 285.886C608.339 288.968 621.763 290.2 635.186 290.532L635.186 291.006L635.091 291.101Z" fill="url(#paint15_linear_175_1061)"/>
<path d="M635.471 273.278C622.047 273.278 608.482 272.377 595.248 269.533C588.607 268.158 582.109 266.356 575.611 264.792C569.112 263.228 562.614 261.9 556.021 261.142C542.882 259.435 529.458 259.198 516.177 259.625C502.848 260.051 489.947 262.185 476.95 265.551C470.452 267.162 463.716 268.727 456.933 269.722C450.151 270.718 443.273 271.334 436.442 271.476C422.829 271.808 409.216 271.476 395.555 269.533C388.725 268.632 381.989 267.115 375.396 265.408C368.803 263.702 362.4 261.758 355.996 260.336C343.189 257.349 330.05 256.259 316.817 255.974C303.535 255.642 290.349 256.116 277.447 258.487C270.996 259.625 264.498 261.236 257.857 262.659C251.217 264.081 244.387 265.266 237.509 265.835C223.801 267.115 210.187 266.831 196.574 265.835C189.791 265.361 182.961 264.46 176.225 263.133C169.49 261.805 162.849 259.909 156.446 258.013C143.639 254.03 130.832 251.281 117.551 250.238C104.317 249.147 90.8936 248.816 77.6598 249.859C71.0192 250.285 64.4735 251.328 57.8803 252.561C51.3345 253.841 44.7414 255.31 38.0533 256.401C24.6772 258.582 11.1114 258.866 -2.31207 258.25L-2.31207 257.776C11.1114 258.06 24.6298 257.491 37.8162 254.979C44.4094 253.793 50.9551 252.134 57.5008 250.712C64.094 249.29 70.7346 248.104 77.4226 247.488C90.8462 246.161 104.317 246.398 117.741 247.251C131.164 248.104 144.493 250.759 157.395 254.599C170.296 258.392 183.483 261.047 196.906 261.9C210.282 262.801 223.753 262.99 237.129 261.71C243.817 261.094 250.41 259.909 256.956 258.487C263.502 257.065 270.048 255.405 276.688 254.22C289.922 251.707 303.488 251.139 316.959 251.423C330.382 251.755 343.901 252.987 357.04 256.069C363.585 257.586 370.036 259.53 376.535 261.284C383.033 262.99 389.579 264.508 396.219 265.408C409.5 267.352 422.971 267.779 436.395 267.494C449.818 267.257 463.147 265.266 476.191 262.042C489.235 258.819 502.659 256.78 516.13 256.543C529.601 256.259 543.072 256.685 556.4 258.629C563.088 259.53 569.634 261.047 576.132 262.801C582.631 264.555 589.081 266.499 595.627 268.016C608.719 271.097 622.142 272.33 635.566 272.662L635.566 273.136L635.471 273.278Z" fill="url(#paint16_linear_175_1061)"/>
<path d="M635.899 255.455C622.475 255.455 608.909 254.554 595.676 251.757C589.035 250.382 582.537 248.581 576.038 247.016C569.54 245.452 563.042 244.125 556.449 243.366C543.31 241.659 529.886 241.422 516.605 241.849C503.276 242.276 490.375 244.409 477.378 247.775C470.88 249.387 464.144 250.951 457.361 251.947C450.578 252.942 443.701 253.559 436.87 253.701C423.257 254.033 409.644 253.701 395.983 251.757C389.153 250.856 382.417 249.339 375.824 247.633C369.231 245.926 362.827 243.982 356.424 242.56C343.617 239.573 330.478 238.483 317.244 238.199C303.963 237.867 290.777 238.341 277.875 240.711C271.424 241.849 264.926 243.461 258.285 244.883C251.645 246.305 244.814 247.49 237.937 248.059C224.228 249.339 210.615 249.055 197.002 248.059C190.219 247.585 183.389 246.685 176.653 245.357C169.918 244.03 163.277 242.133 156.874 240.237C144.067 236.255 131.26 233.505 117.979 232.462C104.745 231.372 91.3214 231.04 78.0876 232.083C71.447 232.51 64.9013 233.553 58.3081 234.785C51.7624 236.065 45.1692 237.535 38.4812 238.625C25.1051 240.806 11.5393 241.09 -1.88426 240.474L-1.88426 240C11.5393 240.285 25.0576 239.716 38.244 237.203C44.8372 236.018 51.3829 234.359 57.9286 232.936C64.5218 231.514 71.1624 230.329 77.8505 229.713C91.274 228.385 104.745 228.622 118.168 229.476C131.592 230.329 144.921 232.984 157.822 236.824C170.724 240.616 183.91 243.271 197.334 244.125C210.71 245.025 224.181 245.215 237.557 243.935C244.245 243.319 250.838 242.133 257.384 240.711C263.93 239.289 270.476 237.63 277.116 236.444C290.35 233.932 303.916 233.363 317.387 233.647C330.81 233.979 344.329 235.212 357.467 238.293C364.013 239.81 370.464 241.754 376.962 243.508C383.461 245.215 390.006 246.732 396.647 247.633C409.928 249.576 423.399 250.003 436.823 249.719C450.246 249.482 463.575 247.491 476.619 244.267C489.663 241.043 503.087 239.004 516.557 238.767C530.028 238.483 543.499 238.91 556.828 240.853C563.516 241.754 570.062 243.271 576.56 245.025C583.058 246.779 589.509 248.723 596.055 250.24C609.146 253.322 622.57 254.554 635.994 254.886L635.994 255.36L635.899 255.455Z" fill="url(#paint17_linear_175_1061)"/>
<path d="M636.324 237.632C622.901 237.632 609.335 236.731 596.101 233.934C589.461 232.559 582.962 230.758 576.464 229.193C569.966 227.629 563.467 226.302 556.874 225.543C543.735 223.836 530.312 223.599 517.031 224.026C503.702 224.453 490.8 226.586 477.804 229.952C471.305 231.564 464.57 233.128 457.787 234.124C451.004 235.119 444.126 235.736 437.296 235.878C423.683 236.21 410.069 235.878 396.409 233.934C389.578 233.033 382.843 231.516 376.25 229.81C369.656 228.103 363.253 226.159 356.85 224.737C344.043 221.75 330.904 220.66 317.67 220.376C304.389 220.044 291.202 220.518 278.301 222.888C271.85 224.026 265.351 225.638 258.711 227.06C252.07 228.482 245.24 229.667 238.362 230.236C224.654 231.516 211.041 231.232 197.428 230.236C190.645 229.762 183.814 228.862 177.079 227.534C170.343 226.207 163.703 224.31 157.299 222.414C144.492 218.432 131.686 215.682 118.404 214.639C105.171 213.549 91.747 213.217 78.5132 214.26C71.8726 214.687 65.3269 215.73 58.7337 216.962C52.1879 218.242 45.5948 219.712 38.9067 220.802C25.5307 222.983 11.9649 223.267 -1.45865 222.651L-1.45865 222.177C11.9649 222.462 25.4832 221.893 38.6696 219.38C45.2628 218.195 51.8085 216.536 58.3542 215.113C64.9474 213.691 71.588 212.506 78.2761 211.89C91.6996 210.562 105.171 210.799 118.594 211.653C132.018 212.506 145.346 215.161 158.248 219.001C171.15 222.793 184.336 225.448 197.76 226.302C211.136 227.202 224.607 227.392 237.983 226.112C244.671 225.496 251.264 224.31 257.81 222.888C264.355 221.466 270.901 219.807 277.542 218.622C290.776 216.109 304.341 215.54 317.812 215.824C331.236 216.156 344.754 217.389 357.893 220.47C364.439 221.987 370.89 223.931 377.388 225.685C383.886 227.392 390.432 228.909 397.073 229.81C410.354 231.753 423.825 232.18 437.248 231.896C450.672 231.659 464.001 229.668 477.045 226.444C490.089 223.22 503.512 221.182 516.983 220.944C530.454 220.66 543.925 221.087 557.254 223.03C563.942 223.931 570.487 225.448 576.986 227.202C583.484 228.956 589.935 230.9 596.481 232.417C609.572 235.499 622.996 236.731 636.419 237.063L636.419 237.537L636.324 237.632Z" fill="url(#paint18_linear_175_1061)"/>
<path d="M636.752 219.853C623.329 219.853 609.763 218.952 596.529 216.155C589.888 214.78 583.39 212.979 576.892 211.414C570.393 209.85 563.895 208.522 557.302 207.764C544.163 206.057 530.74 205.82 517.458 206.247C504.13 206.674 491.228 208.807 478.231 212.173C471.733 213.785 464.998 215.349 458.215 216.345C451.432 217.34 444.554 217.957 437.724 218.099C424.11 218.431 410.497 218.099 396.836 216.155C390.006 215.254 383.271 213.737 376.677 212.031C370.084 210.324 363.681 208.38 357.277 206.958C344.47 203.971 331.332 202.881 318.098 202.597C304.817 202.265 291.63 202.739 278.728 205.109C272.278 206.247 265.779 207.859 259.139 209.281C252.498 210.703 245.668 211.888 238.79 212.457C225.082 213.737 211.469 213.453 197.855 212.457C191.072 211.983 184.242 211.082 177.507 209.755C170.771 208.428 164.131 206.531 157.727 204.635C144.92 200.653 132.113 197.903 118.832 196.86C105.598 195.77 92.1748 195.438 78.9411 196.481C72.3004 196.908 65.7547 197.951 59.1615 199.183C52.6158 200.463 46.0226 201.933 39.3346 203.023C25.9585 205.204 12.3926 205.488 -1.03092 204.872L-1.03092 204.398C12.3926 204.682 25.911 204.114 39.0974 201.601C45.6906 200.416 52.2363 198.757 58.7821 197.334C65.3752 195.912 72.0158 194.727 78.7039 194.111C92.1274 192.783 105.598 193.02 119.022 193.873C132.445 194.727 145.774 197.382 158.676 201.222C171.578 205.014 184.764 207.669 198.187 208.522C211.563 209.423 225.034 209.613 238.41 208.333C245.099 207.717 251.692 206.531 258.237 205.109C264.783 203.687 271.329 202.028 277.97 200.842C291.203 198.33 304.769 197.761 318.24 198.045C331.664 198.377 345.182 199.61 358.321 202.691C364.867 204.208 371.318 206.152 377.816 207.906C384.314 209.613 390.86 211.13 397.5 212.031C410.782 213.974 424.253 214.401 437.676 214.117C451.1 213.88 464.428 211.888 477.472 208.665C490.516 205.441 503.94 203.402 517.411 203.165C530.882 202.881 544.353 203.308 557.681 205.251C564.369 206.152 570.915 207.669 577.414 209.423C583.912 211.177 590.363 213.121 596.908 214.638C610 217.72 623.423 218.952 636.847 219.284L636.847 219.758L636.752 219.853Z" fill="url(#paint19_linear_175_1061)"/>
<path d="M637.178 202.021C623.754 202.021 610.188 201.12 596.955 198.323C590.314 196.949 583.816 195.147 577.317 193.583C570.819 192.018 564.321 190.691 557.728 189.932C544.589 188.226 531.165 187.988 517.884 188.415C504.555 188.842 491.654 190.975 478.657 194.341C472.159 195.953 465.423 197.517 458.64 198.513C451.857 199.509 444.98 200.125 438.149 200.267C424.536 200.599 410.923 200.267 397.262 198.323C390.432 197.423 383.696 195.906 377.103 194.199C370.51 192.492 364.106 190.549 357.703 189.126C344.896 186.14 331.757 185.049 318.523 184.765C305.242 184.433 292.056 184.907 279.154 187.277C272.703 188.415 266.205 190.027 259.564 191.449C252.924 192.871 246.093 194.057 239.216 194.626C225.507 195.906 211.894 195.621 198.281 194.626C191.498 194.152 184.668 193.251 177.932 191.923C171.197 190.596 164.556 188.7 158.153 186.803C145.346 182.821 132.539 180.071 119.258 179.028C106.024 177.938 92.6004 177.606 79.3666 178.649C72.726 179.076 66.1803 180.119 59.5871 181.351C53.0414 182.631 46.4482 184.101 39.7601 185.191C26.3841 187.372 12.8183 187.657 -0.605239 187.04L-0.605239 186.566C12.8183 186.851 26.3366 186.282 39.523 183.769C46.1161 182.584 52.6619 180.925 59.2076 179.503C65.8008 178.08 72.4414 176.895 79.1295 176.279C92.553 174.951 106.024 175.188 119.447 176.042C132.871 176.895 146.2 179.55 159.101 183.39C172.003 187.183 185.189 189.837 198.613 190.691C211.989 191.591 225.46 191.781 238.836 190.501C245.524 189.885 252.117 188.7 258.663 187.277C265.209 185.855 271.755 184.196 278.395 183.011C291.629 180.498 305.195 179.929 318.666 180.214C332.089 180.546 345.608 181.778 358.746 184.86C365.292 186.377 371.743 188.32 378.241 190.074C384.74 191.781 391.285 193.298 397.926 194.199C411.207 196.143 424.678 196.569 438.102 196.285C451.525 196.048 464.854 194.057 477.898 190.833C490.942 187.609 504.366 185.571 517.836 185.334C531.307 185.049 544.778 185.476 558.107 187.42C564.795 188.32 571.341 189.837 577.839 191.591C584.337 193.346 590.788 195.289 597.334 196.806C610.426 199.888 623.849 201.12 637.273 201.452L637.273 201.926L637.178 202.021Z" fill="url(#paint20_linear_175_1061)"/>
<path d="M637.606 184.198C624.182 184.198 610.616 183.297 597.382 180.453C590.742 179.078 584.243 177.277 577.745 175.712C571.247 174.148 564.749 172.82 558.155 172.062C545.016 170.355 531.593 170.118 518.312 170.545C504.983 170.971 492.081 173.105 479.085 176.471C472.586 178.083 465.851 179.647 459.068 180.643C452.285 181.638 445.407 182.255 438.577 182.397C424.964 182.729 411.351 182.397 397.69 180.453C390.86 179.552 384.124 178.035 377.531 176.329C370.938 174.622 364.534 172.678 358.131 171.256C345.324 168.269 332.185 167.179 318.951 166.894C305.67 166.563 292.484 167.037 279.582 169.407C273.131 170.545 266.633 172.157 259.992 173.579C253.352 175.001 246.521 176.186 239.643 176.755C225.935 178.035 212.322 177.751 198.709 176.755C191.926 176.281 185.096 175.38 178.36 174.053C171.625 172.726 164.984 170.829 158.581 168.933C145.774 164.951 132.967 162.201 119.686 161.158C106.452 160.068 93.0282 159.736 79.7945 160.779C73.1539 161.206 66.6081 162.248 60.015 163.481C53.4692 164.761 46.876 166.231 40.188 167.321C26.8119 169.502 13.2461 169.786 -0.177435 169.17L-0.177435 168.696C13.2461 168.98 26.7645 168.411 39.9508 165.899C46.544 164.714 53.0897 163.054 59.6355 161.632C66.2287 160.21 72.8692 159.025 79.5573 158.408C92.9808 157.081 106.452 157.318 119.875 158.171C133.299 159.025 146.627 161.68 159.529 165.52C172.431 169.312 185.617 171.967 199.041 172.82C212.417 173.721 225.888 173.911 239.264 172.631C245.952 172.014 252.545 170.829 259.091 169.407C265.637 167.985 272.182 166.326 278.823 165.14C292.057 162.628 305.623 162.059 319.094 162.343C332.517 162.675 346.035 163.908 359.174 166.989C365.72 168.506 372.171 170.45 378.669 172.204C385.168 173.911 391.713 175.428 398.354 176.329C411.635 178.272 425.106 178.699 438.53 178.414C451.953 178.177 465.282 176.186 478.326 172.963C491.37 169.739 504.793 167.7 518.264 167.463C531.735 167.179 545.206 167.606 558.535 169.549C565.223 170.45 571.769 171.967 578.267 173.721C584.765 175.475 591.216 177.419 597.762 178.936C610.853 182.017 624.277 183.25 637.7 183.582L637.7 184.056L637.606 184.198Z" fill="url(#paint21_linear_175_1061)"/>
<path d="M637.985 166.375C624.562 166.375 610.996 165.474 597.762 162.677C591.121 161.303 584.623 159.501 578.125 157.937C571.626 156.372 565.128 155.045 558.535 154.286C545.396 152.58 531.973 152.343 518.691 152.769C505.363 153.196 492.461 155.329 479.464 158.695C472.966 160.307 466.231 161.871 459.448 162.867C452.665 163.863 445.787 164.479 438.957 164.621C425.343 164.953 411.73 164.621 398.069 162.677C391.239 161.777 384.504 160.26 377.91 158.553C371.317 156.846 364.914 154.903 358.51 153.48C345.703 150.494 332.565 149.403 319.331 149.119C306.05 148.787 292.863 149.261 279.961 151.631C273.511 152.769 267.012 154.381 260.372 155.803C253.731 157.226 246.901 158.411 240.023 158.98C226.315 160.26 212.702 159.975 199.088 158.98C192.305 158.506 185.475 157.605 178.74 156.277C172.004 154.95 165.363 153.054 158.96 151.157C146.153 147.175 133.346 144.425 120.065 143.382C106.831 142.292 93.4078 141.96 80.174 143.003C73.5334 143.43 66.9876 144.473 60.3944 145.706C53.8487 146.986 47.2555 148.455 40.5675 149.546C27.1914 151.726 13.6256 152.011 0.202103 151.394L0.202103 150.92C13.6256 151.205 27.144 150.636 40.3303 148.123C46.9235 146.938 53.4693 145.279 60.015 143.857C66.6082 142.434 73.2488 141.249 79.9368 140.633C93.3603 139.305 106.831 139.542 120.255 140.396C133.678 141.249 147.007 143.904 159.909 147.744C172.81 151.537 185.997 154.191 199.42 155.045C212.796 155.946 226.267 156.135 239.643 154.855C246.331 154.239 252.925 153.054 259.47 151.631C266.016 150.209 272.562 148.55 279.202 147.365C292.436 144.852 306.002 144.283 319.473 144.568C332.897 144.9 346.415 146.132 359.554 149.214C366.1 150.731 372.55 152.674 379.049 154.428C385.547 156.135 392.093 157.652 398.733 158.553C412.015 160.497 425.486 160.923 438.909 160.639C452.333 160.402 465.661 158.411 478.705 155.187C491.749 151.963 505.173 149.925 518.644 149.688C532.115 149.403 545.586 149.83 558.914 151.774C565.602 152.674 572.148 154.191 578.646 155.946C585.145 157.7 591.596 159.643 598.141 161.16C611.233 164.242 624.656 165.474 638.08 165.806L638.08 166.28L637.985 166.375Z" fill="url(#paint22_linear_175_1061)"/>
<path d="M638.413 148.552C624.989 148.552 611.424 147.651 598.19 144.807C591.549 143.432 585.051 141.631 578.552 140.066C572.054 138.502 565.556 137.174 558.963 136.416C545.824 134.709 532.4 134.472 519.119 134.899C505.79 135.326 492.889 137.459 479.892 140.825C473.394 142.437 466.658 144.001 459.875 144.997C453.092 145.992 446.215 146.609 439.384 146.751C425.771 147.083 412.158 146.751 398.497 144.807C391.667 143.906 384.931 142.389 378.338 140.683C371.745 138.976 365.342 137.032 358.938 135.61C346.131 132.623 332.992 131.533 319.759 131.248C306.477 130.917 293.291 131.391 280.389 133.761C273.938 134.899 267.44 136.511 260.799 137.933C254.159 139.355 247.328 140.54 240.451 141.109C226.743 142.389 213.129 142.105 199.516 141.109C192.733 140.635 185.903 139.734 179.167 138.407C172.432 137.08 165.791 135.183 159.388 133.287C146.581 129.305 133.774 126.555 120.493 125.512C107.259 124.422 93.8356 124.09 80.6018 125.133C73.9612 125.56 67.4154 126.602 60.8223 127.835C54.2765 129.115 47.6833 130.585 40.9953 131.675C27.6192 133.856 14.0534 134.14 0.629907 133.524L0.629907 133.05C14.0534 133.334 27.5718 132.766 40.7581 130.253C47.3513 129.068 53.897 127.408 60.4428 125.986C67.036 124.564 73.6766 123.379 80.3646 122.762C93.7881 121.435 107.259 121.672 120.683 122.525C134.106 123.379 147.435 126.034 160.336 129.874C173.238 133.666 186.425 136.321 199.848 137.174C213.224 138.075 226.695 138.265 240.071 136.985C246.759 136.368 253.352 135.183 259.898 133.761C266.444 132.339 272.99 130.68 279.63 129.494C292.864 126.982 306.43 126.413 319.901 126.697C333.324 127.029 346.843 128.262 359.982 131.343C366.527 132.86 372.978 134.804 379.477 136.558C385.975 138.265 392.521 139.782 399.161 140.683C412.442 142.626 425.913 143.053 439.337 142.769C452.76 142.531 466.089 140.54 479.133 137.317C492.177 134.093 505.601 132.054 519.072 131.817C532.543 131.533 546.014 131.96 559.342 133.903C566.03 134.804 572.576 136.321 579.074 138.075C585.573 139.829 592.023 141.773 598.569 143.29C611.661 146.372 625.084 147.604 638.508 147.936L638.508 148.41L638.413 148.552Z" fill="url(#paint23_linear_175_1061)"/>
<path d="M638.839 130.721C625.415 130.721 611.849 129.82 598.615 127.023C591.975 125.648 585.476 123.846 578.978 122.282C572.48 120.718 565.982 119.39 559.388 118.632C546.249 116.925 532.826 116.688 519.545 117.115C506.216 117.541 493.314 119.675 480.318 123.041C473.819 124.652 467.084 126.217 460.301 127.212C453.518 128.208 446.64 128.824 439.81 128.966C426.197 129.298 412.583 128.966 398.923 127.023C392.092 126.122 385.357 124.605 378.764 122.898C372.171 121.192 365.767 119.248 359.364 117.826C346.557 114.839 333.418 113.749 320.184 113.464C306.903 113.132 293.717 113.606 280.815 115.977C274.364 117.115 267.866 118.726 261.225 120.149C254.584 121.571 247.754 122.756 240.876 123.325C227.168 124.605 213.555 124.32 199.942 123.325C193.159 122.851 186.328 121.95 179.593 120.623C172.858 119.295 166.217 117.399 159.813 115.503C147.007 111.52 134.2 108.771 120.918 107.728C107.685 106.637 94.2612 106.306 81.0274 107.349C74.3868 107.775 67.841 108.818 61.2479 110.051C54.7021 111.331 48.1089 112.8 41.4209 113.891C28.0448 116.072 14.479 116.356 1.05545 115.74L1.05545 115.266C14.479 115.55 27.9974 114.981 41.1838 112.469C47.7769 111.283 54.3226 109.624 60.8684 108.202C67.4616 106.78 74.1022 105.594 80.7902 104.978C94.2138 103.651 107.685 103.888 121.108 104.741C134.532 105.594 147.86 108.249 160.762 112.089C173.664 115.882 186.85 118.537 200.274 119.39C213.65 120.291 227.121 120.48 240.497 119.2C247.185 118.584 253.778 117.399 260.324 115.977C266.87 114.555 273.415 112.895 280.056 111.71C293.29 109.197 306.856 108.629 320.326 108.913C333.75 109.245 347.268 110.477 360.407 113.559C366.953 115.076 373.404 117.02 379.902 118.774C386.4 120.48 392.946 121.998 399.587 122.898C412.868 124.842 426.339 125.269 439.763 124.984C453.186 124.747 466.515 122.756 479.559 119.532C492.603 116.309 506.026 114.27 519.497 114.033C532.968 113.749 546.439 114.175 559.768 116.119C566.456 117.02 573.002 118.537 579.5 120.291C585.998 122.045 592.449 123.989 598.995 125.506C612.086 128.587 625.51 129.82 638.933 130.152L638.933 130.626L638.839 130.721Z" fill="url(#paint24_linear_175_1061)"/>
<path d="M639.266 112.898C625.843 112.898 612.277 111.997 599.043 109.2C592.403 107.825 585.904 106.023 579.406 104.459C572.908 102.895 566.409 101.567 559.816 100.809C546.677 99.1019 533.254 98.8649 519.973 99.2916C506.644 99.7182 493.742 101.852 480.745 105.218C474.247 106.829 467.512 108.394 460.729 109.389C453.946 110.385 447.068 111.001 440.238 111.143C426.625 111.475 413.011 111.143 399.351 109.2C392.52 108.299 385.785 106.782 379.192 105.075C372.598 103.369 366.195 101.425 359.792 100.003C346.985 97.016 333.846 95.9256 320.612 95.6412C307.331 95.3093 294.144 95.7834 281.243 98.1538C274.792 99.2916 268.293 100.903 261.653 102.326C255.012 103.748 248.182 104.933 241.304 105.502C227.596 106.782 213.983 106.498 200.37 105.502C193.587 105.028 186.756 104.127 180.021 102.8C173.285 101.472 166.645 99.576 160.241 97.6797C147.434 93.6975 134.627 90.9478 121.346 89.9048C108.112 88.8145 94.689 88.4826 81.4552 89.5255C74.8146 89.9522 68.2688 90.9952 61.6757 92.2278C55.1299 93.5079 48.5367 94.9775 41.8487 96.0679C28.4726 98.2486 14.9068 98.5331 1.48332 97.9167L1.48332 97.4427C14.9068 97.7271 28.4252 97.1582 41.6115 94.6456C48.2047 93.4604 54.7505 91.8011 61.2962 90.3789C67.8894 88.9567 74.53 87.7715 81.218 87.1552C94.6415 85.8278 108.112 86.0648 121.536 86.9182C134.96 87.7715 148.288 90.4263 161.19 94.2663C174.092 98.059 187.278 100.714 200.702 101.567C214.078 102.468 227.549 102.658 240.925 101.378C247.613 100.761 254.206 99.576 260.752 98.1538C267.297 96.7316 273.843 95.0723 280.484 93.8871C293.717 91.3745 307.283 90.8056 320.754 91.09C334.178 91.4219 347.696 92.6545 360.835 95.736C367.381 97.253 373.832 99.1968 380.33 100.951C386.828 102.658 393.374 104.175 400.015 105.075C413.296 107.019 426.767 107.446 440.19 107.161C453.614 106.924 466.943 104.933 479.987 101.709C493.031 98.4856 506.454 96.4471 519.925 96.2101C533.396 95.9256 546.867 96.3523 560.196 98.296C566.884 99.1968 573.429 100.714 579.928 102.468C586.426 104.222 592.877 106.166 599.423 107.683C612.514 110.764 625.938 111.997 639.361 112.329L639.361 112.803L639.266 112.898Z" fill="url(#paint25_linear_175_1061)"/>
<path d="M639.692 95.0746C626.268 95.0746 612.703 94.1739 599.469 91.3768C592.828 90.002 586.33 88.2005 579.832 86.636C573.333 85.0716 566.835 83.7441 560.242 82.9856C547.103 81.2789 533.679 81.0419 520.398 81.4685C507.069 81.8952 494.168 84.0286 481.171 87.3945C474.673 89.0064 467.937 90.5708 461.154 91.5664C454.371 92.562 447.494 93.1783 440.663 93.3205C427.05 93.6523 413.437 93.3205 399.776 91.3768C392.946 90.476 386.21 88.959 379.617 87.2523C373.024 85.5456 366.621 83.6019 360.217 82.1797C347.41 79.193 334.271 78.1026 321.038 77.8182C307.756 77.4863 294.57 77.9604 281.668 80.3308C275.217 81.4686 268.719 83.0804 262.078 84.5027C255.438 85.9249 248.608 87.1101 241.73 87.679C228.022 88.959 214.408 88.6745 200.795 87.679C194.012 87.2049 187.182 86.3042 180.446 84.9767C173.711 83.6493 167.07 81.7531 160.667 79.8568C147.86 75.8745 135.053 73.1248 121.772 72.0818C108.538 70.9915 95.1146 70.6596 81.8808 71.7026C75.2402 72.1293 68.6944 73.1722 62.1013 74.4048C55.5555 75.6848 48.9624 77.1545 42.2743 78.2449C28.8982 80.4256 15.3324 80.7101 1.90893 80.0938L1.90893 79.6197C15.3324 79.9041 28.8508 79.3352 42.0372 76.8226C48.6304 75.6374 55.1761 73.9782 61.7218 72.5559C68.315 71.1337 74.9556 69.9485 81.6437 69.3322C95.0672 68.0048 108.538 68.2418 121.962 69.0952C135.385 69.9485 148.714 72.6033 161.616 76.4434C174.517 80.236 187.704 82.8908 201.127 83.7442C214.503 84.6449 227.974 84.8345 241.35 83.5545C248.038 82.9382 254.632 81.753 261.177 80.3308C267.723 78.9086 274.269 77.2493 280.909 76.0641C294.143 73.5515 307.709 72.9826 321.18 73.2671C334.603 73.5989 348.122 74.8315 361.261 77.913C367.806 79.43 374.257 81.3738 380.756 83.1278C387.254 84.8345 393.8 86.3516 400.44 87.2523C413.721 89.196 427.192 89.6227 440.616 89.3383C454.039 89.1012 467.368 87.1101 480.412 83.8864C493.456 80.6626 506.88 78.6241 520.351 78.3871C533.822 78.1026 547.293 78.5293 560.621 80.473C567.309 81.3738 573.855 82.8908 580.353 84.6449C586.852 86.3989 593.302 88.3427 599.848 89.8597C612.94 92.9413 626.363 94.1738 639.787 94.5057L639.787 94.9797L639.692 95.0746Z" fill="url(#paint26_linear_175_1061)"/>
<path d="M640.071 77.2516C626.648 77.2516 613.082 76.3509 599.848 73.5538C593.208 72.179 586.709 70.3775 580.211 68.8131C573.713 67.2486 567.214 65.9212 560.621 65.1626C547.482 63.456 534.059 63.2189 520.778 63.6456C507.449 64.0722 494.547 66.2056 481.551 69.5716C475.052 71.1834 468.317 72.7479 461.534 73.7435C454.751 74.739 447.873 75.3553 441.043 75.4975C427.43 75.8294 413.816 75.4976 400.156 73.5538C393.325 72.6531 386.59 71.136 379.997 69.4293C373.404 67.6752 367 65.779 360.597 64.3568C347.79 61.3701 334.651 60.2797 321.417 59.9952C308.136 59.6634 294.95 60.1374 282.048 62.5078C275.597 63.6456 269.099 65.2575 262.458 66.6797C255.817 68.1019 248.987 69.2871 242.109 69.8561C228.401 71.1361 214.788 70.8516 201.175 69.8561C194.392 69.382 187.561 68.4812 180.826 67.1538C174.09 65.8264 167.45 63.9301 161.046 62.0338C148.24 58.0515 135.433 55.3019 122.151 54.2589C108.918 53.1685 95.4941 52.8366 82.2603 53.8796C75.6197 54.3063 69.074 55.3493 62.4808 56.5819C55.9351 57.8619 49.3419 59.3315 42.6539 60.4219C29.2778 62.6027 15.712 62.8871 2.28847 62.2708L2.28847 61.7967C15.712 62.0811 29.2303 61.5123 42.4167 58.9997C49.0099 57.8145 55.5556 56.1552 62.1013 54.733C68.6945 53.3107 75.3352 52.1256 82.0232 51.5092C95.4467 50.1818 108.918 50.4188 122.341 51.2722C135.765 52.1255 149.093 54.7804 161.995 58.6204C174.897 62.413 188.083 65.0679 201.507 65.9212C214.883 66.822 228.354 67.0116 241.73 65.7316C248.418 65.1153 255.011 63.9301 261.557 62.5078C268.103 61.0856 274.648 59.4263 281.289 58.2411C294.523 55.7285 308.088 55.1596 321.559 55.4441C334.983 55.7759 348.501 57.0085 361.64 60.09C368.186 61.6071 374.637 63.5508 381.135 65.3049C387.633 67.0116 394.179 68.5286 400.82 69.4293C414.101 71.3731 427.572 71.7997 440.995 71.5153C454.419 71.2783 467.748 69.2871 480.792 66.0634C493.836 62.8397 507.259 60.8012 520.73 60.5641C534.201 60.2797 547.672 60.7063 561.001 62.6501C567.689 63.5508 574.235 65.0678 580.733 66.8219C587.231 68.576 593.682 70.5197 600.228 72.0368C613.319 75.1183 626.743 76.3508 640.166 76.6827L640.166 77.1568L640.071 77.2516Z" fill="url(#paint27_linear_175_1061)"/>
<path d="M640.499 59.4199C627.076 59.4199 613.51 58.5191 600.276 55.7221C593.636 54.3473 587.137 52.5458 580.639 50.9813C574.141 49.4169 567.642 48.0895 561.049 47.3309C547.91 45.6243 534.487 45.3872 521.205 45.8138C507.877 46.2405 494.975 48.3739 481.978 51.7398C475.48 53.3517 468.745 54.9162 461.962 55.9117C455.179 56.9073 448.301 57.5236 441.471 57.6658C427.857 57.9977 414.244 57.6658 400.584 55.7221C393.753 54.8214 387.018 53.3043 380.425 51.5976C373.831 49.8909 367.428 47.9472 361.024 46.525C348.218 43.5383 335.079 42.4479 321.845 42.1635C308.564 41.8316 295.377 42.3057 282.476 44.6761C276.025 45.8138 269.526 47.4258 262.886 48.848C256.245 50.2702 249.415 51.4554 242.537 52.0243C228.829 53.3043 215.216 53.0199 201.602 52.0243C194.82 51.5502 187.989 50.6495 181.254 49.3221C174.518 47.9947 167.878 46.0983 161.474 44.202C148.667 40.2198 135.86 37.4701 122.579 36.4271C109.345 35.3368 95.922 35.0049 82.6882 36.0479C76.0476 36.4745 69.5018 37.5175 62.9086 38.7501C56.3629 40.0302 49.7697 41.4998 43.0817 42.5902C29.7056 44.7709 16.1398 45.0554 2.71627 44.4391L2.71627 43.965C16.1398 44.2495 29.6582 43.6805 42.8445 41.1679C49.4377 39.9827 55.9834 38.3234 62.5292 36.9012C69.1224 35.479 75.763 34.2938 82.451 33.6775C95.8745 32.3501 109.345 32.5872 122.769 33.4405C136.192 34.2938 149.521 36.9486 162.423 40.7886C175.325 44.5812 188.511 47.2361 201.935 48.0894C215.311 48.9902 228.782 49.1798 242.158 47.8998C248.846 47.2835 255.439 46.0983 261.985 44.6761C268.53 43.2538 275.076 41.5946 281.717 40.4094C294.95 37.8968 308.516 37.3279 321.987 37.6124C335.411 37.9442 348.929 39.1768 362.068 42.2583C368.614 43.7753 375.065 45.7191 381.563 47.4731C388.061 49.1798 394.607 50.6968 401.248 51.5976C414.529 53.5413 428 53.968 441.423 53.6835C454.847 53.4465 468.175 51.4554 481.22 48.2317C494.264 45.0079 507.687 42.9694 521.158 42.7324C534.629 42.4479 548.1 42.8746 561.429 44.8184C568.117 45.7191 574.662 47.2361 581.161 48.9902C587.659 50.7443 594.11 52.688 600.656 54.205C613.747 57.2865 627.171 58.5191 640.594 58.851L640.594 59.3251L640.499 59.4199Z" fill="url(#paint28_linear_175_1061)"/>
<path d="M640.925 41.5969C627.501 41.5969 613.935 40.6962 600.702 37.8991C594.061 36.5243 587.563 34.7228 581.064 33.1583C574.566 31.5939 568.068 30.2665 561.475 29.5079C548.336 27.8013 534.912 27.5642 521.631 27.9909C508.302 28.4175 495.401 30.5509 482.404 33.9169C475.906 35.5287 469.17 37.0931 462.387 38.0888C455.604 39.0843 448.727 39.7006 441.896 39.8428C428.283 40.1747 414.67 39.8428 401.009 37.8991C394.179 36.9984 387.443 35.4813 380.85 33.7746C374.257 32.0679 367.854 30.1243 361.45 28.702C348.643 25.7153 335.504 24.6249 322.27 24.3405C308.989 24.0086 295.803 24.4827 282.901 26.8531C276.45 27.9909 269.952 29.6028 263.311 31.025C256.671 32.4472 249.84 33.6324 242.963 34.2013C229.255 35.4813 215.641 35.1968 202.028 34.2013C195.245 33.7272 188.415 32.8265 181.679 31.4991C174.944 30.1716 168.303 28.2753 161.9 26.379C149.093 22.3968 136.286 19.6471 123.005 18.6041C109.771 17.5137 96.3475 17.1819 83.1138 18.2249C76.4731 18.6516 69.9274 19.6946 63.3342 20.9272C56.7885 22.2072 50.1953 23.6768 43.5073 24.7672C30.1312 26.9479 16.5654 27.2324 3.14189 26.6161L3.14189 26.142C16.5654 26.4265 30.0837 25.8575 43.2701 23.3449C49.8633 22.1597 56.409 20.5005 62.9548 19.0782C69.5479 17.656 76.1886 16.4708 82.8766 15.8546C96.3001 14.5271 109.771 14.7641 123.195 15.6175C136.618 16.4708 149.947 19.1257 162.848 22.9657C175.75 26.7583 188.937 29.4131 202.36 30.2665C215.736 31.1672 229.207 31.3569 242.583 30.0768C249.271 29.4606 255.864 28.2753 262.41 26.8531C268.956 25.4309 275.502 23.7716 282.142 22.5864C295.376 20.0738 308.942 19.5049 322.413 19.7894C335.836 20.1212 349.355 21.3538 362.494 24.4353C369.039 25.9523 375.49 27.8961 381.989 29.6502C388.487 31.3568 395.033 32.8739 401.673 33.7746C414.954 35.7183 428.425 36.145 441.849 35.8605C455.272 35.6235 468.601 33.6324 481.645 30.4087C494.689 27.1849 508.113 25.1464 521.584 24.9094C535.055 24.6249 548.526 25.0516 561.854 26.9954C568.542 27.8961 575.088 29.4131 581.586 31.1672C588.085 32.9213 594.535 34.865 601.081 36.382C614.173 39.4635 627.596 40.6961 641.02 41.028L641.02 41.5021L640.925 41.5969Z" fill="url(#paint29_linear_175_1061)"/>
<path d="M641.353 23.7739C627.929 23.7739 614.363 22.8732 601.13 20.0287C594.489 18.6539 587.991 16.8524 581.492 15.288C574.994 13.7235 568.496 12.3961 561.903 11.6376C548.764 9.93091 535.34 9.69385 522.059 10.1205C508.73 10.5472 495.828 12.6805 482.832 16.0465C476.334 17.6583 469.598 19.2228 462.815 20.2184C456.032 21.2139 449.154 21.8302 442.324 21.9725C428.711 22.3043 415.098 21.9725 401.437 20.0288C394.607 19.128 387.871 17.6109 381.278 15.9042C374.685 14.1976 368.281 12.2538 361.878 10.8316C349.071 7.84491 335.932 6.75458 322.698 6.4701C309.417 6.13825 296.231 6.61237 283.329 8.98273C276.878 10.1205 270.38 11.7324 263.739 13.1547C257.099 14.5769 250.268 15.7621 243.39 16.3309C229.682 17.611 216.069 17.3265 202.456 16.3309C195.673 15.8569 188.843 14.9561 182.107 13.6287C175.372 12.3013 168.731 10.405 162.328 8.50867C149.521 4.52643 136.714 1.7768 123.433 0.733827C110.199 -0.356566 96.7754 -0.688414 83.5416 0.354554C76.901 0.78119 70.3552 1.82416 63.762 3.05676C57.2163 4.33679 50.6231 5.80646 43.9351 6.89679C30.559 9.07758 16.9931 9.362 3.56962 8.74573L3.56962 8.27161C16.9931 8.55603 30.5116 7.98718 43.6979 5.47455C50.2911 4.28937 56.8369 2.63013 63.3826 1.20789C69.9758 -0.214355 76.6164 -1.3996 83.3044 -2.01587C96.7279 -3.34326 110.199 -3.1062 123.622 -2.25287C137.046 -1.39953 150.375 1.25531 163.276 5.09528C176.178 8.88794 189.364 11.5427 202.788 12.3961C216.164 13.2968 229.635 13.4865 243.011 12.2064C249.699 11.5902 256.292 10.405 262.838 8.98273C269.384 7.56049 275.929 5.90125 282.57 4.71607C295.804 2.20343 309.37 1.63459 322.841 1.91901C336.264 2.25086 349.783 3.4834 362.921 6.56495C369.467 8.08197 375.918 10.0257 382.416 11.7798C388.915 13.4865 395.46 15.0035 402.101 15.9042C415.382 17.848 428.853 18.2747 442.277 17.9902C455.7 17.7532 469.029 15.762 482.073 12.5383C495.117 9.31458 508.54 7.27607 522.011 7.03901C535.482 6.75458 548.953 7.18122 562.282 9.12495C568.97 10.0257 575.516 11.5427 582.014 13.2968C588.512 15.0509 594.963 16.9946 601.509 18.5117C614.6 21.5932 628.024 22.8258 641.448 23.1576L641.448 23.6317L641.353 23.7739Z" fill="url(#paint30_linear_175_1061)"/>
<path d="M641.78 5.99488C628.357 5.99488 614.791 5.09412 601.557 2.29707C594.917 0.922248 588.418 -0.879265 581.92 -2.44372C575.422 -4.00817 568.924 -5.33563 562.33 -6.09411C549.191 -7.80077 535.768 -8.03784 522.487 -7.6112C509.158 -7.1845 496.256 -5.05114 483.26 -1.68524C476.761 -0.0733585 470.026 1.49116 463.243 2.4867C456.46 3.48224 449.582 4.09852 442.752 4.24079C429.139 4.57264 415.525 4.24079 401.865 2.29706C395.034 1.39631 388.299 -0.120784 381.706 -1.82745C375.113 -3.53411 368.709 -5.47778 362.306 -6.90002C349.499 -9.88671 336.36 -10.9771 323.126 -11.2615C309.845 -11.5934 296.659 -11.1193 283.757 -8.74896C277.306 -7.61114 270.808 -5.99933 264.167 -4.57708C257.526 -3.15484 250.696 -1.9696 243.818 -1.40075C230.11 -0.120725 216.497 -0.405149 202.884 -1.40075C196.101 -1.87481 189.27 -2.77557 182.535 -4.10296C175.799 -5.43042 169.159 -7.32666 162.755 -9.22302C149.949 -13.2053 137.142 -15.9549 123.86 -16.9979C110.627 -18.0883 97.2031 -18.4201 83.9694 -17.3771C77.3287 -16.9505 70.783 -15.9075 64.1898 -14.6749C57.6441 -13.3949 51.0509 -11.9252 44.3629 -10.8349C30.9868 -8.65411 17.421 -8.36969 3.99749 -8.98596L3.99749 -9.46008C17.421 -9.1756 30.9393 -9.74451 44.1257 -12.2571C50.7189 -13.4423 57.2646 -15.1016 63.8104 -16.5238C70.4035 -17.946 77.0442 -19.1312 83.7322 -19.7476C97.1557 -21.0749 110.627 -20.8379 124.05 -19.9846C137.474 -19.1312 150.802 -16.4764 163.704 -12.6364C176.606 -8.84375 189.792 -6.1889 203.216 -5.33557C216.592 -4.43481 230.063 -4.24518 243.439 -5.5252C250.127 -6.14148 256.72 -7.32672 263.266 -8.74896C269.812 -10.1712 276.357 -11.8304 282.998 -13.0156C296.232 -15.5283 309.797 -16.0971 323.268 -15.8127C336.692 -15.4808 350.21 -14.2483 363.349 -11.1667C369.895 -9.64971 376.346 -7.70599 382.844 -5.9519C389.342 -4.24523 395.888 -2.72821 402.529 -1.82745C415.81 0.116277 429.281 0.542974 442.705 0.25855C456.128 0.0214899 469.457 -1.96966 482.501 -5.19335C495.545 -8.41711 508.968 -10.4556 522.439 -10.6927C535.91 -10.9771 549.381 -10.5504 562.71 -8.60674C569.398 -7.70599 575.944 -6.18896 582.442 -4.43487C588.94 -2.68078 595.391 -0.737053 601.937 0.780037C615.028 3.86152 628.452 5.09406 641.875 5.42591L641.875 5.90003L641.78 5.99488Z" fill="url(#paint31_linear_175_1061)"/>
<path d="M642.206 -11.8281C628.783 -11.8281 615.217 -12.7289 601.983 -15.5734C595.342 -16.9482 588.844 -18.7497 582.346 -20.3141C575.847 -21.8786 569.349 -23.206 562.756 -23.9645C549.617 -25.6712 536.193 -25.9081 522.912 -25.4815C509.584 -25.0548 496.682 -22.9216 483.685 -19.5556C477.187 -17.9437 470.451 -16.3793 463.669 -15.3837C456.886 -14.3881 450.008 -13.7718 443.178 -13.6296C429.564 -13.2977 415.951 -13.6296 402.29 -15.5733C395.46 -16.4741 388.725 -17.9911 382.131 -19.6977C375.538 -21.4045 369.135 -23.3482 362.731 -24.7704C349.924 -27.7571 336.786 -28.8475 323.552 -29.132C310.271 -29.4638 297.084 -28.9897 284.182 -26.6194C277.732 -25.4816 271.233 -23.8697 264.593 -22.4474C257.952 -21.0252 251.122 -19.84 244.244 -19.2711C230.536 -17.9911 216.923 -18.2756 203.309 -19.2711C196.526 -19.7452 189.696 -20.6459 182.961 -21.9734C176.225 -23.3008 169.585 -25.1971 163.181 -27.0934C150.374 -31.0756 137.567 -33.8253 124.286 -34.8682C111.052 -35.9586 97.6288 -36.2905 84.395 -35.2476C77.7544 -34.8209 71.2086 -33.7779 64.6154 -32.5453C58.0697 -31.2653 51.4765 -29.7957 44.7885 -28.7053C31.4124 -26.5245 17.8466 -26.2401 4.4231 -26.8564L4.4231 -27.3304C17.8466 -27.046 31.365 -27.6149 44.5513 -30.1275C51.1445 -31.3127 57.6903 -32.972 64.236 -34.3942C70.8292 -35.8165 77.4698 -37.0016 84.1578 -37.6179C97.5813 -38.9453 111.052 -38.7083 124.476 -37.8549C137.899 -37.0016 151.228 -34.3468 164.13 -30.5068C177.031 -26.7141 190.218 -24.0593 203.641 -23.206C217.017 -22.3052 230.488 -22.1156 243.864 -23.3956C250.552 -24.0119 257.146 -25.1971 263.691 -26.6194C270.237 -28.0416 276.783 -29.7008 283.423 -30.886C296.657 -33.3986 310.223 -33.9675 323.694 -33.683C337.118 -33.3512 350.636 -32.1186 363.775 -29.037C370.321 -27.52 376.771 -25.5764 383.27 -23.8223C389.768 -22.1156 396.314 -20.5985 402.954 -19.6977C416.236 -17.7541 429.707 -17.3274 443.13 -17.6119C456.554 -17.8489 469.882 -19.8401 482.926 -23.0638C495.97 -26.2875 509.394 -28.326 522.865 -28.563C536.336 -28.8475 549.807 -28.4208 563.135 -26.4771C569.823 -25.5763 576.369 -24.0593 582.867 -22.3052C589.366 -20.5511 595.817 -18.6074 602.362 -17.0904C615.454 -14.0088 628.877 -12.7762 642.301 -12.4444L642.301 -11.9703L642.206 -11.8281Z" fill="url(#paint32_linear_175_1061)"/>
<path d="M642.586 -29.6598C629.162 -29.6598 615.596 -30.5606 602.362 -33.3577C595.722 -34.7325 589.224 -36.534 582.725 -38.0984C576.227 -39.6629 569.729 -40.9903 563.136 -41.7488C549.997 -43.4555 536.573 -43.6926 523.292 -43.2659C509.963 -42.8392 497.061 -40.7058 484.065 -37.3399C477.567 -35.728 470.831 -34.1636 464.048 -33.168C457.265 -32.1725 450.387 -31.5561 443.557 -31.4139C429.944 -31.0821 416.331 -31.4139 402.67 -33.3577C395.84 -34.2584 389.104 -35.7754 382.511 -37.4821C375.918 -39.1888 369.514 -41.1325 363.111 -42.5547C350.304 -45.5414 337.165 -46.6318 323.931 -46.9163C310.65 -47.2481 297.464 -46.774 284.562 -44.4037C278.111 -43.2659 271.613 -41.654 264.972 -40.2317C258.332 -38.8095 251.501 -37.6243 244.623 -37.0554C230.915 -35.7754 217.302 -36.0599 203.689 -37.0554C196.906 -37.5295 190.076 -38.4302 183.34 -39.7577C176.605 -41.0851 169.964 -42.9814 163.561 -44.8777C150.754 -48.86 137.947 -51.6096 124.666 -52.6525C111.432 -53.7429 98.0083 -54.0748 84.7745 -53.0318C78.1339 -52.6051 71.5882 -51.5623 64.995 -50.3296C58.4492 -49.0496 51.8561 -47.5799 45.168 -46.4896C31.7919 -44.3088 18.2262 -44.0244 4.80264 -44.6407L4.80264 -45.1147C18.2262 -44.8303 31.7445 -45.3992 44.9309 -47.9118C51.5241 -49.097 58.0698 -50.7563 64.6155 -52.1785C71.2087 -53.6008 77.8493 -54.7859 84.5374 -55.4022C97.9609 -56.7296 111.432 -56.4926 124.855 -55.6393C138.279 -54.7859 151.608 -52.1311 164.509 -48.2911C177.411 -44.4984 190.597 -41.8436 204.021 -40.9903C217.397 -40.0895 230.868 -39.8999 244.244 -41.1799C250.932 -41.7962 257.525 -42.9814 264.071 -44.4037C270.617 -45.8259 277.162 -47.4851 283.803 -48.6703C297.037 -51.1829 310.603 -51.7518 324.074 -51.4673C337.497 -51.1355 351.015 -49.9029 364.154 -46.8214C370.7 -45.3044 377.151 -43.3607 383.649 -41.6066C390.148 -39.9 396.693 -38.3828 403.334 -37.4821C416.615 -35.5384 430.086 -35.1118 443.51 -35.3962C456.933 -35.6332 470.262 -37.6244 483.306 -40.8481C496.35 -44.0718 509.773 -46.1103 523.244 -46.3473C536.715 -46.6318 550.186 -46.2051 563.515 -44.2614C570.203 -43.3606 576.749 -41.8436 583.247 -40.0895C589.745 -38.3354 596.196 -36.3918 602.742 -34.8747C615.833 -31.7932 629.257 -30.5606 642.68 -30.2288L642.68 -29.7546L642.586 -29.6598Z" fill="url(#paint33_linear_175_1061)"/>
<path d="M643.013 -47.4828C629.59 -47.4828 616.024 -48.3836 602.79 -51.1807C596.15 -52.5555 589.651 -54.3569 583.153 -55.9214C576.655 -57.4858 570.157 -58.8133 563.563 -59.5718C550.424 -61.2785 537.001 -61.5155 523.72 -61.0888C510.391 -60.6622 497.489 -58.5288 484.493 -55.1628C477.994 -53.551 471.259 -51.9866 464.476 -50.991C457.693 -49.9955 450.815 -49.3791 443.985 -49.2369C430.372 -48.905 416.758 -49.2369 403.098 -51.1807C396.267 -52.0814 389.532 -53.5984 382.939 -55.3051C376.346 -57.0118 369.942 -58.9555 363.539 -60.3777C350.732 -63.3644 337.593 -64.4548 324.359 -64.7392C311.078 -65.0711 297.892 -64.597 284.99 -62.2266C278.539 -61.0889 272.041 -59.4769 265.4 -58.0547C258.759 -56.6325 251.929 -55.4473 245.051 -54.8784C231.343 -53.5984 217.73 -53.8829 204.117 -54.8784C197.334 -55.3525 190.503 -56.2533 183.768 -57.5807C177.032 -58.9081 170.392 -60.8044 163.988 -62.7007C151.182 -66.683 138.375 -69.4326 125.093 -70.4756C111.86 -71.5659 98.4361 -71.8978 85.2023 -70.8549C78.5617 -70.4282 72.016 -69.3852 65.4228 -68.1526C58.8771 -66.8726 52.2839 -65.403 45.5959 -64.3126C32.2198 -62.1318 18.654 -61.8474 5.23045 -62.4636L5.23045 -62.9378C18.654 -62.6533 32.1723 -63.2222 45.3587 -65.7348C51.9519 -66.92 58.4976 -68.5792 65.0434 -70.0015C71.6365 -71.4237 78.2771 -72.6089 84.9652 -73.2252C98.3887 -74.5527 111.86 -74.3156 125.283 -73.4622C138.707 -72.6089 152.035 -69.9541 164.937 -66.1141C177.839 -62.3215 191.025 -59.6666 204.449 -58.8132C217.825 -57.9125 231.296 -57.723 244.672 -59.0029C251.36 -59.6193 257.953 -60.8044 264.499 -62.2266C271.045 -63.6489 277.59 -65.3082 284.231 -66.4933C297.465 -69.006 311.03 -69.5748 324.501 -69.2904C337.925 -68.9586 351.443 -67.7259 364.582 -64.6444C371.128 -63.1274 377.579 -61.1837 384.077 -59.4296C390.575 -57.7229 397.121 -56.2059 403.762 -55.3051C417.043 -53.3614 430.514 -52.9347 443.937 -53.2192C457.361 -53.4562 470.69 -55.4473 483.734 -58.6711C496.778 -61.8948 510.201 -63.9333 523.672 -64.1704C537.143 -64.4548 550.614 -64.0281 563.943 -62.0844C570.631 -61.1837 577.177 -59.6666 583.675 -57.9125C590.173 -56.1584 596.624 -54.2148 603.17 -52.6977C616.261 -49.6162 629.685 -48.3835 643.108 -48.0517L643.108 -47.5776L643.013 -47.4828Z" fill="url(#paint34_linear_175_1061)"/>
<path d="M643.439 -65.3058C630.016 -65.3058 616.45 -66.2065 603.216 -69.051C596.575 -70.4258 590.077 -72.2273 583.579 -73.7917C577.08 -75.3562 570.582 -76.6836 563.989 -77.4422C550.85 -79.1489 537.426 -79.3859 524.145 -78.9592C510.817 -78.5325 497.915 -76.3992 484.918 -73.0332C478.42 -71.4213 471.684 -69.8569 464.902 -68.8614C458.119 -67.8658 451.241 -67.2494 444.411 -67.1072C430.797 -66.7754 417.184 -67.1073 403.523 -69.051C396.693 -69.9517 389.958 -71.4687 383.364 -73.1754C376.771 -74.8821 370.368 -76.8259 363.964 -78.2481C351.157 -81.2348 338.018 -82.3251 324.785 -82.6096C311.503 -82.9414 298.317 -82.4673 285.415 -80.097C278.965 -78.9592 272.466 -77.3473 265.826 -75.925C259.185 -74.5028 252.355 -73.3176 245.477 -72.7488C231.769 -71.4687 218.155 -71.7532 204.542 -72.7488C197.759 -73.2228 190.929 -74.1237 184.194 -75.451C177.458 -76.7784 170.817 -78.6747 164.414 -80.571C151.607 -84.5532 138.8 -87.3029 125.519 -88.3458C112.285 -89.4362 98.8617 -89.7681 85.6279 -88.7251C78.9873 -88.2985 72.4416 -87.2556 65.8484 -86.0229C59.3027 -84.7429 52.7095 -83.2733 46.0214 -82.1829C32.6454 -80.0022 19.0796 -79.7178 5.65606 -80.334L5.65606 -80.808C19.0796 -80.5236 32.5979 -81.0925 45.7843 -83.6051C52.3775 -84.7903 58.9232 -86.4496 65.4689 -87.8718C72.0621 -89.2941 78.7027 -90.4792 85.3908 -91.0955C98.8143 -92.4229 112.285 -92.1859 125.709 -91.3326C139.132 -90.4792 152.461 -87.8244 165.363 -83.9844C178.264 -80.1918 191.451 -77.5369 204.874 -76.6836C218.25 -75.7828 231.721 -75.5932 245.097 -76.8732C251.785 -77.4895 258.379 -78.6747 264.924 -80.097C271.47 -81.5192 278.016 -83.1784 284.656 -84.3636C297.89 -86.8762 311.456 -87.4451 324.927 -87.1606C338.351 -86.8288 351.869 -85.5962 365.008 -82.5148C371.554 -80.9977 378.004 -79.054 384.503 -77.2999C391.001 -75.5933 397.547 -74.0761 404.187 -73.1754C417.469 -71.2317 430.94 -70.805 444.363 -71.0894C457.787 -71.3265 471.115 -73.3177 484.159 -76.5414C497.203 -79.7651 510.627 -81.8037 524.098 -82.0407C537.569 -82.3252 551.04 -81.8985 564.368 -79.9548C571.056 -79.054 577.602 -77.5369 584.1 -75.7829C590.599 -74.0288 597.05 -72.085 603.595 -70.568C616.687 -67.4864 630.11 -66.2539 643.534 -65.9221L643.534 -65.4481L643.439 -65.3058Z" fill="url(#paint35_linear_175_1061)"/>
<path d="M643.867 -83.1288C630.443 -83.1288 616.877 -84.0295 603.644 -86.8266C597.003 -88.2014 590.505 -90.0029 584.006 -91.5673C577.508 -93.1318 571.01 -94.4592 564.417 -95.2178C551.278 -96.9244 537.854 -97.1614 524.573 -96.7347C511.244 -96.3081 498.343 -94.1747 485.346 -90.8088C478.848 -89.197 472.112 -87.6325 465.329 -86.637C458.546 -85.6414 451.669 -85.025 444.838 -84.8828C431.225 -84.551 417.612 -84.8829 403.951 -86.8266C397.121 -87.7274 390.385 -89.2443 383.792 -90.951C377.199 -92.6576 370.796 -94.6014 364.392 -96.0237C351.585 -99.0104 338.446 -100.101 325.213 -100.385C311.931 -100.717 298.745 -100.243 285.843 -97.8726C279.392 -96.7348 272.894 -95.1229 266.253 -93.7007C259.613 -92.2784 252.782 -91.0933 245.905 -90.5243C232.197 -89.2443 218.583 -89.5288 204.97 -90.5244C198.187 -90.9984 191.357 -91.8992 184.621 -93.2266C177.886 -94.5541 171.245 -96.4503 164.842 -98.3466C152.035 -102.329 139.228 -105.078 125.947 -106.121C112.713 -107.212 99.2895 -107.544 86.0558 -106.501C79.4152 -106.074 72.8694 -105.031 66.2762 -103.799C59.7305 -102.519 53.1373 -101.049 46.4493 -99.9585C33.0732 -97.7778 19.5073 -97.4933 6.08379 -98.1096L6.08379 -98.5837C19.5073 -98.2992 33.0258 -98.8681 46.2121 -101.381C52.8053 -102.566 59.351 -104.225 65.8968 -105.647C72.4899 -107.07 79.1305 -108.255 85.8186 -108.871C99.2421 -110.199 112.713 -109.961 126.137 -109.108C139.56 -108.255 152.889 -105.6 165.79 -101.76C178.692 -97.9673 191.879 -95.3125 205.302 -94.4592C218.678 -93.5584 232.149 -93.3688 245.525 -94.6488C252.213 -95.2651 258.806 -96.4503 265.352 -97.8726C271.898 -99.2948 278.444 -100.954 285.084 -102.139C298.318 -104.652 311.884 -105.221 325.355 -104.936C338.778 -104.604 352.297 -103.372 365.436 -100.29C371.981 -98.7733 378.432 -96.8296 384.931 -95.0755C391.429 -93.3688 397.975 -91.8517 404.615 -90.951C417.896 -89.0073 431.367 -88.5806 444.791 -88.865C458.214 -89.102 471.543 -91.0933 484.587 -94.317C497.631 -97.5407 511.055 -99.5793 524.526 -99.8163C537.997 -100.101 551.467 -99.6741 564.796 -97.7303C571.484 -96.8296 578.03 -95.3126 584.528 -93.5585C591.027 -91.8044 597.477 -89.8606 604.023 -88.3436C617.115 -85.2621 630.538 -84.0295 643.962 -83.6976L643.962 -83.2236L643.867 -83.1288Z" fill="url(#paint36_linear_175_1061)"/>
</g>
</g>
<defs>
<linearGradient id="paint0_linear_175_1061" x1="-9" y1="224.315" x2="643.962" y2="224.315" gradientUnits="userSpaceOnUse">
<stop stop-color="#26AAE1" stop-opacity="0.25"/>
<stop offset="1" stop-color="#3882C4" stop-opacity="0.75"/>
</linearGradient>
<linearGradient id="paint1_linear_175_1061" x1="-9" y1="224.315" x2="643.962" y2="224.315" gradientUnits="userSpaceOnUse">
<stop stop-color="#26AAE1" stop-opacity="0.25"/>
<stop offset="1" stop-color="#3882C4" stop-opacity="0.75"/>
</linearGradient>
<linearGradient id="paint2_linear_175_1061" x1="-9" y1="224.315" x2="643.962" y2="224.315" gradientUnits="userSpaceOnUse">
<stop stop-color="#26AAE1" stop-opacity="0.25"/>
<stop offset="1" stop-color="#3882C4" stop-opacity="0.75"/>
</linearGradient>
<linearGradient id="paint3_linear_175_1061" x1="-9" y1="224.315" x2="643.962" y2="224.315" gradientUnits="userSpaceOnUse">
<stop stop-color="#26AAE1" stop-opacity="0.25"/>
<stop offset="1" stop-color="#3882C4" stop-opacity="0.75"/>
</linearGradient>
<linearGradient id="paint4_linear_175_1061" x1="-9" y1="224.315" x2="643.962" y2="224.315" gradientUnits="userSpaceOnUse">
<stop stop-color="#26AAE1" stop-opacity="0.25"/>
<stop offset="1" stop-color="#3882C4" stop-opacity="0.75"/>
</linearGradient>
<linearGradient id="paint5_linear_175_1061" x1="-9" y1="224.315" x2="643.962" y2="224.315" gradientUnits="userSpaceOnUse">
<stop stop-color="#26AAE1" stop-opacity="0.25"/>
<stop offset="1" stop-color="#3882C4" stop-opacity="0.75"/>
</linearGradient>
<linearGradient id="paint6_linear_175_1061" x1="-9" y1="224.315" x2="643.962" y2="224.315" gradientUnits="userSpaceOnUse">
<stop stop-color="#26AAE1" stop-opacity="0.25"/>
<stop offset="1" stop-color="#3882C4" stop-opacity="0.75"/>
</linearGradient>
<linearGradient id="paint7_linear_175_1061" x1="-9" y1="224.315" x2="643.962" y2="224.315" gradientUnits="userSpaceOnUse">
<stop stop-color="#26AAE1" stop-opacity="0.25"/>
<stop offset="1" stop-color="#3882C4" stop-opacity="0.75"/>
</linearGradient>
<linearGradient id="paint8_linear_175_1061" x1="-9" y1="224.315" x2="643.962" y2="224.315" gradientUnits="userSpaceOnUse">
<stop stop-color="#26AAE1" stop-opacity="0.25"/>
<stop offset="1" stop-color="#3882C4" stop-opacity="0.75"/>
</linearGradient>
<linearGradient id="paint9_linear_175_1061" x1="-9" y1="224.315" x2="643.962" y2="224.315" gradientUnits="userSpaceOnUse">
<stop stop-color="#26AAE1" stop-opacity="0.25"/>
<stop offset="1" stop-color="#3882C4" stop-opacity="0.75"/>
</linearGradient>
<linearGradient id="paint10_linear_175_1061" x1="-9" y1="224.315" x2="643.962" y2="224.315" gradientUnits="userSpaceOnUse">
<stop stop-color="#26AAE1" stop-opacity="0.25"/>
<stop offset="1" stop-color="#3882C4" stop-opacity="0.75"/>
</linearGradient>
<linearGradient id="paint11_linear_175_1061" x1="-9" y1="224.315" x2="643.962" y2="224.315" gradientUnits="userSpaceOnUse">
<stop stop-color="#26AAE1" stop-opacity="0.25"/>
<stop offset="1" stop-color="#3882C4" stop-opacity="0.75"/>
</linearGradient>
<linearGradient id="paint12_linear_175_1061" x1="-9" y1="224.315" x2="643.962" y2="224.315" gradientUnits="userSpaceOnUse">
<stop stop-color="#26AAE1" stop-opacity="0.25"/>
<stop offset="1" stop-color="#3882C4" stop-opacity="0.75"/>
</linearGradient>
<linearGradient id="paint13_linear_175_1061" x1="-9" y1="224.315" x2="643.962" y2="224.315" gradientUnits="userSpaceOnUse">
<stop stop-color="#26AAE1" stop-opacity="0.25"/>
<stop offset="1" stop-color="#3882C4" stop-opacity="0.75"/>
</linearGradient>
<linearGradient id="paint14_linear_175_1061" x1="-9" y1="224.315" x2="643.962" y2="224.315" gradientUnits="userSpaceOnUse">
<stop stop-color="#26AAE1" stop-opacity="0.25"/>
<stop offset="1" stop-color="#3882C4" stop-opacity="0.75"/>
</linearGradient>
<linearGradient id="paint15_linear_175_1061" x1="-9" y1="224.315" x2="643.962" y2="224.315" gradientUnits="userSpaceOnUse">
<stop stop-color="#26AAE1" stop-opacity="0.25"/>
<stop offset="1" stop-color="#3882C4" stop-opacity="0.75"/>
</linearGradient>
<linearGradient id="paint16_linear_175_1061" x1="-9" y1="224.315" x2="643.962" y2="224.315" gradientUnits="userSpaceOnUse">
<stop stop-color="#26AAE1" stop-opacity="0.25"/>
<stop offset="1" stop-color="#3882C4" stop-opacity="0.75"/>
</linearGradient>
<linearGradient id="paint17_linear_175_1061" x1="-9" y1="224.315" x2="643.962" y2="224.315" gradientUnits="userSpaceOnUse">
<stop stop-color="#26AAE1" stop-opacity="0.25"/>
<stop offset="1" stop-color="#3882C4" stop-opacity="0.75"/>
</linearGradient>
<linearGradient id="paint18_linear_175_1061" x1="-9" y1="224.315" x2="643.962" y2="224.315" gradientUnits="userSpaceOnUse">
<stop stop-color="#26AAE1" stop-opacity="0.25"/>
<stop offset="1" stop-color="#3882C4" stop-opacity="0.75"/>
</linearGradient>
<linearGradient id="paint19_linear_175_1061" x1="-9" y1="224.315" x2="643.962" y2="224.315" gradientUnits="userSpaceOnUse">
<stop stop-color="#26AAE1" stop-opacity="0.25"/>
<stop offset="1" stop-color="#3882C4" stop-opacity="0.75"/>
</linearGradient>
<linearGradient id="paint20_linear_175_1061" x1="-9" y1="224.315" x2="643.962" y2="224.315" gradientUnits="userSpaceOnUse">
<stop stop-color="#26AAE1" stop-opacity="0.25"/>
<stop offset="1" stop-color="#3882C4" stop-opacity="0.75"/>
</linearGradient>
<linearGradient id="paint21_linear_175_1061" x1="-9" y1="224.315" x2="643.962" y2="224.315" gradientUnits="userSpaceOnUse">
<stop stop-color="#26AAE1" stop-opacity="0.25"/>
<stop offset="1" stop-color="#3882C4" stop-opacity="0.75"/>
</linearGradient>
<linearGradient id="paint22_linear_175_1061" x1="-9" y1="224.315" x2="643.962" y2="224.315" gradientUnits="userSpaceOnUse">
<stop stop-color="#26AAE1" stop-opacity="0.25"/>
<stop offset="1" stop-color="#3882C4" stop-opacity="0.75"/>
</linearGradient>
<linearGradient id="paint23_linear_175_1061" x1="-9" y1="224.315" x2="643.962" y2="224.315" gradientUnits="userSpaceOnUse">
<stop stop-color="#26AAE1" stop-opacity="0.25"/>
<stop offset="1" stop-color="#3882C4" stop-opacity="0.75"/>
</linearGradient>
<linearGradient id="paint24_linear_175_1061" x1="-9" y1="224.315" x2="643.962" y2="224.315" gradientUnits="userSpaceOnUse">
<stop stop-color="#26AAE1" stop-opacity="0.25"/>
<stop offset="1" stop-color="#3882C4" stop-opacity="0.75"/>
</linearGradient>
<linearGradient id="paint25_linear_175_1061" x1="-9" y1="224.315" x2="643.962" y2="224.315" gradientUnits="userSpaceOnUse">
<stop stop-color="#26AAE1" stop-opacity="0.25"/>
<stop offset="1" stop-color="#3882C4" stop-opacity="0.75"/>
</linearGradient>
<linearGradient id="paint26_linear_175_1061" x1="-9" y1="224.315" x2="643.962" y2="224.315" gradientUnits="userSpaceOnUse">
<stop stop-color="#26AAE1" stop-opacity="0.25"/>
<stop offset="1" stop-color="#3882C4" stop-opacity="0.75"/>
</linearGradient>
<linearGradient id="paint27_linear_175_1061" x1="-9" y1="224.315" x2="643.962" y2="224.315" gradientUnits="userSpaceOnUse">
<stop stop-color="#26AAE1" stop-opacity="0.25"/>
<stop offset="1" stop-color="#3882C4" stop-opacity="0.75"/>
</linearGradient>
<linearGradient id="paint28_linear_175_1061" x1="-9" y1="224.315" x2="643.962" y2="224.315" gradientUnits="userSpaceOnUse">
<stop stop-color="#26AAE1" stop-opacity="0.25"/>
<stop offset="1" stop-color="#3882C4" stop-opacity="0.75"/>
</linearGradient>
<linearGradient id="paint29_linear_175_1061" x1="-9" y1="224.315" x2="643.962" y2="224.315" gradientUnits="userSpaceOnUse">
<stop stop-color="#26AAE1" stop-opacity="0.25"/>
<stop offset="1" stop-color="#3882C4" stop-opacity="0.75"/>
</linearGradient>
<linearGradient id="paint30_linear_175_1061" x1="-9" y1="224.315" x2="643.962" y2="224.315" gradientUnits="userSpaceOnUse">
<stop stop-color="#26AAE1" stop-opacity="0.25"/>
<stop offset="1" stop-color="#3882C4" stop-opacity="0.75"/>
</linearGradient>
<linearGradient id="paint31_linear_175_1061" x1="-9" y1="224.315" x2="643.962" y2="224.315" gradientUnits="userSpaceOnUse">
<stop stop-color="#26AAE1" stop-opacity="0.25"/>
<stop offset="1" stop-color="#3882C4" stop-opacity="0.75"/>
</linearGradient>
<linearGradient id="paint32_linear_175_1061" x1="-9" y1="224.315" x2="643.962" y2="224.315" gradientUnits="userSpaceOnUse">
<stop stop-color="#26AAE1" stop-opacity="0.25"/>
<stop offset="1" stop-color="#3882C4" stop-opacity="0.75"/>
</linearGradient>
<linearGradient id="paint33_linear_175_1061" x1="-9" y1="224.315" x2="643.962" y2="224.315" gradientUnits="userSpaceOnUse">
<stop stop-color="#26AAE1" stop-opacity="0.25"/>
<stop offset="1" stop-color="#3882C4" stop-opacity="0.75"/>
</linearGradient>
<linearGradient id="paint34_linear_175_1061" x1="-9" y1="224.315" x2="643.962" y2="224.315" gradientUnits="userSpaceOnUse">
<stop stop-color="#26AAE1" stop-opacity="0.25"/>
<stop offset="1" stop-color="#3882C4" stop-opacity="0.75"/>
</linearGradient>
<linearGradient id="paint35_linear_175_1061" x1="-9" y1="224.315" x2="643.962" y2="224.315" gradientUnits="userSpaceOnUse">
<stop stop-color="#26AAE1" stop-opacity="0.25"/>
<stop offset="1" stop-color="#3882C4" stop-opacity="0.75"/>
</linearGradient>
<linearGradient id="paint36_linear_175_1061" x1="-9" y1="224.315" x2="643.962" y2="224.315" gradientUnits="userSpaceOnUse">
<stop stop-color="#26AAE1" stop-opacity="0.25"/>
<stop offset="1" stop-color="#3882C4" stop-opacity="0.75"/>
</linearGradient>
</defs>
</svg>
